<svg width="175" height="17" viewBox="0 0 175 17" fill="none" xmlns="http://www.w3.org/2000/svg">
<path d="M0.492383 7.36108C2.14177 7.33254 3.80674 7.14283 5.43873 7.30645C16.6589 8.4277 27.86 9.8781 39.103 10.714C50.4328 11.5549 61.805 12.0929 73.1696 12.2316C83.1104 12.3559 93.0731 12.0077 102.996 11.3707C111.459 10.8292 119.879 9.53731 128.324 8.65201C140.799 7.33472 153.032 4.7194 165.208 1.80779C166.904 1.40182 168.55 0.799605 170.246 0.393634C171.79 0.0224705 173.042 0.419518 173.892 1.95233C174.877 3.73608 174.576 4.63474 172.613 5.03137C160.943 7.36169 149.296 9.84908 137.579 11.9274C131.699 12.9683 125.685 13.3096 119.721 13.8659C114.963 14.3116 110.184 14.9119 105.424 14.8713C102.434 14.8405 99.6023 15.5293 96.7029 15.672C90.1872 15.9841 83.6573 15.9028 77.1341 16.0213C73.3621 16.0882 69.5934 16.3049 65.8262 16.2973C62.4563 16.2941 59.0743 16.1781 55.7138 15.9075C53.8697 15.7564 52.0657 15.1278 50.2229 14.8459C49.4403 14.7255 48.4612 14.6684 47.8246 15.0303C45.118 16.5615 42.8222 13.9098 39.8471 14.6028C36.3108 15.4313 32.2746 14.1615 28.4616 13.7586C26.4596 13.5422 24.4456 13.3189 22.4719 12.9359C19.8584 12.4346 17.2878 11.7302 14.6817 11.2106C13.8702 11.0511 12.9424 11.3959 12.152 11.1941C10.7612 10.8388 9.46016 10.1148 8.06248 9.77163C5.54263 9.15736 2.98824 8.70936 0.444031 8.19339C0.459908 7.9201 0.482002 7.64716 0.504074 7.37422L0.492383 7.36108Z" fill="url(#paint0_linear_1_400)"/>
<defs>
<linearGradient id="paint0_linear_1_400" x1="86.7444" y1="17.8958" x2="88.0542" y2="-4.59011" gradientUnits="userSpaceOnUse">
<stop stop-color="#102770"/>
<stop offset="0.0001" stop-color="#2983D3"/>
</linearGradient>
</defs>
</svg>
