<svg width="26" height="26" viewBox="0 0 26 26" fill="none" xmlns="http://www.w3.org/2000/svg">
<path d="M2.70834 13C2.70834 8.14848 2.70834 5.72271 4.21552 4.21552C5.72271 2.70834 8.14848 2.70834 13 2.70834C17.8515 2.70834 20.2773 2.70834 21.7845 4.21552C23.2917 5.72271 23.2917 8.14848 23.2917 13C23.2917 17.8515 23.2917 20.2773 21.7845 21.7845C20.2773 23.2917 17.8515 23.2917 13 23.2917C8.14848 23.2917 5.72271 23.2917 4.21552 21.7845C2.70834 20.2773 2.70834 17.8515 2.70834 13Z" stroke="white"/>
<path d="M10.8333 7.58334C10.8333 7.58334 15.1667 11.5726 15.1667 13C15.1667 14.4274 10.8333 18.4167 10.8333 18.4167" stroke="white" stroke-linecap="round" stroke-linejoin="round"/>
</svg>
