<svg width="17" height="17" viewBox="0 0 17 17" fill="none" xmlns="http://www.w3.org/2000/svg">
<path d="M7.69746 5.10988L10.6866 9.96055C10.7194 10.0139 10.7351 10.076 10.7317 10.1385C10.7282 10.201 10.7059 10.261 10.6675 10.3105C10.3133 10.7709 9.95279 11.1831 9.65033 11.458C9.65033 11.458 9.40808 11.6945 9.25437 11.7965C9.03837 11.9591 8.77453 12.0453 8.50425 12.0416C8.20533 12.0416 7.92342 11.9545 7.69675 11.781C7.65637 11.7413 7.47858 11.5911 7.33337 11.4495C6.42954 10.6214 4.93637 8.461 4.48375 7.32484C4.41079 7.1598 4.2585 6.7185 4.25 6.489C4.25 6.26871 4.29817 6.0555 4.40371 5.8508C4.54892 5.59863 4.77417 5.40171 5.04121 5.29121C5.22679 5.21967 5.78354 5.10917 5.79983 5.10917C6.19721 5.03834 6.75608 4.98521 7.40775 4.9583C7.4652 4.95589 7.52227 4.96862 7.57324 4.99523C7.62421 5.02183 7.66729 5.06137 7.69817 5.10988H7.69746Z" fill="#13519C"/>
<path opacity="0.4" d="M9.30746 5.43431C9.17501 5.22039 9.3443 4.95123 9.59788 4.96185C10.195 4.98735 10.7206 5.03198 11.1116 5.08581C11.1201 5.09431 11.8128 5.2041 12.048 5.33089C12.4836 5.55119 12.75 5.98469 12.75 6.45006V6.48902C12.7422 6.78935 12.4758 7.42827 12.4595 7.42827C12.325 7.74985 12.0983 8.16989 11.8263 8.62181C11.7975 8.66877 11.7572 8.70763 11.7092 8.73475C11.6613 8.76187 11.6072 8.77635 11.5521 8.77685C11.497 8.77735 11.4427 8.76383 11.3943 8.73758C11.3458 8.71133 11.3049 8.6732 11.2752 8.62677L9.30746 5.43431Z" fill="#13519C"/>
</svg>
