<svg width="53" height="53" viewBox="0 0 53 53" fill="none" xmlns="http://www.w3.org/2000/svg">
<path d="M46.0934 20.2062C46.4052 19.9265 46.6449 19.5757 46.7919 19.1835C46.939 18.7913 46.9891 18.3694 46.9381 17.9537C46.8984 17.5727 46.7466 17.2119 46.5019 16.9172C46.2572 16.6224 45.9306 16.4067 45.5634 16.2974C45.2563 16.5771 45.0196 16.9255 44.8728 17.3141C44.726 17.7027 44.6732 18.1205 44.7187 18.5334C44.7575 18.9167 44.9087 19.2799 45.1533 19.5776C45.3978 19.8752 45.7249 20.0939 46.0934 20.2062ZM47.1037 21.1171C46.7657 21.3996 46.5004 21.7592 46.3304 22.1656C46.1603 22.572 46.0904 23.0134 46.1266 23.4524C46.5555 23.4901 46.9876 23.4364 47.3943 23.2949C47.8011 23.1534 48.1732 22.9273 48.4862 22.6316C48.7991 22.3358 49.0459 21.9771 49.2101 21.579C49.3744 21.1809 49.4524 20.7526 49.4391 20.3221C49.0148 20.2649 48.5831 20.3069 48.1779 20.4449C47.7726 20.5828 47.4049 20.8129 47.1037 21.1171ZM45.7125 23.3696C45.8224 22.9737 45.8202 22.555 45.7061 22.1602C45.5921 21.7654 45.3707 21.4101 45.0666 21.1337C44.7624 20.8525 44.3875 20.6593 43.982 20.5747C43.5765 20.4901 43.1556 20.5173 42.7644 20.6534C42.6486 21.0476 42.6462 21.4664 42.7575 21.8618C42.8689 22.2573 43.0894 22.6134 43.3937 22.8893C43.7014 23.1703 44.0791 23.3633 44.4872 23.4478C44.8952 23.5323 45.3185 23.5053 45.7125 23.3696ZM45.7291 26.2349C45.3167 26.495 44.9704 26.8473 44.7174 27.2641C44.4645 27.6808 44.3119 28.1507 44.2716 28.6365C44.727 28.7797 45.2102 28.8108 45.6803 28.7272C46.1503 28.6436 46.5932 28.4477 46.9712 28.1562C47.381 27.8933 47.7254 27.5403 47.978 27.1241C48.2305 26.7079 48.3847 26.2395 48.4287 25.7546C47.9739 25.6071 47.4897 25.5738 47.0189 25.6575C46.5481 25.7413 46.1051 25.9396 45.7291 26.2349ZM43.8409 28.4543C44.0288 28.0434 44.1018 27.5892 44.0522 27.1401C44.0026 26.691 43.8323 26.2638 43.5594 25.9037C43.289 25.5459 42.9239 25.2709 42.5053 25.1099C42.0867 24.9489 41.6314 24.9083 41.1909 24.9928C40.9937 25.3979 40.9096 25.8487 40.9475 26.2977C40.9854 26.7467 41.1439 27.1771 41.4062 27.5434C41.6818 27.9129 42.058 28.1952 42.4897 28.3567C42.9214 28.5183 43.3905 28.5521 43.8409 28.4543ZM44.3047 31.5515C43.7981 31.7479 43.3418 32.055 42.9693 32.4505C42.5967 32.846 42.3173 33.3197 42.1516 33.8371C42.5791 34.1121 43.0698 34.2731 43.5771 34.305C44.0844 34.3369 44.5914 34.2386 45.05 34.0193C45.5566 33.823 46.0129 33.5158 46.3854 33.1203C46.7579 32.7249 47.0373 32.2511 47.2031 31.7337C46.7774 31.4542 46.2863 31.2904 45.778 31.2585C45.2698 31.2265 44.762 31.3275 44.3047 31.5515ZM39.5678 31.9159C39.7294 32.3761 40.0229 32.7785 40.4117 33.073C40.8004 33.3676 41.2673 33.5412 41.7541 33.5721C42.0595 33.1619 42.2574 32.6818 42.3297 32.1756C42.402 31.6693 42.3465 31.153 42.1681 30.6737C42.0035 30.2122 41.7071 29.8092 41.3154 29.5148C40.9238 29.2203 40.4543 29.0474 39.9653 29.0174C39.6584 29.4271 39.4609 29.9081 39.3914 30.4152C39.3218 30.9223 39.3825 31.4387 39.5678 31.9159ZM41.4062 35.9571C40.8786 36.0937 40.388 36.3458 39.9697 36.6953C39.5515 37.0447 39.2162 37.4828 38.9881 37.9778C39.3612 38.3142 39.818 38.544 40.3105 38.643C40.8029 38.7421 41.313 38.7068 41.7872 38.5409C42.3162 38.4083 42.8092 38.1597 43.2303 37.8131C43.6514 37.4665 43.9901 37.0305 44.2219 36.5368C43.8461 36.1992 43.3873 35.9676 42.8925 35.8658C42.3978 35.7639 41.8848 35.7954 41.4062 35.9571ZM37.5969 32.8268C37.2384 33.2019 36.9783 33.6597 36.8396 34.1597C36.7009 34.6596 36.6879 35.186 36.8019 35.6921C36.8949 36.1661 37.1249 36.6023 37.4635 36.9468C37.8021 37.2912 38.2343 37.5288 38.7066 37.6299C39.0536 37.2507 39.3076 36.7958 39.4485 36.3013C39.5894 35.8069 39.6132 35.2864 39.5181 34.7812C39.4269 34.302 39.1957 33.8606 38.8537 33.5128C38.5118 33.1649 38.0744 32.9262 37.5969 32.8268ZM37.3484 40.0315C36.7623 39.9842 36.1732 40.0732 35.6273 40.2916C35.0813 40.51 34.5934 40.8518 34.2016 41.2903C34.3943 41.798 34.7331 42.2373 35.1753 42.5527C35.6174 42.8681 36.1431 43.0455 36.6859 43.0624C37.2734 43.1077 37.8633 43.0161 38.4093 42.7948C38.9554 42.5735 39.4426 42.2286 39.8328 41.7871C39.6356 41.2837 39.2952 40.8491 38.8537 40.5371C38.4121 40.2251 37.8888 40.0493 37.3484 40.0315ZM32.9428 37.9115C32.8289 38.4421 32.8698 38.9942 33.0607 39.5021C33.2515 40.0101 33.5843 40.4525 34.0194 40.7768C34.5347 40.4787 34.9754 40.0674 35.3083 39.5738C35.6411 39.0803 35.8574 38.5175 35.9406 37.9281C36.0504 37.3975 36.0075 36.8468 35.817 36.3396C35.6264 35.8325 35.296 35.3897 34.8641 35.0628C34.3488 35.3608 33.908 35.7722 33.5752 36.2657C33.2423 36.7593 33.0261 37.3221 32.9428 37.9115ZM32.0484 42.814C31.4054 42.7602 30.7587 42.8581 30.1604 43.0997C29.5621 43.3413 29.0288 43.72 28.6034 44.2053C28.8221 44.7524 29.1954 45.2239 29.6778 45.5622C30.1602 45.9005 30.7308 46.0908 31.3197 46.1099C31.9647 46.1586 32.6122 46.0585 33.2124 45.8172C33.8126 45.576 34.3493 45.2002 34.7812 44.7187C34.5615 44.169 34.1856 43.6958 33.7 43.3573C33.2143 43.0188 32.6402 42.8299 32.0484 42.814ZM30.5081 40.5118C30.6356 39.9297 30.5925 39.3233 30.3839 38.7651C30.1753 38.2069 29.8101 37.7208 29.3322 37.3649C28.7636 37.6865 28.2766 38.1346 27.909 38.6745C27.5414 39.2145 27.3029 39.8318 27.2122 40.4787C27.0936 41.0632 27.1408 41.6692 27.3486 42.2283C27.5564 42.7873 27.9165 43.277 28.3881 43.6421C28.9555 43.315 29.4412 42.8633 29.8085 42.321C30.1757 41.7787 30.415 41.1601 30.5081 40.5118ZM8.28124 18.5334C8.32948 18.1178 8.27803 17.6968 8.13114 17.305C7.98424 16.9133 7.74614 16.5623 7.43655 16.2809C7.06936 16.3901 6.74279 16.6058 6.49811 16.9006C6.25343 17.1954 6.10162 17.5561 6.06187 17.9371C6.01084 18.3529 6.061 18.7748 6.20806 19.1669C6.35513 19.5591 6.59476 19.91 6.90655 20.1896C7.27266 20.0784 7.59808 19.8622 7.84245 19.5678C8.08682 19.2734 8.23939 18.9137 8.28124 18.5334ZM6.87343 23.4524C6.90957 23.0134 6.83966 22.572 6.66961 22.1656C6.49955 21.7592 6.23431 21.3996 5.89624 21.1171C5.58802 20.8032 5.20935 20.5673 4.79167 20.429C4.37399 20.2907 3.92936 20.2541 3.49468 20.3221C3.45854 20.7612 3.52844 21.2025 3.6985 21.6089C3.86856 22.0154 4.1338 22.375 4.47187 22.6574C4.77847 22.9737 5.15697 23.2111 5.57512 23.3496C5.99327 23.488 6.43869 23.5233 6.87343 23.4524ZM7.28749 23.3696C7.68149 23.5053 8.10476 23.5323 8.5128 23.4478C8.92084 23.3633 9.29856 23.1703 9.60624 22.8893C9.91063 22.6134 10.1311 22.2573 10.2424 21.8618C10.3538 21.4664 10.3514 21.0476 10.2356 20.6534C9.84437 20.5173 9.42351 20.4901 9.01801 20.5747C8.61251 20.6593 8.23762 20.8525 7.93343 21.1337C7.62932 21.4101 7.40791 21.7654 7.29386 22.1602C7.17982 22.555 7.17761 22.9737 7.28749 23.3696ZM8.72843 28.6365C8.68811 28.1507 8.53547 27.6808 8.28254 27.2641C8.0296 26.8473 7.68329 26.495 7.27093 26.2349C6.89337 25.9424 6.4497 25.7471 5.97895 25.6662C5.5082 25.5853 5.02479 25.6214 4.57124 25.7712C4.61768 26.2532 4.77301 26.7183 5.0255 27.1314C5.27798 27.5446 5.62103 27.895 6.02874 28.1562C6.40681 28.4477 6.84969 28.6436 7.31972 28.7272C7.78974 28.8108 8.27301 28.7797 8.72843 28.6365ZM9.15905 28.4543C9.6095 28.5521 10.0786 28.5183 10.5103 28.3567C10.942 28.1952 11.3181 27.9129 11.5937 27.5434C11.8667 27.1833 12.037 26.756 12.0866 26.3069C12.1362 25.8578 12.0632 25.4037 11.8753 24.9928C11.4348 24.9083 10.9795 24.9489 10.5609 25.1099C10.1424 25.2709 9.77721 25.5459 9.50687 25.9037C9.22312 26.2574 9.04086 26.6815 8.97959 27.1308C8.91833 27.5801 8.98036 28.0376 9.15905 28.4543ZM10.8484 33.8371C10.6826 33.3197 10.4033 32.846 10.0307 32.4505C9.65816 32.055 9.20189 31.7479 8.6953 31.5515C8.23797 31.3275 7.73018 31.2265 7.22194 31.2585C6.7137 31.2904 6.22255 31.4542 5.79687 31.7337C5.96265 32.2511 6.24204 32.7249 6.61459 33.1203C6.98713 33.5158 7.4434 33.823 7.94999 34.0193C8.40858 34.2386 8.9156 34.3369 9.42289 34.305C9.93019 34.2731 10.4209 34.1121 10.8484 33.8371ZM10.8319 30.6406C10.6535 31.1199 10.598 31.6362 10.6703 32.1424C10.7426 32.6487 10.9405 33.1288 11.2459 33.539C11.7327 33.508 12.1996 33.3344 12.5883 33.0399C12.9771 32.7454 13.2706 32.3429 13.4322 31.8828C13.6174 31.4056 13.6782 30.8892 13.6086 30.3821C13.5391 29.875 13.3416 29.394 13.0347 28.9843C12.5456 29.0143 12.0762 29.1872 11.6845 29.4816C11.2929 29.7761 10.9964 30.1791 10.8319 30.6406ZM11.5937 35.9571C11.1152 35.7954 10.6022 35.7639 10.1074 35.8658C9.61268 35.9676 9.15389 36.1992 8.77812 36.5368C9.0099 37.0305 9.34861 37.4665 9.76971 37.8131C10.1908 38.1597 10.6838 38.4083 11.2128 38.5409C11.687 38.7068 12.197 38.7421 12.6895 38.643C13.182 38.544 13.6388 38.3142 14.0119 37.9778C13.7838 37.4828 13.4485 37.0447 13.0302 36.6953C12.612 36.3458 12.1214 36.0937 11.5937 35.9571ZM14.2934 37.6299C14.7657 37.5288 15.1979 37.2912 15.5365 36.9468C15.8751 36.6023 16.1051 36.1661 16.1981 35.6921C16.3121 35.186 16.2991 34.6596 16.1604 34.1597C16.0217 33.6597 15.7616 33.2019 15.4031 32.8268C14.9256 32.9262 14.4882 33.1649 14.1463 33.5128C13.8043 33.8606 13.5731 34.302 13.4819 34.7812C13.3868 35.2864 13.4106 35.8069 13.5515 36.3013C13.6923 36.7958 13.9464 37.2507 14.2934 37.6299ZM18.7984 41.2903C18.4066 40.8518 17.9186 40.51 17.3727 40.2916C16.8267 40.0732 16.2377 39.9842 15.6516 40.0315C15.1224 40.041 14.607 40.202 14.1667 40.4956C13.7263 40.7892 13.3794 41.2029 13.1672 41.6878C13.5574 42.1292 14.0446 42.4741 14.5907 42.6954C15.1367 42.9167 15.7266 43.0083 16.3141 42.9631C16.8455 42.9543 17.3631 42.7915 17.804 42.4946C18.2449 42.1978 18.5904 41.7794 18.7984 41.2903ZM18.9806 40.7768C19.4157 40.4525 19.7485 40.0101 19.9393 39.5021C20.1302 38.9942 20.1711 38.4421 20.0572 37.9115C19.9831 37.3295 19.7795 36.7714 19.4614 36.2784C19.1432 35.7854 18.7186 35.37 18.2187 35.0628C17.7868 35.3897 17.4563 35.8325 17.2658 36.3396C17.0752 36.8468 17.0324 37.3975 17.1422 37.9281C17.2162 38.5101 17.4198 39.0682 17.738 39.5612C18.0561 40.0542 18.4807 40.4696 18.9806 40.7768ZM18.2187 44.7187C18.6491 45.2032 19.1851 45.5821 19.7853 45.8263C20.3856 46.0704 21.034 46.1731 21.6803 46.1265C22.2692 46.1074 22.8397 45.9171 23.3222 45.5788C23.8046 45.2405 24.1779 44.769 24.3966 44.2218C23.9712 43.7366 23.4379 43.3579 22.8396 43.1163C22.2413 42.8746 21.5946 42.7768 20.9516 42.8306C20.3617 42.8451 19.7889 43.0315 19.3035 43.3669C18.818 43.7023 18.441 44.1721 18.2187 44.7187ZM23.6678 37.3649C23.1899 37.7208 22.8247 38.2069 22.6161 38.7651C22.4075 39.3233 22.3644 39.9297 22.4919 40.5118C22.585 41.1601 22.8243 41.7787 23.1915 42.321C23.5588 42.8633 24.0444 43.315 24.6119 43.6421C25.0835 43.277 25.4435 42.7873 25.6514 42.2283C25.8592 41.6692 25.9064 41.0632 25.7878 40.4787C25.697 39.8318 25.4586 39.2145 25.091 38.6745C24.7234 38.1346 24.2364 37.6865 23.6678 37.3649ZM39.9322 19.8749C39.9322 17.2183 39.1444 14.6213 37.6684 12.4124C36.1925 10.2035 34.0947 8.48187 31.6403 7.46522C29.1859 6.44857 26.4851 6.18257 23.8795 6.70085C21.2739 7.21913 18.8805 8.49843 17.002 10.377C15.1235 12.2555 13.8442 14.6489 13.3259 17.2545C12.8076 19.86 13.0736 22.5608 14.0903 25.0152C15.1069 27.4696 16.8286 29.5675 19.0375 31.0434C21.2464 32.5193 23.8434 33.3071 26.5 33.3071C30.0611 33.3027 33.4751 31.8862 35.9931 29.3681C38.5112 26.85 39.9278 23.436 39.9322 19.8749ZM31.0381 26.4999L26.5 24.1149L21.9619 26.4999L22.8397 21.5312L19.1628 17.9537L24.2309 17.2084L26.5 12.5378L28.7691 17.1256L33.8372 17.8709L30.1603 21.5312L31.0381 26.4999Z" fill="#2553E4"/>
</svg>
