<svg width="24" height="24" viewBox="0 0 24 24" fill="none" xmlns="http://www.w3.org/2000/svg">
<path d="M7.21392 13.133L14.0619 8.913C14.1373 8.86678 14.2249 8.84461 14.3131 8.84943C14.4014 8.85426 14.4861 8.88585 14.5559 8.94C15.2059 9.44 15.7879 9.949 16.1759 10.376C16.1759 10.376 16.5099 10.718 16.6539 10.935C16.8879 11.231 16.9999 11.618 16.9999 11.994C16.9999 12.416 16.8769 12.814 16.6319 13.134C16.5759 13.191 16.3639 13.442 16.1639 13.647C14.9949 14.923 11.9449 17.031 10.3409 17.67C10.1079 17.773 9.48492 17.988 9.16092 18C8.84992 18 8.54892 17.932 8.25992 17.783C7.90486 17.5779 7.62722 17.2616 7.46992 16.883C7.36892 16.621 7.21292 15.835 7.21292 15.812C7.11292 15.251 7.03792 14.462 6.99992 13.542C6.99652 13.4609 7.0145 13.3803 7.05206 13.3084C7.08962 13.2364 7.14544 13.1756 7.21392 13.132V13.133Z" fill="white"/>
<path opacity="0.4" d="M7.67182 10.86C7.36982 11.047 6.98983 10.808 7.00483 10.45C7.04083 9.607 7.10382 8.865 7.17982 8.313C7.19182 8.301 7.34682 7.323 7.52582 6.991C7.67158 6.6957 7.89648 6.44668 8.17546 6.2717C8.45443 6.09672 8.77652 6.00266 9.10582 6H9.16083C9.58483 6.011 10.4868 6.387 10.4868 6.41C10.9408 6.599 11.5338 6.919 12.1718 7.304C12.2381 7.34469 12.293 7.40155 12.3313 7.46926C12.3695 7.53696 12.39 7.61328 12.3907 7.69106C12.3914 7.76884 12.3723 7.84552 12.3353 7.9139C12.2982 7.98228 12.2444 8.04013 12.1788 8.082L7.67182 10.86Z" fill="white"/>
</svg>
