<svg width="62" height="25" viewBox="0 0 62 25" fill="none" xmlns="http://www.w3.org/2000/svg">
<path d="M59.8272 17.1509C59.8272 16.9793 59.8272 16.7934 59.8272 16.6218C59.8341 16.5074 59.8341 16.3928 59.8272 16.2785C59.8051 16.1604 59.8051 16.0391 59.8272 15.921C59.9559 15.163 60.4279 13.0606 59.9702 12.4313L59.7414 12.131C58.6408 10.9919 57.1704 10.2821 55.5939 10.1287C53.6917 9.77117 51.7753 9.54234 49.8731 9.34211C45.298 8.95358 40.7052 8.81036 36.1148 8.91306C31.8242 9.02747 27.5336 8.98457 23.2431 8.91306C20.9119 8.91306 18.5807 8.91306 16.2495 8.74143C15.2817 8.78628 14.3293 8.48739 13.5607 7.89763C13.3404 7.70331 13.1696 7.45918 13.0626 7.18554C12.9557 6.9119 12.9156 6.61667 12.9458 6.32442C12.8691 5.98583 12.8213 5.64135 12.8027 5.29469C12.8027 4.6368 12.5453 4.43658 11.9303 4.83703C10.2013 5.96072 8.30387 6.80082 6.3097 7.32555C5.1361 7.56991 3.97607 7.87544 2.83436 8.24087C2.51552 8.3246 2.22754 8.49838 2.00485 8.74143C1.81415 9.02065 1.70518 9.34756 1.69021 9.68536C1.2076 11.6473 0.948524 13.6576 0.917908 15.6778C1.26465 16.2653 1.74147 16.7654 2.31171 17.1398C2.88196 17.5142 3.53044 17.7528 4.20733 17.8374C4.62251 17.9944 5.0672 18.0578 5.50971 18.0232C5.95221 17.9886 6.38163 17.8568 6.76736 17.6372C7.38883 17.0361 7.94933 16.375 8.44068 15.6635C8.88666 15.1766 9.44247 14.8031 10.0619 14.5743C10.6813 14.3454 11.3464 14.2678 12.0018 14.3478C12.6616 14.4555 13.2872 14.7159 13.8285 15.1082C14.3698 15.5005 14.8119 16.0139 15.1196 16.6075C15.3252 17.1104 15.5841 17.5899 15.8919 18.0376C16.6356 18.9816 18.0944 18.7956 19.1385 18.8814C20.5686 18.9816 28.0199 19.2533 29.4501 19.3105C36.1434 19.5965 36.7726 18.8099 43.4659 18.8099C43.9918 18.846 44.5202 18.8172 45.0391 18.7241C46.0831 18.4953 46.2405 17.5228 46.7839 16.679C47.9297 15.3557 49.4123 14.3673 51.0745 13.8186C51.6664 13.6518 52.288 13.6183 52.8944 13.7204C53.5008 13.8226 54.0771 14.0578 54.5817 14.4093C55.0864 14.7608 55.5069 15.2197 55.8129 15.7531C56.119 16.2865 56.3031 16.8811 56.3519 17.4942C56.5092 18.5668 57.3387 19.4964 58.0395 19.3248C58.5508 19.2416 59.0143 18.9751 59.3433 18.575C59.6723 18.1749 59.8444 17.6687 59.8272 17.1509Z" fill="white"/>
<path d="M34.9277 11.2155C34.4968 11.077 34.0497 10.9953 33.5976 10.9724C32.668 10.858 31.7241 10.858 30.7373 10.8294C28.9638 10.7436 27.1904 10.7007 25.4027 10.7007C17.6162 10.5989 9.84008 10.0977 2.10497 9.19898C1.93335 9.01306 1.67592 9.58513 1.47569 10.2001C1.53715 10.4548 1.58489 10.7126 1.61871 10.9724C1.7214 11.6781 1.77397 12.3902 1.77603 13.1034L7.66839 13.418H14.8193H26.5039C27.5909 13.418 28.6921 13.418 29.779 13.418C30.9548 13.411 32.1294 13.3394 33.2973 13.2035C33.9086 13.1707 34.5114 13.0453 35.085 12.8317C35.986 12.5027 35.7286 11.5445 34.9277 11.2155Z" fill="#2553E4"/>
<path d="M11.0293 23.272C13.628 23.272 15.7346 21.1654 15.7346 18.5667C15.7346 15.968 13.628 13.8614 11.0293 13.8614C8.43064 13.8614 6.32401 15.968 6.32401 18.5667C6.32401 21.1654 8.43064 23.272 11.0293 23.272Z" stroke="#2553E4" stroke-opacity="0.5" stroke-width="1.5" stroke-miterlimit="10"/>
<path d="M51.6466 23.272C54.2452 23.272 56.3519 21.1654 56.3519 18.5667C56.3519 15.968 54.2452 13.8614 51.6466 13.8614C49.0479 13.8614 46.9413 15.968 46.9413 18.5667C46.9413 21.1654 49.0479 23.272 51.6466 23.272Z" stroke="#2553E4" stroke-opacity="0.5" stroke-width="1.5" stroke-miterlimit="10"/>
<path d="M60.9428 15.1486C60.9428 14.5623 61.1144 13.9759 61.1001 13.3895C61.0255 12.3777 60.5948 11.4251 59.8844 10.7008C58.2488 9.24002 56.1549 8.39539 53.9635 8.31235C51.8611 8.02631 49.6729 7.81178 47.6278 7.72597C47.5708 7.71775 47.513 7.71775 47.4561 7.72597C45.3714 7.7012 43.3465 7.02622 41.6639 5.79522C40.1176 4.60058 38.4605 3.55656 36.7154 2.67742C33.1609 0.995742 29.2912 0.0843439 25.3598 0.00297185C21.2101 -0.0538324 17.0896 0.704183 13.2318 2.23406C10.3714 3.39251 7.69699 5.33756 4.6507 6.22428C4.14616 6.38663 3.62151 6.47808 3.09179 6.49601C2.60833 6.48389 2.1259 6.54661 1.66161 6.68194C1.54068 6.71215 1.42497 6.76036 1.31836 6.82495C0.991559 6.97413 0.710535 7.20789 0.504355 7.50207C0.298176 7.79626 0.174325 8.14018 0.145613 8.49827C0.145613 9.21336 0.431651 9.85694 0.431651 10.5577C0.375951 11.369 0.270876 12.1762 0.117009 12.9747C-0.152842 14.5044 0.0465925 16.0799 0.689084 17.4941C1.47569 18.9243 3.54945 19.1817 4.97964 19.4106C5.12184 19.4322 5.26649 19.4322 5.40869 19.4106L5.53741 19.2104V19.0673C5.59602 18.9607 5.64855 18.8509 5.69473 18.7384C5.68803 18.6957 5.68803 18.6523 5.69473 18.6097V18.4524C5.70901 18.2572 5.70901 18.0612 5.69473 17.866C5.70137 17.7612 5.70137 17.6561 5.69473 17.5513C5.69936 17.5277 5.69936 17.5034 5.69473 17.4798C5.0961 17.382 4.50388 17.2483 3.9213 17.0794C3.54945 16.9793 2.94878 16.8935 2.73425 16.5502C2.50697 16.1072 2.38464 15.6179 2.3767 15.12C2.30523 14.4928 2.30523 13.8594 2.3767 13.2322C2.64312 12.0309 2.71076 10.7941 2.57693 9.57091L2.40531 8.91302C2.39861 8.88481 2.39861 8.85542 2.40531 8.82721C5.73764 8.7271 8.5551 6.95367 11.4727 5.49488C11.5018 6.33871 11.7792 7.1552 12.2702 7.84209C12.7612 8.52898 13.4439 9.05574 14.2329 9.35638C15.5257 9.74717 16.8732 9.92588 18.2232 9.88555C19.9108 9.88555 21.5984 9.97136 23.3003 9.98566C26.8758 9.98566 30.4512 10.0858 34.041 10.0858C36.3007 10.0858 38.5461 10.1573 40.7915 10.0858C44.6935 9.89712 48.6042 10.0023 52.4904 10.4004C54.2758 10.4549 56.0299 10.8836 57.639 11.659C58.2347 11.9717 58.7081 12.4753 58.9834 13.0892C59.3124 13.8901 58.8976 14.7625 58.9834 15.592C59.0692 16.4215 59.3839 17.0222 58.9834 17.6944C58.746 18.007 58.4264 18.2475 58.0601 18.389C57.6939 18.5304 57.2956 18.5672 56.9097 18.4953C55.6797 18.3808 55.6797 20.5261 56.9097 20.6405C57.4539 20.7037 58.0053 20.6558 58.5304 20.4996C59.0555 20.3434 59.5435 20.0822 59.9647 19.7319C60.386 19.3815 60.7317 18.9493 60.9809 18.4614C61.2301 17.9735 61.3777 17.4401 61.4147 16.8935C61.1716 16.1784 60.9714 15.6778 60.9428 15.1486ZM18.5664 7.64016C16.9217 7.64016 13.1174 7.64016 13.4177 5.06582C13.575 3.80726 15.3771 3.63564 16.2781 3.39251C17.1791 3.14938 17.7798 2.97776 18.5378 2.80613C20.5049 2.36299 22.5139 2.13283 24.5303 2.11964L24.6161 2.39138C24.6161 2.62021 24.7162 2.84904 24.7591 3.07787C24.7591 3.07787 24.7591 3.27809 24.7591 3.2924V3.66424C24.7591 3.92168 24.7591 4.17911 24.8306 4.43655L25.1166 7.75457C23.0143 7.72597 20.7832 7.71167 18.5664 7.64016ZM27.3763 7.78318C27.2762 6.58182 27.1761 5.38047 27.0617 4.19341C27.0105 3.5157 26.9149 2.84207 26.7757 2.17685C30.3792 2.43442 33.8834 3.47395 37.0444 5.22315C38.3052 5.98959 39.5227 6.82514 40.6914 7.72597C36.2578 7.84038 31.8099 7.82608 27.3763 7.78318Z" fill="#2553E4" fill-opacity="0.5"/>
<path d="M46.4121 17.9948C36.2578 17.8899 26.1082 17.8565 15.9635 17.8946C14.6906 17.8946 14.6763 20.0542 15.9635 20.0399C26.0987 20.0399 36.2482 20.0733 46.4121 20.14C47.685 20.1543 47.685 18.0091 46.4121 17.9948Z" fill="#2553E4" fill-opacity="0.5"/>
</svg>
