<svg width="200" height="187" viewBox="0 0 200 187" fill="none" xmlns="http://www.w3.org/2000/svg">
<rect x="21.5" y="150.5" width="115" height="36" rx="5.5" stroke="url(#paint0_linear_66_30)"/>
<path d="M39.728 164.28C40.512 163.496 41.472 163.104 42.608 163.104C43.744 163.104 44.704 163.496 45.488 164.28C46.272 165.056 46.664 166 46.664 167.112C46.664 168.08 46.356 168.936 45.74 169.68L46.496 170.424L45.872 171.048L45.116 170.292C44.388 170.844 43.552 171.12 42.608 171.12C41.464 171.12 40.5 170.732 39.716 169.956C38.94 169.172 38.552 168.224 38.552 167.112C38.552 166 38.944 165.056 39.728 164.28ZM42.608 170.244C43.304 170.244 43.916 170.036 44.444 169.62L43.4 168.564L44.012 167.952L45.056 168.996C45.456 168.428 45.656 167.8 45.656 167.112C45.656 166.24 45.36 165.5 44.768 164.892C44.184 164.284 43.464 163.98 42.608 163.98C41.752 163.98 41.028 164.284 40.436 164.892C39.852 165.5 39.56 166.24 39.56 167.112C39.56 167.976 39.852 168.716 40.436 169.332C41.028 169.94 41.752 170.244 42.608 170.244ZM47.8712 168.768V165.156H48.7832V168.576C48.7832 169.68 49.2832 170.232 50.2832 170.232C50.7632 170.232 51.1592 170.068 51.4712 169.74C51.7832 169.412 51.9392 168.968 51.9392 168.408V165.156H52.8512V171H51.9392V170.1C51.5232 170.78 50.8952 171.12 50.0552 171.12C49.3432 171.12 48.7992 170.904 48.4232 170.472C48.0552 170.032 47.8712 169.464 47.8712 168.768ZM54.1365 168.084C54.1365 167.244 54.4365 166.528 55.0365 165.936C55.6365 165.336 56.3605 165.036 57.2085 165.036C58.0565 165.036 58.7805 165.336 59.3805 165.936C59.9805 166.528 60.2805 167.244 60.2805 168.084C60.2805 168.916 59.9805 169.632 59.3805 170.232C58.7805 170.824 58.0565 171.12 57.2085 171.12C56.3605 171.12 55.6365 170.824 55.0365 170.232C54.4365 169.632 54.1365 168.916 54.1365 168.084ZM55.6965 166.56C55.2805 166.984 55.0725 167.492 55.0725 168.084C55.0725 168.676 55.2805 169.184 55.6965 169.608C56.1125 170.024 56.6165 170.232 57.2085 170.232C57.8005 170.232 58.3045 170.024 58.7205 169.608C59.1365 169.184 59.3445 168.676 59.3445 168.084C59.3445 167.492 59.1365 166.984 58.7205 166.56C58.3045 166.136 57.8005 165.924 57.2085 165.924C56.6165 165.924 56.1125 166.136 55.6965 166.56ZM61.8015 169.248V165.936H60.9255V165.156H61.8015V163.86L62.7135 163.716V165.156H64.7175V165.936H62.7135V169.08C62.7135 169.896 62.9895 170.304 63.5415 170.304C63.7015 170.304 63.8615 170.276 64.0215 170.22C64.1815 170.164 64.3015 170.112 64.3815 170.064L64.5015 169.98L64.8015 170.688C64.3775 170.976 63.9295 171.12 63.4575 171.12C62.9455 171.12 62.5415 170.968 62.2455 170.664C61.9495 170.352 61.8015 169.88 61.8015 169.248ZM66.3697 167.7H70.2337C70.1777 167.164 69.9657 166.724 69.5977 166.38C69.2377 166.028 68.8097 165.852 68.3137 165.852C67.8257 165.852 67.3977 166.028 67.0297 166.38C66.6617 166.732 66.4417 167.172 66.3697 167.7ZM65.4217 168.084C65.4217 167.244 65.7057 166.528 66.2737 165.936C66.8417 165.336 67.5337 165.036 68.3497 165.036C69.1177 165.036 69.7777 165.332 70.3297 165.924C70.8817 166.516 71.1577 167.22 71.1577 168.036L71.1337 168.42H66.3817C66.4537 168.98 66.6897 169.432 67.0897 169.776C67.4897 170.12 67.9617 170.292 68.5057 170.292C69.2097 170.292 69.8097 170.068 70.3057 169.62L70.7377 170.28C70.0737 170.84 69.3297 171.12 68.5057 171.12C67.6497 171.12 66.9217 170.836 66.3217 170.268C65.7217 169.7 65.4217 168.972 65.4217 168.084ZM75.1262 169.932L75.5582 169.2C76.2382 169.896 77.1022 170.244 78.1502 170.244C78.6782 170.244 79.1502 170.124 79.5662 169.884C79.9902 169.636 80.2022 169.284 80.2022 168.828C80.2022 168.66 80.1622 168.508 80.0822 168.372C80.0022 168.228 79.9102 168.112 79.8062 168.024C79.7022 167.936 79.5502 167.852 79.3502 167.772C79.1582 167.684 78.9902 167.62 78.8462 167.58C78.7022 167.532 78.5102 167.48 78.2702 167.424C77.9182 167.336 77.6382 167.264 77.4302 167.208C77.2302 167.144 76.9862 167.052 76.6982 166.932C76.4102 166.812 76.1862 166.684 76.0262 166.548C75.8742 166.404 75.7382 166.22 75.6182 165.996C75.5062 165.764 75.4502 165.504 75.4502 165.216C75.4502 164.568 75.7182 164.056 76.2542 163.68C76.7982 163.296 77.4342 163.104 78.1622 163.104C79.1462 163.104 80.0262 163.396 80.8022 163.98L80.3582 164.724C79.7102 164.228 78.9782 163.98 78.1622 163.98C77.7542 163.98 77.3662 164.084 76.9982 164.292C76.6382 164.5 76.4582 164.804 76.4582 165.204C76.4582 165.364 76.4942 165.508 76.5662 165.636C76.6462 165.764 76.7342 165.872 76.8302 165.96C76.9342 166.04 77.0822 166.12 77.2742 166.2C77.4662 166.272 77.6342 166.328 77.7782 166.368C77.9302 166.408 78.1382 166.46 78.4022 166.524C78.7302 166.604 79.0102 166.68 79.2422 166.752C79.4742 166.824 79.7222 166.924 79.9862 167.052C80.2582 167.18 80.4742 167.32 80.6342 167.472C80.7942 167.624 80.9302 167.816 81.0422 168.048C81.1542 168.28 81.2102 168.54 81.2102 168.828C81.2102 169.564 80.9062 170.132 80.2982 170.532C79.6902 170.924 78.9742 171.12 78.1502 171.12C76.9102 171.12 75.9022 170.724 75.1262 169.932ZM82.4298 168.768V165.156H83.3418V168.576C83.3418 169.68 83.8418 170.232 84.8418 170.232C85.3218 170.232 85.7178 170.068 86.0298 169.74C86.3418 169.412 86.4978 168.968 86.4978 168.408V165.156H87.4098V171H86.4978V170.1C86.0818 170.78 85.4538 171.12 84.6138 171.12C83.9018 171.12 83.3578 170.904 82.9818 170.472C82.6138 170.032 82.4298 169.464 82.4298 168.768ZM88.9951 171V165.156H89.9071V166.092C90.0991 165.756 90.3591 165.496 90.6871 165.312C91.0151 165.128 91.3711 165.036 91.7551 165.036C92.6991 165.036 93.3271 165.424 93.6391 166.2C93.8391 165.832 94.1231 165.548 94.4911 165.348C94.8671 165.14 95.2551 165.036 95.6551 165.036C96.3671 165.036 96.9031 165.244 97.2631 165.66C97.6231 166.068 97.8031 166.656 97.8031 167.424V171H96.8911V167.58C96.8911 167.052 96.7831 166.644 96.5671 166.356C96.3591 166.068 95.9911 165.924 95.4631 165.924C94.9991 165.924 94.6151 166.08 94.3111 166.392C94.0071 166.696 93.8551 167.096 93.8551 167.592V171H92.9431V167.58C92.9431 167.052 92.8351 166.644 92.6191 166.356C92.4111 166.068 92.0431 165.924 91.5151 165.924C91.0591 165.924 90.6751 166.092 90.3631 166.428C90.0591 166.764 89.9071 167.18 89.9071 167.676V171H88.9951ZM99.2725 171V165.156H100.184V166.092C100.376 165.756 100.636 165.496 100.964 165.312C101.292 165.128 101.648 165.036 102.032 165.036C102.976 165.036 103.604 165.424 103.916 166.2C104.116 165.832 104.4 165.548 104.768 165.348C105.144 165.14 105.532 165.036 105.932 165.036C106.644 165.036 107.18 165.244 107.54 165.66C107.9 166.068 108.08 166.656 108.08 167.424V171H107.168V167.58C107.168 167.052 107.06 166.644 106.844 166.356C106.636 166.068 106.268 165.924 105.74 165.924C105.276 165.924 104.892 166.08 104.588 166.392C104.284 166.696 104.132 167.096 104.132 167.592V171H103.22V167.58C103.22 167.052 103.112 166.644 102.896 166.356C102.688 166.068 102.32 165.924 101.792 165.924C101.336 165.924 100.952 166.092 100.64 166.428C100.336 166.764 100.184 167.18 100.184 167.676V171H99.2725ZM109.25 168.084C109.25 167.236 109.518 166.516 110.054 165.924C110.598 165.332 111.27 165.036 112.07 165.036C113.006 165.036 113.718 165.412 114.206 166.164V165.156H115.118V171H114.206V170.004C113.726 170.748 113.014 171.12 112.07 171.12C111.27 171.12 110.598 170.824 110.054 170.232C109.518 169.64 109.25 168.924 109.25 168.084ZM110.762 166.548C110.378 166.964 110.186 167.476 110.186 168.084C110.186 168.692 110.378 169.204 110.762 169.62C111.154 170.028 111.638 170.232 112.214 170.232C112.774 170.232 113.246 170.028 113.63 169.62C114.014 169.212 114.206 168.7 114.206 168.084C114.206 167.476 114.014 166.964 113.63 166.548C113.254 166.132 112.782 165.924 112.214 165.924C111.638 165.924 111.154 166.132 110.762 166.548ZM116.698 171V165.156H117.61V166.392C117.786 165.992 118.066 165.668 118.45 165.42C118.834 165.164 119.306 165.036 119.866 165.036V166.044C119.21 166.044 118.67 166.236 118.246 166.62C117.822 166.996 117.61 167.596 117.61 168.42V171H116.698ZM121.374 172.764V171.9C121.718 171.9 121.99 171.828 122.19 171.684C122.398 171.548 122.594 171.28 122.778 170.88L122.898 170.616L120.234 165.156H121.206L122.934 168.816L123.33 169.728L123.726 168.78L125.298 165.156H126.246L123.51 171.288C123.366 171.616 123.206 171.884 123.03 172.092C122.854 172.308 122.662 172.46 122.454 172.548C122.254 172.636 122.078 172.692 121.926 172.716C121.774 172.748 121.59 172.764 121.374 172.764Z" fill="#656565"/>
<rect x="12.5" y="0.5" width="103" height="36" rx="5.5" fill="url(#paint1_linear_66_30)" stroke="url(#paint2_linear_66_30)"/>
<path d="M76.588 18.1017C76.588 16.7997 77.036 15.6937 77.946 14.7837C78.856 13.8877 79.99 13.4257 81.362 13.4257C82.552 13.4257 83.574 13.7897 84.414 14.4897L83.476 15.5817C82.888 15.1337 82.216 14.8957 81.474 14.8957C80.55 14.8957 79.78 15.2177 79.178 15.8337C78.576 16.4637 78.282 17.2197 78.282 18.1017C78.282 18.9977 78.576 19.7537 79.164 20.3837C79.752 21.0137 80.494 21.3217 81.376 21.3217C82.272 21.3217 83.042 21.0277 83.658 20.4257L84.652 21.5457C83.742 22.3857 82.65 22.7917 81.362 22.7917C79.99 22.7917 78.856 22.3437 77.946 21.4337C77.036 20.5377 76.588 19.4177 76.588 18.1017ZM85.391 19.1797C85.391 18.1717 85.685 17.3177 86.301 16.6177C86.917 15.9177 87.701 15.5677 88.653 15.5677C89.591 15.5677 90.347 15.9877 90.907 16.7997V15.7077H92.461V22.6377H90.907V21.5597C90.347 22.3717 89.605 22.7777 88.653 22.7777C87.701 22.7777 86.917 22.4417 86.301 21.7417C85.685 21.0417 85.391 20.1877 85.391 19.1797ZM86.973 19.1797C86.973 19.7957 87.155 20.2997 87.533 20.6917C87.911 21.0837 88.401 21.2797 88.989 21.2797C89.535 21.2797 89.997 21.0837 90.361 20.6917C90.725 20.2997 90.907 19.7957 90.907 19.1797C90.907 18.5777 90.725 18.0737 90.361 17.6677C89.997 17.2757 89.535 17.0657 88.989 17.0657C88.401 17.0657 87.911 17.2757 87.533 17.6677C87.155 18.0737 86.973 18.5777 86.973 19.1797ZM94.1903 22.6377V15.7077H95.7443V17.0797C95.8983 16.6737 96.1783 16.3237 96.5983 16.0157C97.0183 15.7217 97.5643 15.5677 98.2503 15.5677V17.2617C96.5703 17.2617 95.7443 18.1157 95.7443 19.8097V22.6377H94.1903Z" fill="#1A45D6"/>
<rect x="0.5" y="74.5" width="152" height="36" rx="5.5" stroke="url(#paint3_linear_66_30)"/>
<path d="M77.728 88.28C78.512 87.496 79.472 87.104 80.608 87.104C81.744 87.104 82.704 87.496 83.488 88.28C84.272 89.056 84.664 90 84.664 91.112C84.664 92.08 84.356 92.936 83.74 93.68L84.496 94.424L83.872 95.048L83.116 94.292C82.388 94.844 81.552 95.12 80.608 95.12C79.464 95.12 78.5 94.732 77.716 93.956C76.94 93.172 76.552 92.224 76.552 91.112C76.552 90 76.944 89.056 77.728 88.28ZM80.608 94.244C81.304 94.244 81.916 94.036 82.444 93.62L81.4 92.564L82.012 91.952L83.056 92.996C83.456 92.428 83.656 91.8 83.656 91.112C83.656 90.24 83.36 89.5 82.768 88.892C82.184 88.284 81.464 87.98 80.608 87.98C79.752 87.98 79.028 88.284 78.436 88.892C77.852 89.5 77.56 90.24 77.56 91.112C77.56 91.976 77.852 92.716 78.436 93.332C79.028 93.94 79.752 94.244 80.608 94.244ZM85.8712 92.768V89.156H86.7832V92.576C86.7832 93.68 87.2832 94.232 88.2832 94.232C88.7632 94.232 89.1592 94.068 89.4712 93.74C89.7832 93.412 89.9392 92.968 89.9392 92.408V89.156H90.8512V95H89.9392V94.1C89.5232 94.78 88.8952 95.12 88.0552 95.12C87.3432 95.12 86.7992 94.904 86.4232 94.472C86.0552 94.032 85.8712 93.464 85.8712 92.768ZM92.1365 92.084C92.1365 91.244 92.4365 90.528 93.0365 89.936C93.6365 89.336 94.3605 89.036 95.2085 89.036C96.0565 89.036 96.7805 89.336 97.3805 89.936C97.9805 90.528 98.2805 91.244 98.2805 92.084C98.2805 92.916 97.9805 93.632 97.3805 94.232C96.7805 94.824 96.0565 95.12 95.2085 95.12C94.3605 95.12 93.6365 94.824 93.0365 94.232C92.4365 93.632 92.1365 92.916 92.1365 92.084ZM93.6965 90.56C93.2805 90.984 93.0725 91.492 93.0725 92.084C93.0725 92.676 93.2805 93.184 93.6965 93.608C94.1125 94.024 94.6165 94.232 95.2085 94.232C95.8005 94.232 96.3045 94.024 96.7205 93.608C97.1365 93.184 97.3445 92.676 97.3445 92.084C97.3445 91.492 97.1365 90.984 96.7205 90.56C96.3045 90.136 95.8005 89.924 95.2085 89.924C94.6165 89.924 94.1125 90.136 93.6965 90.56ZM99.8015 93.248V89.936H98.9255V89.156H99.8015V87.86L100.714 87.716V89.156H102.718V89.936H100.714V93.08C100.714 93.896 100.99 94.304 101.542 94.304C101.702 94.304 101.862 94.276 102.022 94.22C102.182 94.164 102.302 94.112 102.382 94.064L102.502 93.98L102.802 94.688C102.378 94.976 101.93 95.12 101.458 95.12C100.946 95.12 100.542 94.968 100.246 94.664C99.9495 94.352 99.8015 93.88 99.8015 93.248ZM104.37 91.7H108.234C108.178 91.164 107.966 90.724 107.598 90.38C107.238 90.028 106.81 89.852 106.314 89.852C105.826 89.852 105.398 90.028 105.03 90.38C104.662 90.732 104.442 91.172 104.37 91.7ZM103.422 92.084C103.422 91.244 103.706 90.528 104.274 89.936C104.842 89.336 105.534 89.036 106.35 89.036C107.118 89.036 107.778 89.332 108.33 89.924C108.882 90.516 109.158 91.22 109.158 92.036L109.134 92.42H104.382C104.454 92.98 104.69 93.432 105.09 93.776C105.49 94.12 105.962 94.292 106.506 94.292C107.21 94.292 107.81 94.068 108.306 93.62L108.738 94.28C108.074 94.84 107.33 95.12 106.506 95.12C105.65 95.12 104.922 94.836 104.322 94.268C103.722 93.7 103.422 92.972 103.422 92.084Z" fill="#656565"/>
<circle cx="17" cy="18" r="3.5" fill="#1A45D6" stroke="#1A45D6"/>
<circle cx="17" cy="93" r="4" fill="#A5A5A5"/>
<circle cx="17" cy="169" r="4" fill="#A5A5A5"/>
<line x1="17.5" y1="28" x2="17.5" y2="81" stroke="#1A45D6" stroke-dasharray="8 8"/>
<line x1="17.5" y1="105" x2="17.5" y2="158" stroke="#A5A5A5" stroke-dasharray="8 8"/>
<defs>
<linearGradient id="paint0_linear_66_30" x1="21" y1="168.5" x2="137" y2="168.5" gradientUnits="userSpaceOnUse">
<stop stop-color="white" stop-opacity="0"/>
<stop offset="1" stop-color="#7E7E7E"/>
</linearGradient>
<linearGradient id="paint1_linear_66_30" x1="12" y1="18.5" x2="116" y2="18.5" gradientUnits="userSpaceOnUse">
<stop stop-color="#1A45D6" stop-opacity="0"/>
<stop offset="0.9999" stop-color="#1A45D6" stop-opacity="0.2"/>
<stop offset="1" stop-color="#1A45D6" stop-opacity="0"/>
</linearGradient>
<linearGradient id="paint2_linear_66_30" x1="12" y1="18.5" x2="116" y2="18.5" gradientUnits="userSpaceOnUse">
<stop stop-color="white" stop-opacity="0"/>
<stop offset="1" stop-color="#1A45D6"/>
</linearGradient>
<linearGradient id="paint3_linear_66_30" x1="0" y1="92.5" x2="153" y2="92.5" gradientUnits="userSpaceOnUse">
<stop stop-color="white" stop-opacity="0"/>
<stop offset="1" stop-color="#7E7E7E"/>
</linearGradient>
</defs>
</svg>
