<svg width="45" height="45" viewBox="0 0 45 45" fill="none" xmlns="http://www.w3.org/2000/svg">
<g clip-path="url(#clip0_78_4840)">
<path d="M36 0H9C4.02944 0 0 4.02944 0 9V36C0 40.9706 4.02944 45 9 45H36C40.9706 45 45 40.9706 45 36V9C45 4.02944 40.9706 0 36 0Z" fill="#2983D3" fill-opacity="0.09"/>
<path d="M33.7084 25.1673C33.5948 24.9215 33.3911 24.7287 33.1395 24.6289C32.8878 24.5291 32.6073 24.5298 32.3562 24.631C32.105 24.7321 31.9023 24.926 31.7901 25.1724C31.6778 25.4188 31.6646 25.6989 31.7531 25.9548L32.9906 29.0272L29.3018 27.4004C29.1693 27.343 29.0265 27.3134 28.8821 27.3134C28.7378 27.3134 28.595 27.343 28.4625 27.4004C27.1934 27.9402 25.8277 28.2162 24.4485 28.2115C18.8021 28.2115 15.0086 23.7903 15.0086 19.6616C15.0086 14.9467 19.2431 11.1116 24.4485 11.1116C29.6539 11.1116 33.8884 14.9467 33.8884 19.6616C33.8857 20.066 33.8545 20.4697 33.795 20.8698C33.7745 21.0068 33.7813 21.1464 33.8148 21.2808C33.8483 21.4151 33.9079 21.5416 33.9903 21.6529C34.0727 21.7642 34.1761 21.8582 34.2948 21.9295C34.4135 22.0008 34.5451 22.048 34.6821 22.0685C34.819 22.089 34.9587 22.0822 35.093 22.0487C35.2274 22.0152 35.3538 21.9556 35.4651 21.8732C35.5764 21.7908 35.6704 21.6874 35.7417 21.5687C35.8131 21.45 35.8603 21.3184 35.8808 21.1814C35.9569 20.6776 35.9967 20.1689 36 19.6593C35.9937 18.2284 35.6863 16.8148 35.0976 15.5105C34.509 14.2062 33.6523 13.0405 32.5834 12.0892C30.3554 10.0775 27.4536 8.97508 24.4519 8.99993C21.4498 8.97491 18.5476 10.0773 16.3193 12.0892C14.3965 13.8065 13.1915 16.1853 12.9443 18.7514C11.7484 19.5134 10.7614 20.5616 10.0727 21.8011C9.38401 23.0406 9.01531 24.4323 9 25.8502C8.99893 27.6116 9.5663 29.3263 10.6178 30.7394L9.07763 34.5498C8.99881 34.7443 8.97985 34.9579 9.02318 35.1633C9.0665 35.3687 9.17015 35.5564 9.32083 35.7025C9.47152 35.8486 9.66239 35.9464 9.86899 35.9833C10.0756 36.0203 10.2885 35.9947 10.4805 35.9099L14.922 33.9524C16.0477 34.37 17.2392 34.5823 18.4399 34.5791C18.4658 34.5791 18.4916 34.5791 18.5175 34.5791C20.2611 34.5702 21.9721 34.1047 23.4799 33.2291C24.7849 32.4743 25.8814 31.4064 26.6704 30.1218C27.4183 29.988 28.152 29.7842 28.8619 29.5132L34.5206 32.0073C34.7126 32.0915 34.9253 32.1166 35.1316 32.0794C35.3379 32.0422 35.5285 31.9445 35.679 31.7985C35.8295 31.6526 35.9331 31.4652 35.9767 31.2601C36.0202 31.0551 36.0017 30.8417 35.9235 30.6472L33.7084 25.1673ZM18.4399 32.4663H18.3971C17.3382 32.4647 16.2904 32.2504 15.3158 31.8363C15.1833 31.7788 15.0405 31.7492 14.8961 31.7492C14.7518 31.7492 14.6089 31.7788 14.4765 31.8363L12.0015 32.9253L12.798 30.9543C12.8703 30.7754 12.8921 30.5802 12.8612 30.3898C12.8302 30.1994 12.7477 30.0211 12.6225 29.8743C11.6471 28.7571 11.1078 27.3254 11.1038 25.8423C11.1109 25.0009 11.2871 24.1695 11.6221 23.3976C11.957 22.6257 12.4438 21.929 13.0534 21.3491C13.4736 23.5282 14.5643 25.5216 16.173 27.0506C18.2501 29.0344 20.98 30.1917 23.85 30.3052C22.3962 31.7016 20.4557 32.4768 18.4399 32.4663Z" fill="#1A45D6"/>
<path d="M24.3979 20.7586C24.9801 20.7586 25.452 20.2867 25.452 19.7045C25.452 19.1223 24.9801 18.6504 24.3979 18.6504C23.8157 18.6504 23.3438 19.1223 23.3438 19.7045C23.3438 20.2867 23.8157 20.7586 24.3979 20.7586Z" fill="#1A45D6"/>
<path d="M28.6166 20.7586C29.1988 20.7586 29.6707 20.2867 29.6707 19.7045C29.6707 19.1223 29.1988 18.6504 28.6166 18.6504C28.0344 18.6504 27.5625 19.1223 27.5625 19.7045C27.5625 20.2867 28.0344 20.7586 28.6166 20.7586Z" fill="#1A45D6"/>
<path d="M20.1791 20.7586C20.7613 20.7586 21.2332 20.2867 21.2332 19.7045C21.2332 19.1223 20.7613 18.6504 20.1791 18.6504C19.5969 18.6504 19.125 19.1223 19.125 19.7045C19.125 20.2867 19.5969 20.7586 20.1791 20.7586Z" fill="#1A45D6"/>
</g>
<defs>
<clipPath id="clip0_78_4840">
<rect width="45" height="45" fill="white"/>
</clipPath>
</defs>
</svg>
