<svg width="33" height="33" viewBox="0 0 33 33" fill="none" xmlns="http://www.w3.org/2000/svg">
<g clip-path="url(#clip0_78_4181)">
<path d="M7.21875 15.3219L16.9169 7.88965L25.745 15.3219V25.7814H7.21875V15.3219Z" fill="url(#paint0_linear_78_4181)"/>
<path d="M10.5906 18.6934V7.79883C10.5906 7.47847 10.8502 7.21875 11.1707 7.21875H21.8477C22.1681 7.21875 22.4278 7.47847 22.4278 7.79883V18.6934L16.8833 23.5596C16.6642 23.752 16.3362 23.7517 16.1174 23.5591L10.5906 18.6934Z" fill="url(#paint1_linear_78_4181)"/>
<path d="M16.535 9.89209C17.1621 9.89209 17.718 10.021 18.2027 10.279C18.6919 10.5325 19.0699 10.8794 19.3368 11.3196C19.608 11.7599 19.7437 12.2469 19.7437 12.7806C19.7437 13.1897 19.6725 13.5411 19.5302 13.8346C19.3923 14.1237 19.2034 14.3438 18.9632 14.495C18.7275 14.6418 18.4651 14.7151 18.176 14.7151C17.9226 14.7151 17.7069 14.6662 17.529 14.5684C17.3511 14.4705 17.2154 14.326 17.1221 14.1348C16.9264 14.5217 16.5884 14.7151 16.1081 14.7151C15.8635 14.7151 15.6322 14.6484 15.4143 14.515C15.2008 14.3772 15.0274 14.1815 14.8939 13.928C14.7605 13.6745 14.6938 13.3832 14.6938 13.0541C14.6938 12.725 14.7583 12.4359 14.8873 12.1869C15.0207 11.9334 15.1941 11.7399 15.4076 11.6065C15.6256 11.4687 15.859 11.3997 16.1081 11.3997C16.4594 11.3997 16.7329 11.5087 16.9286 11.7266V11.4597H18.2094V13.3676C18.2094 13.6122 18.2961 13.7345 18.4695 13.7345C18.5763 13.7345 18.6586 13.6656 18.7164 13.5277C18.7787 13.3899 18.8098 13.1475 18.8098 12.8006C18.8098 12.4003 18.7141 12.0446 18.5229 11.7332C18.3361 11.4219 18.0693 11.1796 17.7224 11.0061C17.38 10.8283 16.9842 10.7393 16.535 10.7393C16.0858 10.7393 15.6878 10.8371 15.3409 11.0328C14.994 11.2241 14.725 11.4909 14.5337 11.8333C14.3425 12.1713 14.2469 12.5493 14.2469 12.9674C14.2469 13.3988 14.3403 13.7857 14.5271 14.1281C14.7183 14.4661 14.9851 14.7307 15.3276 14.922C15.67 15.1132 16.0636 15.2088 16.5083 15.2088C16.9753 15.2088 17.4245 15.1109 17.8558 14.9153L18.136 15.7358C17.9359 15.8336 17.6868 15.9114 17.3889 15.9693C17.0953 16.0271 16.8018 16.056 16.5083 16.056C15.8545 16.056 15.2764 15.9204 14.7739 15.6491C14.2758 15.3823 13.8911 15.0153 13.6198 14.5484C13.3486 14.077 13.2129 13.55 13.2129 12.9674C13.2129 12.3937 13.3486 11.8733 13.6198 11.4064C13.8955 10.9394 14.2847 10.5703 14.7872 10.299C15.2898 10.0278 15.8723 9.89209 16.535 9.89209ZM16.4749 13.6678C16.6173 13.6678 16.7329 13.6144 16.8219 13.5077C16.9108 13.401 16.9552 13.2498 16.9552 13.0541C16.9552 12.8584 16.9108 12.7094 16.8219 12.6072C16.7329 12.5004 16.6173 12.4471 16.4749 12.4471C16.3326 12.4471 16.217 12.5004 16.1281 12.6072C16.0436 12.7094 16.0013 12.8584 16.0013 13.0541C16.0013 13.2498 16.0436 13.401 16.1281 13.5077C16.217 13.6144 16.3326 13.6678 16.4749 13.6678Z" fill="url(#paint2_linear_78_4181)"/>
</g>
<defs>
<linearGradient id="paint0_linear_78_4181" x1="16.4819" y1="7.88965" x2="16.4819" y2="25.7814" gradientUnits="userSpaceOnUse">
<stop stop-color="#2983D3"/>
<stop offset="1" stop-color="#1A45D6"/>
</linearGradient>
<linearGradient id="paint1_linear_78_4181" x1="16.5092" y1="7.21875" x2="16.5092" y2="23.896" gradientUnits="userSpaceOnUse">
<stop stop-color="white"/>
<stop offset="0.332174" stop-color="#AAD4FF" stop-opacity="0.976748"/>
<stop offset="1" stop-color="#007FFF" stop-opacity="0.93"/>
</linearGradient>
<linearGradient id="paint2_linear_78_4181" x1="14.3609" y1="10.5724" x2="15.8111" y2="16.6814" gradientUnits="userSpaceOnUse">
<stop stop-color="#2983D3"/>
<stop offset="1" stop-color="#1A45D6"/>
</linearGradient>
<clipPath id="clip0_78_4181">
<rect width="33" height="33" fill="white"/>
</clipPath>
</defs>
</svg>
