<svg width="24" height="24" viewBox="0 0 24 24" fill="none" xmlns="http://www.w3.org/2000/svg">
<mask id="mask0_78_4174" style="mask-type:luminance" maskUnits="userSpaceOnUse" x="0" y="0" width="24" height="24">
<path d="M24 0H0V24H24V0Z" fill="white"/>
</mask>
<g mask="url(#mask0_78_4174)">
<path d="M18.9136 7.47864L18.8158 6.27984C18.5152 2.70012 15.5848 0 11.9996 0C8.41434 0 5.48394 2.70012 5.18274 6.28188L5.08554 7.47864C4.55814 7.87632 4.23486 8.505 4.23486 9.17652V10.5882C4.23486 11.0646 4.40382 11.5306 4.70646 11.9118L4.27146 22.5882H19.7277L19.2928 11.9118C19.5955 11.5306 19.7643 11.0646 19.7643 10.5882V9.17652C19.7643 8.505 19.441 7.87632 18.9136 7.47864Z" fill="url(#paint0_linear_78_4174)"/>
<path d="M7.05846 10.588V7.76455C7.05846 7.50595 7.09686 7.28287 7.1337 7.05859H6.3525C5.18478 7.05859 4.23486 8.00851 4.23486 9.17623V10.588C4.23486 11.7558 5.18478 12.7057 6.3525 12.7057H7.55958C7.48662 12.5479 12.2859 13.4115 12.5212 12.2257C12.4271 10.1646 7.05846 11.181 7.05846 10.588ZM17.6467 7.05859H16.9408V7.76455V10.588C16.9408 10.9677 16.8933 11.337 16.8071 11.6928C16.7264 12.0463 16.5998 12.3816 16.4453 12.7039L16.4446 12.7057H17.6467C18.8144 12.7057 19.7643 11.7558 19.7643 10.588V9.17623C19.7643 8.00851 18.8144 7.05859 17.6467 7.05859Z" fill="url(#paint1_linear_78_4174)"/>
<path d="M14.823 15.6708V14.626C16.1501 13.7083 16.9407 12.226 16.9407 10.5884V7.05895C13.6653 7.52479 11.1525 4.51771 11.1242 4.48951C10.9971 4.33423 10.7995 4.23535 10.5877 4.23535C9.37365 4.23535 7.05837 4.96951 7.05837 7.76479V10.5884C7.05837 10.8283 7.07241 11.0683 7.11477 11.2942H11.2937C11.6889 11.2942 11.9995 11.6048 11.9995 12.0001C11.9995 12.3954 11.6889 12.706 11.2937 12.706H7.55241C7.90533 13.4824 8.45589 14.1459 9.17601 14.6401V15.6706L11.9995 19.059L14.823 15.6708ZM22.5595 23.1249L21.783 20.019C21.4442 18.6919 20.5689 17.5484 19.383 16.8848C18.9595 16.659 18.536 16.4895 18.0701 16.3908L14.823 15.6708L16.7995 17.3649C17.1101 17.6048 17.1807 18.0424 16.9407 18.3531L14.823 21.1766C14.6819 21.3602 14.4701 21.459 14.2583 21.459C14.1171 21.459 13.9619 21.4166 13.8348 21.3177L11.9995 19.9342L10.1642 21.3177C10.0371 21.4166 9.89601 21.459 9.74073 21.459H9.64185C9.45837 21.4308 9.28893 21.3319 9.17589 21.1766L7.05825 18.3531C6.81837 18.0424 6.88881 17.6048 7.19937 17.3649L9.17601 15.6706L5.94297 16.3908C5.46297 16.4895 5.03949 16.659 4.61601 16.8848C3.43005 17.5484 2.55477 18.6919 2.20185 20.019L1.43949 23.1249C1.38297 23.3366 1.42545 23.5626 1.56657 23.7319C1.69365 23.9013 1.90533 24.0002 2.11713 24.0002H21.8819C22.0937 24.0002 22.3053 23.9013 22.4324 23.7319C22.5737 23.5626 22.616 23.3366 22.5595 23.1249Z" fill="url(#paint2_linear_78_4174)"/>
</g>
<defs>
<linearGradient id="paint0_linear_78_4174" x1="11.9996" y1="22.5882" x2="11.9996" y2="0" gradientUnits="userSpaceOnUse">
<stop stop-color="#2983D3"/>
<stop offset="1" stop-color="#1A45D6"/>
</linearGradient>
<linearGradient id="paint1_linear_78_4174" x1="11.9996" y1="12.8628" x2="11.9996" y2="7.05859" gradientUnits="userSpaceOnUse">
<stop stop-color="#2983D3"/>
<stop offset="1" stop-color="#1A45D6"/>
</linearGradient>
<linearGradient id="paint2_linear_78_4174" x1="11.9995" y1="24.0002" x2="11.9995" y2="4.23547" gradientUnits="userSpaceOnUse">
<stop stop-color="#2983D3"/>
<stop offset="0.5028" stop-color="#FDF0F0"/>
<stop offset="1" stop-color="#FFDDDD"/>
</linearGradient>
</defs>
</svg>
