<svg width="19" height="19" viewBox="0 0 19 19" fill="none" xmlns="http://www.w3.org/2000/svg">
<path d="M3.93828 13.1251C4.02492 13.1252 4.10966 13.0996 4.18175 13.0516C4.25384 13.0035 4.31004 12.9351 4.34322 12.8551C4.3764 12.7751 4.38506 12.687 4.36812 12.602C4.35117 12.517 4.30938 12.439 4.24803 12.3778L1.49441 9.62506H11.8133C11.9293 9.62506 12.0406 9.57897 12.1226 9.49692C12.2047 9.41488 12.2508 9.3036 12.2508 9.18756C12.2508 9.07153 12.2047 8.96025 12.1226 8.87821C12.0406 8.79616 11.9293 8.75006 11.8133 8.75006H1.49441L4.24803 5.99731C4.33018 5.91516 4.37634 5.80374 4.37634 5.68756C4.37634 5.57139 4.33018 5.45997 4.24803 5.37781C4.16588 5.29566 4.05446 5.24951 3.93828 5.24951C3.8221 5.24951 3.71068 5.29566 3.62853 5.37781L0.128532 8.87781C0.0877893 8.91845 0.0554643 8.96673 0.0334086 9.01989C0.011353 9.07304 0 9.13002 0 9.18756C0 9.24511 0.011353 9.30209 0.0334086 9.35524C0.0554643 9.4084 0.0877893 9.45667 0.128532 9.49731L3.62853 12.9973C3.66924 13.0379 3.71754 13.0701 3.77069 13.092C3.82384 13.1139 3.88079 13.1252 3.93828 13.1251Z" fill="#102770"/>
<path d="M9.1883 7.13931e-05C7.75988 -0.0055863 6.3502 0.325098 5.07331 0.965366C3.79643 1.60563 2.68819 2.5375 1.8383 3.68557C1.76868 3.7784 1.73878 3.89508 1.75519 4.00994C1.7716 4.12481 1.83297 4.22845 1.9258 4.29807C2.01862 4.36769 2.1353 4.39758 2.25017 4.38117C2.36503 4.36476 2.46868 4.3034 2.5383 4.21057C3.30736 3.17189 4.31005 2.32875 5.46528 1.7493C6.62052 1.16986 7.89589 0.870379 9.1883 0.875071C11.3929 0.875071 13.5072 1.75085 15.0661 3.30975C16.625 4.86864 17.5008 6.98296 17.5008 9.18757C17.5008 11.3922 16.625 13.5065 15.0661 15.0654C13.5072 16.6243 11.3929 17.5001 9.1883 17.5001C7.89813 17.5047 6.62492 17.2062 5.47122 16.6287C4.31753 16.0511 3.31561 15.2107 2.54617 14.1751C2.47655 14.0822 2.37291 14.0209 2.25804 14.0045C2.14318 13.9881 2.0265 14.018 1.93367 14.0876C1.84084 14.1572 1.77948 14.2608 1.76307 14.3757C1.74666 14.4906 1.77655 14.6072 1.84617 14.7001C2.69673 15.8448 3.80426 16.7737 5.07954 17.412C6.35482 18.0503 7.76219 18.3802 9.1883 18.3751C11.625 18.3751 13.9618 17.4071 15.6848 15.6841C17.4078 13.9611 18.3758 11.6242 18.3758 9.18757C18.3758 6.7509 17.4078 4.41402 15.6848 2.69103C13.9618 0.968037 11.625 7.13931e-05 9.1883 7.13931e-05Z" fill="#102770"/>
</svg>
