<svg width="31" height="23" viewBox="0 0 31 23" fill="none" xmlns="http://www.w3.org/2000/svg">
<path d="M28.3964 1.06453C28.1956 0.751609 27.8484 0.5625 27.4768 0.5625H19.875C18.0656 0.5625 16.5938 2.03436 16.5938 3.84375V11.5C16.5938 13.3094 18.0656 14.7812 19.875 14.7812H22.0465C21.0308 17.7229 20.1634 19.1316 17.2773 20.3343C16.7957 20.5351 16.5232 21.0478 16.6258 21.5594C16.7283 22.0701 17.1769 22.4375 17.6982 22.4375H17.7004C23.7214 22.4268 27.1799 20.0129 29.6323 14.1126C30.4151 12.2594 30.8125 10.276 30.8125 8.21875C30.8125 5.05497 29.8555 3.33209 28.3964 1.06453ZM11.0705 0.5625H3.46875C1.65936 0.5625 0.1875 2.03436 0.1875 3.84375V11.5C0.1875 13.3094 1.65936 14.7812 3.46875 14.7812H5.64028C4.62452 17.7229 3.75717 19.1316 0.871094 20.3343C0.389406 20.5351 0.116953 21.0478 0.219547 21.5594C0.322031 22.0701 0.770687 22.4375 1.29197 22.4375H1.29416C7.31514 22.4268 10.7737 20.0129 13.2261 14.1126C14.0089 12.2594 14.4062 10.276 14.4062 8.21875C14.4062 5.05497 13.4492 3.33209 11.9902 1.06453C11.7893 0.751609 11.4422 0.5625 11.0705 0.5625Z" fill="#8DC14B"/>
</svg>
