<svg width="75" height="75" viewBox="0 0 75 75" fill="none" xmlns="http://www.w3.org/2000/svg">
<path d="M29.6875 56.25V18.75C29.6848 17.7829 29.383 16.8403 28.8235 16.0515C28.2641 15.2626 27.4743 14.6661 26.5625 14.3438V17.1875C26.5625 18.8451 25.904 20.4348 24.7319 21.6069C23.5598 22.779 21.9701 23.4375 20.3125 23.4375H10.9375C9.2799 23.4375 7.69018 22.779 6.51808 21.6069C5.34598 20.4348 4.6875 18.8451 4.6875 17.1875V14.3438C3.7757 14.6661 2.98593 15.2626 2.42647 16.0515C1.867 16.8403 1.56522 17.7829 1.5625 18.75V56.25C1.5625 57.4932 2.05636 58.6855 2.93544 59.5646C3.81451 60.4436 5.0068 60.9375 6.25 60.9375H25C26.2432 60.9375 27.4355 60.4436 28.3146 59.5646C29.1936 58.6855 29.6875 57.4932 29.6875 56.25ZM11.0156 38.5625C14.2969 28.7031 14.0625 28.125 15.625 28.125C17.1875 28.125 16.9531 28.7188 20.2344 38.5625C20.367 38.9562 20.3378 39.3864 20.1532 39.7586C19.9686 40.1307 19.6437 40.4143 19.25 40.5469C18.8563 40.6795 18.4261 40.6503 18.0539 40.4657C17.6818 40.2811 17.3982 39.9562 17.2656 39.5625L17.1875 39.0625C13.7344 39.0625 14.2656 38.8906 14.0625 39.5625C13.9299 39.9665 13.6422 40.3014 13.2627 40.4933C12.8833 40.6852 12.4431 40.7185 12.0391 40.5859C11.635 40.4533 11.3002 40.1656 11.1083 39.7862C10.9163 39.4067 10.883 38.9665 11.0156 38.5625ZM23.4375 56.25H7.8125C7.3981 56.25 7.00067 56.0854 6.70765 55.7924C6.41462 55.4993 6.25 55.1019 6.25 54.6875C6.25 54.2731 6.41462 53.8757 6.70765 53.5826C7.00067 53.2896 7.3981 53.125 7.8125 53.125H23.4375C23.8519 53.125 24.2493 53.2896 24.5424 53.5826C24.8354 53.8757 25 54.2731 25 54.6875C25 55.1019 24.8354 55.4993 24.5424 55.7924C24.2493 56.0854 23.8519 56.25 23.4375 56.25Z" fill="#2983D3"/>
<path d="M15.625 34.625L15.1875 35.9375H16.0625L15.625 34.625Z" fill="#2983D3"/>
<path d="M10.9375 20.3125H20.3125C21.1413 20.3125 21.9362 19.9833 22.5222 19.3972C23.1083 18.8112 23.4375 18.0163 23.4375 17.1875V14.0625H7.8125V17.1875C7.8125 18.0163 8.14174 18.8112 8.72779 19.3972C9.31384 19.9833 10.1087 20.3125 10.9375 20.3125ZM70.3125 14.3438V17.1875C70.3125 18.8451 69.654 20.4348 68.4819 21.6069C67.3098 22.779 65.7201 23.4375 64.0625 23.4375H54.6875C53.0299 23.4375 51.4402 22.779 50.2681 21.6069C49.096 20.4348 48.4375 18.8451 48.4375 17.1875V14.3438C47.5257 14.6661 46.7359 15.2626 46.1765 16.0515C45.617 16.8403 45.3152 17.7829 45.3125 18.75V56.25C45.3125 57.4932 45.8064 58.6855 46.6854 59.5646C47.5645 60.4436 48.7568 60.9375 50 60.9375H68.75C69.9932 60.9375 71.1855 60.4436 72.0646 59.5646C72.9436 58.6855 73.4375 57.4932 73.4375 56.25V18.75C73.4348 17.7829 73.133 16.8403 72.5735 16.0515C72.0141 15.2626 71.2243 14.6661 70.3125 14.3438ZM54.6875 29.6875C54.6875 29.2731 54.8521 28.8757 55.1451 28.5826C55.4382 28.2896 55.8356 28.125 56.25 28.125H60.1562C60.8817 28.125 61.5928 28.327 62.2099 28.7084C62.827 29.0898 63.3257 29.6355 63.6501 30.2843C63.9745 30.9332 64.1119 31.6595 64.0467 32.3821C63.9816 33.1046 63.7165 33.7947 63.2812 34.375C63.7165 34.9553 63.9816 35.6454 64.0467 36.3679C64.1119 37.0905 63.9745 37.8168 63.6501 38.4657C63.3257 39.1145 62.827 39.6602 62.2099 40.0416C61.5928 40.423 60.8817 40.625 60.1562 40.625H56.25C55.8356 40.625 55.4382 40.4604 55.1451 40.1674C54.8521 39.8743 54.6875 39.4769 54.6875 39.0625V29.6875ZM67.1875 56.25H51.5625C51.1481 56.25 50.7507 56.0854 50.4576 55.7924C50.1646 55.4993 50 55.1019 50 54.6875C50 54.2731 50.1646 53.8757 50.4576 53.5826C50.7507 53.2896 51.1481 53.125 51.5625 53.125H67.1875C67.6019 53.125 67.9993 53.2896 68.2924 53.5826C68.5854 53.8757 68.75 54.2731 68.75 54.6875C68.75 55.1019 68.5854 55.4993 68.2924 55.7924C67.9993 56.0854 67.6019 56.25 67.1875 56.25Z" fill="#2983D3"/>
<path d="M60.9375 36.7187C60.9375 35.7344 60 35.9375 57.8125 35.9375V37.5C60.1719 37.5 60.9375 37.6875 60.9375 36.7187ZM60.9375 32.0312C60.9375 31.0469 60 31.25 57.8125 31.25V32.8125C60.1719 32.8125 60.9375 33 60.9375 32.0312ZM51.5625 17.1875C51.5625 18.0163 51.8917 18.8111 52.4778 19.3972C53.0638 19.9832 53.8587 20.3125 54.6875 20.3125H64.0625C64.8913 20.3125 65.6862 19.9832 66.2722 19.3972C66.8583 18.8111 67.1875 18.0163 67.1875 17.1875V14.0625H51.5625V17.1875ZM56.875 64.3281C51.1649 68.2244 44.4128 70.3086 37.5 70.3086C30.5873 70.3086 23.8351 68.2244 18.125 64.3281C17.7811 64.096 17.359 64.0101 16.9517 64.0892C16.5444 64.1684 16.1852 64.406 15.9531 64.75C15.7211 65.0939 15.6351 65.516 15.7143 65.9233C15.7934 66.3306 16.0311 66.6898 16.375 66.9219C22.5955 71.1539 29.9452 73.417 37.4688 73.417C44.9924 73.417 52.342 71.1539 58.5625 66.9219C58.8464 66.6744 59.0314 66.3328 59.0834 65.9598C59.1354 65.5868 59.0509 65.2076 58.8456 64.8919C58.6402 64.5762 58.3277 64.3453 57.9656 64.2417C57.6036 64.1382 57.2163 64.1688 56.875 64.3281ZM18.125 10.6719C23.8351 6.77558 30.5873 4.6914 37.5 4.6914C44.4128 4.6914 51.1649 6.77558 56.875 10.6719C57.219 10.9039 57.641 10.9898 58.0483 10.9107C58.4556 10.8316 58.8148 10.5939 59.0469 10.25C59.2789 9.90603 59.3649 9.48398 59.2858 9.07667C59.2066 8.66937 58.969 8.31017 58.625 8.07811C52.4045 3.84608 45.0549 1.58301 37.5313 1.58301C30.0077 1.58301 22.658 3.84608 16.4375 8.07811C16.1536 8.32555 15.9686 8.66721 15.9166 9.0402C15.8646 9.4132 15.9491 9.79242 16.1544 10.1081C16.3598 10.4238 16.6723 10.6546 17.0344 10.7582C17.3964 10.8618 17.7837 10.8311 18.125 10.6719Z" fill="#2983D3"/>
</svg>
