<svg width="62" height="62" viewBox="0 0 62 62" fill="none" xmlns="http://www.w3.org/2000/svg">
<path d="M32.6864 53.3275C45.0176 53.3275 55.0139 43.3312 55.0139 31C55.0139 18.6689 45.0176 8.67261 32.6864 8.67261C20.3553 8.67261 10.359 18.6689 10.359 31C10.359 43.3312 20.3553 53.3275 32.6864 53.3275Z" fill="#F2F2F2"/>
<path d="M44.9311 12.326C44.3916 12.3575 44.3291 12.6893 44.4895 13.8149C43.7568 13.6404 43.0407 14.3127 42.2939 13.8769C42.2511 13.8538 42.1636 13.8729 42.1206 13.8715C41.3997 14.0012 41.3786 13.9788 41.534 13.1798C41.5604 13.029 41.6303 12.879 41.6344 12.7487C41.6398 12.5754 41.6459 12.38 41.6078 12.2049L41.521 12.2021C41.3955 12.7412 40.9685 13.2057 41.1436 13.8628C41.1416 13.928 41.0052 14.1189 40.9401 14.1168C40.418 14.1441 39.9984 14.3701 39.7853 14.9282C39.7405 14.9703 39.6727 15.0551 39.6292 15.0538C39.2368 15.1068 38.9477 15.3147 38.8473 15.7463C38.8234 15.832 38.6483 15.8701 38.5594 15.9325C38.4053 15.9929 38.2933 16.0981 38.1615 16.1592C38.0292 16.2203 37.8751 16.2802 37.7428 16.3413C37.5886 16.4235 37.4779 16.4853 37.3232 16.5674C37.4067 16.6787 37.4888 16.8335 37.5947 16.9232C37.8284 17.0827 38.0856 17.1994 38.2757 17.3787C38.5066 17.625 38.5264 18.3855 38.282 18.5736C38.1265 18.6774 37.8476 18.56 37.654 18.5105C37.2861 18.4561 36.9649 18.3157 36.6179 18.3048C36.2052 18.292 35.9764 18.6757 36.1381 19.0498C36.2379 19.3355 36.2522 19.5745 36.0914 19.8522C35.8843 20.2365 35.9694 20.9778 36.228 21.0511C36.5714 21.1917 36.9157 21.2894 37.2613 21.3436C37.5634 21.4183 37.8486 21.3185 37.968 20.9749C38.2966 20.1812 38.8342 19.655 39.5212 19.2204C39.5877 19.179 39.6766 19.1165 39.7207 19.0961C39.5747 18.8965 39.4933 18.72 39.3887 18.5863C39.6073 18.5496 39.7804 18.5768 39.9509 18.669C40.2726 18.8095 40.5741 18.8841 40.7838 18.4346C40.8564 18.1977 41.0513 18.2038 41.1973 18.404C41.2591 18.5141 41.3643 18.6261 41.3813 18.7788C41.5157 19.3477 41.9218 19.556 42.3041 19.8283C42.4745 19.9423 42.6864 20.1011 42.7455 20.2981C42.8059 20.4521 42.7754 20.7333 42.7055 20.8833C42.637 20.9898 42.4203 20.9831 42.2445 21.0428L41.9839 21.0347C41.9832 21.0564 41.9607 21.0992 41.96 21.1209C42.0864 21.2336 42.2324 21.4333 42.3858 21.3946C42.7775 21.3633 43.0571 20.7643 43.0565 20.0691C43.2071 20.1173 43.3368 20.1431 43.4868 20.2124C43.5092 20.1919 43.5329 20.1274 43.5553 20.1064C43.2804 19.8587 42.983 19.6538 42.7305 19.3855C42.3712 19.0705 41.9652 18.8622 41.9617 18.2756C41.9237 18.1005 41.7797 17.8357 42.0641 17.7793C42.3038 17.7433 42.6072 17.7745 42.5958 18.1432C42.5973 18.7732 42.9829 18.9591 43.3889 19.1669C43.5607 19.2375 43.7319 19.308 43.8364 19.4417C43.9416 19.5537 44.0224 19.7519 43.9973 19.8593C43.8555 20.2239 43.9343 20.4873 44.1211 20.754C44.2046 20.8648 44.2657 20.9971 44.3058 21.107C44.3879 21.2618 44.4259 21.4364 44.4647 21.5898C44.599 21.4635 44.7315 21.3807 44.8659 21.2549C44.9107 21.2128 44.9555 21.1708 44.9785 21.128C45.1801 20.9386 45.206 20.7878 44.973 20.6066C44.8244 20.4932 44.7434 20.3173 44.6172 20.183C44.9736 19.8897 45.2765 19.9209 45.5996 20.0179C45.8372 20.0688 46.1196 20.0558 46.2975 19.9309C46.3634 19.8895 46.2675 19.4957 46.275 19.2568C46.26 19.0395 46.203 18.7768 46.2953 18.6063C46.3916 18.3049 46.5729 18.0502 46.7317 17.8377C46.8899 17.647 47.114 17.4154 47.2001 17.4398C47.4364 17.5341 47.6021 17.7779 47.7474 17.9998C47.875 18.0908 47.9328 18.3312 48.0631 18.3353C48.2139 18.3617 48.4134 18.2375 48.5887 18.1782C48.5907 18.1131 48.5702 18.0907 48.5716 18.0473C48.3571 17.9536 48.1636 17.8824 47.9497 17.7887L47.9537 17.659C48.4792 17.5231 49.0053 17.3656 49.5315 17.2086C49.4365 17.466 49.3014 17.614 49.1656 17.8049C48.8935 18.1655 48.8887 18.3175 49.2052 18.61C49.3959 18.7676 49.6308 18.9053 49.7755 19.1273C49.8794 19.2821 49.914 19.5659 49.8645 19.76C49.8387 19.8896 49.5741 20.0113 49.4225 20.0066C49.1626 19.9767 48.8835 19.8811 48.6703 19.7445C48.1808 19.4249 47.7028 19.4317 47.2384 19.6999C46.8426 19.861 46.4897 20.0239 46.1149 20.2079C46.026 20.2703 45.8713 20.3525 45.8686 20.4388C45.9867 20.8333 46.0607 21.2487 46.2447 21.6235C46.2848 21.7334 46.6508 21.8318 46.718 21.7686C46.9652 21.4937 47.0914 21.6281 47.2815 21.8079C47.5111 22.0972 47.7276 22.1257 47.9741 21.873C48.0419 21.7881 48.1078 21.7685 48.1302 21.7474C48.2524 22.0121 48.3318 22.2532 48.4785 22.4317C48.687 22.6985 48.6823 22.8506 48.4147 23.0809C48.2369 23.2058 48.0551 23.461 48.049 23.6559C48.0585 24.0475 47.9275 24.0652 47.6898 24.0361C47.366 23.9608 46.9994 23.8841 46.6945 23.9181C45.8439 24.022 45.1127 23.7818 44.3895 23.3033C44.2408 23.19 43.9828 23.1167 43.8925 23.2226C43.7595 23.3054 43.7507 23.5872 43.7663 23.7834C43.818 24.2193 43.7053 24.3462 43.3421 24.161C42.8729 23.886 42.4045 23.567 41.9577 23.271C41.5109 22.9745 41.2623 22.5977 41.4333 21.9948C41.5101 21.6064 41.2995 21.4042 40.9289 21.4361C40.7116 21.451 40.4706 21.5088 40.2777 21.4375C39.5459 21.2191 38.8921 21.2857 38.2058 21.6991C37.829 21.9477 37.4114 22.1086 36.9423 21.8331C36.8995 21.8101 36.7 21.9343 36.6097 22.0402C36.3849 22.2935 36.1603 22.5257 35.9554 22.8231C35.8181 23.058 35.6349 23.3561 35.6492 23.5957C35.6764 24.1178 35.5563 24.4831 35.1578 24.7316C34.5597 25.1038 34.2149 25.723 33.934 26.3659C33.8424 26.5147 33.7935 26.6871 33.7026 26.8147C33.4323 27.1319 33.4201 27.5228 33.5812 27.9186C33.7394 28.4231 33.7239 28.9221 33.5555 29.4598C33.4591 29.7607 33.3811 30.1708 33.5257 30.4144C33.8341 30.967 34.099 31.5182 34.2308 32.174C34.2498 32.2616 34.2905 32.3498 34.3537 32.4165C34.7109 32.7972 35.0457 33.1984 35.4258 33.5581C35.7206 33.8494 36.0627 34.034 36.4402 33.7631C36.8394 33.4935 37.2963 33.4642 37.7546 33.3915C37.95 33.3976 38.1252 33.3596 38.2812 33.234C38.6811 32.9426 39.0465 33.0622 39.3846 33.3553C39.5957 33.5576 39.7567 33.9751 40.1545 33.7489C40.1769 33.7273 40.2624 33.7735 40.3039 33.84C40.6427 34.1114 40.7534 34.7443 40.5451 35.1509C40.2898 35.6859 40.2559 36.0757 40.5711 36.4111C40.9065 36.7911 41.155 37.1896 41.1822 37.7117C41.1985 37.8862 41.2793 38.0843 41.3615 38.2386C41.7459 39.1414 41.7834 40.0328 41.2797 40.864C40.9119 41.5042 40.8706 42.1329 41.1965 42.8382C41.479 43.5204 41.6739 44.2429 41.7161 44.9828C41.7413 45.5701 41.8752 46.139 42.0986 46.6454C42.3852 47.1973 42.5631 47.7676 42.4777 48.4161C42.4194 48.8926 42.5456 49.0269 42.9598 48.9741C43.5254 48.9482 44.0712 48.8571 44.617 48.7654C44.7046 48.7464 44.8159 48.6629 44.9048 48.6004C45.7514 47.9104 46.4281 47.1059 46.4884 45.8696C46.5209 45.5233 46.677 45.3977 46.9398 45.3195C47.0728 45.2367 47.2296 45.0894 47.2766 44.9604C47.396 44.6168 47.3627 44.2902 47.1785 43.9366C47.1181 43.7825 47.1065 43.4566 47.1757 43.3283C47.4249 42.9887 47.7174 42.6723 48.0508 42.4218C48.7622 41.901 49.1701 40.6538 48.937 39.778C48.7578 39.2511 48.7095 38.7067 48.5968 38.1384C48.3862 37.241 48.8376 36.6909 49.4397 36.1879C49.8851 35.8327 50.3528 35.4565 50.6507 34.9662C51.1965 34.1794 51.6587 33.2817 52.1196 32.427C52.235 32.2137 52.2438 31.9314 52.3163 31.695C52.0774 31.6876 51.839 31.6802 51.6415 31.7392C51.2057 31.7909 50.7881 31.9512 50.3734 32.0035C50.2647 32.0219 50.1167 31.8874 50.0339 31.7544C49.8078 31.3348 49.5829 30.893 49.3358 30.451C49.2964 30.3193 49.2135 30.208 49.1306 30.0755C48.9894 29.7233 48.8271 29.3492 48.7088 28.9764C48.4922 28.2528 48.2967 27.5515 48.0806 26.8279C47.9815 26.5209 47.9258 26.2154 47.8272 25.9079C47.7056 25.622 47.5841 25.3356 47.4409 25.0491C47.5943 25.0104 47.6798 25.0565 47.7212 25.123C48.1144 25.743 48.4852 26.3845 48.8783 27.0267C48.9409 27.0938 48.9151 27.2235 48.9328 27.3545C49.0136 27.5521 49.0292 27.7483 49.0883 27.9452C49.5161 28.8494 50.0329 29.6906 50.0643 30.7775C50.0555 31.0599 50.2251 31.1956 50.5334 31.053C50.7764 30.9301 51.0603 30.8738 51.3032 30.7514C51.6991 30.5898 52.0745 30.3841 52.4519 30.1355C52.8063 29.9074 53.1634 29.593 53.5401 29.3655C54.0716 29.0348 54.3907 28.5452 54.5623 27.9206C54.6112 27.7482 54.4679 27.4617 54.3872 27.2635C54.3056 27.1088 54.1128 27.0158 53.9865 26.882C53.7345 26.6132 53.4976 26.5406 53.1846 26.8352C52.9166 27.0655 52.5886 27.1422 52.3184 26.743C52.2987 26.6772 52.1901 26.6738 52.1486 26.629C52.0862 26.5189 51.9612 26.3628 51.9856 26.2766C52.1281 25.8903 52.0066 25.6038 51.7758 25.3363C51.6706 25.2243 51.5448 25.09 51.4844 24.9359C51.445 24.8042 51.4518 24.5876 51.4986 24.4803C51.5671 24.3737 51.7621 24.3798 51.9128 24.428C52.2577 24.504 52.3772 24.8555 52.4981 25.1631C52.7786 25.9105 52.9497 26.0028 53.6496 25.8507C53.7595 25.8106 53.9321 25.8378 53.9945 25.9261C54.1614 26.1902 54.3519 26.3801 54.5621 26.5063C53.3538 20.5926 49.8076 15.5299 44.9311 12.326ZM11.7359 33.019C12.27 33.0311 12.4843 33.168 12.6798 33.6321C12.721 33.7185 12.8507 33.7905 12.963 33.8649C13.0315 33.9155 13.1589 33.9094 13.2143 33.9775C13.4592 34.2613 13.8163 34.153 14.1 34.2422C14.1891 34.104 14.2438 33.9719 14.2992 33.84C14.7986 34.183 15.0984 34.7517 15.0084 35.1678C14.9171 35.5833 14.8278 35.9863 14.7791 36.3837C14.7715 36.5249 14.8856 36.6881 14.943 36.8475C14.9638 36.9054 15.0403 37.0138 15.0039 37.0684C14.906 37.4153 14.988 37.6808 15.3677 37.8328C16.0407 38.1086 16.4272 38.5958 16.8049 39.1158C17.1101 39.5121 17.4335 39.8407 18.0042 39.8694C18.6161 39.9038 18.896 40.0944 19.1155 40.5817C19.2679 40.9309 19.384 41.2748 19.537 41.641C19.7449 42.1486 19.9138 42.6702 20.2037 43.142C20.4144 43.5091 20.5398 43.8548 20.6612 44.2515C20.8226 44.8125 21.0742 45.3983 21.3655 45.9568C21.4114 46.0559 21.5925 46.1436 21.7058 46.2206C21.7679 46.2819 21.7967 46.3543 21.8332 46.4074C21.9209 46.6245 22.0335 46.8167 22.151 47.0405C22.2701 47.2972 22.4986 47.5829 22.0232 47.6996C22.4011 47.7345 22.5827 47.8692 22.6774 48.1364C22.6711 48.1558 22.7005 48.1952 22.7367 48.2157C23.152 48.4345 23.1685 48.6463 22.8974 48.8135C23.2252 49.048 23.5678 49.2419 23.9011 49.4718C24.1812 49.688 24.4772 49.7617 24.8329 49.7256C25.1398 49.7083 25.4336 49.7279 25.3913 49.3902C25.3923 49.3392 25.5218 49.2889 25.5762 49.2509C25.6527 49.1875 25.7234 49.1433 25.8003 49.0803C25.6127 49.0861 25.509 49.1425 25.3644 49.1484C25.2465 49.1603 25.0586 49.1653 25.0008 49.1201C24.6862 48.8877 24.4003 48.6603 24.1141 48.399C24.0941 48.3731 24.0831 48.2769 24.1189 48.2137C24.1693 47.9785 24.2225 47.7439 24.3129 47.5301C24.3938 47.3029 24.2257 47.2165 23.9846 47.1715C23.7602 47.1203 23.526 47.0555 23.2408 46.9751C23.3207 46.9142 23.3422 46.8574 23.3919 46.84C23.7759 46.5087 23.7925 46.2758 23.4764 45.7865C23.4223 45.7079 23.4408 45.5242 23.5319 45.4775C23.8101 45.2547 23.6619 45.0655 23.457 44.8465C23.3972 44.7865 23.3543 44.721 23.2779 44.6345C23.722 44.5691 24.1543 44.5505 24.1367 44.0843C24.145 43.7197 24.0839 43.4298 23.531 43.2459C23.8827 43.1662 24.1747 43.12 24.4843 43.0363C24.2495 42.8173 24.216 42.6271 24.4368 42.4966C24.5144 42.4262 24.5356 42.3279 24.5645 42.2419C24.76 41.7987 24.6145 41.375 24.372 40.9345C24.2269 40.7064 24.3025 40.5188 24.4917 40.3594C24.7243 40.172 24.9744 39.9804 25.1788 39.7739C25.3011 39.6352 25.3466 39.4605 25.3467 39.2698C25.3972 39.0648 25.3395 38.833 25.4004 38.6415C25.4828 38.415 25.5773 38.1728 25.3773 37.9528C24.9369 37.4657 24.9774 36.993 25.3044 36.5127C25.3575 36.4143 25.4226 36.2986 25.4485 36.179C25.575 35.893 25.5079 35.5878 25.2258 35.4454C24.6447 35.1223 24.0291 34.9255 23.347 35.0084C22.9739 35.0644 22.628 35.0422 22.2788 34.9039C21.9964 34.7941 21.6658 34.6488 21.3398 34.892C21.3884 34.3901 21.1566 34.0234 20.7844 33.7232C20.6715 33.6593 20.4723 33.5546 20.3543 33.5921C19.6247 33.8081 18.9869 33.4802 18.3357 33.2611C18.279 33.2568 18.2415 33.1901 18.2258 33.1342C18.0364 32.7871 17.9133 32.7349 17.5555 32.9745C17.2163 33.2115 16.8637 33.0668 16.5248 33.0353C16.3513 33.0059 16.1916 32.9584 16.0533 32.9219C16.0951 33.0795 16.1204 33.2396 16.164 33.3967C16.1681 33.4113 16.154 33.4284 16.166 33.4714C16.0921 33.4693 15.9866 33.4877 15.9787 33.459C15.9137 33.2251 15.8508 32.991 15.7902 32.7566C15.3807 33.1539 14.9191 33.4287 14.8999 34.0109C14.4029 33.6864 14.3996 33.669 13.8938 33.9705C13.725 34.0917 13.5945 34.0217 13.4486 33.8918C13.0477 33.5732 13.0022 33.1166 12.8984 32.6868C12.8057 32.2241 12.7238 32.1747 12.2673 32.3344C12.197 32.3447 12.1476 32.3674 12.1122 32.3726C11.9851 32.3758 11.858 32.3789 11.7343 32.3968C11.7248 32.2738 11.7152 32.1513 11.7101 32.0434C11.7329 31.6526 11.7615 31.2622 11.7928 30.8576C11.2423 30.9135 11.119 31.0372 11.0957 31.4604C11.0989 31.5685 11.0844 31.7575 11.0169 31.7823C10.812 31.8663 10.6005 32.008 10.3822 32.0146C10.3903 32.1948 10.4004 32.3744 10.4127 32.5534C10.6505 32.5844 10.8693 32.6873 11.1022 32.8167C11.2898 32.9145 11.5128 33.0058 11.7359 33.019Z" fill="#2983D3"/>
<path opacity="0.3" d="M45.0988 12.4419C48.6863 16.4035 50.8903 21.6413 50.8903 27.4068C50.8903 39.7381 40.8939 49.7344 28.5627 49.7344C23.9684 49.7344 19.7005 48.3437 16.1506 45.9647C20.236 50.4761 26.1211 53.3274 32.6868 53.3274C45.018 53.3274 55.0145 43.331 55.0145 30.9998C55.0145 23.2628 51.077 16.4482 45.0988 12.4419Z" fill="#3086EE" fill-opacity="0.4"/>
<path d="M10.5138 28.7686C10.9412 28.198 10.978 28.1994 11.7169 28.5045C11.8313 28.5538 11.9908 28.5368 12.0945 28.51C12.2835 28.4446 12.3641 28.5119 12.3872 28.6765C12.4351 28.7617 12.4148 28.8705 12.4655 28.9715C12.5757 29.354 12.8085 29.5541 13.1915 29.5827C13.0491 29.2678 12.9154 28.9807 12.7983 28.6612C12.7458 28.546 12.7098 28.4137 12.7117 28.2929C12.7412 27.8361 12.9491 27.4535 13.3275 27.1475C13.6709 26.8451 13.7299 26.5432 13.5543 26.1417C13.5096 26.0264 13.4677 25.9407 13.4054 25.8264C13.5059 25.7439 13.6091 25.6904 13.6926 25.6093C14.0259 25.2857 14.4167 24.9897 14.6846 24.6473C14.9349 24.3214 15.2114 24.1121 15.6134 23.9397C15.6526 24.0674 15.6918 24.166 15.7494 24.2633C15.8554 24.2559 15.9978 24.2739 16.067 24.2255C16.4141 24.0411 16.7261 23.8609 17.0566 23.6663C17.2304 23.5543 17.2613 23.3819 17.099 23.222C17.0465 23.2538 16.994 23.2713 16.9419 23.3179C16.5072 23.6322 16.3104 23.6046 16.09 23.157C16.0716 23.0717 16.0172 22.974 16.0347 22.9007C16.12 22.507 15.8581 22.3632 15.47 22.3388C15.452 22.3397 15.4525 22.3107 15.4179 22.2397C15.753 22.2231 16.0531 22.194 16.3707 22.1922C16.6708 22.177 16.9879 22.2033 17.3235 22.1991C17.3185 22.0825 17.3341 21.9848 17.3724 21.9041C17.7107 21.8617 18.0924 21.7732 18.3372 21.5298C18.3833 21.4837 18.7986 20.6383 18.5386 20.6724C19.047 20.6056 19.5555 20.5388 20.0644 20.4719C20.2344 20.4493 20.4225 20.4171 20.5281 20.282C20.6037 20.1852 20.6198 20.0561 20.6318 19.9335C20.6972 19.2476 20.7207 18.5354 20.8872 17.8735C21.0199 17.661 21.1485 17.4481 21.2651 17.225C21.4219 16.9659 21.5431 16.8576 21.8505 16.9111C22.1405 16.9645 22.3654 16.8553 22.618 16.6815C22.9117 16.4672 23.2339 16.3081 23.5865 16.1768C24.053 15.9933 24.5425 15.8905 25.0228 15.7366C25.1519 15.6983 25.3202 15.6347 25.3294 15.5831C25.3796 15.2982 25.6046 15.3139 25.8682 15.3033C25.8894 14.9944 25.9125 14.6985 25.9337 14.4279C26.0134 14.3781 26.1047 14.2767 26.2079 14.202C26.438 14.0269 26.7316 13.8812 26.7058 13.6115C26.6459 13.3405 26.6956 13.1358 27.1999 13.0782C26.928 12.9021 26.7178 12.7648 26.4942 12.6122C27.2635 12.2075 27.9656 11.8221 28.6501 11.457C28.3431 11.2505 27.1552 11.2372 26.6671 11.4676C26.3647 11.605 26.3296 11.6036 26.1775 11.4635C26.4951 11.2736 26.7897 11.1104 27.1091 10.9242C26.5836 10.6937 26.0872 10.4854 25.5935 10.2724C25.5704 10.2706 25.5479 10.2687 25.5248 10.2669C25.1989 10.248 24.8804 10.2212 24.561 10.1973C24.0656 10.3909 23.4423 10.672 22.7903 10.9798C16.0977 14.2945 11.3053 20.8663 10.4845 28.6231C10.4793 28.6728 10.4743 28.7217 10.4696 28.7686L10.5138 28.7686Z" fill="#2983D3"/>
<path d="M53.525 23.0526C53.6977 23.5062 53.8469 23.9702 53.9906 24.4373C61.1624 27.5007 60.0541 31.993 50.6269 34.6922C39.881 37.7688 22.3408 37.7688 11.5247 34.6923C0.708567 31.6156 0.651427 26.3008 11.3972 23.2242C11.5353 23.1846 11.687 23.1515 11.8273 23.113C11.9705 22.7338 12.1301 22.3632 12.2931 21.9941C11.3333 22.2089 10.3977 22.4363 9.51542 22.6889C-2.26624 26.0621 -2.20359 31.545 9.65513 34.9182C21.5054 38.289 40.727 38.2913 52.5087 34.9181C63.8738 31.6642 64.1753 26.4433 53.525 23.0526Z" fill="#2553E4"/>
<path d="M50.4385 44.472C50.3585 44.5837 50.2866 44.7022 50.2046 44.8121C51.5832 50.0351 47.5384 51.4059 39.836 47.5187C29.8573 42.4825 16.9783 30.5748 11.1252 20.9731C5.27214 11.3712 8.93931 7.62978 18.9181 12.6659C19.1131 12.7644 19.3137 12.8766 19.5131 12.9857C19.8032 12.7726 20.1019 12.5711 20.4024 12.372C19.5549 11.8783 18.7155 11.4071 17.8998 10.9954C6.95913 5.47385 3.28287 9.54222 9.70016 20.0695C16.113 30.5895 30.2248 43.6403 41.1655 49.1618C50.834 54.0414 54.8115 51.4086 51.1711 43.4612C50.937 43.8064 50.6909 44.1409 50.4385 44.472Z" fill="#2553E4"/>
<path d="M33.4793 7.81441C33.2225 8.0846 32.9709 8.38507 32.7172 8.67417C33.3422 8.67508 33.9578 8.71285 34.5684 8.76757C41.6089 2.23365 47.4368 5.80822 47.2053 16.8825C46.9614 28.5476 40.5877 44.5348 32.9966 52.5225C26.2117 59.6619 20.2863 57.6388 19.3696 48.8827C18.8646 48.5066 18.3746 48.1124 17.9037 47.6959C17.9322 59.7954 24.3695 62.7477 32.5097 54.1821C40.8267 45.4306 47.8142 27.9123 48.0816 15.1229C48.3489 2.34241 41.7962 -0.937104 33.4793 7.81441Z" fill="#2553E4"/>
<path d="M50.8494 18.0771C51.1189 18.4563 51.3774 18.8427 51.6234 19.2389C58.3802 19.4709 58.9154 23.675 51.903 29.4559C43.616 36.2875 28.1634 43.0145 17.4546 44.4523C7.67681 45.765 5.03571 42.025 10.9843 36.1985C10.888 35.7985 10.8079 35.3928 10.7335 34.9846C2.00753 42.3272 4.22983 47.0107 15.8359 45.4524C27.5686 43.8772 44.5034 36.5075 53.5892 29.0174C62.1048 21.9972 60.7328 17.33 50.8494 18.0771Z" fill="#2553E4"/>
<path d="M22.4725 45.4535C23.2114 45.4535 23.8104 44.8545 23.8104 44.1155C23.8104 43.3766 23.2114 42.7776 22.4725 42.7776C21.7335 42.7776 21.1345 43.3766 21.1345 44.1155C21.1345 44.8545 21.7335 45.4535 22.4725 45.4535Z" fill="#3086EE" fill-opacity="0.4"/>
<path d="M6.23476 35.4578C7.31405 35.4578 8.189 34.5829 8.189 33.5036C8.189 32.4243 7.31405 31.5493 6.23476 31.5493C5.15546 31.5493 4.28052 32.4243 4.28052 33.5036C4.28052 34.5829 5.15546 35.4578 6.23476 35.4578Z" fill="#3086EE" fill-opacity="0.4"/>
<path d="M16.1509 12.2028C16.8899 12.2028 17.4889 11.6038 17.4889 10.8648C17.4889 10.1259 16.8899 9.52686 16.1509 9.52686C15.412 9.52686 14.813 10.1259 14.813 10.8648C14.813 11.6038 15.412 12.2028 16.1509 12.2028Z" fill="#3086EE" fill-opacity="0.4"/>
<path d="M47.6037 18.5306C48.683 18.5306 49.5579 17.6556 49.5579 16.5763C49.5579 15.497 48.683 14.6221 47.6037 14.6221C46.5244 14.6221 45.6494 15.497 45.6494 16.5763C45.6494 17.6556 46.5244 18.5306 47.6037 18.5306Z" fill="#3086EE" fill-opacity="0.4"/>
<path d="M43.0056 37.7654C43.7733 37.7654 44.3957 37.1431 44.3957 36.3754C44.3957 35.6077 43.7733 34.9854 43.0056 34.9854C42.2379 34.9854 41.6156 35.6077 41.6156 36.3754C41.6156 37.1431 42.2379 37.7654 43.0056 37.7654Z" fill="#3086EE" fill-opacity="0.4"/>
<path d="M58.8504 32.9541C59.9297 32.9541 60.8046 32.0792 60.8046 30.9999C60.8046 29.9206 59.9297 29.0457 58.8504 29.0457C57.7711 29.0457 56.8961 29.9206 56.8961 30.9999C56.8961 32.0792 57.7711 32.9541 58.8504 32.9541Z" fill="#3086EE" fill-opacity="0.4"/>
<path d="M29.5232 58.1275C30.6025 58.1275 31.4775 57.2525 31.4775 56.1732C31.4775 55.0939 30.6025 54.219 29.5232 54.219C28.4439 54.219 27.569 55.0939 27.569 56.1732C27.569 57.2525 28.4439 58.1275 29.5232 58.1275Z" fill="#3086EE" fill-opacity="0.4"/>
</svg>
