<svg width="45" height="45" viewBox="0 0 45 45" fill="none" xmlns="http://www.w3.org/2000/svg">
<g clip-path="url(#clip0_78_4850)">
<path d="M36 0H9C4.02944 0 0 4.02944 0 9V36C0 40.9706 4.02944 45 9 45H36C40.9706 45 45 40.9706 45 36V9C45 4.02944 40.9706 0 36 0Z" fill="#2983D3" fill-opacity="0.09"/>
<path d="M9 36.0002L10.9125 29.0668C9.735 27.0289 9.11607 24.7165 9.11822 22.3629C9.12036 20.0094 9.74351 17.6981 10.9247 15.6624C12.1059 13.6267 13.8034 11.9388 15.8457 10.769C17.8879 9.59923 20.2027 8.98908 22.5563 9.00015C24.5954 9.00271 26.607 9.47105 28.4376 10.3694C30.2682 11.2678 31.8694 12.5725 33.1189 14.184C34.3685 15.7954 35.2334 17.671 35.6477 19.6677C36.062 21.6643 36.0148 23.7292 35.5095 25.7047C35.0043 27.6803 34.0544 29.5144 32.7324 31.0669C31.4104 32.6195 29.7512 33.8495 27.8814 34.6632C26.0116 35.4769 23.9806 35.8526 21.9435 35.7619C19.9064 35.6711 17.9169 35.1162 16.1269 34.1394L9 36.0002ZM16.4565 31.7173C18.2745 32.8836 20.3884 33.5051 22.5484 33.5083C25.0313 33.4959 27.4386 32.6524 29.3863 31.1124C31.3339 29.5723 32.7098 27.4244 33.2944 25.0113C33.879 22.5981 33.6387 20.0586 32.6118 17.798C31.5848 15.5373 29.8305 13.6857 27.6285 12.5383C25.4265 11.391 22.9037 11.0141 20.4625 11.4677C18.0213 11.9213 15.8024 13.1794 14.1595 15.0412C12.5167 16.903 11.5446 19.2613 11.3984 21.7399C11.2521 24.2186 11.9401 26.6748 13.3526 28.7169L12.2276 32.8209L16.4565 31.7173ZM29.3276 25.5703C29.2444 25.4308 29.0205 25.3453 28.683 25.1799C28.3455 25.0145 26.6963 24.2034 26.3869 24.092C26.0775 23.9807 25.8559 23.9244 25.6309 24.2597C25.4059 24.5949 24.7624 25.3475 24.5678 25.5703C24.3731 25.793 24.1751 25.8212 23.8399 25.6535C22.8505 25.2612 21.9368 24.6997 21.1399 23.9942C20.4057 23.3188 19.776 22.5382 19.2713 21.6778C19.0755 21.3403 19.251 21.1625 19.4186 20.996C19.5705 20.8464 19.7561 20.6057 19.9226 20.4099C20.0622 20.2421 20.176 20.0544 20.2601 19.853C20.3049 19.7608 20.3258 19.6588 20.3209 19.5564C20.316 19.454 20.2854 19.3544 20.232 19.2669C20.1476 19.1004 19.476 17.4545 19.197 16.7851C18.9236 16.1338 18.6469 16.2226 18.441 16.2114L17.7964 16.2001C17.6256 16.204 17.4575 16.2432 17.3026 16.3152C17.1477 16.3872 17.0094 16.4906 16.8964 16.6186C16.5179 16.9765 16.2183 17.4093 16.0166 17.8896C15.815 18.3698 15.7157 18.8868 15.7253 19.4075C15.8351 20.6694 16.3118 21.8715 17.0966 22.8658C18.5394 25.0171 20.5166 26.7566 22.8341 27.9137C23.4589 28.1816 24.0973 28.4167 24.7466 28.6179C25.4323 28.8249 26.1566 28.8704 26.8628 28.7507C27.3299 28.6562 27.7725 28.4663 28.1628 28.1927C28.5531 27.9192 28.8826 27.5679 29.1308 27.161C29.3512 26.6616 29.4204 26.1082 29.3276 25.5703Z" fill="#1A45D6"/>
</g>
<defs>
<clipPath id="clip0_78_4850">
<rect width="45" height="45" fill="white"/>
</clipPath>
</defs>
</svg>
