<svg width="110" height="107" viewBox="0 0 110 107" fill="none" xmlns="http://www.w3.org/2000/svg">
<path d="M48.75 101.901C74.949 101.901 96.1875 80.513 96.1875 54.129C96.1875 27.7451 74.949 6.35669 48.75 6.35669C22.551 6.35669 1.31248 27.7451 1.31248 54.129C1.31248 80.513 22.551 101.901 48.75 101.901Z" fill="#1A2E62" stroke="#8DCAFF" stroke-width="2.1"/>
<mask id="mask0_1_425" style="mask-type:luminance" maskUnits="userSpaceOnUse" x="2" y="8" width="93" height="94">
<path d="M48.6669 8.83643C23.3422 8.83643 2.8125 29.5109 2.8125 55.0143C2.8125 80.5177 23.3421 101.192 48.6667 101.192C73.9914 101.192 94.5211 80.5178 94.5211 55.0144C94.5211 29.511 73.9915 8.83643 48.6669 8.83643Z" fill="white"/>
</mask>
<g mask="url(#mask0_1_425)">
<path d="M83.8039 79.3495L87.7091 80.6978L89.9596 62.5673C89.9596 62.5673 88.9585 62.1531 88.4172 62.1307C87.8759 62.1084 87.1539 62.1471 87.1539 62.1471L83.8039 79.3495Z" fill="#D4EBFF"/>
<path d="M6.47475 46.9406C8.00608 43.6692 19.3775 34.7063 19.3775 34.7063C16.63 57.1091 17.4705 72.6184 18.678 99.92C10.879 97.6212 10.1989 96.7745 6.69108 95.0027C4.71198 74.4244 4.94341 50.212 6.47475 46.9406Z" fill="#D4EBFF" stroke="black" stroke-width="0.867017" stroke-linecap="round" stroke-linejoin="round"/>
<path d="M16.9101 65.8094L21.2661 70.0162L17.2426 80.4571C17.2426 80.4571 20.6975 80.9275 16.7502 80.7116C12.803 80.4956 6.04555 76.2427 6.04555 76.2427L5.82596 74.697V73.1829V70.1549V65.6128L11.861 70.914L16.9101 65.8094Z" fill="#1E96FC"/>
<path d="M16.8431 60.1837L21.1991 64.3904L21.3098 73.765L15.9201 68.56L11.0153 73.5188L5.82549 66.3688C5.82549 66.3688 5.69402 59.5543 5.82549 59.5557C5.95697 59.5572 11.7941 65.2883 11.7941 65.2883L16.8431 60.1837Z" fill="#61B6FF"/>
<path d="M16.7612 53.2612L21.1172 57.4681L21.2279 66.8426L15.8381 61.6376L10.9333 66.5963C10.9333 66.5963 5.95388 60.7636 5.8252 60.5024C5.69651 60.241 6.38898 53.2612 6.38898 53.2612L11.7121 58.3659L16.7612 53.2612Z" fill="#8DCBFF"/>
<path d="M88.1834 35.3834C88.1667 35.3618 88.1001 35.2962 87.928 35.2028C87.764 35.1138 87.5391 35.0179 87.2485 34.9178C86.6676 34.7178 85.8727 34.5175 84.8833 34.321C82.9071 33.9286 80.2125 33.5623 77.027 33.2369C70.6595 32.5864 62.3755 32.1041 54.0549 31.8977C45.7334 31.6915 37.3893 31.7618 30.8996 32.2141C27.6528 32.4404 24.886 32.7613 22.8239 33.1865C21.7918 33.3994 20.9534 33.6349 20.3259 33.8901C19.679 34.1533 19.3359 34.4062 19.1963 34.6053C19.0164 34.8616 18.8165 35.3251 18.6141 36.0219C18.4151 36.7064 18.2259 37.5725 18.0478 38.6C17.6916 40.6541 17.3866 43.3163 17.1346 46.3863C16.6309 52.5242 16.3424 60.2541 16.276 67.9302C16.2095 75.6064 16.365 83.2172 16.7475 89.1166C16.9389 92.0679 17.1863 94.5795 17.4888 96.453C17.6403 97.3907 17.8034 98.1553 17.9758 98.7297C18.1565 99.3318 18.323 99.6362 18.4308 99.7449C18.4699 99.7843 18.5665 99.8549 18.7594 99.9429C18.9455 100.028 19.1915 100.116 19.5005 100.204C20.1184 100.382 20.9464 100.55 21.9639 100.708C23.9968 101.024 26.7343 101.289 29.9501 101.505C36.3788 101.936 44.6766 102.165 52.9803 102.208C61.2834 102.25 69.583 102.106 76.0143 101.791C79.231 101.633 81.9724 101.433 84.0101 101.194C85.03 101.074 85.8634 100.945 86.4878 100.81C86.8001 100.742 87.0511 100.674 87.2426 100.608C87.443 100.539 87.5428 100.483 87.5799 100.455C87.5941 100.444 87.6515 100.388 87.7346 100.23C87.8138 100.08 87.8982 99.8712 87.9853 99.599C88.1591 99.055 88.3263 98.3085 88.4839 97.3765C88.7985 95.5155 89.0649 92.9774 89.2822 89.9753C89.7167 83.9749 89.9525 76.1696 89.9984 68.3277C90.0443 60.4864 89.9001 52.6191 89.5764 46.4956C89.4144 43.4326 89.2079 40.8146 88.9592 38.8575C88.8347 37.878 88.7009 37.0747 88.5596 36.4684C88.4111 35.8319 88.2728 35.5002 88.1834 35.3834Z" fill="#D4EBFF" stroke="black" stroke-width="0.867017"/>
<path d="M63.0141 79.406C55.5409 91.4073 43.2361 81.2468 44.4213 78.5265C45.6063 75.8061 48.4038 78.8627 54.2553 78.2969C60.1066 77.7312 63.6828 75.2804 63.0141 79.406Z" fill="white" stroke="black" stroke-width="1.38632" stroke-linejoin="round"/>
<path d="M38.2158 45.7421C35.0025 45.1113 30.5629 44.4511 26.7836 50.4653" stroke="black" stroke-width="1.59954" stroke-linecap="round" stroke-linejoin="round"/>
<path d="M80.7448 49.3272C78.5875 46.8473 75.4785 43.588 68.8341 46.0134" stroke="black" stroke-width="1.59954" stroke-linecap="round" stroke-linejoin="round"/>
<path d="M36.4875 72.1603C41.4091 72.042 45.2746 66.9805 45.1213 60.855C44.9679 54.7297 40.8536 49.8601 35.9319 49.9784C31.0101 50.0968 27.1446 55.1584 27.298 61.2837C27.4515 67.4091 31.5658 72.2787 36.4875 72.1603Z" fill="white"/>
<path d="M71.889 72.121C76.8108 72.0026 80.6763 66.9411 80.5229 60.8157C80.3695 54.6903 76.2553 49.8207 71.3335 49.9391C66.4118 50.0575 62.5463 55.1189 62.6996 61.2444C62.8531 67.3697 66.9674 72.2393 71.889 72.121Z" fill="white"/>
<path d="M44.9421 60.2352C45.0884 66.0772 41.4679 70.458 36.7738 70.5709C32.0796 70.6837 27.6066 66.3707 27.4603 60.5287C27.3139 54.6867 31.4836 49.9746 36.1778 49.8616C40.8719 49.7487 44.7958 54.3931 44.9421 60.2352Z" fill="black"/>
<path d="M79.9046 59.9194C80.105 65.3045 75.7517 71.6847 71.0576 71.7977C66.3635 71.9106 62.6042 66.3792 62.4579 60.5371C62.3116 54.6951 67.5794 49.204 71.5791 49.8224C75.579 50.4407 79.7044 54.5343 79.9046 59.9194Z" fill="black"/>
<path d="M41.0196 65.7355C41.1385 67.7156 38.527 68.9589 36.3441 68.9349C34.1611 68.9108 32.6564 67.5662 32.2326 66.2865C31.8087 65.0066 33.6175 64.4547 35.7892 64.3226C38.1616 63.3069 40.9234 64.1316 41.0196 65.7355Z" fill="#BED7EC"/>
<path d="M75.8353 66.4799C75.9541 68.4599 73.3426 69.7032 71.1598 69.6793C68.9769 69.6553 67.4721 68.3106 67.0483 67.0308C66.6245 65.751 68.4331 65.1992 70.6049 65.0669C72.9773 64.0514 75.739 64.876 75.8353 66.4799Z" fill="#BED7EC"/>
<path d="M36.7104 57.9264C34.8707 60.1606 32.9929 61.0247 31.4104 60.799C29.497 60.526 30.0194 56.5742 31.2955 54.1179C32.5717 51.6615 34.3809 51.0338 36.0317 51.9037C37.6827 52.7736 38.8565 53.9314 36.7104 57.9264Z" fill="white"/>
<path d="M71.537 59.676C69.6975 61.9101 67.8196 62.7742 66.237 62.5485C64.3236 62.2757 64.846 58.3237 66.1221 55.8674C67.3984 53.411 69.2075 52.7833 70.8585 53.6532C72.5094 54.5231 73.6831 55.681 71.537 59.676Z" fill="white"/>
<path d="M41.8188 60.1117C41.7035 60.931 41.2553 61.5446 40.5579 61.4451C39.8605 61.3457 39.1781 60.5709 39.2934 59.7515C39.4085 58.9323 40.2778 58.3786 40.9751 58.4781C41.6724 58.5775 41.9339 59.2924 41.8188 60.1117Z" fill="white"/>
<path d="M77.0077 60.1615C76.9015 60.9168 76.4882 61.4825 75.8454 61.3908C75.2024 61.2991 74.5732 60.5848 74.6795 59.8294C74.7857 59.0741 75.587 58.5637 76.23 58.6554C76.8729 58.7471 77.114 59.4061 77.0077 60.1615Z" fill="white"/>
<path d="M41.0496 66.2581C40.857 67.6275 39.4447 68.5586 38.0849 68.3646C36.725 68.1707 35.7787 66.9033 35.9712 65.5338C36.1639 64.1645 37.9275 62.9674 39.2874 63.1613C40.6472 63.3552 41.2421 64.8886 41.0496 66.2581Z" fill="white"/>
<path d="M76.4488 66.2193C76.2563 67.5887 74.8439 68.5197 73.484 68.3259C72.1241 68.1319 71.1779 66.8646 71.3705 65.4951C71.563 64.1257 73.3268 62.9286 74.6866 63.1225C76.0464 63.3165 76.6414 64.8499 76.4488 66.2193Z" fill="white"/>
</g>
<path d="M96.9836 42.3279C95.887 43.3458 95.2007 44.695 95.4967 46.1855" stroke="#1E96FC" stroke-width="0.882551" stroke-linecap="round"/>
<path d="M25.9247 93.235C4.98915 96.653 5.04585 69.1551 15.9226 63.8767C16.1609 63.7611 16.4424 63.8615 16.5664 64.0969C17.8853 66.601 24.7777 79.6315 25.3179 79.5151C25.9155 79.3865 28.5529 83.8505 28.5547 86.8517C28.5562 89.413 28.5547 91.9558 26.0641 93.191C26.0212 93.2122 25.9719 93.2273 25.9247 93.235Z" fill="#D4EBFF" stroke="black" stroke-width="1.12472"/>
<path d="M26.766 78.808L23.4429 81.3178L15.7105 64.9715C15.7105 64.9715 16.5412 64.2635 17.0525 64.0704C17.5636 63.8774 18.2666 63.6843 18.2666 63.6843L26.766 78.808Z" fill="#D4EBFF"/>
<path d="M107.24 46.6902C111.143 55.4397 101.293 82.685 84.7267 75.664C84.6016 75.6109 84.493 75.5121 84.4276 75.3901L80.6849 68.4013C80.6327 68.3039 80.6031 68.2001 80.6222 68.091C81.1851 64.8795 95.2381 55.1502 98.0655 51.948C98.231 51.7606 98.236 51.4828 98.1171 51.2596C94.3956 44.2682 103.389 38.0575 107.24 46.6902Z" fill="#D4EBFF" stroke="black" stroke-width="1.13739"/>
<path d="M89.6337 73.7503C89.6964 73.3087 89.5963 69.5489 89.4459 58.0422L78.3581 66.3695L81.5529 80.942C87.4932 75.1279 89.1191 74.6869 89.6337 73.7503Z" fill="#D4EBFF"/>
</svg>
