<svg width="21" height="21" viewBox="0 0 21 21" fill="none" xmlns="http://www.w3.org/2000/svg">
<path d="M19.0312 10.5C19.0365 12.5365 18.3063 14.5064 16.975 16.0475C16.7393 15.6632 16.4668 15.3027 16.1612 14.9712C15.3091 14.0406 14.2429 13.3318 13.055 12.9062C13.7378 12.374 14.2374 11.6419 14.484 10.812C14.7307 9.98215 14.712 9.09598 14.4306 8.27724C14.1492 7.4585 13.6192 6.74807 12.9145 6.24512C12.2099 5.74218 11.3657 5.47183 10.5 5.47183C9.63425 5.47183 8.79012 5.74218 8.08546 6.24512C7.38079 6.74807 6.85077 7.4585 6.56939 8.27724C6.28801 9.09598 6.26933 9.98215 6.51594 10.812C6.76256 11.6419 7.26216 12.374 7.945 12.9062C6.75711 13.3318 5.6909 14.0406 4.83875 14.9712C4.53322 15.3027 4.26069 15.6632 4.025 16.0475C3.12922 15.0033 2.49925 13.758 2.1888 12.4178C1.87835 11.0775 1.89663 9.68207 2.24209 8.35041C2.58754 7.01874 3.24992 5.79037 4.17274 4.77005C5.09556 3.74972 6.25145 2.96769 7.54184 2.49066C8.83223 2.01363 10.2188 1.85574 11.5834 2.03046C12.9481 2.20518 14.2502 2.70731 15.3787 3.49406C16.5073 4.2808 17.4289 5.32881 18.0649 6.54872C18.7009 7.76863 19.0324 9.12426 19.0312 10.5ZM10.5 13.7812C9.60155 13.7801 8.71331 13.9716 7.89519 14.3429C7.07708 14.7142 6.34811 15.2567 5.7575 15.9337C5.45845 16.257 5.19988 16.6155 4.9875 17.0012C6.52503 18.3122 8.47944 19.0323 10.5 19.0323C12.5205 19.0323 14.475 18.3122 16.0125 17.0012C15.8001 16.6155 15.5415 16.257 15.2425 15.9337C14.6519 15.2567 13.9229 14.7142 13.1048 14.3429C12.2867 13.9716 11.3984 13.7801 10.5 13.7812ZM13.3437 9.625C13.3437 9.06256 13.177 8.51275 12.8645 8.0451C12.552 7.57744 12.1079 7.21295 11.5883 6.99772C11.0686 6.78248 10.4968 6.72616 9.94521 6.83589C9.39357 6.94562 8.88687 7.21646 8.48916 7.61416C8.09146 8.01187 7.82061 8.51858 7.71089 9.07021C7.60116 9.62184 7.65748 10.1936 7.87271 10.7133C8.08795 11.2329 8.45244 11.677 8.92009 11.9895C9.38775 12.302 9.93755 12.4687 10.5 12.4687C11.2535 12.4664 11.9755 12.1661 12.5083 11.6333C13.0411 11.1005 13.3414 10.3785 13.3437 9.625Z" fill="url(#paint0_linear_1_720)"/>
<defs>
<linearGradient id="paint0_linear_1_720" x1="4.48" y1="16.5025" x2="16.52" y2="4.4625" gradientUnits="userSpaceOnUse">
<stop stop-color="#0D0856"/>
<stop offset="1" stop-color="#558BCB"/>
</linearGradient>
</defs>
</svg>
