<svg width="18" height="18" viewBox="0 0 18 18" fill="none" xmlns="http://www.w3.org/2000/svg">
<path d="M16.1478 1.85222C15.1514 0.855899 13.5361 0.855902 12.5398 1.85222L7.75852 6.63347C7.69677 6.69522 7.65025 6.77049 7.62263 6.85334L6.21638 11.0721C6.14901 11.2742 6.20161 11.4971 6.35227 11.6477C6.50293 11.7984 6.72577 11.851 6.9279 11.7836L11.1466 10.3774C11.2295 10.3497 11.3048 10.3032 11.3666 10.2415L16.1478 5.46022C17.1441 4.4639 17.1441 2.84854 16.1478 1.85222Z" fill="#8DC14B"/>
<path d="M14.6102 8.58875C14.6201 8.72454 14.625 8.86169 14.625 9C14.625 12.1066 12.1066 14.625 9 14.625C5.8934 14.625 3.375 12.1066 3.375 9C3.375 5.8934 5.8934 3.375 9 3.375C9.13827 3.375 9.27539 3.37999 9.41117 3.38979L10.4046 2.39635C9.95153 2.30045 9.48166 2.25 9 2.25C5.27208 2.25 2.25 5.27208 2.25 9C2.25 12.7279 5.27208 15.75 9 15.75C12.7279 15.75 15.75 12.7279 15.75 9C15.75 8.51832 15.6996 8.04842 15.6036 7.5953L14.6102 8.58875Z" fill="#8DC14B"/>
</svg>
