<svg width="24" height="24" viewBox="0 0 24 24" fill="none" xmlns="http://www.w3.org/2000/svg">
<path d="M19 9H14C13.4696 9 12.9609 8.78929 12.5858 8.41421C12.2107 8.03914 12 7.53043 12 7V2L19 9Z" fill="#007B70"/>
<path d="M14 9C13.4696 9 12.9609 8.78929 12.5858 8.41421C12.2107 8.03914 12 7.53043 12 7V2H6C5.20435 2 4.44129 2.31607 3.87868 2.87868C3.31607 3.44129 3 4.20435 3 5V19C3 19.7956 3.31607 20.5587 3.87868 21.1213C4.44129 21.6839 5.20435 22 6 22H16C16.7956 22 17.5587 21.6839 18.1213 21.1213C18.6839 20.5587 19 19.7956 19 19V9H14Z" fill="#EBF855"/>
<path d="M20.707 15.2934L17.707 12.2934C17.6144 12.1996 17.5041 12.125 17.3825 12.074C17.261 12.023 17.1305 11.9965 16.9987 11.9961C16.8668 11.9957 16.7362 12.0214 16.6143 12.0716C16.4925 12.1219 16.3817 12.1957 16.2885 12.289C16.1953 12.3822 16.1214 12.4929 16.0712 12.6148C16.0209 12.7367 15.9952 12.8673 15.9957 12.9992C15.9961 13.131 16.0226 13.2614 16.0736 13.383C16.1246 13.5046 16.1992 13.6148 16.293 13.7075L17.586 15.0005H12C11.7348 15.0005 11.4804 15.1058 11.2929 15.2934C11.1054 15.4809 11 15.7352 11 16.0005C11 16.2657 11.1054 16.52 11.2929 16.7076C11.4804 16.8951 11.7348 17.0005 12 17.0005H17.5859L16.2929 18.2935C16.1991 18.3861 16.1246 18.4964 16.0736 18.6179C16.0225 18.7395 15.996 18.87 15.9956 19.0018C15.9952 19.1336 16.0209 19.2642 16.0711 19.3861C16.1214 19.508 16.1953 19.6187 16.2885 19.712C16.3817 19.8052 16.4925 19.879 16.6144 19.9293C16.7362 19.9796 16.8669 20.0052 16.9987 20.0048C17.1305 20.0044 17.261 19.9779 17.3825 19.9269C17.5041 19.8758 17.6144 19.8013 17.707 19.7075L20.707 16.7075C20.7999 16.6146 20.8736 16.5044 20.9238 16.3831C20.9741 16.2618 21 16.1318 21 16.0004C21 15.8691 20.9741 15.7391 20.9238 15.6178C20.8736 15.4965 20.7999 15.3862 20.707 15.2934Z" fill="#007B70"/>
</svg>
