<svg width="1090" height="247" viewBox="0 0 1090 247" fill="none" xmlns="http://www.w3.org/2000/svg">
<g clip-path="url(#clip0_55_462)">
<rect width="1090" height="247" rx="15" fill="#F0F0F0"/>
<g clip-path="url(#clip1_55_462)">
<path d="M1090 -569H-4.42969V526H1090V-569Z" fill="url(#paint0_linear_55_462)"/>
<mask id="mask0_55_462" style="mask-type:alpha" maskUnits="userSpaceOnUse" x="-5" y="-569" width="1096" height="1095">
<path d="M1090.57 -569H-4.42969V526H1090.57V-569Z" fill="#212937"/>
</mask>
<g mask="url(#mask0_55_462)">
<g style="mix-blend-mode:luminosity" opacity="0.15">
<path fill-rule="evenodd" clip-rule="evenodd" d="M751.702 -566.719L-3.85828 188.5V526L458.469 63.813L920.794 526H1090.57V359.138L626.758 -104.511L1090.57 -566.719H751.702Z" fill="#555555"/>
<path fill-rule="evenodd" clip-rule="evenodd" d="M-3.85828 -566.719V8.66382L572.727 -566.719H-3.85828Z" fill="#555555"/>
<path fill-rule="evenodd" clip-rule="evenodd" d="M457.218 238.591L168.946 526H745.531L457.218 238.591Z" fill="#777777"/>
<path fill-rule="evenodd" clip-rule="evenodd" d="M803.133 -106.662L1090.57 181.109V-394.274L803.133 -106.662Z" fill="#8DC14B"/>
</g>
<path d="M1320.81 3.77051L661.695 153.797" stroke="url(#paint1_linear_55_462)"/>
<path d="M1414.34 57.9503L755.227 207.977" stroke="url(#paint2_linear_55_462)"/>
<path d="M904.648 176.398C906.536 176.398 908.07 174.864 908.07 172.977C908.07 171.089 906.536 169.555 904.648 169.555C902.761 169.555 901.227 171.089 901.227 172.977C901.227 174.864 902.761 176.398 904.648 176.398Z" fill="white"/>
<path d="M904.648 175.828C906.222 175.828 907.5 174.551 907.5 172.977C907.5 171.403 906.222 170.125 904.648 170.125C903.074 170.125 901.797 171.403 901.797 172.977C901.797 174.551 903.074 175.828 904.648 175.828Z" stroke="#B1BACB" stroke-width="2"/>
</g>
<path d="M74.296 87V75.336H83.35V77.136H76.384V79.98H82.954V81.762H76.384V85.2H83.602V87H74.296ZM84.3597 87L88.5897 81.168L84.4497 75.336H86.8257L88.5897 77.712L89.7597 79.584C90.3597 78.636 90.7677 78.012 90.9837 77.712L92.7117 75.336H95.1057L90.9477 81.168L95.1777 87H92.7657L90.9657 84.516L89.7597 82.752C89.1597 83.676 88.7637 84.27 88.5717 84.534L86.7717 87H84.3597ZM96.6554 87V75.336H101.569C103.177 75.336 104.431 75.756 105.331 76.596C106.243 77.436 106.699 78.498 106.699 79.782C106.699 81.066 106.243 82.128 105.331 82.968C104.431 83.808 103.171 84.228 101.551 84.228H98.7434V87H96.6554ZM98.7434 82.428H101.695C102.547 82.428 103.231 82.176 103.747 81.672C104.263 81.168 104.521 80.538 104.521 79.782C104.521 79.038 104.263 78.414 103.747 77.91C103.231 77.394 102.553 77.136 101.713 77.136H98.7434V82.428ZM108.837 87V75.336H110.925V85.2H117.909V87H108.837ZM124.314 85.308C125.43 85.308 126.366 84.906 127.122 84.102C127.878 83.286 128.256 82.308 128.256 81.168C128.256 80.028 127.878 79.056 127.122 78.252C126.366 77.448 125.43 77.046 124.314 77.046C123.186 77.046 122.238 77.448 121.47 78.252C120.714 79.056 120.336 80.028 120.336 81.168C120.336 82.308 120.714 83.286 121.47 84.102C122.238 84.906 123.186 85.308 124.314 85.308ZM119.904 76.902C121.08 75.738 122.544 75.156 124.296 75.156C126.048 75.156 127.506 75.738 128.67 76.902C129.846 78.066 130.434 79.488 130.434 81.168C130.434 82.86 129.846 84.288 128.67 85.452C127.506 86.616 126.048 87.198 124.296 87.198C122.544 87.198 121.08 86.616 119.904 85.452C118.74 84.288 118.158 82.86 118.158 81.168C118.158 79.488 118.74 78.066 119.904 76.902ZM132.48 87V75.336H137.376C139.032 75.336 140.304 75.756 141.192 76.596C142.08 77.424 142.524 78.486 142.524 79.782C142.524 80.586 142.314 81.336 141.894 82.032C141.474 82.728 140.886 83.25 140.13 83.598L142.686 87H140.13L138.096 84.192C137.748 84.216 137.13 84.228 136.242 84.228H134.568V87H132.48ZM134.568 82.428H137.502C138.366 82.428 139.056 82.176 139.572 81.672C140.088 81.168 140.346 80.538 140.346 79.782C140.346 79.026 140.088 78.396 139.572 77.892C139.056 77.388 138.372 77.136 137.52 77.136H134.568V82.428ZM144.661 87V75.336H153.715V77.136H146.749V79.98H153.319V81.762H146.749V85.2H153.967V87H144.661ZM159.417 87L164.673 75.336H166.653L171.909 87H169.785L168.867 84.984H162.459L161.541 87H159.417ZM163.179 83.328H168.147L166.779 80.376C166.623 80.04 166.449 79.638 166.257 79.17C166.077 78.702 165.933 78.324 165.825 78.036L165.663 77.586C165.279 78.666 164.907 79.596 164.547 80.376L163.179 83.328ZM173.314 87V75.336H175.438L179.614 81.06C179.854 81.396 180.124 81.798 180.424 82.266C180.724 82.722 180.958 83.094 181.126 83.382L181.396 83.814V75.336H183.484V87H181.324L177.346 81.564C177.046 81.156 176.734 80.706 176.41 80.214C176.086 79.71 175.834 79.314 175.654 79.026L175.402 78.594V87H173.314ZM188.163 85.2H190.557C191.781 85.2 192.771 84.822 193.527 84.066C194.283 83.31 194.661 82.344 194.661 81.168C194.661 79.992 194.283 79.026 193.527 78.27C192.771 77.514 191.781 77.136 190.557 77.136H188.163V85.2ZM186.075 87V75.336H190.647C192.495 75.336 193.989 75.9 195.129 77.028C196.269 78.144 196.839 79.524 196.839 81.168C196.839 82.812 196.269 84.198 195.129 85.326C193.989 86.442 192.495 87 190.647 87H186.075ZM203.113 81.168C203.113 79.488 203.695 78.066 204.859 76.902C206.035 75.738 207.499 75.156 209.251 75.156C210.787 75.156 212.095 75.612 213.175 76.524L211.969 77.928C211.213 77.34 210.355 77.046 209.395 77.046C208.207 77.046 207.223 77.448 206.443 78.252C205.675 79.056 205.291 80.028 205.291 81.168C205.291 82.308 205.669 83.286 206.425 84.102C207.193 84.906 208.141 85.308 209.269 85.308C210.433 85.308 211.411 84.924 212.203 84.156L213.481 85.596C212.317 86.664 210.907 87.198 209.251 87.198C207.499 87.198 206.035 86.616 204.859 85.452C203.695 84.288 203.113 82.86 203.113 81.168ZM215.062 87V75.336H217.15V79.998H222.838V75.336H224.926V87H222.838V81.78H217.15V87H215.062ZM233.158 85.308C234.274 85.308 235.21 84.906 235.966 84.102C236.722 83.286 237.1 82.308 237.1 81.168C237.1 80.028 236.722 79.056 235.966 78.252C235.21 77.448 234.274 77.046 233.158 77.046C232.03 77.046 231.082 77.448 230.314 78.252C229.558 79.056 229.18 80.028 229.18 81.168C229.18 82.308 229.558 83.286 230.314 84.102C231.082 84.906 232.03 85.308 233.158 85.308ZM228.748 76.902C229.924 75.738 231.388 75.156 233.14 75.156C234.892 75.156 236.35 75.738 237.514 76.902C238.69 78.066 239.278 79.488 239.278 81.168C239.278 82.86 238.69 84.288 237.514 85.452C236.35 86.616 234.892 87.198 233.14 87.198C231.388 87.198 229.924 86.616 228.748 85.452C227.584 84.288 227.002 82.86 227.002 81.168C227.002 79.488 227.584 78.066 228.748 76.902ZM246.939 85.308C248.055 85.308 248.991 84.906 249.747 84.102C250.503 83.286 250.881 82.308 250.881 81.168C250.881 80.028 250.503 79.056 249.747 78.252C248.991 77.448 248.055 77.046 246.939 77.046C245.811 77.046 244.863 77.448 244.095 78.252C243.339 79.056 242.961 80.028 242.961 81.168C242.961 82.308 243.339 83.286 244.095 84.102C244.863 84.906 245.811 85.308 246.939 85.308ZM242.529 76.902C243.705 75.738 245.169 75.156 246.921 75.156C248.673 75.156 250.131 75.738 251.295 76.902C252.471 78.066 253.059 79.488 253.059 81.168C253.059 82.86 252.471 84.288 251.295 85.452C250.131 86.616 248.673 87.198 246.921 87.198C245.169 87.198 243.705 86.616 242.529 85.452C241.365 84.288 240.783 82.86 240.783 81.168C240.783 79.488 241.365 78.066 242.529 76.902ZM254.16 85.506L254.97 83.922C256.098 84.834 257.388 85.29 258.84 85.29C259.512 85.29 260.1 85.14 260.604 84.84C261.108 84.54 261.36 84.138 261.36 83.634C261.36 83.298 261.228 83.016 260.964 82.788C260.7 82.548 260.43 82.38 260.154 82.284C259.878 82.188 259.482 82.08 258.966 81.96C258.45 81.84 258.018 81.732 257.67 81.636C257.322 81.528 256.938 81.378 256.518 81.186C256.098 80.982 255.762 80.766 255.51 80.538C255.258 80.31 255.042 80.016 254.862 79.656C254.694 79.296 254.61 78.894 254.61 78.45C254.61 77.418 255.024 76.614 255.852 76.038C256.68 75.45 257.676 75.156 258.84 75.156C260.364 75.156 261.744 75.576 262.98 76.416L262.17 78.018C261.15 77.37 260.04 77.046 258.84 77.046C258.54 77.046 258.24 77.088 257.94 77.172C257.64 77.244 257.364 77.394 257.112 77.622C256.86 77.838 256.734 78.108 256.734 78.432C256.734 78.852 256.926 79.17 257.31 79.386C257.706 79.602 258.33 79.812 259.182 80.016C259.818 80.16 260.364 80.322 260.82 80.502C261.276 80.67 261.726 80.892 262.17 81.168C262.614 81.432 262.95 81.774 263.178 82.194C263.418 82.614 263.538 83.094 263.538 83.634C263.538 84.774 263.07 85.65 262.134 86.262C261.198 86.874 260.094 87.18 258.822 87.18C256.914 87.18 255.36 86.622 254.16 85.506ZM265.616 87V75.336H274.67V77.136H267.704V79.98H274.274V81.762H267.704V85.2H274.922V87H265.616Z" fill="white"/>
<path d="M74.872 133V116.152H77.888V133H74.872ZM81.6259 133V116.152H84.6939L90.7259 124.42C91.0726 124.905 91.4626 125.486 91.8959 126.162C92.3292 126.821 92.6672 127.358 92.9099 127.774L93.2999 128.398V116.152H96.3159V133H93.1959L87.4499 125.148C87.0166 124.559 86.5659 123.909 86.0979 123.198C85.6299 122.47 85.2659 121.898 85.0059 121.482L84.6419 120.858V133H81.6259ZM99.2795 130.842L100.45 128.554C102.079 129.871 103.942 130.53 106.04 130.53C107.01 130.53 107.86 130.313 108.588 129.88C109.316 129.447 109.68 128.866 109.68 128.138C109.68 127.653 109.489 127.245 109.108 126.916C108.726 126.569 108.336 126.327 107.938 126.188C107.539 126.049 106.967 125.893 106.222 125.72C105.476 125.547 104.852 125.391 104.35 125.252C103.847 125.096 103.292 124.879 102.686 124.602C102.079 124.307 101.594 123.995 101.23 123.666C100.866 123.337 100.554 122.912 100.294 122.392C100.051 121.872 99.9295 121.291 99.9295 120.65C99.9295 119.159 100.528 117.998 101.724 117.166C102.92 116.317 104.358 115.892 106.04 115.892C108.241 115.892 110.234 116.499 112.02 117.712L110.85 120.026C109.376 119.09 107.773 118.622 106.04 118.622C105.606 118.622 105.173 118.683 104.74 118.804C104.306 118.908 103.908 119.125 103.544 119.454C103.18 119.766 102.998 120.156 102.998 120.624C102.998 121.231 103.275 121.69 103.83 122.002C104.402 122.314 105.303 122.617 106.534 122.912C107.452 123.12 108.241 123.354 108.9 123.614C109.558 123.857 110.208 124.177 110.85 124.576C111.491 124.957 111.976 125.451 112.306 126.058C112.652 126.665 112.826 127.358 112.826 128.138C112.826 129.785 112.15 131.05 110.798 131.934C109.446 132.818 107.851 133.26 106.014 133.26C103.258 133.26 101.013 132.454 99.2795 130.842ZM127.735 131.362C126.366 132.627 124.684 133.26 122.691 133.26C120.698 133.26 119.008 132.627 117.621 131.362C116.252 130.097 115.567 128.45 115.567 126.422V116.152H118.583V126.318C118.583 127.549 118.982 128.563 119.779 129.36C120.576 130.14 121.547 130.53 122.691 130.53C123.835 130.53 124.806 130.14 125.603 129.36C126.4 128.563 126.799 127.549 126.799 126.318V116.152H129.815V126.422C129.815 128.45 129.122 130.097 127.735 131.362ZM133.321 133V116.152H140.393C142.785 116.152 144.623 116.759 145.905 117.972C147.188 119.168 147.829 120.702 147.829 122.574C147.829 123.735 147.526 124.819 146.919 125.824C146.313 126.829 145.463 127.583 144.371 128.086L148.063 133H144.371L141.433 128.944C140.931 128.979 140.038 128.996 138.755 128.996H136.337V133H133.321ZM136.337 126.396H140.575C141.823 126.396 142.82 126.032 143.565 125.304C144.311 124.576 144.683 123.666 144.683 122.574C144.683 121.482 144.311 120.572 143.565 119.844C142.82 119.116 141.832 118.752 140.601 118.752H136.337V126.396ZM149.201 133L156.793 116.152H159.653L167.245 133H164.177L162.851 130.088H153.595L152.269 133H149.201ZM154.635 127.696H161.811L159.835 123.432C159.61 122.947 159.358 122.366 159.081 121.69C158.821 121.014 158.613 120.468 158.457 120.052L158.223 119.402C157.668 120.962 157.131 122.305 156.611 123.432L154.635 127.696ZM169.274 133V116.152H172.342L178.374 124.42C178.721 124.905 179.111 125.486 179.544 126.162C179.978 126.821 180.316 127.358 180.558 127.774L180.948 128.398V116.152H183.964V133H180.844L175.098 125.148C174.665 124.559 174.214 123.909 173.746 123.198C173.278 122.47 172.914 121.898 172.654 121.482L172.29 120.858V133H169.274ZM186.928 124.576C186.928 122.149 187.769 120.095 189.45 118.414C191.149 116.733 193.263 115.892 195.794 115.892C198.013 115.892 199.902 116.551 201.462 117.868L199.72 119.896C198.628 119.047 197.389 118.622 196.002 118.622C194.286 118.622 192.865 119.203 191.738 120.364C190.629 121.525 190.074 122.929 190.074 124.576C190.074 126.223 190.62 127.635 191.712 128.814C192.821 129.975 194.191 130.556 195.82 130.556C197.501 130.556 198.914 130.001 200.058 128.892L201.904 130.972C200.223 132.515 198.186 133.286 195.794 133.286C193.263 133.286 191.149 132.445 189.45 130.764C187.769 129.083 186.928 127.02 186.928 124.576ZM204.186 133V116.152H217.264V118.752H207.202V122.86H216.692V125.434H207.202V130.4H217.628V133H204.186ZM227.216 133V116.152H234.314C236.636 116.152 238.448 116.759 239.748 117.972C241.065 119.185 241.724 120.719 241.724 122.574C241.724 124.429 241.065 125.963 239.748 127.176C238.448 128.389 236.628 128.996 234.288 128.996H230.232V133H227.216ZM230.232 126.396H234.496C235.726 126.396 236.714 126.032 237.46 125.304C238.205 124.576 238.578 123.666 238.578 122.574C238.578 121.499 238.205 120.598 237.46 119.87C236.714 119.125 235.735 118.752 234.522 118.752H230.232V126.396ZM244.811 133V116.152H247.827V130.4H257.915V133H244.811ZM259.193 133L266.785 116.152H269.645L277.237 133H274.169L272.843 130.088H263.587L262.261 133H259.193ZM264.627 127.696H271.803L269.827 123.432C269.602 122.947 269.35 122.366 269.073 121.69C268.813 121.014 268.605 120.468 268.449 120.052L268.215 119.402C267.66 120.962 267.123 122.305 266.603 123.432L264.627 127.696ZM279.267 133V116.152H282.335L288.367 124.42C288.713 124.905 289.103 125.486 289.537 126.162C289.97 126.821 290.308 127.358 290.551 127.774L290.941 128.398V116.152H293.957V133H290.837L285.091 125.148C284.657 124.559 284.207 123.909 283.739 123.198C283.271 122.47 282.907 121.898 282.647 121.482L282.283 120.858V133H279.267ZM296.92 130.842L298.09 128.554C299.719 129.871 301.583 130.53 303.68 130.53C304.651 130.53 305.5 130.313 306.228 129.88C306.956 129.447 307.32 128.866 307.32 128.138C307.32 127.653 307.129 127.245 306.748 126.916C306.367 126.569 305.977 126.327 305.578 126.188C305.179 126.049 304.607 125.893 303.862 125.72C303.117 125.547 302.493 125.391 301.99 125.252C301.487 125.096 300.933 124.879 300.326 124.602C299.719 124.307 299.234 123.995 298.87 123.666C298.506 123.337 298.194 122.912 297.934 122.392C297.691 121.872 297.57 121.291 297.57 120.65C297.57 119.159 298.168 117.998 299.364 117.166C300.56 116.317 301.999 115.892 303.68 115.892C305.881 115.892 307.875 116.499 309.66 117.712L308.49 120.026C307.017 119.09 305.413 118.622 303.68 118.622C303.247 118.622 302.813 118.683 302.38 118.804C301.947 118.908 301.548 119.125 301.184 119.454C300.82 119.766 300.638 120.156 300.638 120.624C300.638 121.231 300.915 121.69 301.47 122.002C302.042 122.314 302.943 122.617 304.174 122.912C305.093 123.12 305.881 123.354 306.54 123.614C307.199 123.857 307.849 124.177 308.49 124.576C309.131 124.957 309.617 125.451 309.946 126.058C310.293 126.665 310.466 127.358 310.466 128.138C310.466 129.785 309.79 131.05 308.438 131.934C307.086 132.818 305.491 133.26 303.654 133.26C300.898 133.26 298.653 132.454 296.92 130.842ZM318.633 133L326.225 116.152H329.085L336.677 133H333.609L332.283 130.088H323.027L321.701 133H318.633ZM324.067 127.696H331.243L329.267 123.432C329.041 122.947 328.79 122.366 328.513 121.69C328.253 121.014 328.045 120.468 327.889 120.052L327.655 119.402C327.1 120.962 326.563 122.305 326.043 123.432L324.067 127.696ZM336.885 124.576C336.885 122.149 337.726 120.095 339.407 118.414C341.106 116.733 343.22 115.892 345.751 115.892C347.97 115.892 349.859 116.551 351.419 117.868L349.677 119.896C348.585 119.047 347.346 118.622 345.959 118.622C344.243 118.622 342.822 119.203 341.695 120.364C340.586 121.525 340.031 122.929 340.031 124.576C340.031 126.223 340.577 127.635 341.669 128.814C342.778 129.975 344.148 130.556 345.777 130.556C347.458 130.556 348.871 130.001 350.015 128.892L351.861 130.972C350.18 132.515 348.143 133.286 345.751 133.286C343.22 133.286 341.106 132.445 339.407 130.764C337.726 129.083 336.885 127.02 336.885 124.576ZM352.983 124.576C352.983 122.149 353.823 120.095 355.505 118.414C357.203 116.733 359.318 115.892 361.849 115.892C364.067 115.892 365.957 116.551 367.517 117.868L365.775 119.896C364.683 119.047 363.443 118.622 362.057 118.622C360.341 118.622 358.919 119.203 357.793 120.364C356.683 121.525 356.129 122.929 356.129 124.576C356.129 126.223 356.675 127.635 357.767 128.814C358.876 129.975 360.245 130.556 361.875 130.556C363.556 130.556 364.969 130.001 366.113 128.892L367.959 130.972C366.277 132.515 364.241 133.286 361.849 133.286C359.318 133.286 357.203 132.445 355.505 130.764C353.823 129.083 352.983 127.02 352.983 124.576ZM377.972 130.556C379.584 130.556 380.936 129.975 382.028 128.814C383.12 127.635 383.666 126.223 383.666 124.576C383.666 122.929 383.12 121.525 382.028 120.364C380.936 119.203 379.584 118.622 377.972 118.622C376.343 118.622 374.974 119.203 373.864 120.364C372.772 121.525 372.226 122.929 372.226 124.576C372.226 126.223 372.772 127.635 373.864 128.814C374.974 129.975 376.343 130.556 377.972 130.556ZM371.602 118.414C373.301 116.733 375.416 115.892 377.946 115.892C380.477 115.892 382.583 116.733 384.264 118.414C385.963 120.095 386.812 122.149 386.812 124.576C386.812 127.02 385.963 129.083 384.264 130.764C382.583 132.445 380.477 133.286 377.946 133.286C375.416 133.286 373.301 132.445 371.602 130.764C369.921 129.083 369.08 127.02 369.08 124.576C369.08 122.149 369.921 120.095 371.602 118.414ZM389.767 133V116.152H396.839C399.231 116.152 401.068 116.759 402.351 117.972C403.633 119.168 404.275 120.702 404.275 122.574C404.275 123.735 403.971 124.819 403.365 125.824C402.758 126.829 401.909 127.583 400.817 128.086L404.509 133H400.817L397.879 128.944C397.376 128.979 396.483 128.996 395.201 128.996H392.783V133H389.767ZM392.783 126.396H397.021C398.269 126.396 399.265 126.032 400.011 125.304C400.756 124.576 401.129 123.666 401.129 122.574C401.129 121.482 400.756 120.572 400.011 119.844C399.265 119.116 398.277 118.752 397.047 118.752H392.783V126.396ZM410.378 130.4H413.836C415.604 130.4 417.034 129.854 418.126 128.762C419.218 127.67 419.764 126.275 419.764 124.576C419.764 122.877 419.218 121.482 418.126 120.39C417.034 119.298 415.604 118.752 413.836 118.752H410.378V130.4ZM407.362 133V116.152H413.966C416.636 116.152 418.794 116.967 420.44 118.596C422.087 120.208 422.91 122.201 422.91 124.576C422.91 126.951 422.087 128.953 420.44 130.582C418.794 132.194 416.636 133 413.966 133H407.362ZM425.872 133V116.152H428.888V133H425.872ZM432.626 133V116.152H435.694L441.726 124.42C442.073 124.905 442.463 125.486 442.896 126.162C443.329 126.821 443.667 127.358 443.91 127.774L444.3 128.398V116.152H447.316V133H444.196L438.45 125.148C438.017 124.559 437.566 123.909 437.098 123.198C436.63 122.47 436.266 121.898 436.006 121.482L435.642 120.858V133H432.626ZM450.28 124.576C450.28 122.149 451.12 120.095 452.802 118.414C454.5 116.733 456.615 115.892 459.146 115.892C461.33 115.892 463.254 116.568 464.918 117.92L463.124 119.974C462.049 119.073 460.732 118.622 459.172 118.622C457.542 118.622 456.173 119.203 455.064 120.364C453.972 121.525 453.426 122.929 453.426 124.576C453.426 126.223 453.972 127.627 455.064 128.788C456.173 129.949 457.542 130.53 459.172 130.53C460.957 130.53 462.404 129.845 463.513 128.476V125.564H460.42V123.042H466.426V129.62C465.663 130.747 464.64 131.639 463.358 132.298C462.075 132.939 460.671 133.26 459.146 133.26C456.615 133.26 454.5 132.428 452.802 130.764C451.12 129.083 450.28 127.02 450.28 124.576ZM480.315 133V118.752H474.387V116.152H489.259V118.752H483.331V133H480.315ZM499.06 130.556C500.672 130.556 502.024 129.975 503.116 128.814C504.208 127.635 504.754 126.223 504.754 124.576C504.754 122.929 504.208 121.525 503.116 120.364C502.024 119.203 500.672 118.622 499.06 118.622C497.431 118.622 496.062 119.203 494.952 120.364C493.86 121.525 493.314 122.929 493.314 124.576C493.314 126.223 493.86 127.635 494.952 128.814C496.062 129.975 497.431 130.556 499.06 130.556ZM492.69 118.414C494.389 116.733 496.504 115.892 499.034 115.892C501.565 115.892 503.671 116.733 505.352 118.414C507.051 120.095 507.9 122.149 507.9 124.576C507.9 127.02 507.051 129.083 505.352 130.764C503.671 132.445 501.565 133.286 499.034 133.286C496.504 133.286 494.389 132.445 492.69 130.764C491.009 129.083 490.168 127.02 490.168 124.576C490.168 122.149 491.009 120.095 492.69 118.414ZM521.608 133V125.226L515.082 116.152H518.54L521.088 119.584L523.116 122.652C524.018 121.265 524.702 120.243 525.17 119.584L527.64 116.152H531.098L524.624 125.2V133H521.608ZM539.964 130.556C541.576 130.556 542.928 129.975 544.02 128.814C545.112 127.635 545.658 126.223 545.658 124.576C545.658 122.929 545.112 121.525 544.02 120.364C542.928 119.203 541.576 118.622 539.964 118.622C538.335 118.622 536.966 119.203 535.856 120.364C534.764 121.525 534.218 122.929 534.218 124.576C534.218 126.223 534.764 127.635 535.856 128.814C536.966 129.975 538.335 130.556 539.964 130.556ZM533.594 118.414C535.293 116.733 537.408 115.892 539.938 115.892C542.469 115.892 544.575 116.733 546.256 118.414C547.955 120.095 548.804 122.149 548.804 124.576C548.804 127.02 547.955 129.083 546.256 130.764C544.575 132.445 542.469 133.286 539.938 133.286C537.408 133.286 535.293 132.445 533.594 130.764C531.913 129.083 531.072 127.02 531.072 124.576C531.072 122.149 531.913 120.095 533.594 118.414ZM563.667 131.362C562.297 132.627 560.616 133.26 558.623 133.26C556.629 133.26 554.939 132.627 553.553 131.362C552.183 130.097 551.499 128.45 551.499 126.422V116.152H554.515V126.318C554.515 127.549 554.913 128.563 555.711 129.36C556.508 130.14 557.479 130.53 558.623 130.53C559.767 130.53 560.737 130.14 561.535 129.36C562.332 128.563 562.731 127.549 562.731 126.318V116.152H565.747V126.422C565.747 128.45 565.053 130.097 563.667 131.362ZM569.253 133V116.152H576.325C578.717 116.152 580.554 116.759 581.837 117.972C583.12 119.168 583.761 120.702 583.761 122.574C583.761 123.735 583.458 124.819 582.851 125.824C582.244 126.829 581.395 127.583 580.303 128.086L583.995 133H580.303L577.365 128.944C576.862 128.979 575.97 128.996 574.687 128.996H572.269V133H569.253ZM572.269 126.396H576.507C577.755 126.396 578.752 126.032 579.497 125.304C580.242 124.576 580.615 123.666 580.615 122.574C580.615 121.482 580.242 120.572 579.497 119.844C578.752 119.116 577.764 118.752 576.533 118.752H572.269V126.396ZM74.872 171V154.152H81.944C84.336 154.152 86.1733 154.759 87.456 155.972C88.7387 157.168 89.38 158.702 89.38 160.574C89.38 161.735 89.0767 162.819 88.47 163.824C87.8633 164.829 87.014 165.583 85.922 166.086L89.614 171H85.922L82.984 166.944C82.4813 166.979 81.5887 166.996 80.306 166.996H77.888V171H74.872ZM77.888 164.396H82.126C83.374 164.396 84.3707 164.032 85.116 163.304C85.8613 162.576 86.234 161.666 86.234 160.574C86.234 159.482 85.8613 158.572 85.116 157.844C84.3707 157.116 83.3827 156.752 82.152 156.752H77.888V164.396ZM92.4677 171V154.152H105.546V156.752H95.4837V160.86H104.974V163.434H95.4837V168.4H105.91V171H92.4677ZM110.053 156.414C111.752 154.733 113.867 153.892 116.397 153.892C118.928 153.892 121.034 154.733 122.715 156.414C124.414 158.095 125.263 160.149 125.263 162.576C125.263 164.569 124.665 166.346 123.469 167.906L124.821 169.258L122.923 171.182L121.493 169.778C120.003 170.783 118.304 171.286 116.397 171.286C113.867 171.286 111.752 170.445 110.053 168.764C108.372 167.083 107.531 165.02 107.531 162.576C107.531 160.149 108.372 158.095 110.053 156.414ZM116.423 168.556C117.515 168.556 118.512 168.27 119.413 167.698L117.151 165.436L119.075 163.512L121.285 165.722C121.84 164.751 122.117 163.703 122.117 162.576C122.117 160.929 121.571 159.525 120.479 158.364C119.387 157.203 118.035 156.622 116.423 156.622C114.794 156.622 113.425 157.203 112.315 158.364C111.223 159.525 110.677 160.929 110.677 162.576C110.677 164.223 111.223 165.635 112.315 166.814C113.425 167.975 114.794 168.556 116.423 168.556ZM140.126 169.362C138.756 170.627 137.075 171.26 135.082 171.26C133.088 171.26 131.398 170.627 130.012 169.362C128.642 168.097 127.958 166.45 127.958 164.422V154.152H130.974V164.318C130.974 165.549 131.372 166.563 132.17 167.36C132.967 168.14 133.938 168.53 135.082 168.53C136.226 168.53 137.196 168.14 137.994 167.36C138.791 166.563 139.19 165.549 139.19 164.318V154.152H142.206V164.422C142.206 166.45 141.512 168.097 140.126 169.362ZM145.712 171V154.152H148.728V171H145.712ZM152.466 171V154.152H159.538C161.93 154.152 163.767 154.759 165.05 155.972C166.332 157.168 166.974 158.702 166.974 160.574C166.974 161.735 166.67 162.819 166.064 163.824C165.457 164.829 164.608 165.583 163.516 166.086L167.208 171H163.516L160.578 166.944C160.075 166.979 159.182 166.996 157.9 166.996H155.482V171H152.466ZM155.482 164.396H159.72C160.968 164.396 161.964 164.032 162.71 163.304C163.455 162.576 163.828 161.666 163.828 160.574C163.828 159.482 163.455 158.572 162.71 157.844C161.964 157.116 160.976 156.752 159.746 156.752H155.482V164.396ZM170.061 171V154.152H183.139V156.752H173.077V160.86H182.567V163.434H173.077V168.4H183.503V171H170.061ZM186.21 171V154.152H188.836L191.176 157.428L194.998 162.836L198.794 157.454L201.134 154.152H203.76V171H200.744V159.3C200.397 159.924 199.86 160.765 199.132 161.822L194.998 167.75L190.812 161.77L189.226 159.3V171H186.21ZM207.513 171V154.152H220.591V156.752H210.529V160.86H220.019V163.434H210.529V168.4H220.955V171H207.513ZM223.661 171V154.152H226.729L232.761 162.42C233.108 162.905 233.498 163.486 233.931 164.162C234.364 164.821 234.702 165.358 234.945 165.774L235.335 166.398V154.152H238.351V171H235.231L229.485 163.148C229.052 162.559 228.601 161.909 228.133 161.198C227.665 160.47 227.301 159.898 227.041 159.482L226.677 158.858V171H223.661ZM246.671 171V156.752H240.743V154.152H255.615V156.752H249.687V171H246.671ZM256.549 168.842L257.719 166.554C259.348 167.871 261.212 168.53 263.309 168.53C264.28 168.53 265.129 168.313 265.857 167.88C266.585 167.447 266.949 166.866 266.949 166.138C266.949 165.653 266.758 165.245 266.377 164.916C265.996 164.569 265.606 164.327 265.207 164.188C264.808 164.049 264.236 163.893 263.491 163.72C262.746 163.547 262.122 163.391 261.619 163.252C261.116 163.096 260.562 162.879 259.955 162.602C259.348 162.307 258.863 161.995 258.499 161.666C258.135 161.337 257.823 160.912 257.563 160.392C257.32 159.872 257.199 159.291 257.199 158.65C257.199 157.159 257.797 155.998 258.993 155.166C260.189 154.317 261.628 153.892 263.309 153.892C265.51 153.892 267.504 154.499 269.289 155.712L268.119 158.026C266.646 157.09 265.042 156.622 263.309 156.622C262.876 156.622 262.442 156.683 262.009 156.804C261.576 156.908 261.177 157.125 260.813 157.454C260.449 157.766 260.267 158.156 260.267 158.624C260.267 159.231 260.544 159.69 261.099 160.002C261.671 160.314 262.572 160.617 263.803 160.912C264.722 161.12 265.51 161.354 266.169 161.614C266.828 161.857 267.478 162.177 268.119 162.576C268.76 162.957 269.246 163.451 269.575 164.058C269.922 164.665 270.095 165.358 270.095 166.138C270.095 167.785 269.419 169.05 268.067 169.934C266.715 170.818 265.12 171.26 263.283 171.26C260.527 171.26 258.282 170.454 256.549 168.842ZM278.261 171L285.853 154.152H288.713L296.305 171H293.237L291.911 168.088H282.655L281.329 171H278.261ZM283.695 165.696H290.871L288.895 161.432C288.67 160.947 288.419 160.366 288.141 159.69C287.881 159.014 287.673 158.468 287.517 158.052L287.283 157.402C286.729 158.962 286.191 160.305 285.671 161.432L283.695 165.696ZM298.335 171V154.152H301.403L307.435 162.42C307.782 162.905 308.172 163.486 308.605 164.162C309.038 164.821 309.376 165.358 309.619 165.774L310.009 166.398V154.152H313.025V171H309.905L304.159 163.148C303.726 162.559 303.275 161.909 302.807 161.198C302.339 160.47 301.975 159.898 301.715 159.482L301.351 158.858V171H298.335ZM319.784 168.4H323.242C325.01 168.4 326.44 167.854 327.532 166.762C328.624 165.67 329.17 164.275 329.17 162.576C329.17 160.877 328.624 159.482 327.532 158.39C326.44 157.298 325.01 156.752 323.242 156.752H319.784V168.4ZM316.768 171V154.152H323.372C326.042 154.152 328.2 154.967 329.846 156.596C331.493 158.208 332.316 160.201 332.316 162.576C332.316 164.951 331.493 166.953 329.846 168.582C328.2 170.194 326.042 171 323.372 171H316.768ZM342.159 171V154.152H345.227L351.259 162.42C351.606 162.905 351.996 163.486 352.429 164.162C352.862 164.821 353.2 165.358 353.443 165.774L353.833 166.398V154.152H356.849V171H353.729L347.983 163.148C347.55 162.559 347.099 161.909 346.631 161.198C346.163 160.47 345.799 159.898 345.539 159.482L345.175 158.858V171H342.159ZM360.593 171V154.152H373.671V156.752H363.609V160.86H373.099V163.434H363.609V168.4H374.035V171H360.593ZM376.741 171V154.152H389.819V156.752H379.757V160.86H389.247V163.434H379.757V168.4H390.183V171H376.741ZM395.906 168.4H399.364C401.132 168.4 402.562 167.854 403.654 166.762C404.746 165.67 405.292 164.275 405.292 162.576C405.292 160.877 404.746 159.482 403.654 158.39C402.562 157.298 401.132 156.752 399.364 156.752H395.906V168.4ZM392.89 171V154.152H399.494C402.163 154.152 404.321 154.967 405.968 156.596C407.614 158.208 408.438 160.201 408.438 162.576C408.438 164.951 407.614 166.953 405.968 168.582C404.321 170.194 402.163 171 399.494 171H392.89ZM410.035 168.842L411.205 166.554C412.835 167.871 414.698 168.53 416.795 168.53C417.766 168.53 418.615 168.313 419.343 167.88C420.071 167.447 420.435 166.866 420.435 166.138C420.435 165.653 420.245 165.245 419.863 164.916C419.482 164.569 419.092 164.327 418.693 164.188C418.295 164.049 417.723 163.893 416.977 163.72C416.232 163.547 415.608 163.391 415.105 163.252C414.603 163.096 414.048 162.879 413.441 162.602C412.835 162.307 412.349 161.995 411.985 161.666C411.621 161.337 411.309 160.912 411.049 160.392C410.807 159.872 410.685 159.291 410.685 158.65C410.685 157.159 411.283 155.998 412.479 155.166C413.675 154.317 415.114 153.892 416.795 153.892C418.997 153.892 420.99 154.499 422.775 155.712L421.605 158.026C420.132 157.09 418.529 156.622 416.795 156.622C416.362 156.622 415.929 156.683 415.495 156.804C415.062 156.908 414.663 157.125 414.299 157.454C413.935 157.766 413.753 158.156 413.753 158.624C413.753 159.231 414.031 159.69 414.585 160.002C415.157 160.314 416.059 160.617 417.289 160.912C418.208 161.12 418.997 161.354 419.655 161.614C420.314 161.857 420.964 162.177 421.605 162.576C422.247 162.957 422.732 163.451 423.061 164.058C423.408 164.665 423.581 165.358 423.581 166.138C423.581 167.785 422.905 169.05 421.553 169.934C420.201 170.818 418.607 171.26 416.769 171.26C414.013 171.26 411.769 170.454 410.035 168.842Z" fill="white"/>
</g>
</g>
<defs>
<linearGradient id="paint0_linear_55_462" x1="543.07" y1="-569" x2="543.07" y2="526" gradientUnits="userSpaceOnUse">
<stop stop-color="#8DC14B"/>
<stop offset="1" stop-color="#77A939"/>
</linearGradient>
<linearGradient id="paint1_linear_55_462" x1="740.461" y1="144.238" x2="1096.8" y2="46.4014" gradientUnits="userSpaceOnUse">
<stop stop-color="#DCDCDC" stop-opacity="0"/>
<stop offset="0.223958" stop-color="#DCDCDC"/>
<stop offset="0.552083" stop-color="#DCDCDC" stop-opacity="0.910569"/>
<stop offset="1" stop-color="#DCDCDC" stop-opacity="0"/>
</linearGradient>
<linearGradient id="paint2_linear_55_462" x1="833.992" y1="198.418" x2="1190.34" y2="100.581" gradientUnits="userSpaceOnUse">
<stop stop-color="#DCDCDC" stop-opacity="0"/>
<stop offset="0.223958" stop-color="#DCDCDC"/>
<stop offset="0.552083" stop-color="#DCDCDC" stop-opacity="0.910569"/>
<stop offset="1" stop-color="#DCDCDC" stop-opacity="0"/>
</linearGradient>
<clipPath id="clip0_55_462">
<rect width="1090" height="247" rx="15" fill="white"/>
</clipPath>
<clipPath id="clip1_55_462">
<rect width="1095" height="1095" fill="white" transform="translate(-5 -569)"/>
</clipPath>
</defs>
</svg>
