<svg width="238" height="175" viewBox="0 0 238 175" fill="none" xmlns="http://www.w3.org/2000/svg">
<mask id="mask0_78_4089" style="mask-type:luminance" maskUnits="userSpaceOnUse" x="29" y="59" width="180" height="116">
<path d="M89.245 89.3112L59.4955 59.541L29.7462 89.3112L59.4955 119.081L89.245 148.851L108.386 168.006C117.097 176.723 120.445 177.17 129.352 168.257L148.744 148.852L178.493 119.082L208.243 89.3113L178.493 59.5411L148.744 89.3113C142.936 95.1233 126.782 113.324 118.994 113.324C111.207 113.324 95.0529 95.1232 89.245 89.3112Z" fill="white"/>
</mask>
<g mask="url(#mask0_78_4089)">
<path d="M208.244 59.5405H29.7472V177.17H208.244V59.5405Z" fill="url(#paint0_linear_78_4089)"/>
</g>
<mask id="mask1_78_4089" style="mask-type:luminance" maskUnits="userSpaceOnUse" x="0" y="0" width="90" height="110">
<path d="M64.6492 54.3884L89.2485 29.7721L59.499 0.00195312L29.7496 29.7721L0 59.5421L29.7496 89.3123L49.7257 109.302C39.9834 88.7223 50.137 68.9106 64.6492 54.3884Z" fill="white"/>
</mask>
<g mask="url(#mask1_78_4089)">
<path d="M89.2485 0.00244141L0 0.00244141L0 109.303H89.2485V0.00244141Z" fill="#052BBD" fill-opacity="0.95"/>
</g>
<mask id="mask2_78_4089" style="mask-type:luminance" maskUnits="userSpaceOnUse" x="89" y="0" width="60" height="60">
<path d="M118.997 59.5397L148.746 29.77L118.997 0.000240999L89.2482 29.7699L118.997 59.5397Z" fill="white"/>
</mask>
<g mask="url(#mask2_78_4089)">
<path d="M148.741 0.000488281L89.2426 0.000488281V59.5407H148.741V0.000488281Z" fill="#052BBD" fill-opacity="0.95"/>
</g>
<mask id="mask3_78_4089" style="mask-type:luminance" maskUnits="userSpaceOnUse" x="148" y="0" width="90" height="110">
<path d="M173.351 54.3869L148.751 29.7706L178.501 0.000488281L208.251 29.7706L238 59.5407L208.251 89.3108L188.274 109.301C198.017 88.7208 187.863 68.9091 173.351 54.3869Z" fill="white"/>
</mask>
<g mask="url(#mask3_78_4089)">
<path d="M237.998 0.000976562L148.75 0.000976562V109.301H237.998V0.000976562Z" fill="#052BBD" fill-opacity="0.95"/>
</g>
<mask id="mask4_78_4089" style="mask-type:luminance" maskUnits="userSpaceOnUse" x="45" y="59" width="21" height="51">
<path d="M65.6631 59.7524H45.8783V109.301H65.6631V59.7524Z" fill="url(#paint1_linear_78_4089)"/>
</mask>
<g mask="url(#mask4_78_4089)">
<path fill-rule="evenodd" clip-rule="evenodd" d="M49.7256 109.301C49.7256 109.301 44.0313 85.0075 65.6638 65.7105L59.7103 59.7529C48.0142 73.6052 41.1353 91.1546 49.7256 109.301Z" fill="#052BBD"/>
</g>
<mask id="mask5_78_4089" style="mask-type:luminance" maskUnits="userSpaceOnUse" x="172" y="59" width="21" height="51">
<path d="M192.126 59.7524H172.341V109.301H192.126V59.7524Z" fill="url(#paint2_linear_78_4089)"/>
</mask>
<g mask="url(#mask5_78_4089)">
<path fill-rule="evenodd" clip-rule="evenodd" d="M188.275 109.301C188.275 109.301 193.969 85.007 172.337 65.7101L178.29 59.7524C189.986 73.6047 196.865 91.1541 188.275 109.301Z" fill="#052BBD"/>
</g>
<mask id="mask6_78_4089" style="mask-type:luminance" maskUnits="userSpaceOnUse" x="74" y="133" width="90" height="42">
<path d="M163.613 133.966H74.365V174.745H163.613V133.966Z" fill="url(#paint3_linear_78_4089)"/>
</mask>
<g mask="url(#mask6_78_4089)">
<path fill-rule="evenodd" clip-rule="evenodd" d="M163.618 133.966C115.611 162.765 74.3699 133.966 74.3699 133.966L89.2447 148.851L108.386 168.006C117.097 176.723 120.444 177.17 129.352 168.257L148.743 148.852L163.618 133.966Z" fill="#1A45D6"/>
</g>
<mask id="mask7_78_4089" style="mask-type:luminance" maskUnits="userSpaceOnUse" x="148" y="0" width="90" height="60">
<path d="M238 0.000488281L148.751 0.000488281V59.5408H238V0.000488281Z" fill="url(#paint4_linear_78_4089)"/>
</mask>
<g mask="url(#mask7_78_4089)">
<path fill-rule="evenodd" clip-rule="evenodd" d="M148.747 29.7701C148.747 29.7701 202.257 29.9521 237.996 59.5402L208.247 29.7701L178.497 0L148.747 29.7701Z" fill="#375ADC"/>
</g>
<mask id="mask8_78_4089" style="mask-type:luminance" maskUnits="userSpaceOnUse" x="0" y="0" width="90" height="60">
<path d="M89.2485 0.00195312L0 0.00195312L0 59.5423H89.2485V0.00195312Z" fill="url(#paint5_linear_78_4089)"/>
</mask>
<g mask="url(#mask8_78_4089)">
<path fill-rule="evenodd" clip-rule="evenodd" d="M89.2485 29.7716C89.2485 29.7716 35.7393 29.9536 0 59.5416L29.7496 29.7716L59.499 0.00146484L89.2485 29.7716Z" fill="#375ADC"/>
</g>
<mask id="mask9_78_4089" style="mask-type:luminance" maskUnits="userSpaceOnUse" x="89" y="0" width="60" height="30">
<path d="M148.74 0.000488281L89.2412 0.000488281V29.7706H148.74V0.000488281Z" fill="url(#paint6_linear_78_4089)"/>
</mask>
<g mask="url(#mask9_78_4089)">
<path fill-rule="evenodd" clip-rule="evenodd" d="M89.2451 29.7706C89.2451 29.7706 126.832 27.6899 148.744 29.7706L118.995 0.000488281L89.2451 29.7706Z" fill="#375ADC"/>
</g>
<defs>
<linearGradient id="paint0_linear_78_4089" x1="118.996" y1="73.5952" x2="118.996" y2="174.743" gradientUnits="userSpaceOnUse">
<stop stop-color="#052BBD"/>
<stop offset="1" stop-color="#2983D3"/>
</linearGradient>
<linearGradient id="paint1_linear_78_4089" x1="64.3717" y1="50.0985" x2="49.0751" y2="111.243" gradientUnits="userSpaceOnUse">
<stop stop-color="white"/>
<stop offset="1"/>
</linearGradient>
<linearGradient id="paint2_linear_78_4089" x1="173.633" y1="50.0979" x2="188.929" y2="111.242" gradientUnits="userSpaceOnUse">
<stop stop-color="white"/>
<stop offset="1"/>
</linearGradient>
<linearGradient id="paint3_linear_78_4089" x1="118.989" y1="214.433" x2="118.989" y2="133.739" gradientUnits="userSpaceOnUse">
<stop stop-color="white"/>
<stop offset="1"/>
</linearGradient>
<linearGradient id="paint4_linear_78_4089" x1="203.651" y1="-11.3559" x2="188.103" y2="50.7876" gradientUnits="userSpaceOnUse">
<stop stop-color="white"/>
<stop offset="1"/>
</linearGradient>
<linearGradient id="paint5_linear_78_4089" x1="34.3487" y1="-11.3543" x2="49.8971" y2="50.789" gradientUnits="userSpaceOnUse">
<stop stop-color="white"/>
<stop offset="1"/>
</linearGradient>
<linearGradient id="paint6_linear_78_4089" x1="118.991" y1="-20.8884" x2="118.991" y2="39.7573" gradientUnits="userSpaceOnUse">
<stop stop-color="white"/>
<stop offset="1"/>
</linearGradient>
</defs>
</svg>
