<svg width="52" height="52" viewBox="0 0 52 52" fill="none" xmlns="http://www.w3.org/2000/svg">
<path d="M28.6202 41.7674C34.644 41.7674 39.5272 36.9282 39.5272 30.9587C39.5272 24.9892 34.644 20.15 28.6202 20.15C22.5965 20.15 17.7134 24.9892 17.7134 30.9587C17.7134 36.9282 22.5965 41.7674 28.6202 41.7674Z" fill="#2553E4"/>
<path d="M12.2655 31.1103C13.6725 31.1103 14.8132 29.9825 14.8132 28.5915C14.8132 27.2004 13.6725 26.0728 12.2655 26.0728C10.8585 26.0728 9.7179 27.2004 9.7179 28.5915C9.7179 29.9825 10.8585 31.1103 12.2655 31.1103Z" fill="#2553E4"/>
<path d="M28.1584 36.8766L42.907 35.2013C43.6869 35.1146 44.4205 35.6057 44.6229 36.3566C44.8019 37.021 44.5245 37.7258 43.9352 38.0898L32.7223 45.0627C30.7638 46.2813 28.3895 46.6626 26.1423 46.114L18.3607 44.219L14.9119 46.3567" fill="white"/>
<path d="M14.9004 46.7949C14.756 46.7949 14.6116 46.7199 14.5307 46.5929C14.4036 46.3906 14.4671 46.1249 14.6693 45.998L18.1182 43.8603C18.2164 43.7966 18.3377 43.7793 18.4475 43.8083L26.2291 45.7033C28.3492 46.2172 30.6311 45.8532 32.4797 44.704L43.6926 37.731C44.1203 37.4653 44.3227 36.9627 44.1953 36.4774C44.051 35.9344 43.5197 35.5704 42.9476 35.6398L28.199 37.3208C27.9564 37.3497 27.7484 37.1764 27.7195 36.9396C27.6906 36.7027 27.8639 36.489 28.1008 36.4601L42.8494 34.779C43.8313 34.6692 44.7729 35.2989 45.0329 36.2521C45.2643 37.1071 44.9116 37.9968 44.155 38.4647L32.9419 45.4377C30.8968 46.7086 28.3723 47.1129 26.0269 46.5409L18.4186 44.6923L15.1257 46.7372C15.0564 46.7836 14.9755 46.8009 14.9004 46.8009V46.7949Z" fill="#36354C"/>
<path d="M7.3667 38.9605L14.3626 35.5001C17.5746 33.9114 21.3354 33.8363 24.6109 35.2921L31.2776 38.2615C32.381 38.7525 32.329 40.3181 31.1967 40.7398C30.0182 41.1788 28.3371 41.4099 26.0436 40.838L20.7404 39.5151" fill="white"/>
<path d="M28.6319 41.6182C27.7827 41.6182 26.8815 41.4969 25.934 41.2658L20.6308 39.9429C20.3997 39.8851 20.2553 39.6482 20.3131 39.4171C20.3708 39.1861 20.6077 39.0417 20.8388 39.0994L26.142 40.4223C28.008 40.8845 29.6544 40.8614 31.0351 40.3415C31.4626 40.1797 31.6244 39.81 31.6359 39.5154C31.6475 39.1398 31.4453 38.8221 31.0929 38.6662L24.4263 35.6968C21.2605 34.2872 17.6556 34.3565 14.5476 35.8932L7.55755 39.3536C7.34378 39.4576 7.08383 39.3709 6.97983 39.1572C6.87587 38.9435 6.96249 38.6835 7.17626 38.5795L14.1722 35.1191C17.5113 33.4669 21.3818 33.386 24.7845 34.9054L31.451 37.8747C32.1212 38.1751 32.5256 38.8106 32.5082 39.5442C32.4851 40.2779 32.0403 40.8961 31.3471 41.156C30.521 41.468 29.614 41.624 28.6377 41.624L28.6319 41.6182Z" fill="#36354C"/>
<path d="M43.8135 26.6851C44.4869 26.6851 45.0329 26.1445 45.0329 25.4776C45.0329 24.8106 44.4869 24.27 43.8135 24.27C43.1403 24.27 42.5945 24.8106 42.5945 25.4776C42.5945 26.1445 43.1403 26.6851 43.8135 26.6851Z" fill="#E7E7F0"/>
<path d="M29.9544 5.6333H29.6194C22.0482 5.6333 15.9106 11.7709 15.9106 19.342C15.9106 26.9132 22.0482 33.0508 29.6194 33.0508H29.9544C37.5256 33.0508 43.6631 26.9132 43.6631 19.342C43.6631 11.7709 37.5256 5.6333 29.9544 5.6333Z" fill="white"/>
<path d="M29.9546 33.484H29.6253C21.8264 33.484 15.4833 27.1408 15.4833 19.342C15.4833 11.543 21.8206 5.19995 29.6195 5.19995H29.9488C37.7477 5.19995 44.0909 11.543 44.0909 19.342C44.0909 27.1408 37.7477 33.484 29.9488 33.484H29.9546ZM29.6253 6.06649C22.3058 6.06649 16.3498 12.0225 16.3498 19.342C16.3498 26.6613 22.3058 32.6174 29.6253 32.6174H29.9546C37.274 32.6174 43.23 26.6613 43.23 19.342C43.23 12.0225 37.274 6.06649 29.9546 6.06649H29.6253Z" fill="#36354C"/>
<g clip-path="url(#clip0_1_289)">
<path d="M37.9517 17.7357C37.8235 17.0024 37.4415 16.3348 36.876 15.8561C36.5552 15.5845 36.3384 15.2058 36.2657 14.7897C36.1375 14.0563 35.7554 13.3888 35.1901 12.9101C34.6245 12.4314 33.9066 12.1677 33.1685 12.1677C32.7497 12.1677 32.3423 12.0181 32.0215 11.7465C31.456 11.2678 30.7381 11.0042 29.9999 11.0042C29.2617 11.0042 28.5438 11.2678 27.9783 11.7465C27.6575 12.0181 27.2502 12.1677 26.8313 12.1677C26.0932 12.1677 25.3753 12.4314 24.8098 12.9101C24.2442 13.3888 23.8623 14.0563 23.7341 14.7897C23.6614 15.2058 23.4447 15.5845 23.1238 15.8561C22.5583 16.3348 22.1763 17.0024 22.0481 17.7357C21.9199 18.4691 22.0526 19.2283 22.4217 19.8731C22.6311 20.2391 22.7064 20.6697 22.6337 21.0858C22.5055 21.8192 22.6381 22.5784 23.0073 23.2232C23.3763 23.8682 23.9617 24.3636 24.6553 24.6183C25.0488 24.7628 25.3809 25.0439 25.5903 25.4098C25.9593 26.0548 26.5447 26.5502 27.2383 26.805C27.9319 27.0597 28.696 27.0597 29.3896 26.805C29.7831 26.6605 30.2166 26.6605 30.6101 26.805C30.957 26.9323 31.3213 26.996 31.6858 26.996C32.0502 26.996 32.4146 26.9323 32.7614 26.805C33.455 26.5503 34.0404 26.0548 34.4094 25.4098C34.6188 25.0439 34.9509 24.7628 35.3444 24.6183C36.038 24.3637 36.6234 23.8682 36.9924 23.2232C37.3614 22.5782 37.4941 21.8192 37.366 21.0858C37.2933 20.6697 37.3686 20.2391 37.578 19.8731C37.947 19.2282 38.0797 18.4691 37.9516 17.7357H37.9517ZM33.2251 18.0063L29.8503 21.3704C29.697 21.5232 29.4891 21.6091 29.2723 21.6091C29.0555 21.6091 28.8475 21.5232 28.6942 21.3704L27.1069 19.7881C26.7876 19.4698 26.7876 18.9537 27.1069 18.6355C27.4262 18.3173 27.9438 18.3173 28.2631 18.6355L29.2724 19.6415L32.0691 16.8536C32.3884 16.5354 32.9061 16.5354 33.2254 16.8536C33.5447 17.1718 33.5447 17.6879 33.2254 18.0062L33.2251 18.0063Z" fill="#2553E4"/>
</g>
<defs>
<clipPath id="clip0_1_289">
<rect width="16" height="16" fill="white" transform="translate(22 11)"/>
</clipPath>
</defs>
</svg>
