<svg width="35" height="35" viewBox="0 0 35 35" fill="none" xmlns="http://www.w3.org/2000/svg">
<path d="M24.3638 30.5918C23.3918 30.9707 21.9693 30.7763 21.1566 30.7763H9.77752C8.57372 30.7763 6.70186 31.0652 5.57445 30.6493C4.84226 30.379 4.12847 29.6596 3.82828 28.9501C3.75522 28.7772 3.70131 28.5968 3.65252 28.4157C3.32934 27.2211 3.29179 25.9922 3.05292 24.7777C2.79847 23.4845 2.54376 22.1913 2.26708 20.9029C1.74872 18.4913 0.462409 15.5331 2.2939 13.3343C2.97679 12.5142 4.9212 12.7952 5.9012 12.7952H23.1138C24.2415 12.7952 25.6042 12.5175 26.6815 12.9222C29.3512 13.9252 27.2895 17.7519 26.6156 19.4005C25.9055 21.141 25.4653 22.9797 25.3101 24.8531C25.2336 25.7886 25.2276 26.7286 25.2922 27.6651C25.3382 28.3449 25.5485 29.1928 25.233 29.8407C25.0539 30.2086 24.7432 30.4439 24.3638 30.5918Z" fill="#2553E4"/>
<path d="M25.3088 24.8538C25.2314 25.7888 25.2262 26.7283 25.2932 27.664C25.3364 28.3444 25.5472 29.1925 25.2345 29.8414C25.0549 30.2091 24.7422 30.4436 24.3631 30.592C23.3935 30.9711 21.9705 30.776 21.1576 30.776H9.77854C8.57449 30.776 6.70211 31.0649 5.5724 30.6508C4.63303 30.3041 2.86284 28.4105 3.37967 27.2882C3.57894 26.8552 4.01963 26.588 4.45598 26.3951C6.62802 25.4355 9.11558 25.716 11.4848 25.8767C13.8541 26.0374 16.4342 25.9983 18.3252 24.5618C19.7053 23.5131 20.3508 21.9577 20.4556 20.2711C20.5762 18.3287 21.0904 16.4229 21.8262 14.62C22.0175 14.151 22.3223 13.5021 22.5962 12.7946H23.1123C24.2417 12.7946 25.6021 12.5172 26.6812 12.9237C29.3509 13.9244 27.2908 17.7511 26.6148 19.4007C25.9062 21.1419 25.4659 22.9805 25.3088 24.8538Z" fill="#2553E4" fill-opacity="0.5"/>
<path d="M28.676 32.2864C28.7986 32.5117 28.8776 32.7478 28.83 32.9951C28.7312 33.5086 28.034 33.7717 27.5662 33.6498C27.0297 33.5104 26.5872 32.8604 26.3266 32.4157C25.3806 30.7993 24.8937 29.2488 24.8505 27.3675C24.8242 26.2204 24.8694 25.0595 24.6622 23.9252C24.5728 23.4357 24.475 22.9074 24.1571 22.5163C23.8751 22.1688 23.4492 22.0097 23.1327 21.7003C22.8936 21.4663 22.7398 21.1592 22.6151 20.8485C22.3862 20.2796 22.2523 19.6879 22.1816 19.0799C22.1269 18.6124 21.92 18.1262 22.0283 17.6533C22.0921 17.3736 22.2919 17.1053 22.5732 17.0491C22.9488 16.9743 23.3759 17.2578 23.5644 17.5695C23.7875 17.9379 23.8094 18.3881 23.8899 18.8111C24.0082 19.433 24.2854 20.0525 24.7894 20.4357C25.5336 21.0013 26.5727 20.9328 27.4461 21.2662C28.175 21.5447 28.7616 22.0922 29.3995 22.5411C30.0374 22.9902 30.8128 23.3586 31.5761 23.1976C32.0608 23.0954 33.1593 22.6586 33.1882 23.5553C33.2017 23.9738 32.7942 24.1901 32.4785 24.3657C32.0712 24.592 31.6004 24.6927 31.1372 24.7011C30.3189 24.7162 29.1036 24.5871 28.5958 23.8596C29.0735 24.5442 29.0955 25.4409 29.3987 26.2186C29.7824 27.2027 30.6498 27.9844 31.6681 28.2642C32.129 28.3909 32.6228 28.4228 33.0446 28.6477C33.4661 28.8725 33.7944 29.3896 33.5969 29.8244C33.3874 30.2855 32.7656 30.3552 32.2616 30.3054C30.2459 30.1056 28.3324 29.0255 27.1204 27.4022C27.2379 28.8809 27.5189 30.5443 28.3607 31.7954C28.4667 31.953 28.5838 32.1165 28.676 32.2864Z" fill="white"/>
<path d="M26.9214 21.2376C28.1609 21.2376 29.1657 20.2696 29.1657 19.0755C29.1657 17.8814 28.1609 16.9135 26.9214 16.9135C25.6819 16.9135 24.677 17.8814 24.677 19.0755C24.677 20.2696 25.6819 21.2376 26.9214 21.2376Z" fill="white"/>
<path d="M22.9168 15.1846C22.8926 15.1846 22.8683 15.1831 22.844 15.1805C22.4146 15.1358 22.1049 14.7071 22.1527 14.2217C22.3098 12.6248 22.0482 11.0097 21.77 9.63342C21.1032 6.33524 18.5186 2.93053 15.073 3.19444C12.8491 3.36867 10.5365 4.64374 9.18865 6.43258C7.78176 8.29933 6.88632 11.1916 6.9507 13.6211C6.96347 14.1098 6.62344 14.5097 6.19092 14.5153H6.18172C5.75329 14.5153 5.39563 14.1262 5.38132 13.641C5.29625 10.8012 6.33245 7.41411 7.97311 5.22367C9.60636 3.04371 12.2899 1.54867 14.966 1.33842C19.3021 0.996336 22.515 5.1713 23.3149 9.19911C23.6181 10.7238 23.9002 12.5239 23.7108 14.384C23.6641 14.8413 23.3164 15.1846 22.9168 15.1846Z" fill="#E3EFFF"/>
<path d="M22.1949 12.8649C22.1668 11.7076 21.9726 10.581 21.7708 9.57695C21.104 6.27877 18.5186 2.87585 15.0722 3.13899C12.8496 3.31272 10.5376 4.58753 9.18865 6.37585C7.78099 8.24337 7.78099 7.60469 9.18865 5.73717C10.5376 3.94885 12.8496 2.67403 15.0722 2.50031C18.5186 2.23717 21.104 5.64009 21.7708 8.93826C22.0109 10.1262 22.2383 11.4879 22.1949 12.8649Z" fill="#3086EE" fill-opacity="0.4"/>
<path d="M6.36515 16.3215H5.73872C5.66114 16.3215 5.5843 16.3063 5.51261 16.2766C5.44092 16.2469 5.37578 16.2034 5.3209 16.1486C5.26603 16.0937 5.2225 16.0286 5.1928 15.9569C5.1631 15.8852 5.14781 15.8084 5.14781 15.7308V14.2248C5.14781 14.1472 5.1631 14.0704 5.1928 13.9987C5.2225 13.927 5.26603 13.8619 5.3209 13.8071C5.37578 13.7522 5.44092 13.7087 5.51261 13.679C5.5843 13.6494 5.66114 13.6341 5.73872 13.6342H6.36515C6.5218 13.6342 6.67204 13.6964 6.78281 13.8072C6.89358 13.9179 6.9558 14.0682 6.9558 14.2248V15.7308C6.9558 15.8875 6.89358 16.0377 6.78281 16.1485C6.67204 16.2593 6.5218 16.3215 6.36515 16.3215ZM23.1373 16.5195H22.5111C22.4335 16.5195 22.3567 16.5043 22.285 16.4746C22.2133 16.4449 22.1481 16.4014 22.0932 16.3465C22.0383 16.2916 21.9948 16.2265 21.9651 16.1547C21.9354 16.083 21.9202 16.0062 21.9202 15.9286V14.4228C21.9202 14.3452 21.9354 14.2683 21.9651 14.1966C21.9948 14.1249 22.0383 14.0598 22.0932 14.0049C22.1481 13.95 22.2133 13.9065 22.285 13.8768C22.3567 13.8471 22.4335 13.8319 22.5111 13.8319H23.1373C23.2149 13.8319 23.2918 13.8471 23.3635 13.8768C23.4352 13.9065 23.5003 13.95 23.5552 14.0049C23.6101 14.0598 23.6536 14.1249 23.6833 14.1966C23.713 14.2683 23.7282 14.3452 23.7282 14.4228V15.9286C23.7282 16.0062 23.713 16.083 23.6833 16.1547C23.6536 16.2265 23.6101 16.2916 23.5552 16.3465C23.5003 16.4014 23.4352 16.4449 23.3635 16.4746C23.2918 16.5043 23.2149 16.5195 23.1373 16.5195Z" fill="#2983D3" fill-opacity="0.55"/>
<path d="M33.1356 28.4785C32.6685 28.2314 32.139 28.1975 31.7202 28.0799C29.5198 27.477 29.4215 25.4409 29.1297 24.5365C30.7648 25.3413 33.4145 24.7 33.3808 23.5478C33.3476 22.679 32.5559 22.7456 31.7662 22.9526C30.1256 23.3869 29.2449 21.9529 27.8651 21.246C28.7388 20.8883 29.3571 20.0504 29.3571 19.0745C29.3571 18.0886 28.7263 17.2432 27.8352 16.893C28.1771 15.8425 28.3679 14.7419 28.0105 13.895C27.7849 13.3603 27.3603 12.9727 26.7487 12.7428C25.8762 12.415 24.8704 12.5129 23.9484 12.5683C23.6288 4.6141 19.0489 0.82439 14.9511 1.14731C9.135 1.60435 5.55632 6.82727 5.20811 12.5806C4.15351 12.5333 2.75019 12.4865 2.1465 13.2116C0.575334 15.0985 1.20329 17.5064 1.7569 19.6306C2.98063 24.3237 3.1707 27.8881 3.65176 29.0247C3.98209 29.8057 4.74519 30.5476 5.50803 30.8291C6.68322 31.2634 8.57143 30.9681 9.77752 30.9681H21.1569C21.3418 30.9681 21.559 30.9783 21.7953 30.9895C22.6205 31.0279 23.648 31.0764 24.4336 30.7706C24.7274 30.6559 24.9624 30.4947 25.1443 30.2946C25.6261 31.5189 26.517 33.8718 27.8089 33.8718C28.7054 33.8718 29.3709 33.1572 28.8436 32.1959C28.5383 31.6346 27.6819 30.8271 27.3695 28.0087C29.2306 30.0882 33.1207 31.3265 33.7717 29.9043C34.0169 29.3652 33.6312 28.7442 33.1356 28.4785ZM28.9739 19.0745C28.9739 20.7103 27.0246 21.6215 25.6834 20.6482C24.1158 19.5088 24.9622 17.1048 26.9224 17.1048C28.0542 17.1048 28.9739 17.9887 28.9739 19.0745ZM8.12665 5.33862C9.73256 3.19494 12.3591 1.73541 14.9815 1.5295C19.2117 1.19457 22.3354 5.25125 23.1271 9.2364C23.3935 10.5774 23.6385 12.1427 23.5581 13.766C23.4574 13.7184 23.3695 13.6408 23.1365 13.6408C22.4733 13.6454 22.7234 13.6306 22.3752 13.6538C22.4314 12.227 22.2043 10.8147 21.9578 9.59559C21.2961 6.32246 18.8137 2.98826 15.4516 2.98826C15.3218 2.98826 15.1905 2.99337 15.0582 3.00333C12.7824 3.18165 10.4185 4.48227 9.03563 6.31735C7.6226 8.19253 6.71336 11.0896 6.75909 13.5519C6.7034 13.5281 6.59048 13.4438 6.36439 13.4438C5.75431 13.4481 5.69453 13.4328 5.57165 13.4617C5.53358 10.6872 6.54807 7.44603 8.12665 5.33862ZM5.33993 14.2256C5.33993 14.0058 5.51876 13.827 5.73847 13.827C5.97836 13.8689 6.76293 13.6533 6.76293 14.2256V15.7303C6.76293 15.95 6.58409 16.1288 6.36439 16.1288C6.12475 16.0869 5.33993 16.3028 5.33993 15.7303V14.2256ZM22.1118 14.4223C22.1118 13.85 22.8982 14.0654 23.1363 14.0237C23.3585 14.0237 23.5374 14.2026 23.5374 14.4223V15.9296C23.5374 16.1493 23.3585 16.3281 23.1363 16.3281H22.5104C22.2907 16.3281 22.1118 16.1493 22.1118 15.9296V14.4223ZM21.9892 12.6035H7.17041C7.52705 7.89771 10.42 3.75085 15.0876 3.38552C18.4302 3.12494 20.9277 6.43282 21.5822 9.67121C21.7636 10.5687 21.9361 11.5725 21.9892 12.6035ZM21.8132 30.6066C21.5945 30.5944 21.3756 30.5871 21.1566 30.5846H9.77778C7.68314 30.5846 5.03592 31.3127 4.00508 28.8755C3.5626 27.8286 3.36001 24.2611 2.12785 19.5338C1.57143 17.3993 0.9961 15.1923 2.44132 13.4568C2.94511 12.8519 4.35482 12.9265 5.19278 12.9635C5.18818 13.1122 5.18001 13.5197 5.19278 13.6684C5.17439 13.6947 4.95698 13.8784 4.95698 14.2256V15.7303C4.95698 15.9376 5.03934 16.1365 5.18595 16.2831C5.33255 16.4297 5.53139 16.5121 5.73873 16.5121H6.36464C6.4673 16.5121 6.56896 16.4918 6.6638 16.4525C6.75865 16.4133 6.84483 16.3557 6.91742 16.2831C6.99001 16.2105 7.0476 16.1243 7.08689 16.0295C7.12617 15.9346 7.14639 15.833 7.14639 15.7303C7.13055 14.2273 7.18267 14.1923 7.09836 13.9594C7.17245 13.6995 7.12263 13.6645 7.14946 12.9868H22.0053C22.0104 13.2734 22.004 13.5601 21.9861 13.8462C21.5659 14.2243 21.7933 14.6599 21.7289 15.9296C21.7289 16.3588 22.0789 16.7113 22.5106 16.7113H23.1365C23.5683 16.7113 23.9208 16.3588 23.9208 15.9296V14.4223C23.9208 14.3788 23.9183 14.338 23.9106 14.2971C23.9106 14.2956 23.9099 14.2945 23.9096 14.293C23.9505 13.8471 23.9678 13.3994 23.9615 12.9518C24.8181 12.9007 25.8124 12.8008 26.6143 13.1015C27.1304 13.2954 27.4719 13.6037 27.6577 14.0439C27.9719 14.7884 27.7905 15.8 27.4694 16.7826C27.29 16.7416 27.1066 16.7211 26.9227 16.7215C25.0922 16.7215 23.9239 18.6008 24.7588 20.1602C23.88 19.319 24.1853 18.224 23.7292 17.4701C23.2293 16.6464 22.0756 16.593 21.8413 17.6106C21.7595 17.9734 21.8362 18.3259 21.9103 18.6657C22.0367 19.2392 22.2012 21.0605 22.9986 21.8361C24.0118 22.8325 24.5473 21.7822 24.6592 27.3723C24.6796 28.2386 24.7918 29.049 25.0102 29.8389C24.4727 30.7496 22.8811 30.6564 21.8132 30.6066ZM33.4219 29.7456C32.9815 30.7157 29.1675 29.8264 27.2752 27.288C27.2499 27.2549 27.2148 27.2306 27.1749 27.2187C27.135 27.2067 27.0923 27.2078 27.053 27.2215C26.9738 27.2522 26.9227 27.3314 26.9303 27.4183C27.2762 31.803 28.8071 32.1203 28.642 32.9595C28.6062 33.1409 28.4683 33.261 28.3584 33.3299C27.5744 33.8312 26.9648 33.1258 26.4935 32.3183C25.2468 30.1919 25.0531 28.6913 25.0322 26.6033C24.9821 20.8168 23.5913 22.8108 22.7942 20.7759C22.5847 20.2573 22.4468 19.6953 22.3727 19.0566C22.3088 18.562 22.1198 18.1103 22.2143 17.6949C22.27 17.4563 22.4439 17.2274 22.6997 17.2274C24.2284 17.2274 22.9148 20.2394 25.5176 20.9956C26.0269 21.3448 26.6482 21.4915 27.2599 21.4069C28.6727 21.7605 29.7717 23.904 31.8635 23.323C32.4711 23.1651 32.9795 23.0445 32.9979 23.5606C33.0055 23.8314 32.7475 23.9975 32.3847 24.1993C32.0347 24.3934 31.6004 24.5007 31.1329 24.5084C28.7258 24.5646 28.8581 23.441 28.4862 23.7037C28.3983 23.7622 28.3796 23.8858 28.4376 23.9694C28.8865 24.6137 28.9082 25.471 29.2194 26.2891C30.1151 28.5768 32.2363 28.432 32.9544 28.8157C33.2993 29.0022 33.5701 29.4186 33.4219 29.7456Z" fill="#2553E4"/>
</svg>
