<svg width="43" height="31" viewBox="0 0 43 31" fill="none" xmlns="http://www.w3.org/2000/svg">
<path d="M23.6397 15.2485C21.6265 13.3609 18.3607 13.3609 16.3475 15.2485C14.3342 13.3609 11.0685 13.3609 9.05523 15.2485C7.04197 17.136 7.04197 20.198 9.05523 22.0855L16.3475 28.9225L23.6397 22.0855C25.653 20.198 25.653 17.136 23.6397 15.2485Z" fill="#2553E4"/>
<path fill-rule="evenodd" clip-rule="evenodd" d="M15.09 13.166C17.3573 11.4256 20.6947 11.5476 22.8123 13.5319C25.0909 15.6697 25.0909 19.1504 22.8123 21.2869L15.5201 28.124C15.4035 28.2332 15.2498 28.2941 15.09 28.2941C14.9302 28.2941 14.7765 28.2332 14.6599 28.124L7.36769 21.2869C5.08911 19.1492 5.08911 15.6684 7.36769 13.5319C9.48532 11.5476 12.8227 11.4244 15.09 13.166ZM21.9522 14.4487C20.1804 12.7888 17.2919 12.7888 15.5201 14.4487C15.4035 14.5579 15.2498 14.6187 15.09 14.6187C14.9302 14.6187 14.7765 14.5579 14.6599 14.4487C12.8881 12.7888 9.99964 12.7888 8.22782 14.4487C6.4799 16.0897 6.4799 18.7292 8.22782 20.369L15.09 26.8036L21.9522 20.369C23.7001 18.7292 23.7001 16.0897 21.9522 14.4499V14.4487ZM15.09 3.14373C14.2562 3.14373 13.4566 3.47495 12.867 4.06451C12.2775 4.65408 11.9463 5.45371 11.9463 6.28748C11.9463 7.12125 12.2775 7.92088 12.867 8.51045C13.4566 9.10001 14.2562 9.43123 15.09 9.43123C15.9238 9.43123 16.7234 9.10001 17.313 8.51045C17.9025 7.92088 18.2337 7.12125 18.2337 6.28748C18.2337 5.45371 17.9025 4.65408 17.313 4.06451C16.7234 3.47495 15.9238 3.14373 15.09 3.14373ZM10.6888 6.28748C10.6888 5.7095 10.8026 5.13718 11.0238 4.6032C11.245 4.06921 11.5692 3.58402 11.9778 3.17533C12.3865 2.76663 12.8717 2.44244 13.4057 2.22126C13.9397 2.00007 14.512 1.88623 15.09 1.88623C15.668 1.88623 16.2403 2.00007 16.7743 2.22126C17.3083 2.44244 17.7935 2.76663 18.2022 3.17533C18.6108 3.58402 18.935 4.06921 19.1562 4.6032C19.3774 5.13718 19.4912 5.7095 19.4912 6.28748C19.4912 7.45476 19.0275 8.57424 18.2022 9.39963C17.3768 10.225 16.2573 10.6887 15.09 10.6887C13.9227 10.6887 12.8032 10.225 11.9778 9.39963C11.1525 8.57424 10.6888 7.45476 10.6888 6.28748Z" fill="#2553E4" fill-opacity="0.5"/>
<path d="M37.6011 19.5619C36.1694 18.2197 33.8471 18.2197 32.4155 19.5619C30.9838 18.2197 28.6615 18.2197 27.2299 19.5619C25.7982 20.9041 25.7982 23.0816 27.2299 24.4238L32.4155 29.2857L37.6011 24.4238C39.0327 23.0816 39.0327 20.9041 37.6011 19.5619Z" fill="#2553E4"/>
<path fill-rule="evenodd" clip-rule="evenodd" d="M31.5212 18.081C33.1335 16.8434 35.5068 16.9302 37.0127 18.3413C38.633 19.8614 38.633 22.3367 37.0127 23.8559L31.8271 28.7178C31.7442 28.7955 31.6348 28.8388 31.5212 28.8388C31.4076 28.8388 31.2983 28.7955 31.2154 28.7178L26.0298 23.8559C24.4095 22.3358 24.4095 19.8605 26.0298 18.3413C27.5357 16.9302 29.909 16.8426 31.5212 18.081ZM36.401 18.9932C35.1411 17.8128 33.087 17.8128 31.8271 18.9932C31.7442 19.0709 31.6348 19.1141 31.5212 19.1141C31.4076 19.1141 31.2983 19.0709 31.2154 18.9932C29.9555 17.8128 27.9014 17.8128 26.6415 18.9932C25.3985 20.1601 25.3985 22.0371 26.6415 23.2032L31.5212 27.7789L36.401 23.2032C37.644 22.0371 37.644 20.1601 36.401 18.994V18.9932ZM31.5212 10.9541C30.9283 10.9541 30.3597 11.1896 29.9405 11.6089C29.5212 12.0281 29.2857 12.5967 29.2857 13.1897C29.2857 13.7826 29.5212 14.3512 29.9405 14.7704C30.3597 15.1897 30.9283 15.4252 31.5212 15.4252C32.1141 15.4252 32.6828 15.1897 33.102 14.7704C33.5213 14.3512 33.7568 13.7826 33.7568 13.1897C33.7568 12.5967 33.5213 12.0281 33.102 11.6089C32.6828 11.1896 32.1141 10.9541 31.5212 10.9541ZM28.3915 13.1897C28.3915 12.7786 28.4724 12.3717 28.6297 11.9919C28.787 11.6122 29.0175 11.2672 29.3082 10.9766C29.5988 10.6859 29.9438 10.4554 30.3235 10.2981C30.7033 10.1408 31.1102 10.0599 31.5212 10.0599C31.9323 10.0599 32.3392 10.1408 32.719 10.2981C33.0987 10.4554 33.4437 10.6859 33.7343 10.9766C34.025 11.2672 34.2555 11.6122 34.4128 11.9919C34.5701 12.3717 34.651 12.7786 34.651 13.1897C34.651 14.0197 34.3213 14.8158 33.7343 15.4027C33.1474 15.9897 32.3513 16.3194 31.5212 16.3194C30.6912 16.3194 29.8951 15.9897 29.3082 15.4027C28.7212 14.8158 28.3915 14.0197 28.3915 13.1897Z" fill="#2553E4" fill-opacity="0.5"/>
</svg>
