<svg width="19" height="18" viewBox="0 0 19 18" fill="none" xmlns="http://www.w3.org/2000/svg">
<g clip-path="url(#clip0_0_1238)">
<path d="M18.75 9C18.75 4.02944 14.6086 0 9.5 0C4.39137 0 0.25 4.02944 0.25 9C0.25 13.9706 4.39137 18 9.5 18C14.6086 18 18.75 13.9706 18.75 9Z" fill="#13519C"/>
<path d="M11.375 7.90537H7.62499C7.52553 7.90537 7.43015 7.94381 7.35982 8.01224C7.2895 8.08066 7.24999 8.17347 7.24999 8.27024C7.24999 8.36701 7.2895 8.45981 7.35982 8.52824C7.43015 8.59666 7.52553 8.6351 7.62499 8.6351H11.375C11.4744 8.6351 11.5698 8.59666 11.6402 8.52824C11.7105 8.45981 11.75 8.36701 11.75 8.27024C11.75 8.17347 11.7105 8.08066 11.6402 8.01224C11.5698 7.94381 11.4744 7.90537 11.375 7.90537ZM9.87499 9.36483H7.62499C7.52553 9.36483 7.43015 9.40327 7.35982 9.4717C7.2895 9.54012 7.24999 9.63293 7.24999 9.7297C7.24999 9.82646 7.2895 9.91927 7.35982 9.9877C7.43015 10.0561 7.52553 10.0946 7.62499 10.0946H9.87499C9.97444 10.0946 10.0698 10.0561 10.1402 9.9877C10.2105 9.91927 10.25 9.82646 10.25 9.7297C10.25 9.63293 10.2105 9.54012 10.1402 9.4717C10.0698 9.40327 9.97444 9.36483 9.87499 9.36483ZM9.49999 5.35132C8.50542 5.35132 7.5516 5.73573 6.84834 6.41998C6.14507 7.10424 5.74999 8.03228 5.74999 8.99997C5.74679 9.8424 6.04661 10.6594 6.59749 11.3093L5.84749 12.039C5.79542 12.0904 5.76013 12.1556 5.74607 12.2264C5.73201 12.2972 5.73981 12.3705 5.76849 12.437C5.79965 12.5027 5.85018 12.5579 5.91366 12.5956C5.97714 12.6332 6.0507 12.6517 6.12499 12.6486H9.49999C10.4945 12.6486 11.4484 12.2642 12.1516 11.58C12.8549 10.8957 13.25 9.96765 13.25 8.99997C13.25 8.03228 12.8549 7.10424 12.1516 6.41998C11.4484 5.73573 10.4945 5.35132 9.49999 5.35132ZM9.49999 11.9189H7.02849L7.37749 11.5793C7.44725 11.511 7.48641 11.4185 7.48641 11.3222C7.48641 11.2259 7.44725 11.1335 7.37749 11.0651C6.88646 10.5879 6.58068 9.95976 6.51225 9.28777C6.44381 8.61578 6.61696 7.9415 7.0022 7.37979C7.38743 6.81809 7.96091 6.40372 8.62493 6.20728C9.28895 6.01084 10.0024 6.04449 10.6438 6.30249C11.2852 6.56049 11.8148 7.02688 12.1424 7.6222C12.47 8.21752 12.5753 8.90494 12.4404 9.56733C12.3055 10.2297 11.9387 10.8261 11.4026 11.2549C10.8664 11.6837 10.194 11.9184 9.49999 11.9189Z" fill="white"/>
</g>
<defs>
<clipPath id="clip0_0_1238">
<rect width="19" height="18" fill="white"/>
</clipPath>
</defs>
</svg>
