<svg width="18" height="18" viewBox="0 0 18 18" fill="none" xmlns="http://www.w3.org/2000/svg">
<g clip-path="url(#clip0_0_1244)">
<path d="M17.7632 9C17.7632 4.02944 13.8398 0 9 0C4.16025 0 0.236847 4.02944 0.236847 9C0.236847 13.9706 4.16025 18 9 18C13.8398 18 17.7632 13.9706 17.7632 9Z" fill="#13519C"/>
<path d="M9.71052 8.82147H10.5703C10.617 8.82168 10.6633 8.81242 10.7065 8.79423C10.7498 8.77603 10.7891 8.74925 10.8223 8.71541L12.4494 7.04433C12.4827 7.01041 12.5091 6.97006 12.5271 6.9256C12.5452 6.88114 12.5544 6.83345 12.5544 6.78528C12.5544 6.73711 12.5452 6.68942 12.5271 6.64496C12.5091 6.6005 12.4827 6.56014 12.4494 6.52622L11.5901 5.64325C11.5571 5.60886 11.5178 5.58155 11.4745 5.56291C11.4311 5.54427 11.3846 5.53467 11.3376 5.53467C11.2906 5.53467 11.2441 5.54427 11.2008 5.56291C11.1574 5.58155 11.1181 5.60886 11.0851 5.64325L9.45852 7.31433C9.39347 7.38429 9.35659 7.47691 9.35525 7.57363V8.4566C9.35525 8.55337 9.39268 8.64618 9.45931 8.7146C9.52593 8.78303 9.61629 8.82147 9.71052 8.82147ZM10.0658 7.72687L11.3376 6.42066L11.6929 6.78552L10.421 8.09077H10.0658V7.7259V7.72687ZM12.1974 8.4566C12.1031 8.4566 12.0128 8.49504 11.9461 8.56347C11.8795 8.6319 11.8421 8.7247 11.8421 8.82147V11.3755C11.8421 11.4723 11.8047 11.5651 11.738 11.6335C11.6714 11.7019 11.5811 11.7404 11.4868 11.7404H6.51315C6.41892 11.7404 6.32856 11.7019 6.26194 11.6335C6.19531 11.5651 6.15788 11.4723 6.15788 11.3755V7.86893L8.24683 10.0182C8.34598 10.1214 8.46409 10.2033 8.59431 10.2593C8.72454 10.3152 8.86429 10.344 9.00544 10.344C9.14659 10.344 9.28633 10.3152 9.41656 10.2593C9.54678 10.2033 9.6649 10.1214 9.76404 10.0182C9.7967 9.98395 9.82246 9.9434 9.83986 9.8989C9.85726 9.8544 9.86596 9.80682 9.86545 9.75886C9.86495 9.71091 9.85525 9.66353 9.83692 9.61943C9.81858 9.57532 9.79197 9.53536 9.75859 9.50182C9.72522 9.46828 9.68574 9.44182 9.64241 9.42395C9.59908 9.40608 9.55275 9.39715 9.50606 9.39767C9.45937 9.39819 9.41323 9.40814 9.37029 9.42698C9.32735 9.44581 9.28844 9.47314 9.25578 9.50741C9.18937 9.57427 9.10008 9.61171 9.00709 9.61171C8.9141 9.61171 8.82482 9.57427 8.75841 9.50741L6.65904 7.35471H8.28946C8.38368 7.35471 8.47405 7.31627 8.54067 7.24784C8.6073 7.17942 8.64473 7.08661 8.64473 6.98985C8.64473 6.89308 8.6073 6.80027 8.54067 6.73185C8.47405 6.66342 8.38368 6.62498 8.28946 6.62498H6.51315C6.23048 6.62498 5.95939 6.7403 5.75952 6.94558C5.55965 7.15086 5.44736 7.42927 5.44736 7.71958V11.3682C5.44736 11.6585 5.55965 11.9369 5.75952 12.1422C5.95939 12.3475 6.23048 12.4628 6.51315 12.4628H11.4868C11.7695 12.4628 12.0406 12.3475 12.2405 12.1422C12.4403 11.9369 12.5526 11.6585 12.5526 11.3682V8.81417C12.5526 8.7174 12.5152 8.6246 12.4486 8.55617C12.3819 8.48775 12.2916 8.44931 12.1974 8.44931V8.4566Z" fill="white"/>
</g>
<defs>
<clipPath id="clip0_0_1244">
<rect width="18" height="18" fill="white"/>
</clipPath>
</defs>
</svg>
