<svg width="18" height="18" viewBox="0 0 18 18" fill="none" xmlns="http://www.w3.org/2000/svg">
<g clip-path="url(#clip0_0_1235)">
<path d="M17.7632 9C17.7632 4.02944 13.8398 0 9 0C4.16024 0 0.236839 4.02944 0.236839 9C0.236839 13.9706 4.16024 18 9 18C13.8398 18 17.7632 13.9706 17.7632 9Z" fill="#13519C"/>
<path d="M11.6432 9.36488C11.565 9.36488 11.4835 9.33958 11.4054 9.32109C11.247 9.28521 11.0914 9.23757 10.9397 9.17855C10.7749 9.11698 10.5938 9.12017 10.4311 9.18753C10.2685 9.25489 10.1358 9.38165 10.0587 9.54342L9.98052 9.70785C9.6345 9.51016 9.31653 9.26463 9.03553 8.97812C8.75657 8.68952 8.51749 8.36296 8.325 8.00758L8.47421 7.90542C8.63172 7.82621 8.75514 7.68998 8.82073 7.52293C8.88632 7.35588 8.88943 7.16982 8.82947 7.00055C8.77299 6.84463 8.72663 6.68504 8.69068 6.52282C8.67273 6.44085 8.6585 6.35805 8.64805 6.27472C8.60496 6.01767 8.47391 5.78487 8.27851 5.61826C8.08311 5.45165 7.8362 5.36218 7.58226 5.36596H6.51647C6.36334 5.36448 6.2117 5.39691 6.07187 5.46103C5.93204 5.52516 5.80731 5.61948 5.70617 5.73757C5.60503 5.85567 5.52986 5.99476 5.48577 6.14538C5.44168 6.29599 5.42971 6.4546 5.45068 6.61039C5.63995 8.13895 6.31967 9.55919 7.38248 10.6468C8.44529 11.7343 9.83062 12.4273 11.3196 12.6161H11.4551C11.6611 12.6162 11.8628 12.5549 12.0356 12.4397C12.2085 12.3245 12.3451 12.1604 12.429 11.9671C12.4901 11.826 12.5214 11.6723 12.5209 11.5176V10.423C12.5165 10.1695 12.4266 9.92545 12.2666 9.73247C12.1065 9.5395 11.8861 9.40957 11.6432 9.36488ZM11.8208 11.5541C11.8208 11.6059 11.81 11.6572 11.7892 11.7044C11.7684 11.7516 11.7379 11.7938 11.7 11.828C11.661 11.8643 11.6147 11.8914 11.5643 11.9071C11.5139 11.9229 11.4608 11.9269 11.4087 11.9189C10.0781 11.7438 8.84225 11.1187 7.89595 10.1422C6.94965 9.16576 6.34681 7.89354 6.18252 6.52623C6.17689 6.47277 6.18188 6.41868 6.19718 6.36726C6.21249 6.31583 6.2378 6.26813 6.27158 6.22704C6.3049 6.18809 6.34591 6.15688 6.3919 6.13549C6.43788 6.1141 6.48778 6.10302 6.53826 6.10299H7.60405C7.68663 6.10109 7.76728 6.1288 7.83212 6.18136C7.89696 6.23393 7.94193 6.30805 7.95931 6.39099C8.00073 6.6853 8.07349 6.97406 8.17626 7.25207L7.67842 7.48947C7.6359 7.50949 7.59765 7.53793 7.56586 7.57317C7.53408 7.60841 7.50938 7.64974 7.49318 7.69481C7.47698 7.73987 7.46961 7.78778 7.47149 7.83577C7.47336 7.88377 7.48445 7.93091 7.5041 7.9745C8.01538 9.0993 8.89574 10.0035 9.99095 10.5286C10.0774 10.565 10.1745 10.565 10.2609 10.5286C10.3053 10.5123 10.3461 10.4872 10.3809 10.4546C10.4157 10.422 10.4438 10.3827 10.4637 10.3388L10.6839 9.82801C10.8677 9.89612 11.0553 9.95158 11.2453 9.99585C11.34 10.0182 11.4357 10.0362 11.5333 10.0508C11.614 10.0687 11.6862 10.1149 11.7374 10.1815C11.7885 10.248 11.8155 10.3309 11.8137 10.4157L11.8208 11.5541ZM11.4868 8.27028C11.5811 8.27028 11.6714 8.23184 11.738 8.16342C11.8047 8.09499 11.8421 8.00219 11.8421 7.90542V6.44596C11.8421 6.39805 11.8329 6.3506 11.8151 6.30633C11.7972 6.26206 11.771 6.22184 11.738 6.18796C11.7051 6.15408 11.6659 6.12721 11.6228 6.10887C11.5797 6.09053 11.5335 6.0811 11.4868 6.0811C11.4402 6.0811 11.394 6.09053 11.3509 6.10887C11.3078 6.12721 11.2686 6.15408 11.2356 6.18796C11.2026 6.22184 11.1765 6.26206 11.1586 6.30633C11.1408 6.3506 11.1316 6.39805 11.1316 6.44596V7.90542C11.1316 8.00219 11.169 8.09499 11.2356 8.16342C11.3023 8.23184 11.3926 8.27028 11.4868 8.27028ZM10.0658 8.27028C10.16 8.27028 10.2504 8.23184 10.317 8.16342C10.3836 8.09499 10.4211 8.00219 10.4211 7.90542V6.44596C10.4211 6.34919 10.3836 6.25639 10.317 6.18796C10.2504 6.11954 10.16 6.0811 10.0658 6.0811C9.97157 6.0811 9.8812 6.11954 9.81458 6.18796C9.74795 6.25639 9.71052 6.34919 9.71052 6.44596V7.90542C9.71052 8.00219 9.74795 8.09499 9.81458 8.16342C9.8812 8.23184 9.97157 8.27028 10.0658 8.27028Z" fill="white"/>
</g>
<defs>
<clipPath id="clip0_0_1235">
<rect width="18" height="18" fill="white"/>
</clipPath>
</defs>
</svg>
