<svg width="18" height="18" viewBox="0 0 18 18" fill="none" xmlns="http://www.w3.org/2000/svg">
<g clip-path="url(#clip0_0_1241)">
<path d="M17.7632 9C17.7632 4.02944 13.8398 0 9 0C4.16024 0 0.236839 4.02944 0.236839 9C0.236839 13.9706 4.16024 18 9 18C13.8398 18 17.7632 13.9706 17.7632 9Z" fill="#13519C"/>
<path d="M9.35527 10.4594H7.22369C7.12947 10.4594 7.03911 10.4979 6.97248 10.5663C6.90586 10.6347 6.86843 10.7275 6.86843 10.8243C6.86843 10.921 6.90586 11.0139 6.97248 11.0823C7.03911 11.1507 7.12947 11.1891 7.22369 11.1891H9.35527C9.44949 11.1891 9.53985 11.1507 9.60648 11.0823C9.6731 11.0139 9.71053 10.921 9.71053 10.8243C9.71053 10.7275 9.6731 10.6347 9.60648 10.5663C9.53985 10.4979 9.44949 10.4594 9.35527 10.4594ZM7.93422 8.27022H8.64474C8.73896 8.27022 8.82933 8.23178 8.89595 8.16336C8.96258 8.09493 9.00001 8.00213 9.00001 7.90536C9.00001 7.80859 8.96258 7.71579 8.89595 7.64736C8.82933 7.57894 8.73896 7.5405 8.64474 7.5405H7.93422C7.83999 7.5405 7.74963 7.57894 7.68301 7.64736C7.61638 7.71579 7.57895 7.80859 7.57895 7.90536C7.57895 8.00213 7.61638 8.09493 7.68301 8.16336C7.74963 8.23178 7.83999 8.27022 7.93422 8.27022ZM12.1974 8.99995H11.1316V5.71617C11.1318 5.65202 11.1155 5.58895 11.0844 5.53331C11.0533 5.47768 11.0085 5.43145 10.9545 5.39928C10.9004 5.36712 10.8391 5.35015 10.7766 5.3501C10.7142 5.35004 10.6528 5.36691 10.5987 5.39898L9.5329 6.02655L8.46711 5.39898C8.4131 5.36696 8.35184 5.3501 8.28948 5.3501C8.22712 5.3501 8.16585 5.36696 8.11185 5.39898L7.04606 6.02655L5.98027 5.39898C5.92618 5.36691 5.8648 5.35004 5.80234 5.3501C5.73988 5.35015 5.67854 5.36712 5.6245 5.39928C5.57045 5.43145 5.52563 5.47768 5.49453 5.53331C5.46343 5.58895 5.44717 5.65202 5.44737 5.71617V11.554C5.44737 11.8443 5.55966 12.1227 5.75954 12.328C5.95941 12.5333 6.2305 12.6486 6.51316 12.6486H11.4868C11.7695 12.6486 12.0406 12.5333 12.2405 12.328C12.4403 12.1227 12.5526 11.8443 12.5526 11.554V9.36482C12.5526 9.26805 12.5152 9.17525 12.4486 9.10682C12.382 9.0384 12.2916 8.99995 12.1974 8.99995ZM6.51316 11.9189C6.41894 11.9189 6.32858 11.8804 6.26196 11.812C6.19533 11.7436 6.1579 11.6508 6.1579 11.554V6.34714L6.86843 6.76309C6.92326 6.7925 6.9842 6.80786 7.04606 6.80786C7.10792 6.80786 7.16886 6.7925 7.22369 6.76309L8.28948 6.13552L9.35527 6.76309C9.4101 6.7925 9.47104 6.80786 9.5329 6.80786C9.59476 6.80786 9.6557 6.7925 9.71053 6.76309L10.4211 6.34763V11.554C10.422 11.6785 10.4438 11.8021 10.485 11.9189H6.51316ZM11.8421 11.554C11.8421 11.6019 11.8329 11.6494 11.8151 11.6936C11.7972 11.7379 11.771 11.7781 11.7381 11.812C11.7051 11.8459 11.6659 11.8728 11.6228 11.8911C11.5797 11.9094 11.5335 11.9189 11.4868 11.9189C11.4402 11.9189 11.394 11.9094 11.3509 11.8911C11.3078 11.8728 11.2686 11.8459 11.2356 11.812C11.2026 11.7781 11.1765 11.7379 11.1586 11.6936C11.1408 11.6494 11.1316 11.6019 11.1316 11.554V9.72968H11.8421V11.554ZM9.35527 8.99995H7.22369C7.12947 8.99995 7.03911 9.0384 6.97248 9.10682C6.90586 9.17525 6.86843 9.26805 6.86843 9.36482C6.86843 9.46159 6.90586 9.55439 6.97248 9.62282C7.03911 9.69124 7.12947 9.72968 7.22369 9.72968H9.35527C9.44949 9.72968 9.53985 9.69124 9.60648 9.62282C9.6731 9.55439 9.71053 9.46159 9.71053 9.36482C9.71053 9.26805 9.6731 9.17525 9.60648 9.10682C9.53985 9.0384 9.44949 8.99995 9.35527 8.99995Z" fill="white"/>
</g>
<defs>
<clipPath id="clip0_0_1241">
<rect width="18" height="18" fill="white"/>
</clipPath>
</defs>
</svg>
