<svg width="22" height="22" viewBox="0 0 22 22" fill="none" xmlns="http://www.w3.org/2000/svg">
<path d="M20.1668 10.0833C20.0635 10.0827 19.9633 10.0472 19.8827 9.98246L11.2889 3.10746C11.2076 3.04238 11.1066 3.00691 11.0025 3.00691C10.8983 3.00691 10.7973 3.04238 10.716 3.10746L2.11767 9.98246C2.07152 10.026 2.01682 10.0595 1.95704 10.0809C1.89726 10.1022 1.83371 10.1109 1.7704 10.1063C1.7071 10.1018 1.64542 10.0842 1.58928 10.0546C1.53314 10.025 1.48376 9.98404 1.44427 9.93436C1.40477 9.88467 1.37603 9.82733 1.35986 9.76596C1.34368 9.70458 1.34043 9.64052 1.35031 9.57783C1.36019 9.51513 1.38298 9.45518 1.41724 9.40175C1.4515 9.34832 1.49648 9.30259 1.54934 9.26746L10.1431 2.39246C10.3866 2.19835 10.6888 2.09265 11.0002 2.09265C11.3116 2.09265 11.6138 2.19835 11.8573 2.39246L20.451 9.26746C20.5454 9.34308 20.6062 9.45298 20.6199 9.57318C20.6336 9.69339 20.5993 9.81415 20.5243 9.90913C20.4817 9.96314 20.4274 10.0069 20.3655 10.037C20.3036 10.0672 20.2357 10.083 20.1668 10.0833Z" fill="#47740E"/>
<path d="M12.833 20.1667H9.16634C9.04478 20.1667 8.9282 20.1184 8.84225 20.0325C8.7563 19.9465 8.70801 19.8299 8.70801 19.7084V11.4584C8.70801 11.0937 8.85287 10.744 9.11074 10.4861C9.3686 10.2282 9.71834 10.0834 10.083 10.0834H11.9163C12.281 10.0834 12.6308 10.2282 12.8886 10.4861C13.1465 10.744 13.2913 11.0937 13.2913 11.4584V19.7084C13.2913 19.8299 13.2431 19.9465 13.1571 20.0325C13.0711 20.1184 12.9546 20.1667 12.833 20.1667ZM9.62467 19.25H12.3747V11.4584C12.3747 11.3368 12.3264 11.2202 12.2404 11.1343C12.1545 11.0483 12.0379 11 11.9163 11H10.083C9.96145 11 9.84487 11.0483 9.75892 11.1343C9.67296 11.2202 9.62467 11.3368 9.62467 11.4584V19.25Z" fill="#47740E"/>
<path d="M16.9587 20.1667H5.04199C4.67732 20.1667 4.32758 20.0218 4.06972 19.7639C3.81186 19.5061 3.66699 19.1563 3.66699 18.7917V7.86499H4.58366V18.7917C4.58366 18.9132 4.63195 19.0298 4.7179 19.1157C4.80386 19.2017 4.92043 19.25 5.04199 19.25H16.9587C17.0802 19.25 17.1968 19.2017 17.2828 19.1157C17.3687 19.0298 17.417 18.9132 17.417 18.7917V7.86499H18.3337V18.7917C18.3337 19.1563 18.1888 19.5061 17.9309 19.7639C17.6731 20.0218 17.3233 20.1667 16.9587 20.1667Z" fill="#47740E"/>
<path opacity="0.35" d="M16.9587 6.875H16.5003V16.9583C16.5003 17.323 16.3555 17.6727 16.0976 17.9306C15.8397 18.1885 15.49 18.3333 15.1253 18.3333H3.66699V18.7917C3.66699 19.1563 3.81186 19.5061 4.06972 19.7639C4.32758 20.0218 4.67732 20.1667 5.04199 20.1667H16.9587C17.3233 20.1667 17.6731 20.0218 17.9309 19.7639C18.1888 19.5061 18.3337 19.1563 18.3337 18.7917V8.25C18.3337 7.88533 18.1888 7.53559 17.9309 7.27773C17.6731 7.01987 17.3233 6.875 16.9587 6.875Z" fill="#47740E"/>
<path d="M17.8753 6.41667C17.7538 6.41667 17.6372 6.36838 17.5512 6.28242C17.4653 6.19647 17.417 6.07989 17.417 5.95833V3.20833C17.417 3.08678 17.4653 2.9702 17.5512 2.88424C17.6372 2.79829 17.7538 2.75 17.8753 2.75C17.9969 2.75 18.1135 2.79829 18.1994 2.88424C18.2854 2.9702 18.3337 3.08678 18.3337 3.20833V5.95833C18.3337 6.07989 18.2854 6.19647 18.1994 6.28242C18.1135 6.36838 17.9969 6.41667 17.8753 6.41667Z" fill="#47740E"/>
<path d="M17.875 3.66667H14.2083C14.0868 3.66667 13.9702 3.61838 13.8842 3.53242C13.7983 3.44647 13.75 3.32989 13.75 3.20833C13.75 3.08678 13.7983 2.9702 13.8842 2.88424C13.9702 2.79829 14.0868 2.75 14.2083 2.75H17.875C17.9966 2.75 18.1131 2.79829 18.1991 2.88424C18.285 2.9702 18.3333 3.08678 18.3333 3.20833C18.3333 3.32989 18.285 3.44647 18.1991 3.53242C18.1131 3.61838 17.9966 3.66667 17.875 3.66667Z" fill="#47740E"/>
</svg>
