<svg width="48" height="48" viewBox="0 0 48 48" fill="none" xmlns="http://www.w3.org/2000/svg">
<path d="M8.83202 33.408C9.02402 33.6 9.12002 33.84 9.12002 34.08V34.272C9.12002 34.32 9.07202 34.416 9.07202 34.464C9.07202 34.512 9.02402 34.56 8.97603 34.608L8.83202 34.752C8.64002 34.944 8.40002 35.04 8.16002 35.04C7.92002 35.04 7.68002 34.944 7.48802 34.752C7.44002 34.704 7.39202 34.656 7.39202 34.608C7.34402 34.56 7.34402 34.512 7.29602 34.464C7.24802 34.416 7.24802 34.368 7.24802 34.272V34.08C7.24802 33.84 7.34402 33.6 7.53602 33.408C7.58402 33.36 7.63202 33.312 7.68002 33.312C7.72802 33.264 7.77602 33.264 7.82402 33.216C7.87202 33.216 7.92002 33.168 8.01603 33.168C8.30403 33.072 8.64002 33.168 8.83202 33.408ZM12.768 33.12C12.72 33.12 12.672 33.168 12.576 33.168C12.528 33.216 12.48 33.216 12.432 33.264C12.384 33.312 12.336 33.36 12.288 33.36C12.096 33.6 12 33.84 12 34.08V34.272C12 34.32 12.048 34.416 12.048 34.464C12.048 34.512 12.096 34.56 12.144 34.608C12.192 34.656 12.192 34.704 12.24 34.752C12.48 34.944 12.72 35.04 12.96 35.04C13.2 35.04 13.44 34.944 13.632 34.752C13.68 34.704 13.728 34.656 13.728 34.608C13.776 34.56 13.776 34.512 13.824 34.464C13.872 34.416 13.872 34.368 13.872 34.272V34.08C13.872 33.84 13.776 33.6 13.584 33.408C13.44 33.168 13.104 33.072 12.768 33.12ZM17.568 33.12C17.52 33.12 17.472 33.168 17.376 33.168C17.328 33.216 17.28 33.216 17.232 33.264C17.184 33.312 17.136 33.36 17.088 33.36C16.896 33.6 16.8 33.84 16.8 34.08V34.272C16.8 34.32 16.848 34.416 16.848 34.464C16.848 34.512 16.896 34.56 16.944 34.608C16.992 34.656 16.992 34.704 17.04 34.752C17.088 34.8 17.136 34.848 17.184 34.848C17.232 34.896 17.28 34.896 17.328 34.944C17.376 34.944 17.424 34.992 17.52 34.992H17.712C17.952 34.992 18.192 34.896 18.384 34.704C18.432 34.656 18.48 34.608 18.48 34.56C18.528 34.512 18.528 34.464 18.576 34.416C18.624 34.368 18.624 34.32 18.624 34.224V34.032C18.624 33.792 18.528 33.552 18.336 33.36C18.24 33.168 17.904 33.072 17.568 33.12ZM7.20002 12.96C7.20002 10.08 9.31203 7.68002 12.096 7.29602C12.48 4.51202 14.88 2.40002 17.76 2.40002H25.44C25.968 2.40002 26.4 2.83202 26.4 3.36002C26.4 6.24002 24.288 8.64002 21.504 9.02402C21.12 11.808 18.72 13.92 15.84 13.92H8.16002C7.63202 13.92 7.20002 13.488 7.20002 12.96ZM14.016 7.20002H20.64C22.416 7.20002 23.952 6.00002 24.384 4.32002H17.76C15.984 4.32002 14.448 5.52002 14.016 7.20002ZM9.21602 12H15.84C17.616 12 19.152 10.8 19.584 9.12002H12.96C11.184 9.12002 9.64803 10.32 9.21602 12ZM42.72 27.072V42.72C42.72 44.304 41.424 45.6 39.84 45.6H24.48C23.76 45.6 23.088 45.312 22.56 44.88C22.032 45.36 21.36 45.6 20.64 45.6H5.28002C3.69602 45.6 2.40002 44.304 2.40002 42.72V31.68C2.40002 30.384 3.21602 29.28 4.46402 28.896L7.20002 28.08V20.16C7.20002 18.288 8.68802 16.8 10.56 16.8C12.432 16.8 13.92 18.288 13.92 20.16V26.064L19.824 24.288C20.688 24 21.648 24.192 22.368 24.72C23.088 25.248 23.52 26.112 23.52 27.024V28.944C23.568 28.944 23.616 28.896 23.664 28.896L26.4 28.08V20.16C26.4 18.288 27.888 16.8 29.76 16.8C31.632 16.8 33.12 18.288 33.12 20.16V26.064L39.024 24.288C39.888 24 40.848 24.192 41.568 24.72C42.288 25.296 42.72 26.16 42.72 27.072ZM9.12002 27.504L12 26.64V20.16C12 19.344 11.376 18.72 10.56 18.72C9.74402 18.72 9.12002 19.344 9.12002 20.16V27.504ZM16.8 39.84H9.12002V43.68H16.8V39.84ZM21.6 27.072C21.6 26.784 21.456 26.496 21.216 26.304C21.072 26.16 20.832 26.112 20.64 26.112C20.544 26.112 20.448 26.112 20.352 26.16L4.99202 30.768C4.60802 30.864 4.32002 31.248 4.32002 31.68V42.72C4.32002 43.248 4.75202 43.68 5.28002 43.68H7.20002V38.88C7.20002 38.352 7.63202 37.92 8.16002 37.92H17.76C18.288 37.92 18.72 38.352 18.72 38.88V43.68H20.64C21.168 43.68 21.6 43.248 21.6 42.72V27.072ZM28.32 27.504L31.2 26.64V20.16C31.2 19.344 30.576 18.72 29.76 18.72C28.944 18.72 28.32 19.344 28.32 20.16V27.504ZM36 39.84H28.32V43.68H36V39.84ZM40.8 27.072C40.8 26.784 40.656 26.496 40.416 26.304C40.272 26.16 40.032 26.112 39.84 26.112C39.744 26.112 39.648 26.112 39.552 26.16L24.192 30.768C23.76 30.912 23.52 31.248 23.52 31.68V42.72C23.52 43.248 23.952 43.68 24.48 43.68H26.4V38.88C26.4 38.352 26.832 37.92 27.36 37.92H36.96C37.488 37.92 37.92 38.352 37.92 38.88V43.68H39.84C40.368 43.68 40.8 43.248 40.8 42.72V27.072ZM26.688 33.408C26.496 33.6 26.4 33.84 26.4 34.08V34.272C26.4 34.32 26.448 34.416 26.448 34.464C26.448 34.512 26.496 34.56 26.544 34.608L26.688 34.752C26.784 34.848 26.88 34.896 26.976 34.944C27.12 35.04 27.216 35.04 27.36 35.04H27.552C27.6 35.04 27.696 34.992 27.744 34.992C27.792 34.992 27.84 34.944 27.888 34.896C27.936 34.848 27.984 34.848 28.032 34.8C28.08 34.752 28.128 34.704 28.128 34.656C28.176 34.608 28.176 34.56 28.224 34.512C28.272 34.464 28.272 34.416 28.272 34.32V34.128C28.272 33.888 28.176 33.648 27.984 33.456C27.696 33.024 27.024 33.024 26.688 33.408ZM31.488 33.408C31.296 33.6 31.2 33.84 31.2 34.08V34.272C31.2 34.32 31.248 34.416 31.248 34.464C31.248 34.512 31.296 34.56 31.344 34.608L31.488 34.752C31.584 34.848 31.68 34.896 31.776 34.944C31.92 35.04 32.016 35.04 32.16 35.04H32.352C32.4 35.04 32.496 34.992 32.544 34.992C32.592 34.992 32.64 34.944 32.688 34.896C32.736 34.848 32.784 34.848 32.832 34.8C32.88 34.752 32.928 34.704 32.928 34.656C32.976 34.608 32.976 34.56 33.024 34.512C33.072 34.464 33.072 34.416 33.072 34.32V34.128C33.072 33.888 32.976 33.648 32.784 33.456C32.496 33.024 31.824 33.024 31.488 33.408ZM37.824 33.696C37.824 33.648 37.776 33.6 37.728 33.552C37.68 33.504 37.68 33.456 37.632 33.408C37.584 33.36 37.536 33.312 37.488 33.312C37.44 33.312 37.392 33.264 37.344 33.216C37.296 33.216 37.248 33.168 37.152 33.168C36.816 33.12 36.528 33.216 36.288 33.408C36.24 33.456 36.192 33.504 36.192 33.552C36.144 33.6 36.144 33.648 36.096 33.696C36.048 33.744 36.048 33.792 36.048 33.888V34.08C36.048 34.32 36.144 34.56 36.336 34.752C36.48 34.944 36.72 35.04 36.96 35.04C37.2 35.04 37.44 34.944 37.632 34.752C37.824 34.56 37.92 34.32 37.92 34.08V33.888C37.872 33.84 37.872 33.744 37.824 33.696ZM45.6 3.36002C45.6 6.24002 43.488 8.64002 40.704 9.02402C40.32 11.808 37.92 13.92 35.04 13.92H27.36C26.832 13.92 26.4 13.488 26.4 12.96C26.4 10.08 28.512 7.68002 31.296 7.29602C31.68 4.51202 34.08 2.40002 36.96 2.40002H44.64C45.168 2.40002 45.6 2.83202 45.6 3.36002ZM38.784 9.12002H32.16C30.384 9.12002 28.848 10.32 28.416 12H35.04C36.816 12 38.352 10.8 38.784 9.12002ZM43.584 4.32002H36.96C35.184 4.32002 33.648 5.52002 33.216 7.20002H39.84C41.616 7.20002 43.152 6.00002 43.584 4.32002Z" fill="#8DC14B"/>
</svg>
