<svg width="36" height="36" viewBox="0 0 36 36" fill="none" xmlns="http://www.w3.org/2000/svg">
<g clip-path="url(#clip0_1_631)">
<path d="M8.4375 31.5H0.5625C0.413316 31.5 0.270242 31.5593 0.164752 31.6648C0.0592632 31.7702 0 31.9133 0 32.0625L0 34.3125C0 34.7601 0.17779 35.1893 0.494257 35.5057C0.810725 35.8222 1.23995 36 1.6875 36H7.3125C7.76005 36 8.18928 35.8222 8.50574 35.5057C8.82221 35.1893 9 34.7601 9 34.3125V32.0625C9 31.9133 8.94074 31.7702 8.83525 31.6648C8.72976 31.5593 8.58668 31.5 8.4375 31.5ZM7.875 34.3125C7.875 34.4617 7.81574 34.6048 7.71025 34.7102C7.60476 34.8157 7.46168 34.875 7.3125 34.875H1.6875C1.53832 34.875 1.39524 34.8157 1.28975 34.7102C1.18426 34.6048 1.125 34.4617 1.125 34.3125V32.625H7.875V34.3125ZM7.3125 22.5H1.6875C1.23995 22.5 0.810725 22.6778 0.494257 22.9943C0.17779 23.3107 0 23.7399 0 24.1875L0 29.8125C0 29.9617 0.0592632 30.1048 0.164752 30.2102C0.270242 30.3157 0.413316 30.375 0.5625 30.375C0.711684 30.375 0.854758 30.3157 0.960248 30.2102C1.06574 30.1048 1.125 29.9617 1.125 29.8125V24.1875C1.125 24.0383 1.18426 23.8952 1.28975 23.7898C1.39524 23.6843 1.53832 23.625 1.6875 23.625H7.3125C7.46168 23.625 7.60476 23.6843 7.71025 23.7898C7.81574 23.8952 7.875 24.0383 7.875 24.1875V29.8125C7.875 29.9617 7.93426 30.1048 8.03975 30.2102C8.14524 30.3157 8.28832 30.375 8.4375 30.375C8.58668 30.375 8.72976 30.3157 8.83525 30.2102C8.94074 30.1048 9 29.9617 9 29.8125V24.1875C9 23.7399 8.82221 23.3107 8.50574 22.9943C8.18928 22.6778 7.76005 22.5 7.3125 22.5Z" fill="#2553E4"/>
<path d="M2.25 29.8125C2.25 29.9617 2.30926 30.1048 2.41475 30.2103C2.52024 30.3157 2.66332 30.375 2.8125 30.375C2.96168 30.375 3.10476 30.3157 3.21025 30.2103C3.31574 30.1048 3.375 29.9617 3.375 29.8125C3.375 29.5141 3.49353 29.228 3.7045 29.017C3.91548 28.806 4.20163 28.6875 4.5 28.6875C4.79837 28.6875 5.08452 28.806 5.29549 29.017C5.50647 29.228 5.625 29.5141 5.625 29.8125C5.625 29.9617 5.68426 30.1048 5.78975 30.2103C5.89524 30.3157 6.03832 30.375 6.1875 30.375C6.33668 30.375 6.47976 30.3157 6.58525 30.2103C6.69074 30.1048 6.75 29.9617 6.75 29.8125C6.74911 29.4626 6.66628 29.1178 6.50813 28.8057C6.34998 28.4936 6.12092 28.2229 5.83931 28.0153C6.06382 27.7243 6.18619 27.3675 6.1875 27C6.1875 26.5525 6.00971 26.1232 5.69324 25.8068C5.37678 25.4903 4.94755 25.3125 4.5 25.3125C4.05245 25.3125 3.62322 25.4903 3.30676 25.8068C2.99029 26.1232 2.8125 26.5525 2.8125 27C2.81442 27.3665 2.93676 27.7223 3.16069 28.0125C2.87869 28.2204 2.6494 28.4916 2.49124 28.8042C2.33307 29.1168 2.25045 29.4622 2.25 29.8125ZM3.9375 27C3.9375 26.8888 3.97049 26.78 4.0323 26.6875C4.09411 26.595 4.18196 26.5229 4.28474 26.4803C4.38752 26.4377 4.50062 26.4266 4.60974 26.4483C4.71885 26.47 4.81908 26.5236 4.89775 26.6023C4.97641 26.6809 5.02999 26.7811 5.05169 26.8903C5.0734 26.9994 5.06226 27.1125 5.01968 27.2153C4.97711 27.318 4.90501 27.4059 4.81251 27.4677C4.72001 27.5295 4.61125 27.5625 4.5 27.5625C4.35082 27.5625 4.20774 27.5032 4.10225 27.3978C3.99676 27.2923 3.9375 27.1492 3.9375 27ZM12.825 27.5192C12.5247 29.5774 11.6359 31.505 10.2656 33.0699C10.1813 33.1837 10.143 33.325 10.1583 33.4657C10.1736 33.6065 10.2415 33.7363 10.3482 33.8292C10.455 33.9221 10.5929 33.9714 10.7344 33.9671C10.8759 33.9629 11.0106 33.9054 11.1116 33.8063C12.6247 32.0777 13.6055 29.9484 13.9359 27.675C13.9484 27.601 13.946 27.5253 13.9288 27.4523C13.9116 27.3793 13.8799 27.3105 13.8357 27.2499C13.7915 27.1893 13.7356 27.1381 13.6713 27.0994C13.6071 27.0608 13.5357 27.0353 13.4615 27.0246C13.3872 27.0139 13.3116 27.0182 13.239 27.0372C13.1664 27.0562 13.0984 27.0895 13.0389 27.1351C12.9794 27.1808 12.9296 27.2379 12.8925 27.3031C12.8553 27.3683 12.8316 27.4402 12.8227 27.5147L12.825 27.5192ZM28.125 28.4513C28.1307 28.1257 28.0394 27.8058 27.8627 27.5324C27.686 27.2589 27.4319 27.0442 27.1327 26.9156C26.908 26.8235 26.719 26.6611 26.5942 26.4527C26.4694 26.2443 26.4153 26.0011 26.4402 25.7594C26.4651 25.5178 26.5676 25.2906 26.7322 25.112C26.8969 24.9334 27.115 24.8129 27.3538 24.7686C27.5164 24.7379 27.6838 24.7434 27.8441 24.7848C28.0043 24.8263 28.1534 24.9025 28.2808 25.0082C28.4082 25.1139 28.5107 25.2463 28.581 25.3962C28.6513 25.546 28.6876 25.7095 28.6875 25.875C28.6875 26.0242 28.7468 26.1673 28.8522 26.2728C28.9577 26.3782 29.1008 26.4375 29.25 26.4375C29.3992 26.4375 29.5423 26.3782 29.6477 26.2728C29.7532 26.1673 29.8125 26.0242 29.8125 25.875C29.8122 25.4676 29.7012 25.0679 29.4914 24.7186C29.2817 24.3693 28.981 24.0835 28.6215 23.8917C28.262 23.6999 27.8572 23.6094 27.4503 23.6297C27.0434 23.65 26.6496 23.7804 26.311 24.0071C25.9724 24.2337 25.7017 24.548 25.5278 24.9165C25.3539 25.2849 25.2833 25.6937 25.3235 26.0991C25.3637 26.5046 25.5133 26.8915 25.7563 27.2186C25.9992 27.5456 26.3265 27.8006 26.703 27.9563C26.7951 28.0011 26.8723 28.0718 26.925 28.1596C26.9777 28.2475 27.0038 28.3488 27 28.4513V28.5137C26.4532 29.3186 24.75 31.9281 24.75 33.1875C24.75 33.9334 25.0463 34.6488 25.5738 35.1762C26.1012 35.7037 26.8166 36 27.5625 36C28.3084 36 29.0238 35.7037 29.5512 35.1762C30.0787 34.6488 30.375 33.9334 30.375 33.1875C30.375 31.9281 28.6717 29.3186 28.125 28.5137V28.4513ZM27.5625 34.875C27.1149 34.875 26.6857 34.6972 26.3693 34.3807C26.0528 34.0643 25.875 33.6351 25.875 33.1875C25.875 32.5733 26.7531 30.9701 27.5625 29.7051C28.3719 30.9701 29.25 32.5738 29.25 33.1875C29.25 33.6351 29.0722 34.0643 28.7557 34.3807C28.4393 34.6972 28.01 34.875 27.5625 34.875ZM23.6717 34.875H10.4906C10.3414 34.875 10.1984 34.9343 10.0929 35.0398C9.98739 35.1452 9.92812 35.2883 9.92812 35.4375C9.92812 35.5867 9.98739 35.7298 10.0929 35.8353C10.1984 35.9407 10.3414 36 10.4906 36H23.6717C23.8209 36 23.9639 35.9407 24.0694 35.8353C24.1749 35.7298 24.2342 35.5867 24.2342 35.4375C24.2342 35.2883 24.1749 35.1452 24.0694 35.0398C23.9639 34.9343 23.8209 34.875 23.6717 34.875ZM22.5304 26.9471C22.4571 26.957 22.3865 26.9813 22.3226 27.0185C22.2588 27.0556 22.2028 27.1051 22.1581 27.1639C22.1133 27.2227 22.0805 27.2898 22.0617 27.3613C22.0429 27.4328 22.0383 27.5073 22.0483 27.5805C22.2188 28.8389 22.5893 30.062 23.1457 31.2036C23.211 31.3378 23.3269 31.4407 23.468 31.4895C23.6091 31.5382 23.7638 31.529 23.8981 31.4637C24.0324 31.3985 24.1352 31.2825 24.184 31.1414C24.2328 31.0003 24.2235 30.8456 24.1582 30.7114C23.6543 29.6772 23.3188 28.5692 23.1643 27.4292C23.1544 27.3559 23.1302 27.2852 23.0929 27.2213C23.0557 27.1574 23.0062 27.1014 22.9473 27.0567C22.8885 27.0119 22.8213 26.9792 22.7498 26.9604C22.6782 26.9416 22.6037 26.9371 22.5304 26.9471ZM33.75 28.5137V28.4513C33.7557 28.1257 33.6644 27.8058 33.4877 27.5324C33.311 27.2589 33.0569 27.0442 32.7577 26.9156C32.533 26.8235 32.344 26.6611 32.2192 26.4527C32.0944 26.2443 32.0403 26.0011 32.0652 25.7594C32.0901 25.5178 32.1925 25.2906 32.3572 25.112C32.5219 24.9334 32.74 24.8129 32.9788 24.7686C33.1414 24.7379 33.3088 24.7434 33.4691 24.7848C33.6293 24.8263 33.7784 24.9025 33.9058 25.0082C34.0332 25.1139 34.1357 25.2463 34.206 25.3962C34.2763 25.546 34.3126 25.7095 34.3125 25.875C34.3125 26.0242 34.3718 26.1673 34.4772 26.2728C34.5827 26.3782 34.7258 26.4375 34.875 26.4375C35.0242 26.4375 35.1673 26.3782 35.2727 26.2728C35.3782 26.1673 35.4375 26.0242 35.4375 25.875C35.4372 25.4676 35.3262 25.0679 35.1164 24.7186C34.9067 24.3693 34.606 24.0835 34.2465 23.8917C33.887 23.6999 33.4822 23.6094 33.0753 23.6297C32.6684 23.65 32.2746 23.7804 31.936 24.0071C31.5974 24.2337 31.3267 24.548 31.1528 24.9165C30.9789 25.2849 30.9083 25.6937 30.9485 26.0991C30.9887 26.5046 31.1383 26.8915 31.3813 27.2186C31.6242 27.5456 31.9515 27.8006 32.328 27.9563C32.4201 28.0011 32.4973 28.0718 32.55 28.1596C32.6027 28.2475 32.6288 28.3488 32.625 28.4513V28.5148C32.077 29.3263 31.5723 30.1661 31.113 31.0309C31.0444 31.1634 31.0312 31.3178 31.0764 31.4601C31.1216 31.6023 31.2215 31.7208 31.354 31.7894C31.4866 31.858 31.641 31.8712 31.7832 31.826C31.9255 31.7808 32.0439 31.6809 32.1126 31.5484C32.4574 30.8818 32.8759 30.1984 33.1892 29.7068C33.9981 30.9724 34.8767 32.5755 34.8767 33.1875C34.8767 33.6351 34.6989 34.0643 34.3824 34.3807C34.066 34.6972 33.6367 34.875 33.1892 34.875C32.7866 34.8735 32.3983 34.726 32.0962 34.4599C32.0403 34.4116 31.9754 34.3749 31.9052 34.3517C31.8351 34.3286 31.761 34.3195 31.6874 34.3249C31.6137 34.3304 31.5418 34.3503 31.4758 34.3836C31.4099 34.4168 31.3511 34.4627 31.3028 34.5187C31.2546 34.5746 31.2179 34.6395 31.1947 34.7097C31.1716 34.7798 31.1625 34.8539 31.1679 34.9275C31.1734 35.0012 31.1933 35.0731 31.2265 35.1391C31.2598 35.205 31.3057 35.2638 31.3616 35.3121C31.7679 35.665 32.2672 35.8935 32.7999 35.9701C33.3326 36.0467 33.876 35.9683 34.3653 35.7442C34.8546 35.5201 35.2689 35.1598 35.5588 34.7064C35.8487 34.253 36.0019 33.7257 36 33.1875C36 31.9281 34.2967 29.3186 33.75 28.5137ZM18 27C26.4937 27 31.0736 12.9994 31.9044 10.1931C32.0097 9.8385 32.0629 9.47054 32.0625 9.10069C32.0611 8.15964 31.7167 7.25137 31.094 6.54587C30.4712 5.84038 29.6127 5.38601 28.6791 5.26781L26.9916 5.058L24.8974 4.797C24.8822 4.79363 24.8462 4.78688 24.8304 4.78463C24.6878 4.76394 24.5427 4.79983 24.4261 4.88465C24.3096 4.96946 24.2308 5.09647 24.2066 5.23856C24.1819 5.38265 24.2132 5.53074 24.2942 5.65248C24.3751 5.77421 24.4996 5.86038 24.642 5.89331C24.6611 5.89725 24.705 5.90569 24.7247 5.90794L26.2699 6.10088C25.9016 8.02451 24.8743 9.75961 23.3648 11.0076C21.8553 12.2555 19.958 12.9382 17.9994 12.9382C16.0409 12.9382 14.1436 12.2555 12.6341 11.0076C11.1245 9.75961 10.0973 8.02451 9.729 6.10088L11.2742 5.90794C12.0613 5.80609 12.7997 5.47026 13.3937 4.94393C13.9877 4.4176 14.41 3.72504 14.6059 2.95594L15.0643 1.125H20.9357L21.3936 2.95538C21.5195 3.45028 21.7414 3.91564 22.0466 4.32506C22.1362 4.44164 22.2679 4.5185 22.4135 4.53919C22.559 4.55988 22.7069 4.52276 22.8254 4.43578C22.9439 4.34879 23.0237 4.21885 23.0476 4.07379C23.0715 3.92872 23.0377 3.78006 22.9534 3.65963C22.7352 3.36765 22.5761 3.03597 22.4848 2.68313L21.9223 0.426377C21.8919 0.304353 21.8214 0.196048 21.7222 0.11876C21.623 0.0414716 21.5008 -0.000340341 21.375 2.08665e-06H14.625C14.4995 3.67496e-05 14.3777 0.0420216 14.2788 0.11928C14.1799 0.196538 14.1097 0.304634 14.0794 0.426377L13.5169 2.68313C13.3769 3.23234 13.0752 3.72688 12.651 4.10275C12.2268 4.47862 11.6996 4.71851 11.1375 4.79138L7.32319 5.26781C6.77463 5.34267 6.24819 5.53303 5.77862 5.82631C5.30904 6.11959 4.90701 6.50914 4.59906 6.96923C4.29111 7.42932 4.08425 7.94949 3.99212 8.49541C3.9 9.04133 3.92471 9.60058 4.06462 10.1363C4.80544 12.9516 8.9595 27 18 27ZM23.625 12.6422C24.1779 13.2857 24.75 14.1339 24.75 14.625C24.75 14.9234 24.6315 15.2095 24.4205 15.4205C24.2095 15.6315 23.9234 15.75 23.625 15.75C23.3266 15.75 23.0405 15.6315 22.8295 15.4205C22.6185 15.2095 22.5 14.9234 22.5 14.625C22.5 14.1339 23.0721 13.2857 23.625 12.6422ZM19.6875 17.4375C19.6875 17.8851 19.5097 18.3143 19.1932 18.6307C18.8768 18.9472 18.4476 19.125 18 19.125C17.5524 19.125 17.1232 18.9472 16.8068 18.6307C16.4903 18.3143 16.3125 17.8851 16.3125 17.4375C16.3125 16.4661 17.316 15.1088 18 14.3269C18.684 15.1088 19.6875 16.4661 19.6875 17.4375ZM13.5 14.625C13.5 14.9234 13.3815 15.2095 13.1705 15.4205C12.9595 15.6315 12.6734 15.75 12.375 15.75C12.0766 15.75 11.7905 15.6315 11.5795 15.4205C11.3685 15.2095 11.25 14.9234 11.25 14.625C11.25 14.1339 11.8221 13.2857 12.375 12.6422C12.9279 13.2857 13.5 14.1339 13.5 14.625ZM7.46044 6.38438L8.61356 6.23981C9.00099 8.35621 10.0932 10.2792 11.7124 11.6961C11.1904 12.2676 10.125 13.5675 10.125 14.625C10.125 15.2217 10.3621 15.794 10.784 16.216C11.206 16.6379 11.7783 16.875 12.375 16.875C12.9717 16.875 13.544 16.6379 13.966 16.216C14.3879 15.794 14.625 15.2217 14.625 14.625C14.5945 14.1408 14.4454 13.6716 14.1907 13.2587C15.0274 13.6245 15.9126 13.8676 16.8187 13.9804C16.1089 14.8534 15.1875 16.2191 15.1875 17.4375C15.1875 18.1834 15.4838 18.8988 16.0113 19.4262C16.5387 19.9537 17.2541 20.25 18 20.25C18.7459 20.25 19.4613 19.9537 19.9887 19.4262C20.5162 18.8988 20.8125 18.1834 20.8125 17.4375C20.8125 16.2191 19.8911 14.8534 19.1812 13.9804C20.0876 13.8676 20.9729 13.6246 21.8098 13.2587C21.555 13.6716 21.4057 14.1408 21.375 14.625C21.375 15.2217 21.6121 15.794 22.034 16.216C22.456 16.6379 23.0283 16.875 23.625 16.875C24.2217 16.875 24.794 16.6379 25.216 16.216C25.6379 15.794 25.875 15.2217 25.875 14.625C25.875 13.5675 24.8096 12.2676 24.2876 11.6944C25.9068 10.2776 26.999 8.35453 27.3864 6.23813L28.5396 6.38269C29.2016 6.46622 29.8104 6.78838 30.2519 7.28877C30.6934 7.78916 30.9371 8.4334 30.9375 9.10069C30.9375 9.3624 30.8996 9.62273 30.825 9.87356C30.0375 12.5438 25.6961 25.875 18 25.875C9.7875 25.875 5.85675 12.5258 5.1525 9.84938C5.08962 9.60487 5.05936 9.35313 5.0625 9.10069C5.06328 8.43369 5.30723 7.78986 5.74865 7.28983C6.19008 6.78979 6.79868 6.46787 7.46044 6.38438Z" fill="#2553E4" fill-opacity="0.5"/>
</g>
<defs>
<clipPath id="clip0_1_631">
<rect width="36" height="36" fill="white"/>
</clipPath>
</defs>
</svg>
