<svg width="32" height="32" viewBox="0 0 32 32" fill="none" xmlns="http://www.w3.org/2000/svg">
<path d="M16.1655 31.8661C15.8963 31.8663 15.6299 31.8122 15.3821 31.7069C9.97904 29.4684 5.68542 25.1768 3.44434 19.7748C1.7119 15.659 1.62335 12.2634 1.62041 12.1209L1.62018 7.67453C1.62027 7.38923 1.68161 7.10728 1.80003 6.84772C1.91846 6.58817 2.09123 6.35706 2.30666 6.17002C2.52209 5.98297 2.77515 5.84435 3.04876 5.76352C3.32237 5.68269 3.61014 5.66154 3.89262 5.70149C5.05273 5.88264 6.23939 5.78178 7.35229 5.40744C8.46518 5.03311 9.47157 4.3963 10.2864 3.55087C12.3643 1.4059 14.2325 0.406917 16.1655 0.406799C18.0986 0.406799 19.9667 1.4058 22.0449 3.55087C22.8596 4.39641 23.866 5.03329 24.9789 5.40763C26.0918 5.78197 27.2785 5.88277 28.4387 5.70149C28.7211 5.66157 29.0089 5.68274 29.2825 5.76359C29.556 5.84443 29.8091 5.98306 30.0245 6.1701C30.2399 6.35714 30.4126 6.58824 30.531 6.84778C30.6494 7.10732 30.7108 7.38925 30.7109 7.67453V12.1011C30.7078 12.2634 30.6191 15.659 28.8867 19.7748C26.6457 25.1769 22.352 29.4685 16.9489 31.7071C16.7011 31.8122 16.4347 31.8663 16.1655 31.8661ZM3.61274 7.60844C3.59663 7.60852 3.58112 7.6146 3.56924 7.62549C3.56193 7.63134 3.5561 7.63883 3.55222 7.64734C3.54834 7.65586 3.54652 7.66518 3.5469 7.67453V12.1011C3.71463 14.5121 4.29024 16.8772 5.24923 19.0957C7.38456 24.1215 11.0477 27.7681 16.1368 29.9342C16.1459 29.9381 16.1557 29.9401 16.1656 29.9401C16.1755 29.9401 16.1853 29.9381 16.1945 29.9342C28.3848 24.7454 28.7818 12.2074 28.7844 12.0814L28.7842 7.67453C28.7845 7.66518 28.7827 7.65587 28.7789 7.64734C28.7751 7.6388 28.7693 7.63128 28.762 7.62537C28.7546 7.61863 28.7457 7.61368 28.736 7.61091C28.7264 7.60814 28.7162 7.60761 28.7063 7.60937C27.2456 7.83608 25.7517 7.70743 24.3513 7.23432C22.9508 6.76121 21.685 5.95758 20.661 4.89148C18.9935 3.17021 17.5231 2.33351 16.1655 2.33351C14.808 2.33351 13.3376 3.17021 11.6703 4.89148C10.6462 5.95752 9.38032 6.76112 7.97984 7.23424C6.57936 7.70736 5.08551 7.83608 3.62474 7.6095C3.62078 7.6088 3.61676 7.60845 3.61274 7.60844Z" fill="#2553E4" fill-opacity="0.5"/>
<path d="M18.9315 6.68109C17.3348 5.03375 16.4653 4.85553 16.1643 4.85553C15.8657 4.85553 14.9962 5.03375 13.3995 6.68109C11.4469 8.74541 8.78978 10.0005 5.95514 10.1973V12.165C6.12367 14.2678 6.63371 16.3291 7.4652 18.2678C9.12434 22.2945 12.2264 25.5572 16.1643 27.4173C25.7569 22.7619 26.3469 12.8706 26.3759 12.1529V10.1973C23.5413 9.99999 20.8844 8.74501 18.9315 6.68109ZM10.5296 13.2437C10.9303 12.6072 11.5454 12.135 12.2639 11.9124C12.9823 11.6897 13.7567 11.7314 14.4471 12.0299C14.9882 12.2883 15.4788 12.6412 15.8958 13.072C15.9691 13.1402 16.0654 13.1781 16.1655 13.1781C16.2656 13.1781 16.3619 13.1402 16.4352 13.072C16.8522 12.6412 17.3428 12.2883 17.8839 12.0299C18.5743 11.7314 19.3486 11.6898 20.0671 11.9124C20.7855 12.135 21.4007 12.6072 21.8014 13.2437C22.0949 13.6906 22.2832 14.1983 22.3519 14.7286C22.4206 15.2588 22.368 15.7978 22.1981 16.3047H19.9118L18.9004 13.9919C18.8527 13.8827 18.7736 13.7902 18.6733 13.726C18.5729 13.6617 18.4557 13.6287 18.3365 13.6311C18.2174 13.6336 18.1017 13.6713 18.004 13.7395C17.9063 13.8078 17.831 13.9035 17.7877 14.0145L16.0715 18.4196L14.1166 14.8739C14.0666 14.7833 13.9941 14.707 13.9061 14.6526C13.818 14.5981 13.7174 14.5672 13.614 14.563C13.5106 14.5588 13.4078 14.5813 13.3156 14.6283C13.2234 14.6754 13.1449 14.7454 13.0876 14.8317L12.12 16.2897H10.1284C9.96125 15.7846 9.91054 15.2482 9.98003 14.7207C10.0495 14.1932 10.2374 13.6883 10.5296 13.2437ZM20.677 18.9372C19.7874 19.9756 18.7905 20.9172 17.7031 21.7462C17.4001 21.9829 16.8681 22.3743 16.5163 22.6313C16.4145 22.7058 16.2916 22.746 16.1655 22.746C16.0393 22.746 15.9165 22.7058 15.8147 22.6313C15.4629 22.3743 14.9309 21.9829 14.6279 21.7462C13.5405 20.9172 12.5436 19.9756 11.654 18.9372C11.2716 18.4894 10.9329 18.0061 10.6425 17.4939H12.4432C12.5426 17.4939 12.6404 17.4693 12.7279 17.4224C12.8154 17.3754 12.89 17.3075 12.9449 17.2247L13.5418 16.3253L15.6381 20.1277C15.6901 20.222 15.7664 20.3006 15.8591 20.3554C15.9518 20.4102 16.0575 20.4391 16.1652 20.4391C16.1786 20.4391 16.1917 20.4386 16.2051 20.4378C16.3194 20.4302 16.4291 20.3903 16.5214 20.3226C16.6137 20.2549 16.6848 20.1623 16.7263 20.0556L18.3807 15.8093L18.9661 17.148C19.013 17.2553 19.0902 17.3466 19.1882 17.4107C19.2862 17.4747 19.4008 17.5089 19.5178 17.5089H21.6805C21.3916 18.0155 21.0556 18.4937 20.677 18.9372Z" fill="#2553E4"/>
</svg>
