<svg width="1090" height="170" viewBox="0 0 1090 170" fill="none" xmlns="http://www.w3.org/2000/svg">
<g clip-path="url(#clip0_1_555)">
<path d="M1090 -569H-4.42969V526H1090V-569Z" fill="url(#paint0_linear_1_555)"/>
<mask id="mask0_1_555" style="mask-type:alpha" maskUnits="userSpaceOnUse" x="-5" y="-569" width="1096" height="1095">
<path d="M1090.57 -569H-4.42969V526H1090.57V-569Z" fill="#212937"/>
</mask>
<g mask="url(#mask0_1_555)">
<g style="mix-blend-mode:luminosity" opacity="0.15">
<path fill-rule="evenodd" clip-rule="evenodd" d="M751.702 -566.719L-3.85826 188.5V526L458.469 63.813L920.794 526H1090.57V359.138L626.758 -104.511L1090.57 -566.719H751.702Z" fill="#555555"/>
<path fill-rule="evenodd" clip-rule="evenodd" d="M-3.85826 -566.719V8.66382L572.727 -566.719H-3.85826Z" fill="#555555"/>
<path fill-rule="evenodd" clip-rule="evenodd" d="M803.133 -106.662L1090.57 181.109V-394.274L803.133 -106.662Z" fill="#2983D3"/>
</g>
<path d="M1320.81 3.77051L661.695 153.797" stroke="url(#paint1_linear_1_555)"/>
<path d="M1414.34 57.9502L755.227 207.977" stroke="url(#paint2_linear_1_555)"/>
<path d="M904.648 176.398C906.536 176.398 908.07 174.864 908.07 172.977C908.07 171.089 906.536 169.555 904.648 169.555C902.761 169.555 901.227 171.089 901.227 172.977C901.227 174.864 902.761 176.398 904.648 176.398Z" fill="white"/>
<path d="M904.648 175.828C906.222 175.828 907.5 174.551 907.5 172.977C907.5 171.403 906.222 170.125 904.648 170.125C903.074 170.125 901.797 171.403 901.797 172.977C901.797 174.551 903.074 175.828 904.648 175.828Z" stroke="#B1BACB" stroke-width="2"/>
</g>
<path d="M70.008 58V48.928H77.05V50.328H71.632V52.54H76.742V53.926H71.632V56.6H77.246V58H70.008ZM77.8353 58L81.1253 53.464L77.9053 48.928H79.7533L81.1253 50.776L82.0353 52.232C82.502 51.4947 82.8193 51.0093 82.9873 50.776L84.3313 48.928H86.1933L82.9593 53.464L86.2493 58H84.3733L82.9733 56.068L82.0353 54.696C81.5686 55.4147 81.2606 55.8767 81.1113 56.082L79.7113 58H77.8353ZM87.3986 58V48.928H91.2206C92.4713 48.928 93.4466 49.2547 94.1466 49.908C94.856 50.5613 95.2106 51.3873 95.2106 52.386C95.2106 53.3847 94.856 54.2107 94.1466 54.864C93.4466 55.5173 92.4666 55.844 91.2066 55.844H89.0226V58H87.3986ZM89.0226 54.444H91.3186C91.9813 54.444 92.5133 54.248 92.9146 53.856C93.316 53.464 93.5166 52.974 93.5166 52.386C93.5166 51.8073 93.316 51.322 92.9146 50.93C92.5133 50.5287 91.986 50.328 91.3326 50.328H89.0226V54.444ZM96.8732 58V48.928H98.4972V56.6H103.929V58H96.8732ZM108.911 56.684C109.779 56.684 110.507 56.3713 111.095 55.746C111.683 55.1113 111.977 54.3507 111.977 53.464C111.977 52.5773 111.683 51.8213 111.095 51.196C110.507 50.5707 109.779 50.258 108.911 50.258C108.034 50.258 107.296 50.5707 106.699 51.196C106.111 51.8213 105.817 52.5773 105.817 53.464C105.817 54.3507 106.111 55.1113 106.699 55.746C107.296 56.3713 108.034 56.684 108.911 56.684ZM105.481 50.146C106.396 49.2407 107.534 48.788 108.897 48.788C110.26 48.788 111.394 49.2407 112.299 50.146C113.214 51.0513 113.671 52.1573 113.671 53.464C113.671 54.78 113.214 55.8907 112.299 56.796C111.394 57.7013 110.26 58.154 108.897 58.154C107.534 58.154 106.396 57.7013 105.481 56.796C104.576 55.8907 104.123 54.78 104.123 53.464C104.123 52.1573 104.576 51.0513 105.481 50.146ZM115.262 58V48.928H119.07C120.358 48.928 121.347 49.2547 122.038 49.908C122.729 50.552 123.074 51.378 123.074 52.386C123.074 53.0113 122.911 53.5947 122.584 54.136C122.257 54.6773 121.8 55.0833 121.212 55.354L123.2 58H121.212L119.63 55.816C119.359 55.8347 118.879 55.844 118.188 55.844H116.886V58H115.262ZM116.886 54.444H119.168C119.84 54.444 120.377 54.248 120.778 53.856C121.179 53.464 121.38 52.974 121.38 52.386C121.38 51.798 121.179 51.308 120.778 50.916C120.377 50.524 119.845 50.328 119.182 50.328H116.886V54.444ZM124.737 58V48.928H131.779V50.328H126.361V52.54H131.471V53.926H126.361V56.6H131.975V58H124.737ZM136.213 58L140.301 48.928H141.841L145.929 58H144.277L143.563 56.432H138.579L137.865 58H136.213ZM139.139 55.144H143.003L141.939 52.848C141.818 52.5867 141.682 52.274 141.533 51.91C141.393 51.546 141.281 51.252 141.197 51.028L141.071 50.678C140.772 51.518 140.483 52.2413 140.203 52.848L139.139 55.144ZM147.022 58V48.928H148.674L151.922 53.38C152.108 53.6413 152.318 53.954 152.552 54.318C152.785 54.6727 152.967 54.962 153.098 55.186L153.308 55.522V48.928H154.932V58H153.252L150.158 53.772C149.924 53.4547 149.682 53.1047 149.43 52.722C149.178 52.33 148.982 52.022 148.842 51.798L148.646 51.462V58H147.022ZM158.571 56.6H160.433C161.385 56.6 162.155 56.306 162.743 55.718C163.331 55.13 163.625 54.3787 163.625 53.464C163.625 52.5493 163.331 51.798 162.743 51.21C162.155 50.622 161.385 50.328 160.433 50.328H158.571V56.6ZM156.947 58V48.928H160.503C161.941 48.928 163.103 49.3667 163.989 50.244C164.876 51.112 165.319 52.1853 165.319 53.464C165.319 54.7427 164.876 55.8207 163.989 56.698C163.103 57.566 161.941 58 160.503 58H156.947ZM170.199 53.464C170.199 52.1573 170.652 51.0513 171.557 50.146C172.472 49.2407 173.611 48.788 174.973 48.788C176.168 48.788 177.185 49.1427 178.025 49.852L177.087 50.944C176.499 50.4867 175.832 50.258 175.085 50.258C174.161 50.258 173.396 50.5707 172.789 51.196C172.192 51.8213 171.893 52.5773 171.893 53.464C171.893 54.3507 172.187 55.1113 172.775 55.746C173.373 56.3713 174.11 56.684 174.987 56.684C175.893 56.684 176.653 56.3853 177.269 55.788L178.263 56.908C177.358 57.7387 176.261 58.154 174.973 58.154C173.611 58.154 172.472 57.7013 171.557 56.796C170.652 55.8907 170.199 54.78 170.199 53.464ZM179.492 58V48.928H181.116V52.554H185.54V48.928H187.164V58H185.54V53.94H181.116V58H179.492ZM193.567 56.684C194.435 56.684 195.163 56.3713 195.751 55.746C196.339 55.1113 196.633 54.3507 196.633 53.464C196.633 52.5773 196.339 51.8213 195.751 51.196C195.163 50.5707 194.435 50.258 193.567 50.258C192.69 50.258 191.953 50.5707 191.355 51.196C190.767 51.8213 190.473 52.5773 190.473 53.464C190.473 54.3507 190.767 55.1113 191.355 55.746C191.953 56.3713 192.69 56.684 193.567 56.684ZM190.137 50.146C191.052 49.2407 192.191 48.788 193.553 48.788C194.916 48.788 196.05 49.2407 196.955 50.146C197.87 51.0513 198.327 52.1573 198.327 53.464C198.327 54.78 197.87 55.8907 196.955 56.796C196.05 57.7013 194.916 58.154 193.553 58.154C192.191 58.154 191.052 57.7013 190.137 56.796C189.232 55.8907 188.779 54.78 188.779 53.464C188.779 52.1573 189.232 51.0513 190.137 50.146ZM204.286 56.684C205.154 56.684 205.882 56.3713 206.47 55.746C207.058 55.1113 207.352 54.3507 207.352 53.464C207.352 52.5773 207.058 51.8213 206.47 51.196C205.882 50.5707 205.154 50.258 204.286 50.258C203.409 50.258 202.671 50.5707 202.074 51.196C201.486 51.8213 201.192 52.5773 201.192 53.464C201.192 54.3507 201.486 55.1113 202.074 55.746C202.671 56.3713 203.409 56.684 204.286 56.684ZM200.856 50.146C201.771 49.2407 202.909 48.788 204.272 48.788C205.635 48.788 206.769 49.2407 207.674 50.146C208.589 51.0513 209.046 52.1573 209.046 53.464C209.046 54.78 208.589 55.8907 207.674 56.796C206.769 57.7013 205.635 58.154 204.272 58.154C202.909 58.154 201.771 57.7013 200.856 56.796C199.951 55.8907 199.498 54.78 199.498 53.464C199.498 52.1573 199.951 51.0513 200.856 50.146ZM209.902 56.838L210.532 55.606C211.41 56.3153 212.413 56.67 213.542 56.67C214.065 56.67 214.522 56.5533 214.914 56.32C215.306 56.0867 215.502 55.774 215.502 55.382C215.502 55.1207 215.4 54.9013 215.194 54.724C214.989 54.5373 214.779 54.4067 214.564 54.332C214.35 54.2573 214.042 54.1733 213.64 54.08C213.239 53.9867 212.903 53.9027 212.632 53.828C212.362 53.744 212.063 53.6273 211.736 53.478C211.41 53.3193 211.148 53.1513 210.952 52.974C210.756 52.7967 210.588 52.568 210.448 52.288C210.318 52.008 210.252 51.6953 210.252 51.35C210.252 50.5473 210.574 49.922 211.218 49.474C211.862 49.0167 212.637 48.788 213.542 48.788C214.728 48.788 215.801 49.1147 216.762 49.768L216.132 51.014C215.339 50.51 214.476 50.258 213.542 50.258C213.309 50.258 213.076 50.2907 212.842 50.356C212.609 50.412 212.394 50.5287 212.198 50.706C212.002 50.874 211.904 51.084 211.904 51.336C211.904 51.6627 212.054 51.91 212.352 52.078C212.66 52.246 213.146 52.4093 213.808 52.568C214.303 52.68 214.728 52.806 215.082 52.946C215.437 53.0767 215.787 53.2493 216.132 53.464C216.478 53.6693 216.739 53.9353 216.916 54.262C217.103 54.5887 217.196 54.962 217.196 55.382C217.196 56.2687 216.832 56.95 216.104 57.426C215.376 57.902 214.518 58.14 213.528 58.14C212.044 58.14 210.836 57.706 209.902 56.838ZM218.813 58V48.928H225.855V50.328H220.437V52.54H225.547V53.926H220.437V56.6H226.051V58H218.813Z" fill="white"/>
<path d="M70.512 93V79.392H72.948V93H70.512ZM75.9671 93V79.392H78.4451L83.3171 86.07C83.5971 86.462 83.9121 86.931 84.2621 87.477C84.6121 88.009 84.8851 88.443 85.0811 88.779L85.3961 89.283V79.392H87.8321V93H85.3121L80.6711 86.658C80.3211 86.182 79.9571 85.657 79.5791 85.083C79.2011 84.495 78.9071 84.033 78.6971 83.697L78.4031 83.193V93H75.9671ZM90.2258 91.257L91.1708 89.409C92.4868 90.473 93.9918 91.005 95.6858 91.005C96.4698 91.005 97.1558 90.83 97.7438 90.48C98.3318 90.13 98.6258 89.661 98.6258 89.073C98.6258 88.681 98.4718 88.352 98.1638 88.086C97.8558 87.806 97.5408 87.61 97.2188 87.498C96.8968 87.386 96.4348 87.26 95.8328 87.12C95.2308 86.98 94.7268 86.854 94.3208 86.742C93.9148 86.616 93.4668 86.441 92.9768 86.217C92.4868 85.979 92.0948 85.727 91.8008 85.461C91.5068 85.195 91.2548 84.852 91.0448 84.432C90.8488 84.012 90.7508 83.543 90.7508 83.025C90.7508 81.821 91.2338 80.883 92.1998 80.211C93.1658 79.525 94.3278 79.182 95.6858 79.182C97.4638 79.182 99.0738 79.672 100.516 80.652L99.5708 82.521C98.3808 81.765 97.0858 81.387 95.6858 81.387C95.3358 81.387 94.9858 81.436 94.6358 81.534C94.2858 81.618 93.9638 81.793 93.6698 82.059C93.3758 82.311 93.2288 82.626 93.2288 83.004C93.2288 83.494 93.4528 83.865 93.9008 84.117C94.3628 84.369 95.0908 84.614 96.0848 84.852C96.8268 85.02 97.4638 85.209 97.9958 85.419C98.5278 85.615 99.0528 85.874 99.5708 86.196C100.089 86.504 100.481 86.903 100.747 87.393C101.027 87.883 101.167 88.443 101.167 89.073C101.167 90.403 100.621 91.425 99.5288 92.139C98.4368 92.853 97.1488 93.21 95.6648 93.21C93.4388 93.21 91.6258 92.559 90.2258 91.257ZM113.209 91.677C112.103 92.699 110.745 93.21 109.135 93.21C107.525 93.21 106.16 92.699 105.04 91.677C103.934 90.655 103.381 89.325 103.381 87.687V79.392H105.817V87.603C105.817 88.597 106.139 89.416 106.783 90.06C107.427 90.69 108.211 91.005 109.135 91.005C110.059 91.005 110.843 90.69 111.487 90.06C112.131 89.416 112.453 88.597 112.453 87.603V79.392H114.889V87.687C114.889 89.325 114.329 90.655 113.209 91.677ZM117.721 93V79.392H123.433C125.365 79.392 126.849 79.882 127.885 80.862C128.921 81.828 129.439 83.067 129.439 84.579C129.439 85.517 129.194 86.392 128.704 87.204C128.214 88.016 127.528 88.625 126.646 89.031L129.628 93H126.646L124.273 89.724C123.867 89.752 123.146 89.766 122.11 89.766H120.157V93H117.721ZM120.157 87.666H123.58C124.588 87.666 125.393 87.372 125.995 86.784C126.597 86.196 126.898 85.461 126.898 84.579C126.898 83.697 126.597 82.962 125.995 82.374C125.393 81.786 124.595 81.492 123.601 81.492H120.157V87.666ZM130.547 93L136.679 79.392H138.989L145.121 93H142.643L141.572 90.648H134.096L133.025 93H130.547ZM134.936 88.716H140.732L139.136 85.272C138.954 84.88 138.751 84.411 138.527 83.865C138.317 83.319 138.149 82.878 138.023 82.542L137.834 82.017C137.386 83.277 136.952 84.362 136.532 85.272L134.936 88.716ZM146.76 93V79.392H149.238L154.11 86.07C154.39 86.462 154.705 86.931 155.055 87.477C155.405 88.009 155.678 88.443 155.874 88.779L156.189 89.283V79.392H158.625V93H156.105L151.464 86.658C151.114 86.182 150.75 85.657 150.372 85.083C149.994 84.495 149.7 84.033 149.49 83.697L149.196 83.193V93H146.76ZM161.019 86.196C161.019 84.236 161.698 82.577 163.056 81.219C164.428 79.861 166.136 79.182 168.18 79.182C169.972 79.182 171.498 79.714 172.758 80.778L171.351 82.416C170.469 81.73 169.468 81.387 168.348 81.387C166.962 81.387 165.814 81.856 164.904 82.794C164.008 83.732 163.56 84.866 163.56 86.196C163.56 87.526 164.001 88.667 164.883 89.619C165.779 90.557 166.885 91.026 168.201 91.026C169.559 91.026 170.7 90.578 171.624 89.682L173.115 91.362C171.757 92.608 170.112 93.231 168.18 93.231C166.136 93.231 164.428 92.552 163.056 91.194C161.698 89.836 161.019 88.17 161.019 86.196ZM174.958 93V79.392H185.521V81.492H177.394V84.81H185.059V86.889H177.394V90.9H185.815V93H174.958ZM193.559 93V79.392H199.292C201.168 79.392 202.631 79.882 203.681 80.862C204.745 81.842 205.277 83.081 205.277 84.579C205.277 86.077 204.745 87.316 203.681 88.296C202.631 89.276 201.161 89.766 199.271 89.766H195.995V93H193.559ZM195.995 87.666H199.439C200.433 87.666 201.231 87.372 201.833 86.784C202.435 86.196 202.736 85.461 202.736 84.579C202.736 83.711 202.435 82.983 201.833 82.395C201.231 81.793 200.44 81.492 199.46 81.492H195.995V87.666ZM207.771 93V79.392H210.207V90.9H218.355V93H207.771ZM219.387 93L225.519 79.392H227.829L233.961 93H231.483L230.412 90.648H222.936L221.865 93H219.387ZM223.776 88.716H229.572L227.976 85.272C227.794 84.88 227.591 84.411 227.367 83.865C227.157 83.319 226.989 82.878 226.863 82.542L226.674 82.017C226.226 83.277 225.792 84.362 225.372 85.272L223.776 88.716ZM235.6 93V79.392H238.078L242.95 86.07C243.23 86.462 243.545 86.931 243.895 87.477C244.245 88.009 244.518 88.443 244.714 88.779L245.029 89.283V79.392H247.465V93H244.945L240.304 86.658C239.954 86.182 239.59 85.657 239.212 85.083C238.834 84.495 238.54 84.033 238.33 83.697L238.036 83.193V93H235.6ZM249.859 91.257L250.804 89.409C252.12 90.473 253.625 91.005 255.319 91.005C256.103 91.005 256.789 90.83 257.377 90.48C257.965 90.13 258.259 89.661 258.259 89.073C258.259 88.681 258.105 88.352 257.797 88.086C257.489 87.806 257.174 87.61 256.852 87.498C256.53 87.386 256.068 87.26 255.466 87.12C254.864 86.98 254.36 86.854 253.954 86.742C253.548 86.616 253.1 86.441 252.61 86.217C252.12 85.979 251.728 85.727 251.434 85.461C251.14 85.195 250.888 84.852 250.678 84.432C250.482 84.012 250.384 83.543 250.384 83.025C250.384 81.821 250.867 80.883 251.833 80.211C252.799 79.525 253.961 79.182 255.319 79.182C257.097 79.182 258.707 79.672 260.149 80.652L259.204 82.521C258.014 81.765 256.719 81.387 255.319 81.387C254.969 81.387 254.619 81.436 254.269 81.534C253.919 81.618 253.597 81.793 253.303 82.059C253.009 82.311 252.862 82.626 252.862 83.004C252.862 83.494 253.086 83.865 253.534 84.117C253.996 84.369 254.724 84.614 255.718 84.852C256.46 85.02 257.097 85.209 257.629 85.419C258.161 85.615 258.686 85.874 259.204 86.196C259.722 86.504 260.114 86.903 260.38 87.393C260.66 87.883 260.8 88.443 260.8 89.073C260.8 90.403 260.254 91.425 259.162 92.139C258.07 92.853 256.782 93.21 255.298 93.21C253.072 93.21 251.259 92.559 249.859 91.257ZM267.396 93L273.528 79.392H275.838L281.97 93H279.492L278.421 90.648H270.945L269.874 93H267.396ZM271.785 88.716H277.581L275.985 85.272C275.803 84.88 275.6 84.411 275.376 83.865C275.166 83.319 274.998 82.878 274.872 82.542L274.683 82.017C274.235 83.277 273.801 84.362 273.381 85.272L271.785 88.716ZM282.138 86.196C282.138 84.236 282.817 82.577 284.175 81.219C285.547 79.861 287.255 79.182 289.299 79.182C291.091 79.182 292.617 79.714 293.877 80.778L292.47 82.416C291.588 81.73 290.587 81.387 289.467 81.387C288.081 81.387 286.933 81.856 286.023 82.794C285.127 83.732 284.679 84.866 284.679 86.196C284.679 87.526 285.12 88.667 286.002 89.619C286.898 90.557 288.004 91.026 289.32 91.026C290.678 91.026 291.819 90.578 292.743 89.682L294.234 91.362C292.876 92.608 291.231 93.231 289.299 93.231C287.255 93.231 285.547 92.552 284.175 91.194C282.817 89.836 282.138 88.17 282.138 86.196ZM295.14 86.196C295.14 84.236 295.819 82.577 297.177 81.219C298.549 79.861 300.257 79.182 302.301 79.182C304.093 79.182 305.619 79.714 306.879 80.778L305.472 82.416C304.59 81.73 303.589 81.387 302.469 81.387C301.083 81.387 299.935 81.856 299.025 82.794C298.129 83.732 297.681 84.866 297.681 86.196C297.681 87.526 298.122 88.667 299.004 89.619C299.9 90.557 301.006 91.026 302.322 91.026C303.68 91.026 304.821 90.578 305.745 89.682L307.236 91.362C305.878 92.608 304.233 93.231 302.301 93.231C300.257 93.231 298.549 92.552 297.177 91.194C295.819 89.836 295.14 88.17 295.14 86.196ZM315.324 91.026C316.626 91.026 317.718 90.557 318.6 89.619C319.482 88.667 319.923 87.526 319.923 86.196C319.923 84.866 319.482 83.732 318.6 82.794C317.718 81.856 316.626 81.387 315.324 81.387C314.008 81.387 312.902 81.856 312.006 82.794C311.124 83.732 310.683 84.866 310.683 86.196C310.683 87.526 311.124 88.667 312.006 89.619C312.902 90.557 314.008 91.026 315.324 91.026ZM310.179 81.219C311.551 79.861 313.259 79.182 315.303 79.182C317.347 79.182 319.048 79.861 320.406 81.219C321.778 82.577 322.464 84.236 322.464 86.196C322.464 88.17 321.778 89.836 320.406 91.194C319.048 92.552 317.347 93.231 315.303 93.231C313.259 93.231 311.551 92.552 310.179 91.194C308.821 89.836 308.142 88.17 308.142 86.196C308.142 84.236 308.821 82.577 310.179 81.219ZM324.85 93V79.392H330.562C332.494 79.392 333.978 79.882 335.014 80.862C336.05 81.828 336.568 83.067 336.568 84.579C336.568 85.517 336.323 86.392 335.833 87.204C335.343 88.016 334.657 88.625 333.775 89.031L336.757 93H333.775L331.402 89.724C330.996 89.752 330.275 89.766 329.239 89.766H327.286V93H324.85ZM327.286 87.666H330.709C331.717 87.666 332.522 87.372 333.124 86.784C333.726 86.196 334.027 85.461 334.027 84.579C334.027 83.697 333.726 82.962 333.124 82.374C332.522 81.786 331.724 81.492 330.73 81.492H327.286V87.666ZM341.498 90.9H344.291C345.719 90.9 346.874 90.459 347.756 89.577C348.638 88.695 349.079 87.568 349.079 86.196C349.079 84.824 348.638 83.697 347.756 82.815C346.874 81.933 345.719 81.492 344.291 81.492H341.498V90.9ZM339.062 93V79.392H344.396C346.552 79.392 348.295 80.05 349.625 81.366C350.955 82.668 351.62 84.278 351.62 86.196C351.62 88.114 350.955 89.731 349.625 91.047C348.295 92.349 346.552 93 344.396 93H339.062ZM354.012 93V79.392H356.448V93H354.012ZM359.467 93V79.392H361.945L366.817 86.07C367.097 86.462 367.412 86.931 367.762 87.477C368.112 88.009 368.385 88.443 368.581 88.779L368.896 89.283V79.392H371.332V93H368.812L364.171 86.658C363.821 86.182 363.457 85.657 363.079 85.083C362.701 84.495 362.407 84.033 362.197 83.697L361.903 83.193V93H359.467ZM373.726 86.196C373.726 84.236 374.405 82.577 375.763 81.219C377.135 79.861 378.843 79.182 380.887 79.182C382.651 79.182 384.205 79.728 385.549 80.82L384.1 82.479C383.232 81.751 382.168 81.387 380.908 81.387C379.592 81.387 378.486 81.856 377.59 82.794C376.708 83.732 376.267 84.866 376.267 86.196C376.267 87.526 376.708 88.66 377.59 89.598C378.486 90.536 379.592 91.005 380.908 91.005C382.35 91.005 383.519 90.452 384.415 89.346V86.994H381.916V84.957H386.767V90.27C386.151 91.18 385.325 91.901 384.289 92.433C383.253 92.951 382.119 93.21 380.887 93.21C378.843 93.21 377.135 92.538 375.763 91.194C374.405 89.836 373.726 88.17 373.726 86.196ZM397.985 93V81.492H393.197V79.392H405.209V81.492H400.421V93H397.985ZM413.126 91.026C414.428 91.026 415.52 90.557 416.402 89.619C417.284 88.667 417.725 87.526 417.725 86.196C417.725 84.866 417.284 83.732 416.402 82.794C415.52 81.856 414.428 81.387 413.126 81.387C411.81 81.387 410.704 81.856 409.808 82.794C408.926 83.732 408.485 84.866 408.485 86.196C408.485 87.526 408.926 88.667 409.808 89.619C410.704 90.557 411.81 91.026 413.126 91.026ZM407.981 81.219C409.353 79.861 411.061 79.182 413.105 79.182C415.149 79.182 416.85 79.861 418.208 81.219C419.58 82.577 420.266 84.236 420.266 86.196C420.266 88.17 419.58 89.836 418.208 91.194C416.85 92.552 415.149 93.231 413.105 93.231C411.061 93.231 409.353 92.552 407.981 91.194C406.623 89.836 405.944 88.17 405.944 86.196C405.944 84.236 406.623 82.577 407.981 81.219ZM431.337 93V86.721L426.066 79.392H428.859L430.917 82.164L432.555 84.642C433.283 83.522 433.836 82.696 434.214 82.164L436.209 79.392H439.002L433.773 86.7V93H431.337ZM446.164 91.026C447.466 91.026 448.558 90.557 449.44 89.619C450.322 88.667 450.763 87.526 450.763 86.196C450.763 84.866 450.322 83.732 449.44 82.794C448.558 81.856 447.466 81.387 446.164 81.387C444.848 81.387 443.742 81.856 442.846 82.794C441.964 83.732 441.523 84.866 441.523 86.196C441.523 87.526 441.964 88.667 442.846 89.619C443.742 90.557 444.848 91.026 446.164 91.026ZM441.019 81.219C442.391 79.861 444.099 79.182 446.143 79.182C448.187 79.182 449.888 79.861 451.246 81.219C452.618 82.577 453.304 84.236 453.304 86.196C453.304 88.17 452.618 89.836 451.246 91.194C449.888 92.552 448.187 93.231 446.143 93.231C444.099 93.231 442.391 92.552 441.019 91.194C439.661 89.836 438.982 88.17 438.982 86.196C438.982 84.236 439.661 82.577 441.019 81.219ZM465.308 91.677C464.202 92.699 462.844 93.21 461.234 93.21C459.624 93.21 458.259 92.699 457.139 91.677C456.033 90.655 455.48 89.325 455.48 87.687V79.392H457.916V87.603C457.916 88.597 458.238 89.416 458.882 90.06C459.526 90.69 460.31 91.005 461.234 91.005C462.158 91.005 462.942 90.69 463.586 90.06C464.23 89.416 464.552 88.597 464.552 87.603V79.392H466.988V87.687C466.988 89.325 466.428 90.655 465.308 91.677ZM469.82 93V79.392H475.532C477.464 79.392 478.948 79.882 479.984 80.862C481.02 81.828 481.538 83.067 481.538 84.579C481.538 85.517 481.293 86.392 480.803 87.204C480.313 88.016 479.627 88.625 478.745 89.031L481.727 93H478.745L476.372 89.724C475.966 89.752 475.245 89.766 474.209 89.766H472.256V93H469.82ZM472.256 87.666H475.679C476.687 87.666 477.492 87.372 478.094 86.784C478.696 86.196 478.997 85.461 478.997 84.579C478.997 83.697 478.696 82.962 478.094 82.374C477.492 81.786 476.694 81.492 475.7 81.492H472.256V87.666ZM70.512 131V117.392H76.224C78.156 117.392 79.64 117.882 80.676 118.862C81.712 119.828 82.23 121.067 82.23 122.579C82.23 123.517 81.985 124.392 81.495 125.204C81.005 126.016 80.319 126.625 79.437 127.031L82.419 131H79.437L77.064 127.724C76.658 127.752 75.937 127.766 74.901 127.766H72.948V131H70.512ZM72.948 125.666H76.371C77.379 125.666 78.184 125.372 78.786 124.784C79.388 124.196 79.689 123.461 79.689 122.579C79.689 121.697 79.388 120.962 78.786 120.374C78.184 119.786 77.386 119.492 76.392 119.492H72.948V125.666ZM84.7239 131V117.392H95.2869V119.492H87.1599V122.81H94.8249V124.889H87.1599V128.9H95.5809V131H84.7239ZM98.9278 119.219C100.3 117.861 102.008 117.182 104.052 117.182C106.096 117.182 107.797 117.861 109.155 119.219C110.527 120.577 111.213 122.236 111.213 124.196C111.213 125.806 110.73 127.241 109.764 128.501L110.856 129.593L109.323 131.147L108.168 130.013C106.964 130.825 105.592 131.231 104.052 131.231C102.008 131.231 100.3 130.552 98.9278 129.194C97.5698 127.836 96.8908 126.17 96.8908 124.196C96.8908 122.236 97.5698 120.577 98.9278 119.219ZM104.073 129.026C104.955 129.026 105.76 128.795 106.488 128.333L104.661 126.506L106.215 124.952L108 126.737C108.448 125.953 108.672 125.106 108.672 124.196C108.672 122.866 108.231 121.732 107.349 120.794C106.467 119.856 105.375 119.387 104.073 119.387C102.757 119.387 101.651 119.856 100.755 120.794C99.8728 121.732 99.4318 122.866 99.4318 124.196C99.4318 125.526 99.8728 126.667 100.755 127.619C101.651 128.557 102.757 129.026 104.073 129.026ZM123.217 129.677C122.111 130.699 120.753 131.21 119.143 131.21C117.533 131.21 116.168 130.699 115.048 129.677C113.942 128.655 113.389 127.325 113.389 125.687V117.392H115.825V125.603C115.825 126.597 116.147 127.416 116.791 128.06C117.435 128.69 118.219 129.005 119.143 129.005C120.067 129.005 120.851 128.69 121.495 128.06C122.139 127.416 122.461 126.597 122.461 125.603V117.392H124.897V125.687C124.897 127.325 124.337 128.655 123.217 129.677ZM127.729 131V117.392H130.165V131H127.729ZM133.184 131V117.392H138.896C140.828 117.392 142.312 117.882 143.348 118.862C144.384 119.828 144.902 121.067 144.902 122.579C144.902 123.517 144.657 124.392 144.167 125.204C143.677 126.016 142.991 126.625 142.109 127.031L145.091 131H142.109L139.736 127.724C139.33 127.752 138.609 127.766 137.573 127.766H135.62V131H133.184ZM135.62 125.666H139.043C140.051 125.666 140.856 125.372 141.458 124.784C142.06 124.196 142.361 123.461 142.361 122.579C142.361 121.697 142.06 120.962 141.458 120.374C140.856 119.786 140.058 119.492 139.064 119.492H135.62V125.666ZM147.396 131V117.392H157.959V119.492H149.832V122.81H157.497V124.889H149.832V128.9H158.253V131H147.396ZM160.439 131V117.392H162.56L164.45 120.038L167.537 124.406L170.603 120.059L172.493 117.392H174.614V131H172.178V121.55C171.898 122.054 171.464 122.733 170.876 123.587L167.537 128.375L164.156 123.545L162.875 121.55V131H160.439ZM177.645 131V117.392H188.208V119.492H180.081V122.81H187.746V124.889H180.081V128.9H188.502V131H177.645ZM190.688 131V117.392H193.166L198.038 124.07C198.318 124.462 198.633 124.931 198.983 125.477C199.333 126.009 199.606 126.443 199.802 126.779L200.117 127.283V117.392H202.553V131H200.033L195.392 124.658C195.042 124.182 194.678 123.657 194.3 123.083C193.922 122.495 193.628 122.033 193.418 121.697L193.124 121.193V131H190.688ZM209.272 131V119.492H204.484V117.392H216.496V119.492H211.708V131H209.272ZM217.251 129.257L218.196 127.409C219.512 128.473 221.017 129.005 222.711 129.005C223.495 129.005 224.181 128.83 224.769 128.48C225.357 128.13 225.651 127.661 225.651 127.073C225.651 126.681 225.497 126.352 225.189 126.086C224.881 125.806 224.566 125.61 224.244 125.498C223.922 125.386 223.46 125.26 222.858 125.12C222.256 124.98 221.752 124.854 221.346 124.742C220.94 124.616 220.492 124.441 220.002 124.217C219.512 123.979 219.12 123.727 218.826 123.461C218.532 123.195 218.28 122.852 218.07 122.432C217.874 122.012 217.776 121.543 217.776 121.025C217.776 119.821 218.259 118.883 219.225 118.211C220.191 117.525 221.353 117.182 222.711 117.182C224.489 117.182 226.099 117.672 227.541 118.652L226.596 120.521C225.406 119.765 224.111 119.387 222.711 119.387C222.361 119.387 222.011 119.436 221.661 119.534C221.311 119.618 220.989 119.793 220.695 120.059C220.401 120.311 220.254 120.626 220.254 121.004C220.254 121.494 220.478 121.865 220.926 122.117C221.388 122.369 222.116 122.614 223.11 122.852C223.852 123.02 224.489 123.209 225.021 123.419C225.553 123.615 226.078 123.874 226.596 124.196C227.114 124.504 227.506 124.903 227.772 125.393C228.052 125.883 228.192 126.443 228.192 127.073C228.192 128.403 227.646 129.425 226.554 130.139C225.462 130.853 224.174 131.21 222.69 131.21C220.464 131.21 218.651 130.559 217.251 129.257ZM234.788 131L240.92 117.392H243.23L249.362 131H246.884L245.813 128.648H238.337L237.266 131H234.788ZM239.177 126.716H244.973L243.377 123.272C243.195 122.88 242.992 122.411 242.768 121.865C242.558 121.319 242.39 120.878 242.264 120.542L242.075 120.017C241.627 121.277 241.193 122.362 240.773 123.272L239.177 126.716ZM251.001 131V117.392H253.479L258.351 124.07C258.631 124.462 258.946 124.931 259.296 125.477C259.646 126.009 259.919 126.443 260.115 126.779L260.43 127.283V117.392H262.866V131H260.346L255.705 124.658C255.355 124.182 254.991 123.657 254.613 123.083C254.235 122.495 253.941 122.033 253.731 121.697L253.437 121.193V131H251.001ZM268.326 128.9H271.119C272.547 128.9 273.702 128.459 274.584 127.577C275.466 126.695 275.907 125.568 275.907 124.196C275.907 122.824 275.466 121.697 274.584 120.815C273.702 119.933 272.547 119.492 271.119 119.492H268.326V128.9ZM265.89 131V117.392H271.224C273.38 117.392 275.123 118.05 276.453 119.366C277.783 120.668 278.448 122.278 278.448 124.196C278.448 126.114 277.783 127.731 276.453 129.047C275.123 130.349 273.38 131 271.224 131H265.89ZM286.398 131V117.392H288.876L293.748 124.07C294.028 124.462 294.343 124.931 294.693 125.477C295.043 126.009 295.316 126.443 295.512 126.779L295.827 127.283V117.392H298.263V131H295.743L291.102 124.658C290.752 124.182 290.388 123.657 290.01 123.083C289.632 122.495 289.338 122.033 289.128 121.697L288.834 121.193V131H286.398ZM301.286 131V117.392H311.849V119.492H303.722V122.81H311.387V124.889H303.722V128.9H312.143V131H301.286ZM314.329 131V117.392H324.892V119.492H316.765V122.81H324.43V124.889H316.765V128.9H325.186V131H314.329ZM329.808 128.9H332.601C334.029 128.9 335.184 128.459 336.066 127.577C336.948 126.695 337.389 125.568 337.389 124.196C337.389 122.824 336.948 121.697 336.066 120.815C335.184 119.933 334.029 119.492 332.601 119.492H329.808V128.9ZM327.372 131V117.392H332.706C334.862 117.392 336.605 118.05 337.935 119.366C339.265 120.668 339.93 122.278 339.93 124.196C339.93 126.114 339.265 127.731 337.935 129.047C336.605 130.349 334.862 131 332.706 131H327.372ZM341.221 129.257L342.166 127.409C343.482 128.473 344.987 129.005 346.681 129.005C347.465 129.005 348.151 128.83 348.739 128.48C349.327 128.13 349.621 127.661 349.621 127.073C349.621 126.681 349.467 126.352 349.159 126.086C348.851 125.806 348.536 125.61 348.214 125.498C347.892 125.386 347.43 125.26 346.828 125.12C346.226 124.98 345.722 124.854 345.316 124.742C344.91 124.616 344.462 124.441 343.972 124.217C343.482 123.979 343.09 123.727 342.796 123.461C342.502 123.195 342.25 122.852 342.04 122.432C341.844 122.012 341.746 121.543 341.746 121.025C341.746 119.821 342.229 118.883 343.195 118.211C344.161 117.525 345.323 117.182 346.681 117.182C348.459 117.182 350.069 117.672 351.511 118.652L350.566 120.521C349.376 119.765 348.081 119.387 346.681 119.387C346.331 119.387 345.981 119.436 345.631 119.534C345.281 119.618 344.959 119.793 344.665 120.059C344.371 120.311 344.224 120.626 344.224 121.004C344.224 121.494 344.448 121.865 344.896 122.117C345.358 122.369 346.086 122.614 347.08 122.852C347.822 123.02 348.459 123.209 348.991 123.419C349.523 123.615 350.048 123.874 350.566 124.196C351.084 124.504 351.476 124.903 351.742 125.393C352.022 125.883 352.162 126.443 352.162 127.073C352.162 128.403 351.616 129.425 350.524 130.139C349.432 130.853 348.144 131.21 346.66 131.21C344.434 131.21 342.621 130.559 341.221 129.257Z" fill="white"/>
</g>
<defs>
<linearGradient id="paint0_linear_1_555" x1="543.07" y1="-569" x2="543.07" y2="526" gradientUnits="userSpaceOnUse">
<stop stop-color="#13519C"/>
<stop offset="1" stop-color="#102770"/>
</linearGradient>
<linearGradient id="paint1_linear_1_555" x1="740.461" y1="144.238" x2="1096.8" y2="46.4014" gradientUnits="userSpaceOnUse">
<stop stop-color="#DCDCDC" stop-opacity="0"/>
<stop offset="0.223958" stop-color="#DCDCDC"/>
<stop offset="0.552083" stop-color="#DCDCDC" stop-opacity="0.910569"/>
<stop offset="1" stop-color="#DCDCDC" stop-opacity="0"/>
</linearGradient>
<linearGradient id="paint2_linear_1_555" x1="833.992" y1="198.418" x2="1190.34" y2="100.581" gradientUnits="userSpaceOnUse">
<stop stop-color="#DCDCDC" stop-opacity="0"/>
<stop offset="0.223958" stop-color="#DCDCDC"/>
<stop offset="0.552083" stop-color="#DCDCDC" stop-opacity="0.910569"/>
<stop offset="1" stop-color="#DCDCDC" stop-opacity="0"/>
</linearGradient>
<clipPath id="clip0_1_555">
<rect width="1095" height="1095" fill="white" transform="translate(-5 -569)"/>
</clipPath>
</defs>
</svg>
