<svg width="234" height="31" viewBox="0 0 234 31" fill="none" xmlns="http://www.w3.org/2000/svg">
<path d="M234 2.56299L228.449 7.7421H221.564V10.5022H234L228.449 15.6813H221.595V19.0927H228.449L234 24.2719H215.609V2.56299H234Z" fill="url(#paint0_linear_55_675)"/>
<path d="M202.445 10.7502C204.058 10.7502 205.423 10.9466 206.539 11.3395C207.656 11.7116 208.555 12.2182 209.237 12.8591C209.94 13.5 210.447 14.2236 210.757 15.03C211.088 15.8363 211.253 16.6736 211.253 17.542C211.253 18.431 211.077 19.3097 210.726 20.1781C210.395 21.0464 209.847 21.8321 209.082 22.535C208.317 23.238 207.314 23.8066 206.074 24.2407C204.833 24.6749 203.324 24.892 201.546 24.892C200.678 24.892 199.84 24.799 199.034 24.6129C198.228 24.4475 197.483 24.2201 196.801 23.9306C196.119 23.6412 195.499 23.3207 194.94 22.9692C194.403 22.6177 193.938 22.2559 193.545 21.8838L197.7 18.1002C198.114 18.5758 198.652 18.9686 199.313 19.2787C199.975 19.5682 200.791 19.7129 201.763 19.7129C202.88 19.7129 203.738 19.5371 204.337 19.1857C204.957 18.8135 205.268 18.4104 205.268 17.9762C205.268 17.5006 204.916 17.0665 204.213 16.6736C203.51 16.2808 202.404 16.0844 200.895 16.0844C199.261 16.0844 197.887 15.8983 196.77 15.5262C195.654 15.1333 194.744 14.6268 194.041 14.0066C193.359 13.3656 192.862 12.642 192.552 11.8357C192.242 11.0087 192.087 10.1713 192.087 9.32364C192.087 8.43461 192.253 7.55592 192.583 6.68756C192.935 5.79854 193.493 5.00254 194.258 4.29959C195.023 3.59664 196.026 3.02807 197.266 2.59389C198.507 2.15972 200.016 1.94263 201.794 1.94263C202.662 1.94263 203.5 2.03567 204.306 2.22174C205.112 2.38714 205.857 2.61457 206.539 2.90402C207.221 3.19347 207.831 3.51394 208.369 3.86541C208.927 4.21689 209.403 4.5787 209.795 4.95086L205.64 8.7344C205.226 8.25887 204.689 7.87638 204.027 7.58693C203.365 7.2768 202.549 7.12174 201.577 7.12174C200.461 7.12174 199.592 7.30782 198.972 7.67997C198.372 8.03145 198.073 8.42427 198.073 8.85845C198.073 9.33398 198.424 9.76816 199.127 10.161C199.83 10.5538 200.936 10.7502 202.445 10.7502Z" fill="url(#paint1_linear_55_675)"/>
<path d="M166.474 24.2719V17.1389L172.149 11.9288H179.096C180.026 11.9288 180.719 11.7117 181.174 11.2775C181.629 10.8434 181.856 10.3575 181.856 9.81995C181.856 9.2824 181.629 8.80687 181.174 8.39337C180.719 7.95919 180.026 7.7421 179.096 7.7421H170.816L166.474 2.56299H179.995C181.298 2.56299 182.435 2.78008 183.407 3.21425C184.378 3.62776 185.185 4.17565 185.826 4.85792C186.487 5.5402 186.973 6.31552 187.283 7.18388C187.614 8.05223 187.779 8.94126 187.779 9.85097C187.779 10.5332 187.686 11.2052 187.5 11.8668C187.314 12.5077 187.046 13.128 186.694 13.7275C186.343 14.3065 185.898 14.8337 185.36 15.3092C184.823 15.764 184.192 16.1465 183.469 16.4567L188.369 24.2719H182.414L177.948 17.1079H172.428V24.2719H166.474Z" fill="url(#paint2_linear_55_675)"/>
<path d="M162.144 2.56299L159.267 7.7421H149.708V10.5022H162.144L156.593 15.6813H149.739V19.0927H156.593L162.144 24.2719H143.753V2.56299H162.144Z" fill="url(#paint3_linear_55_675)"/>
<path d="M120.118 12.4003L125.646 8.76552L128.561 19.1548L133.306 4.86393L139.416 2.56299L133.306 24.2719H123.816L120.118 12.4003Z" fill="url(#paint4_linear_55_675)"/>
<path d="M103.315 2.56299V19.0927H115.72V24.2719H97.3296V8.11426L103.315 2.56299Z" fill="#1D1D1D"/>
<path d="M93.5889 2.56299L87.4711 7.7421H81.1528V10.5022H93.5889L88.0376 15.6813H81.1838V19.0927H85.9371L93.5889 24.2719H75.1984V2.56299H93.5889Z" fill="#1D1D1D"/>
<path d="M64.2894 24.2719V2.56299L70.2439 6.13112V24.2719H64.2894Z" fill="#1D1D1D"/>
<path d="M38.0559 24.2719V17.1389L43.7312 11.9288H50.6781C51.6084 11.9288 52.3011 11.7117 52.7559 11.2775C53.2108 10.8434 53.4382 10.3575 53.4382 9.81995C53.4382 9.2824 53.2108 8.80687 52.7559 8.39337C52.3011 7.95919 51.6084 7.7421 50.6781 7.7421H42.3977L38.0559 2.56299H51.5774C52.88 2.56299 54.0171 2.78008 54.9888 3.21425C55.9606 3.62776 56.7669 4.17565 57.4078 4.85792C58.0694 5.5402 58.5553 6.31552 58.8654 7.18388C59.1962 8.05223 59.3616 8.94126 59.3616 9.85097C59.3616 10.5332 59.2686 11.2052 59.0825 11.8668C58.8964 12.5077 58.6276 13.128 58.2762 13.7275C57.9247 14.3065 57.4802 14.8337 56.9426 15.3092C56.4051 15.764 55.7745 16.1465 55.0509 16.4567L59.9509 24.2719H53.9964L49.5306 17.1079H44.0103V24.2719H38.0559Z" fill="#1D1D1D"/>
<mask id="mask0_55_675" style="mask-type:luminance" maskUnits="userSpaceOnUse" x="5" y="10" width="32" height="21">
<path d="M15.5814 15.5813L10.3876 10.3876L5.19385 15.5813L10.3876 20.7751L15.5814 25.9689L18.9231 29.3106C20.4439 30.8314 21.0283 30.9095 22.5834 29.3543L25.9688 25.9689L31.1626 20.7751L36.3564 15.5814L31.1626 10.3876L25.9688 15.5814C24.9549 16.5953 22.1347 19.7707 20.7751 19.7707C19.4156 19.7707 16.5953 16.5953 15.5814 15.5813Z" fill="white"/>
</mask>
<g mask="url(#mask0_55_675)">
<path d="M36.3566 10.3875H5.19403V30.9093H36.3566V10.3875Z" fill="url(#paint5_linear_55_675)"/>
</g>
<mask id="mask1_55_675" style="mask-type:luminance" maskUnits="userSpaceOnUse" x="0" y="0" width="16" height="20">
<path d="M11.2867 9.48875L15.5813 5.19413L10.3875 0.000366211L5.19378 5.19413L0 10.3879L5.19378 15.5816L8.68127 19.0691C6.98043 15.4787 8.75309 12.0223 11.2867 9.48875Z" fill="white"/>
</mask>
<g mask="url(#mask1_55_675)">
<path d="M15.5813 0.000488281L0 0.000488281L0 19.0693H15.5813V0.000488281Z" fill="url(#paint6_linear_55_675)"/>
</g>
<mask id="mask2_55_675" style="mask-type:luminance" maskUnits="userSpaceOnUse" x="15" y="0" width="11" height="11">
<path d="M20.7759 10.3874L25.9695 5.19373L20.7758 2.55038e-05L15.5822 5.19371L20.7759 10.3874Z" fill="white"/>
</mask>
<g mask="url(#mask2_55_675)">
<path d="M25.9691 0.00012207L15.5816 0.00012207V10.3876H25.9691V0.00012207Z" fill="url(#paint7_linear_55_675)"/>
</g>
<mask id="mask3_55_675" style="mask-type:luminance" maskUnits="userSpaceOnUse" x="25" y="0" width="17" height="20">
<path d="M30.2635 9.4885L25.9689 5.19388L31.1627 0.00012207L36.3564 5.19388L41.5502 10.3876L36.3564 15.5814L32.8689 19.0689C34.5698 15.4785 32.7971 12.0221 30.2635 9.4885Z" fill="white"/>
</mask>
<g mask="url(#mask3_55_675)">
<path d="M41.5505 0.00012207L25.9692 0.00012207V19.0689H41.5505V0.00012207Z" fill="url(#paint8_linear_55_675)"/>
</g>
<mask id="mask4_55_675" style="mask-type:luminance" maskUnits="userSpaceOnUse" x="8" y="10" width="4" height="10">
<path d="M11.464 10.4246H8.00995V19.0689H11.464V10.4246Z" fill="url(#paint9_linear_55_675)"/>
</mask>
<g mask="url(#mask4_55_675)">
<path fill-rule="evenodd" clip-rule="evenodd" d="M8.68131 19.069C8.68131 19.069 7.68718 14.8306 11.4639 11.4641L10.4245 10.4247C8.38252 12.8414 7.18159 15.9031 8.68131 19.069Z" fill="#102770"/>
</g>
<mask id="mask5_55_675" style="mask-type:luminance" maskUnits="userSpaceOnUse" x="30" y="10" width="4" height="10">
<path d="M33.5407 10.4246H30.0865V19.0689H33.5407V10.4246Z" fill="url(#paint10_linear_55_675)"/>
</mask>
<g mask="url(#mask5_55_675)">
<path fill-rule="evenodd" clip-rule="evenodd" d="M32.8688 19.0689C32.8688 19.0689 33.863 14.8305 30.0863 11.4639L31.1257 10.4246C33.1676 12.8413 34.3686 15.903 32.8688 19.0689Z" fill="#102770"/>
</g>
<mask id="mask6_55_675" style="mask-type:luminance" maskUnits="userSpaceOnUse" x="12" y="23" width="17" height="8">
<path d="M28.5657 23.3719H12.9844V30.4864H28.5657V23.3719Z" fill="url(#paint11_linear_55_675)"/>
</mask>
<g mask="url(#mask6_55_675)">
<path fill-rule="evenodd" clip-rule="evenodd" d="M28.5658 23.3721C20.1846 28.3963 12.9846 23.3721 12.9846 23.3721L15.5814 25.969L18.9232 29.3107C20.444 30.8315 21.0284 30.9096 22.5835 29.3544L25.9689 25.969L28.5658 23.3721Z" fill="#39D4FF"/>
</g>
<mask id="mask7_55_675" style="mask-type:luminance" maskUnits="userSpaceOnUse" x="25" y="0" width="17" height="11">
<path d="M41.5502 0.00012207L25.9689 0.00012207V10.3877H41.5502V0.00012207Z" fill="url(#paint12_linear_55_675)"/>
</mask>
<g mask="url(#mask7_55_675)">
<path fill-rule="evenodd" clip-rule="evenodd" d="M25.9692 5.19389C25.9692 5.19389 35.311 5.22563 41.5505 10.3876L36.3567 5.19389L31.163 0.00012207L25.9692 5.19389Z" fill="#EBF855"/>
</g>
<mask id="mask8_55_675" style="mask-type:luminance" maskUnits="userSpaceOnUse" x="0" y="0" width="16" height="11">
<path d="M15.5813 0.000366211L0 0.000366211L0 10.3879H15.5813V0.000366211Z" fill="url(#paint13_linear_55_675)"/>
</mask>
<g mask="url(#mask8_55_675)">
<path fill-rule="evenodd" clip-rule="evenodd" d="M15.5813 5.19413C15.5813 5.19413 6.23949 5.22587 0 10.3879L5.19378 5.19413L10.3875 0.000366211L15.5813 5.19413Z" fill="#EBF855"/>
</g>
<mask id="mask9_55_675" style="mask-type:luminance" maskUnits="userSpaceOnUse" x="15" y="0" width="11" height="6">
<path d="M25.9688 0.00012207L15.5812 0.00012207V5.19388H25.9688V0.00012207Z" fill="url(#paint14_linear_55_675)"/>
</mask>
<g mask="url(#mask9_55_675)">
<path fill-rule="evenodd" clip-rule="evenodd" d="M15.5811 5.19388C15.5811 5.19388 22.1431 4.83088 25.9686 5.19388L20.7748 0.00012207L15.5811 5.19388Z" fill="#EBF855"/>
</g>
<defs>
<linearGradient id="paint0_linear_55_675" x1="36.3502" y1="10.3995" x2="235.098" y2="10.3995" gradientUnits="userSpaceOnUse">
<stop stop-color="#C5E459"/>
<stop offset="1" stop-color="#8DC14B"/>
</linearGradient>
<linearGradient id="paint1_linear_55_675" x1="36.3503" y1="10.3994" x2="235.098" y2="10.3994" gradientUnits="userSpaceOnUse">
<stop stop-color="#C5E459"/>
<stop offset="1" stop-color="#8DC14B"/>
</linearGradient>
<linearGradient id="paint2_linear_55_675" x1="36.3502" y1="10.3995" x2="235.098" y2="10.3995" gradientUnits="userSpaceOnUse">
<stop stop-color="#C5E459"/>
<stop offset="1" stop-color="#8DC14B"/>
</linearGradient>
<linearGradient id="paint3_linear_55_675" x1="36.3501" y1="10.3995" x2="235.098" y2="10.3995" gradientUnits="userSpaceOnUse">
<stop stop-color="#C5E459"/>
<stop offset="1" stop-color="#8DC14B"/>
</linearGradient>
<linearGradient id="paint4_linear_55_675" x1="36.3502" y1="10.3995" x2="235.098" y2="10.3995" gradientUnits="userSpaceOnUse">
<stop stop-color="#C5E459"/>
<stop offset="1" stop-color="#8DC14B"/>
</linearGradient>
<linearGradient id="paint5_linear_55_675" x1="20.7753" y1="12.8395" x2="20.7753" y2="30.486" gradientUnits="userSpaceOnUse">
<stop stop-color="#003780"/>
<stop offset="1" stop-color="#2983D3"/>
</linearGradient>
<linearGradient id="paint6_linear_55_675" x1="7.72885" y1="15.6114" x2="7.88643" y2="0.120549" gradientUnits="userSpaceOnUse">
<stop stop-color="#007B70"/>
<stop offset="1" stop-color="#EBF855"/>
</linearGradient>
<linearGradient id="paint7_linear_55_675" x1="20.8046" y1="11.6665" x2="20.7517" y2="-0.0349229" gradientUnits="userSpaceOnUse">
<stop stop-color="#007B70"/>
<stop offset="1" stop-color="#EBF855"/>
</linearGradient>
<linearGradient id="paint8_linear_55_675" x1="33.8216" y1="15.6111" x2="33.664" y2="0.120144" gradientUnits="userSpaceOnUse">
<stop stop-color="#007B70"/>
<stop offset="1" stop-color="#EBF855"/>
</linearGradient>
<linearGradient id="paint9_linear_55_675" x1="11.2386" y1="8.74031" x2="8.57154" y2="19.4086" gradientUnits="userSpaceOnUse">
<stop stop-color="white"/>
<stop offset="1"/>
</linearGradient>
<linearGradient id="paint10_linear_55_675" x1="30.312" y1="8.74021" x2="32.979" y2="19.4085" gradientUnits="userSpaceOnUse">
<stop stop-color="white"/>
<stop offset="1"/>
</linearGradient>
<linearGradient id="paint11_linear_55_675" x1="20.775" y1="37.4104" x2="20.775" y2="23.3324" gradientUnits="userSpaceOnUse">
<stop stop-color="white"/>
<stop offset="1"/>
</linearGradient>
<linearGradient id="paint12_linear_55_675" x1="35.5535" y1="-1.98113" x2="32.8425" y2="8.86144" gradientUnits="userSpaceOnUse">
<stop stop-color="white"/>
<stop offset="1"/>
</linearGradient>
<linearGradient id="paint13_linear_55_675" x1="5.99671" y1="-1.98088" x2="8.70766" y2="8.86168" gradientUnits="userSpaceOnUse">
<stop stop-color="white"/>
<stop offset="1"/>
</linearGradient>
<linearGradient id="paint14_linear_55_675" x1="20.775" y1="-3.64419" x2="20.775" y2="6.93619" gradientUnits="userSpaceOnUse">
<stop stop-color="white"/>
<stop offset="1"/>
</linearGradient>
</defs>
</svg>
