<svg width="38" height="38" viewBox="0 0 38 38" fill="none" xmlns="http://www.w3.org/2000/svg">
<path d="M29.3669 18.5309C28.979 16.003 27.6975 13.698 25.755 12.0344C23.8125 10.3708 21.3378 9.45895 18.7803 9.46438C15.9364 9.46438 13.2089 10.5941 11.1979 12.6051C9.18694 14.6161 8.05719 17.3436 8.05719 20.1875C8.05719 23.0315 9.18694 25.7589 11.1979 27.7699C13.2089 29.7809 15.9364 30.9106 18.7803 30.9106C20.789 30.9159 22.7577 30.3496 24.4566 29.2778C25.7609 28.4634 26.8749 27.3781 27.7231 26.0956C28.5713 24.813 29.1339 23.3631 29.3728 21.8441C29.4541 21.2956 29.4958 20.742 29.4975 20.1875C29.4957 19.6328 29.4521 19.0791 29.3669 18.5309ZM18.7803 27.835C17.2678 27.835 15.7892 27.3865 14.5316 26.5462C13.274 25.7059 12.2938 24.5115 11.7149 23.1141C11.1361 21.7167 10.9847 20.179 11.2798 18.6956C11.5748 17.2121 12.3032 15.8494 13.3727 14.7799C14.4422 13.7104 15.8049 12.982 17.2884 12.6869C18.7718 12.3919 20.3095 12.5433 21.7069 13.1221C23.1043 13.701 24.2987 14.6812 25.139 15.9388C25.9793 17.1964 26.4278 18.675 26.4278 20.1875C26.4286 21.192 26.2313 22.1868 25.8473 23.115C25.4632 24.0432 24.8999 24.8866 24.1897 25.5968C23.4794 26.3071 22.636 26.8704 21.7078 27.2545C20.7796 27.6385 19.7848 27.8358 18.7803 27.835Z" fill="#2553E4"/>
<path d="M26.4278 20.1875C26.429 21.7017 25.9809 23.1822 25.1404 24.4417C24.2999 25.7012 23.1047 26.6831 21.7059 27.2631C20.3072 27.8431 18.7679 27.9952 17.2827 27.7001C15.7975 27.405 14.4333 26.6759 13.3626 25.6052C12.2918 24.5345 11.5628 23.1702 11.2677 21.6851C10.9726 20.1999 11.1246 18.6606 11.7046 17.2618C12.2846 15.8631 13.2665 14.6679 14.526 13.8273C15.7855 12.9868 17.2661 12.5388 18.7803 12.54C20.8085 12.54 22.7537 13.3457 24.1879 14.7799C25.6221 16.2141 26.4278 18.1592 26.4278 20.1875Z" fill="#EDF8FC"/>
<path d="M24.4566 11.0853C22.753 10.0224 20.7853 9.45894 18.7774 9.45894C16.7694 9.45894 14.8017 10.0224 13.0981 11.0853L14.2856 3.60999H23.2513L24.4566 11.0853ZM24.4566 29.2778L23.2691 36.7531H14.2916L13.1041 29.2778C14.806 30.3454 16.7743 30.9116 18.7833 30.9116C20.7923 30.9116 22.7606 30.3454 24.4625 29.2778H24.4566Z" fill="#2553E4" fill-opacity="0.5"/>
<path d="M31.3916 19.6294V20.7456C31.3916 21.3394 31.0888 21.8441 30.7206 21.8441H29.3728C29.4331 21.294 29.4628 20.7409 29.4619 20.1875C29.4633 19.632 29.4316 19.0768 29.3669 18.525H30.7206C31.0888 18.531 31.3916 19 31.3916 19.6294Z" fill="#EDF8FC"/>
<path d="M17.5928 30.02C15.4852 30.0176 13.4224 29.4111 11.6488 28.2724C9.87524 27.1338 8.46517 25.5107 7.58563 23.5953C6.70609 21.68 6.39393 19.5527 6.68614 17.4654C6.97834 15.3781 7.86267 13.4183 9.23435 11.8182C10.606 10.218 12.4076 9.04448 14.4257 8.43664C16.4438 7.82879 18.5938 7.81209 20.6211 8.3885C22.6483 8.96492 24.4679 10.1103 25.8643 11.689C27.2607 13.2676 28.1754 15.2135 28.5 17.2959C28.5804 17.8603 28.6161 18.4301 28.6069 19C28.6053 21.9212 27.4446 24.7223 25.3795 26.7885C23.3145 28.8546 20.514 30.0169 17.5928 30.02ZM17.5928 8.57376C14.8276 8.57376 12.1756 9.67223 10.2203 11.6275C8.26502 13.5828 7.16654 16.2348 7.16654 19C7.16654 21.7652 8.26502 24.4172 10.2203 26.3725C12.1756 28.3278 14.8276 29.4263 17.5928 29.4263C20.079 29.4245 22.4832 28.5364 24.3735 26.9215C26.2638 25.3065 27.5163 23.0705 27.9062 20.615C27.9837 20.0821 28.0234 19.5444 28.025 19.0059C28.0277 18.4653 27.988 17.9253 27.9062 17.3909C27.5291 14.9292 26.2804 12.6848 24.3874 11.0665C22.4945 9.44815 20.0832 8.56354 17.5928 8.57376ZM17.5928 26.9444C16.0213 26.9456 14.4847 26.4806 13.1775 25.6084C11.8703 24.7362 10.8511 23.4958 10.2489 22.0443C9.64671 20.5928 9.48854 18.9952 9.79441 17.4538C10.1003 15.9123 10.8564 14.4962 11.9672 13.3846C13.078 12.273 14.4936 11.5157 16.0348 11.2087C17.576 10.9017 19.1737 11.0587 20.6257 11.6598C22.0777 12.2609 23.3187 13.2792 24.1919 14.5857C25.0651 15.8923 25.5312 17.4285 25.5312 19C25.5297 21.1055 24.693 23.1243 23.2047 24.6137C21.7165 26.103 19.6983 26.9412 17.5928 26.9444ZM17.5928 11.6494C16.1387 11.6482 14.717 12.0783 13.5074 12.8853C12.2978 13.6923 11.3547 14.8399 10.7975 16.1829C10.2402 17.526 10.0938 19.0041 10.3767 20.4304C10.6597 21.8567 11.3593 23.167 12.3871 24.1956C13.4148 25.2242 14.7246 25.9248 16.1506 26.209C17.5767 26.4931 19.0549 26.3478 20.3984 25.7917C21.7419 25.2355 22.8903 24.2933 23.6983 23.0844C24.5062 21.8755 24.9375 20.4541 24.9375 19C24.9343 17.0525 24.1597 15.1856 22.7832 13.8079C21.4066 12.4302 19.5403 11.6541 17.5928 11.6494Z" fill="#2553E4"/>
<path d="M17.5928 26.9444C16.0213 26.9455 14.4848 26.4806 13.1776 25.6084C11.8703 24.7361 10.8512 23.4958 10.249 22.0443C9.64675 20.5927 9.48858 18.9952 9.79445 17.4538C10.1003 15.9123 10.8565 14.4962 11.9673 13.3846C13.0781 12.2729 14.4936 11.5157 16.0348 11.2087C17.5761 10.9017 19.1737 11.0587 20.6257 11.6598C22.0777 12.2609 23.3188 13.2791 24.192 14.5857C25.0652 15.8923 25.5313 17.4285 25.5313 19C25.5297 21.1054 24.693 23.1243 23.2048 24.6137C21.7165 26.103 19.6983 26.9412 17.5928 26.9444ZM17.5928 11.6494C16.1388 11.6482 14.717 12.0783 13.5074 12.8853C12.2978 13.6923 11.3548 14.8399 10.7975 16.1829C10.2402 17.5259 10.0938 19.0041 10.3768 20.4304C10.6597 21.8566 11.3594 23.167 12.3871 24.1956C13.4149 25.2241 14.7246 25.9248 16.1507 26.2089C17.5767 26.493 19.055 26.3478 20.3985 25.7916C21.742 25.2355 22.8903 24.2933 23.6983 23.0844C24.5063 21.8755 24.9375 20.454 24.9375 19C24.9344 17.0525 24.1598 15.1855 22.7832 13.8079C21.4067 12.4302 19.5403 11.6541 17.5928 11.6494Z" fill="#2553E4"/>
<path d="M11.9106 10.2066C11.8509 10.207 11.7926 10.1883 11.7444 10.1531C11.6977 10.1216 11.6607 10.0776 11.6377 10.0262C11.6146 9.97485 11.6063 9.91804 11.6137 9.86219L12.8131 2.375C12.8231 2.30468 12.8579 2.24025 12.9113 2.19341C12.9646 2.14657 13.033 2.12041 13.1041 2.11969H22.0697C22.1414 2.12021 22.2106 2.14615 22.2649 2.19291C22.3193 2.23966 22.3553 2.30419 22.3666 2.375L23.5541 9.8325C23.5634 9.88932 23.5561 9.94764 23.5329 10.0004C23.5097 10.0531 23.4717 10.0979 23.4234 10.1294C23.3762 10.1615 23.3203 10.1787 23.2631 10.1787C23.2059 10.1787 23.1501 10.1615 23.1028 10.1294C21.4459 9.09732 19.533 8.55027 17.5809 8.55027C15.6289 8.55027 13.7159 9.09732 12.0591 10.1294C12.018 10.1688 11.9665 10.1956 11.9106 10.2066ZM13.3594 2.73125L12.3025 9.33375C13.9245 8.44926 15.7424 7.9858 17.5898 7.9858C19.4373 7.9858 21.2552 8.44926 22.8772 9.33375L21.8203 2.73125H13.3594ZM22.0697 35.8625H13.1041C13.033 35.8618 12.9646 35.8356 12.9113 35.7888C12.8579 35.7419 12.8231 35.6775 12.8131 35.6072L11.6256 28.1378C11.6169 28.0816 11.6245 28.024 11.6476 27.972C11.6707 27.9199 11.7083 27.8756 11.7558 27.8443C11.8034 27.8131 11.8589 27.7961 11.9158 27.7955C11.9728 27.7949 12.0287 27.8107 12.0769 27.8409C13.7348 28.8762 15.65 29.4255 17.6047 29.4263C19.5562 29.4297 21.4687 28.88 23.1206 27.8409C23.1685 27.8102 23.2241 27.7939 23.2809 27.7939C23.3378 27.7939 23.3934 27.8102 23.4412 27.8409C23.489 27.8715 23.5268 27.9152 23.55 27.9669C23.5732 28.0186 23.5808 28.0759 23.5719 28.1319L22.3666 35.625C22.3516 35.6925 22.314 35.7529 22.26 35.7962C22.206 35.8394 22.1388 35.8628 22.0697 35.8625ZM13.3594 35.2688H21.8203L22.8712 28.6722C21.2509 29.5583 19.4337 30.0227 17.5869 30.0227C15.74 30.0227 13.9229 29.5583 12.3025 28.6722L13.3594 35.2688Z" fill="#2553E4"/>
<path d="M17.5869 12.6765C17.5076 12.675 17.4321 12.6424 17.3766 12.5858C17.3211 12.5292 17.29 12.453 17.29 12.3737V11.3465C17.2916 11.2688 17.3235 11.1948 17.379 11.1404C17.4345 11.0861 17.5092 11.0556 17.5869 11.0556C17.6656 11.0556 17.7411 11.0869 17.7968 11.1426C17.8525 11.1982 17.8838 11.2737 17.8838 11.3525V12.3797C17.8838 12.4584 17.8525 12.5339 17.7968 12.5896C17.7411 12.6453 17.6656 12.6765 17.5869 12.6765ZM25.2403 19.3028H24.225C24.1463 19.3028 24.0708 19.2715 24.0151 19.2158C23.9594 19.1602 23.9281 19.0847 23.9281 19.0059C23.9281 18.9272 23.9594 18.8517 24.0151 18.796C24.0708 18.7403 24.1463 18.709 24.225 18.709H25.2344C25.3131 18.709 25.3886 18.7403 25.4443 18.796C25.5 18.8517 25.5313 18.9272 25.5313 19.0059C25.5313 19.0836 25.5008 19.1583 25.4464 19.2138C25.392 19.2693 25.318 19.3012 25.2403 19.3028ZM10.9488 19.3028H9.93939C9.86066 19.3028 9.78514 19.2715 9.72947 19.2158C9.67379 19.1602 9.64252 19.0847 9.64252 19.0059C9.64252 18.9272 9.67379 18.8517 9.72947 18.796C9.78514 18.7403 9.86066 18.709 9.93939 18.709H10.9488C11.0275 18.709 11.103 18.7403 11.1587 18.796C11.2144 18.8517 11.2456 18.9272 11.2456 19.0059C11.2456 19.0847 11.2144 19.1602 11.1587 19.2158C11.103 19.2715 11.0275 19.3028 10.9488 19.3028ZM17.5928 26.9444C17.5541 26.9451 17.5157 26.9382 17.4797 26.9239C17.4437 26.9097 17.4109 26.8884 17.3833 26.8613C17.3556 26.8342 17.3336 26.8018 17.3187 26.7661C17.3037 26.7305 17.2959 26.6921 17.296 26.6534V25.6262C17.296 25.5475 17.3272 25.472 17.3829 25.4163C17.4386 25.3606 17.5141 25.3294 17.5928 25.3294C17.6716 25.3294 17.7471 25.3606 17.8028 25.4163C17.8584 25.472 17.8897 25.5475 17.8897 25.6262V26.6475C17.8897 26.7262 17.8584 26.8017 17.8028 26.8574C17.7471 26.9131 17.6716 26.9444 17.5928 26.9444ZM17.5869 21.6303C17.5082 21.6303 17.4326 21.599 17.377 21.5433C17.3213 21.4877 17.29 21.4122 17.29 21.3334V19.1247L14.06 15.9006C14.0322 15.873 14.0101 15.8402 13.995 15.804C13.98 15.7678 13.9722 15.729 13.9722 15.6898C13.9722 15.6506 13.98 15.6118 13.995 15.5757C14.0101 15.5395 14.0322 15.5066 14.06 15.479C14.1165 15.4243 14.1921 15.3936 14.2708 15.3936C14.3495 15.3936 14.4251 15.4243 14.4816 15.479L17.8125 18.7922C17.8663 18.8479 17.8961 18.9225 17.8956 19V21.3334C17.8957 21.3734 17.8876 21.413 17.872 21.4498C17.8563 21.4867 17.8334 21.5199 17.8045 21.5477C17.7757 21.5754 17.7416 21.597 17.7042 21.6112C17.6668 21.6254 17.6269 21.6319 17.5869 21.6303ZM19.2494 6.05029H15.9303C15.8516 6.05029 15.7761 6.01902 15.7204 5.96334C15.6647 5.90767 15.6335 5.83215 15.6335 5.75342C15.6335 5.67468 15.6647 5.59917 15.7204 5.5435C15.7761 5.48782 15.8516 5.45654 15.9303 5.45654H19.2494C19.3281 5.45654 19.4036 5.48782 19.4593 5.5435C19.515 5.59917 19.5463 5.67468 19.5463 5.75342C19.5463 5.83215 19.515 5.90767 19.4593 5.96334C19.4036 6.01902 19.3281 6.05029 19.2494 6.05029ZM19.2494 32.5494H15.9303C15.8516 32.5494 15.7761 32.5181 15.7204 32.4624C15.6647 32.4067 15.6335 32.3312 15.6335 32.2525C15.6335 32.1737 15.6647 32.0982 15.7204 32.0426C15.7761 31.9869 15.8516 31.9556 15.9303 31.9556H19.2494C19.3281 31.9556 19.4036 31.9869 19.4593 32.0426C19.515 32.0982 19.5463 32.1737 19.5463 32.2525C19.5447 32.3307 19.513 32.4054 19.4576 32.4607C19.4023 32.5161 19.3277 32.5478 19.2494 32.5494Z" fill="#A6A6A6"/>
<path d="M29.5331 20.9535H28.1853C28.1432 20.9535 28.1016 20.9451 28.0629 20.9288C28.0241 20.9125 27.989 20.8886 27.9597 20.8585C27.9325 20.8268 27.9121 20.79 27.8999 20.7501C27.8876 20.7103 27.8837 20.6683 27.8884 20.6269C27.9474 20.0866 27.9771 19.5435 27.9775 19C27.9867 18.4588 27.9629 17.9174 27.9062 17.3791C27.9008 17.3376 27.9043 17.2955 27.9166 17.2555C27.9289 17.2156 27.9497 17.1787 27.9775 17.1475C28.0056 17.1155 28.0403 17.0899 28.0793 17.0725C28.1182 17.055 28.1604 17.0462 28.2031 17.0466H29.5568C30.0972 17.0466 30.5247 17.6403 30.5247 18.4419V19.5581C30.5009 20.3419 30.0734 20.9535 29.5331 20.9535ZM28.5118 20.3597H29.5331C29.6815 20.3597 29.9072 20.0391 29.9072 19.5581V18.4419C29.9072 17.961 29.6815 17.6403 29.5331 17.6403H28.5C28.5457 18.0941 28.5675 18.5499 28.5653 19.006C28.5712 19.4513 28.5534 19.9085 28.5 20.3597H28.5118Z" fill="#2553E4"/>
</svg>
