<svg width="33" height="33" viewBox="0 0 33 33" fill="none" xmlns="http://www.w3.org/2000/svg">
<g clip-path="url(#clip0_242_420)">
<path d="M7.21875 15.3217L16.9169 7.88953L25.745 15.3217V25.7813H7.21875V15.3217Z" fill="url(#paint0_linear_242_420)"/>
<path d="M10.5908 18.6934V7.79883C10.5908 7.47847 10.8505 7.21875 11.1709 7.21875H21.8479C22.1683 7.21875 22.428 7.47847 22.428 7.79883V18.6934L16.8836 23.5596C16.6644 23.752 16.3365 23.7517 16.1176 23.5591L10.5908 18.6934Z" fill="url(#paint1_linear_242_420)"/>
<path d="M16.535 9.89197C17.1621 9.89197 17.718 10.0209 18.2027 10.2789C18.6919 10.5324 19.0699 10.8792 19.3368 11.3195C19.608 11.7598 19.7437 12.2468 19.7437 12.7804C19.7437 13.1896 19.6725 13.5409 19.5302 13.8345C19.3923 14.1235 19.2034 14.3437 18.9632 14.4949C18.7275 14.6416 18.4651 14.715 18.176 14.715C17.9226 14.715 17.7069 14.6661 17.529 14.5683C17.3511 14.4704 17.2154 14.3259 17.1221 14.1346C16.9264 14.5216 16.5884 14.715 16.1081 14.715C15.8635 14.715 15.6322 14.6483 15.4143 14.5149C15.2008 14.377 15.0274 14.1813 14.8939 13.9279C14.7605 13.6744 14.6938 13.3831 14.6938 13.054C14.6938 12.7249 14.7583 12.4358 14.8873 12.1868C15.0207 11.9333 15.1941 11.7398 15.4076 11.6064C15.6256 11.4685 15.859 11.3996 16.1081 11.3996C16.4594 11.3996 16.7329 11.5086 16.9286 11.7265V11.4596H18.2094V13.3675C18.2094 13.6121 18.2961 13.7344 18.4695 13.7344C18.5763 13.7344 18.6586 13.6655 18.7164 13.5276C18.7787 13.3898 18.8098 13.1474 18.8098 12.8005C18.8098 12.4002 18.7141 12.0444 18.5229 11.7331C18.3361 11.4218 18.0693 11.1794 17.7224 11.006C17.38 10.8281 16.9842 10.7392 16.535 10.7392C16.0858 10.7392 15.6878 10.837 15.3409 11.0327C14.994 11.2239 14.725 11.4908 14.5337 11.8332C14.3425 12.1712 14.2469 12.5492 14.2469 12.9673C14.2469 13.3986 14.3403 13.7856 14.5271 14.128C14.7183 14.466 14.9851 14.7306 15.3276 14.9218C15.67 15.1131 16.0636 15.2087 16.5083 15.2087C16.9753 15.2087 17.4245 15.1108 17.8558 14.9151L18.136 15.7357C17.9359 15.8335 17.6868 15.9113 17.3889 15.9692C17.0953 16.027 16.8018 16.0559 16.5083 16.0559C15.8545 16.0559 15.2764 15.9202 14.7739 15.649C14.2758 15.3821 13.8911 15.0152 13.6198 14.5483C13.3486 14.0768 13.2129 13.5499 13.2129 12.9673C13.2129 12.3936 13.3486 11.8732 13.6198 11.4063C13.8955 10.9393 14.2847 10.5702 14.7872 10.2989C15.2898 10.0276 15.8723 9.89197 16.535 9.89197ZM16.4749 13.6677C16.6173 13.6677 16.7329 13.6143 16.8219 13.5076C16.9108 13.4008 16.9552 13.2497 16.9552 13.054C16.9552 12.8583 16.9108 12.7093 16.8219 12.607C16.7329 12.5003 16.6173 12.4469 16.4749 12.4469C16.3326 12.4469 16.217 12.5003 16.1281 12.607C16.0436 12.7093 16.0013 12.8583 16.0013 13.054C16.0013 13.2497 16.0436 13.4008 16.1281 13.5076C16.217 13.6143 16.3326 13.6677 16.4749 13.6677Z" fill="url(#paint2_linear_242_420)"/>
</g>
<defs>
<linearGradient id="paint0_linear_242_420" x1="16.4819" y1="7.88953" x2="16.4819" y2="25.7813" gradientUnits="userSpaceOnUse">
<stop stop-color="#8DC14B"/>
<stop offset="1" stop-color="#47740E"/>
</linearGradient>
<linearGradient id="paint1_linear_242_420" x1="16.5094" y1="7.21875" x2="16.5094" y2="23.896" gradientUnits="userSpaceOnUse">
<stop stop-color="#C5E459"/>
<stop offset="1" stop-color="#C5E459" stop-opacity="0.15"/>
</linearGradient>
<linearGradient id="paint2_linear_242_420" x1="14.3609" y1="10.5723" x2="15.8111" y2="16.6813" gradientUnits="userSpaceOnUse">
<stop stop-color="#8DC14B"/>
<stop offset="1" stop-color="#47740E"/>
</linearGradient>
<clipPath id="clip0_242_420">
<rect width="33" height="33" fill="white"/>
</clipPath>
</defs>
</svg>
