<svg width="40" height="41" viewBox="0 0 40 41" fill="none" xmlns="http://www.w3.org/2000/svg">
<g clip-path="url(#clip0_0_733)">
<g filter="url(#filter0_d_0_733)">
<path d="M20 31.814C27.647 31.814 33.8461 25.5562 33.8461 17.8368C33.8461 10.1173 27.647 3.8595 20 3.8595C12.3529 3.8595 6.15381 10.1173 6.15381 17.8368C6.15381 25.5562 12.3529 31.814 20 31.814Z" fill="white"/>
<path opacity="0.25" d="M15.1282 15.3778C15.1282 14.2914 16.0007 13.4106 17.0769 13.4106H22.9231C23.9993 13.4106 24.8717 14.2914 24.8717 15.3778V20.2957C24.8717 21.3822 23.9993 22.2629 22.9231 22.2629H17.0769C16.0007 22.2629 15.1282 21.3822 15.1282 20.2957V15.3778Z" fill="url(#paint0_linear_0_733)"/>
<path fill-rule="evenodd" clip-rule="evenodd" d="M16.7728 15.6651C16.8848 15.4957 17.1117 15.4498 17.2795 15.5628L19.1217 16.8026C19.6535 17.1605 20.3464 17.1605 20.8782 16.8026L22.7203 15.5628C22.8883 15.4498 23.1151 15.4957 23.227 15.6651C23.339 15.8346 23.2936 16.0637 23.1257 16.1766L21.2836 17.4163C20.5062 17.9395 19.4936 17.9395 18.7163 17.4163L16.8742 16.1766C16.7063 16.0637 16.6609 15.8346 16.7728 15.6651Z" fill="url(#paint1_linear_0_733)"/>
<path d="M30.1539 10.0716C31.5134 10.0716 32.6155 8.95912 32.6155 7.58678C32.6155 6.21443 31.5134 5.10193 30.1539 5.10193C28.7945 5.10193 27.6924 6.21443 27.6924 7.58678C27.6924 8.95912 28.7945 10.0716 30.1539 10.0716Z" fill="#13519C"/>
</g>
</g>
<defs>
<filter id="filter0_d_0_733" x="-3.84619" y="-2.1405" width="47.6924" height="47.9546" filterUnits="userSpaceOnUse" color-interpolation-filters="sRGB">
<feFlood flood-opacity="0" result="BackgroundImageFix"/>
<feColorMatrix in="SourceAlpha" type="matrix" values="0 0 0 0 0 0 0 0 0 0 0 0 0 0 0 0 0 0 127 0" result="hardAlpha"/>
<feOffset dy="4"/>
<feGaussianBlur stdDeviation="5"/>
<feColorMatrix type="matrix" values="0 0 0 0 0.0352941 0 0 0 0 0.117647 0 0 0 0 0.258824 0 0 0 0.03 0"/>
<feBlend mode="normal" in2="BackgroundImageFix" result="effect1_dropShadow_0_733"/>
<feBlend mode="normal" in="SourceGraphic" in2="effect1_dropShadow_0_733" result="shape"/>
</filter>
<linearGradient id="paint0_linear_0_733" x1="17.5266" y1="21.5347" x2="34.188" y2="1.22259" gradientUnits="userSpaceOnUse">
<stop stop-color="#13519C"/>
<stop offset="1" stop-color="white" stop-opacity="0"/>
</linearGradient>
<linearGradient id="paint1_linear_0_733" x1="18.3304" y1="17.6189" x2="20.8809" y2="9.56839" gradientUnits="userSpaceOnUse">
<stop stop-color="#13519C"/>
<stop offset="1" stop-color="white" stop-opacity="0"/>
</linearGradient>
<clipPath id="clip0_0_733">
<rect width="40" height="41" fill="white"/>
</clipPath>
</defs>
</svg>
