<svg width="35" height="35" viewBox="0 0 35 35" fill="none" xmlns="http://www.w3.org/2000/svg">
<g clip-path="url(#clip0_78_4856)">
<path d="M28 0H7C3.13401 0 0 3.13401 0 7V28C0 31.866 3.13401 35 7 35H28C31.866 35 35 31.866 35 28V7C35 3.13401 31.866 0 28 0Z" fill="#2983D3" fill-opacity="0.09"/>
<path d="M21.75 19.3534C21.75 19.0941 21.75 18.9645 21.789 18.849C21.9024 18.5133 22.2014 18.3831 22.5008 18.2467C22.8375 18.0933 23.0058 18.0166 23.1726 18.0031C23.362 17.9878 23.5517 18.0286 23.7135 18.1195C23.9281 18.2398 24.0777 18.4687 24.2309 18.6547C24.9384 19.5141 25.2922 19.9438 25.4216 20.4177C25.5261 20.8 25.5261 21.1999 25.4216 21.5823C25.2329 22.2734 24.6364 22.8528 24.1948 23.389C23.969 23.6633 23.8561 23.8005 23.7135 23.8805C23.5517 23.9713 23.362 24.0121 23.1726 23.9968C23.0058 23.9833 22.8375 23.9067 22.5008 23.7533C22.2014 23.6169 21.9024 23.4867 21.789 23.151C21.75 23.0355 21.75 22.9059 21.75 22.6466V19.3534Z" stroke="#1A45D6"/>
<path d="M16.125 24.75C17.1605 25.75 18.8395 25.75 19.875 24.75" stroke="#1A45D6" stroke-linecap="round" stroke-linejoin="round"/>
<path d="M14.25 19.3534C14.25 19.027 14.2408 18.7336 13.9769 18.5041C13.8809 18.4207 13.7537 18.3627 13.4992 18.2467C13.1625 18.0934 12.9942 18.0168 12.8274 18.0033C12.3269 17.9628 12.0577 18.3043 11.7691 18.6548C11.0616 19.5142 10.7078 19.9438 10.5783 20.4177C10.4739 20.8 10.4739 21.1999 10.5783 21.5823C10.7672 22.2734 11.3636 22.8526 11.8052 23.3889C12.0835 23.7269 12.3493 24.0354 12.8274 23.9967C12.9942 23.9832 13.1625 23.9065 13.4992 23.7532C13.7537 23.6373 13.8809 23.5793 13.9769 23.4958C14.2408 23.2663 14.25 22.973 14.25 22.6465V19.3534Z" stroke="#1A45D6"/>
<path d="M10.5 21V18C10.5 13.8579 13.8579 10.5 18 10.5C22.1421 10.5 25.5 13.8579 25.5 18L25.5001 21" stroke="#1A45D6" stroke-linecap="round" stroke-linejoin="round"/>
</g>
<defs>
<clipPath id="clip0_78_4856">
<rect width="35" height="35" fill="white"/>
</clipPath>
</defs>
</svg>
