<svg width="62" height="62" viewBox="0 0 62 62" fill="none" xmlns="http://www.w3.org/2000/svg">
<path d="M49.1035 6.35742H12.8965C10.8901 6.35742 9.26367 7.98389 9.26367 9.99023V57.459C9.26367 59.4653 10.8901 61.0918 12.8965 61.0918H49.1035C51.1099 61.0918 52.7363 59.4653 52.7363 57.459V9.99023C52.7363 7.98389 51.1099 6.35742 49.1035 6.35742Z" fill="#F4F5F3"/>
<path d="M45.4707 13.623H18.709C17.7058 13.623 16.8926 14.4363 16.8926 15.4395V19.0723C16.8926 20.0754 17.7058 20.8887 18.709 20.8887H45.4707C46.4739 20.8887 47.2871 20.0754 47.2871 19.0723V15.4395C47.2871 14.4363 46.4739 13.623 45.4707 13.623Z" fill="#DBDCDA"/>
<path d="M47.2871 15.4395V19.0723C47.2869 19.554 47.0955 20.0159 46.7549 20.3565C46.4143 20.6971 45.9524 20.8885 45.4707 20.8887H18.709C18.5313 20.8891 18.3546 20.863 18.1846 20.8112C17.8111 20.6985 17.4838 20.4685 17.2511 20.1554C17.0184 19.8422 16.8927 19.4624 16.8926 19.0723V15.4395C16.8927 14.9578 17.0842 14.4958 17.4248 14.1552C17.7654 13.8146 18.2273 13.6232 18.709 13.623H45.4707C45.9524 13.6232 46.4143 13.8146 46.7549 14.1552C47.0955 14.4958 47.2869 14.9578 47.2871 15.4395Z" fill="#DBDCDA"/>
<path d="M47.1959 38.2317H38.4075C38.1667 38.2317 37.9357 38.136 37.7653 37.9657C37.595 37.7954 37.4993 37.5644 37.4993 37.3235C37.4993 37.0826 37.595 36.8516 37.7653 36.6813C37.9357 36.511 38.1667 36.4153 38.4075 36.4153H47.1959C47.4368 36.4153 47.6678 36.511 47.8381 36.6813C48.0084 36.8516 48.1041 37.0826 48.1041 37.3235C48.1041 37.5644 48.0084 37.7954 47.8381 37.9657C47.6678 38.136 47.4368 38.2317 47.1959 38.2317ZM47.1959 43.0254H38.4075C38.1667 43.0254 37.9357 42.9297 37.7653 42.7594C37.595 42.5891 37.4993 42.3581 37.4993 42.1172C37.4993 41.8764 37.595 41.6453 37.7653 41.475C37.9357 41.3047 38.1667 41.209 38.4075 41.209H47.1959C47.4368 41.209 47.6678 41.3047 47.8381 41.475C48.0084 41.6453 48.1041 41.8764 48.1041 42.1172C48.1041 42.3581 48.0084 42.5891 47.8381 42.7594C47.6678 42.9297 47.4368 43.0254 47.1959 43.0254Z" fill="#2553E4"/>
<path d="M47.2646 27.2461H14.7129C14.472 27.2461 14.241 27.1504 14.0707 26.9801C13.9004 26.8098 13.8047 26.5788 13.8047 26.3379C13.8047 26.097 13.9004 25.866 14.0707 25.6957C14.241 25.5254 14.472 25.4297 14.7129 25.4297H47.2646C47.5055 25.4297 47.7365 25.5254 47.9068 25.6957C48.0771 25.866 48.1728 26.097 48.1728 26.3379C48.1728 26.5788 48.0771 26.8098 47.9068 26.9801C47.7365 27.1504 47.5055 27.2461 47.2646 27.2461ZM47.2646 32.6953H14.7129C14.472 32.6953 14.241 32.5996 14.0707 32.4293C13.9004 32.259 13.8047 32.028 13.8047 31.7871C13.8047 31.5462 13.9004 31.3152 14.0707 31.1449C14.241 30.9746 14.472 30.8789 14.7129 30.8789H47.2646C47.5055 30.8789 47.7365 30.9746 47.9068 31.1449C48.0771 31.3152 48.1728 31.5462 48.1728 31.7871C48.1728 32.028 48.0771 32.259 47.9068 32.4293C47.7365 32.5996 47.5055 32.6953 47.2646 32.6953ZM32.7333 38.1445H14.7129C14.472 38.1445 14.241 38.0488 14.0707 37.8785C13.9004 37.7082 13.8047 37.4772 13.8047 37.2363C13.8047 36.9955 13.9004 36.7645 14.0707 36.5941C14.241 36.4238 14.472 36.3281 14.7129 36.3281H32.7333C32.9742 36.3281 33.2052 36.4238 33.3755 36.5941C33.5459 36.7645 33.6415 36.9955 33.6415 37.2363C33.6415 37.4772 33.5459 37.7082 33.3755 37.8785C33.2052 38.0488 32.9742 38.1445 32.7333 38.1445ZM32.7333 43.5938H14.7129C14.472 43.5938 14.241 43.4981 14.0707 43.3277C13.9004 43.1574 13.8047 42.9264 13.8047 42.6855C13.8047 42.4447 13.9004 42.2137 14.0707 42.0433C14.241 41.873 14.472 41.7773 14.7129 41.7773H32.7333C32.9742 41.7773 33.2052 41.873 33.3755 42.0433C33.5459 42.2137 33.6415 42.4447 33.6415 42.6855C33.6415 42.9264 33.5459 43.1574 33.3755 43.3277C33.2052 43.4981 32.9742 43.5938 32.7333 43.5938ZM32.7333 49.043H14.7129C14.472 49.043 14.241 48.9473 14.0707 48.777C13.9004 48.6066 13.8047 48.3756 13.8047 48.1348C13.8047 47.8939 13.9004 47.6629 14.0707 47.4926C14.241 47.3222 14.472 47.2266 14.7129 47.2266H32.7333C32.9742 47.2266 33.2052 47.3222 33.3755 47.4926C33.5459 47.6629 33.6415 47.8939 33.6415 48.1348C33.6415 48.3756 33.5459 48.6066 33.3755 48.777C33.2052 48.9473 32.9742 49.043 32.7333 49.043ZM32.7333 54.4922H14.7129C14.472 54.4922 14.241 54.3965 14.0707 54.2262C13.9004 54.0559 13.8047 53.8249 13.8047 53.584C13.8047 53.3431 13.9004 53.1121 14.0707 52.9418C14.241 52.7715 14.472 52.6758 14.7129 52.6758H32.7333C32.9742 52.6758 33.2052 52.7715 33.3755 52.9418C33.5459 53.1121 33.6415 53.3431 33.6415 53.584C33.6415 53.8249 33.5459 54.0559 33.3755 54.2262C33.2052 54.3965 32.9742 54.4922 32.7333 54.4922Z" fill="#DBDCDA"/>
<path d="M11.9883 22.7998C18.0335 22.7998 22.9341 17.8992 22.9341 11.854C22.9341 5.8088 18.0335 0.908203 11.9883 0.908203C5.94308 0.908203 1.04248 5.8088 1.04248 11.854C1.04248 17.8992 5.94308 22.7998 11.9883 22.7998Z" fill="#2553E4"/>
<path d="M11.9883 0.908203C11.3797 0.908234 10.7721 0.958701 10.1719 1.05909C12.7241 1.48885 15.0415 2.80899 16.7127 4.7852C18.384 6.7614 19.301 9.26584 19.301 11.854C19.301 14.4421 18.384 16.9466 16.7127 18.9228C15.0415 20.899 12.7241 22.2191 10.1719 22.6489C11.6651 22.9 13.1942 22.8386 14.6625 22.4686C16.1308 22.0985 17.5063 21.4279 18.7022 20.499C19.898 19.5701 20.8881 18.4033 21.6099 17.0721C22.3317 15.741 22.7695 14.2747 22.8955 12.7657C23.0216 11.2568 22.8332 9.73807 22.3423 8.30565C21.8514 6.87322 21.0687 5.55823 20.0436 4.4438C19.0184 3.32937 17.7733 2.43975 16.3867 1.83118C15.0002 1.22261 13.5025 0.908327 11.9883 0.908203Z" fill="#0D0856" fill-opacity="0.5"/>
<path d="M23.6205 6.35742H21.3924C22.4775 8.21473 22.9886 10.3516 22.8612 12.4989C22.7339 14.6462 21.9738 16.7077 20.6768 18.4238C19.3798 20.1398 17.6039 21.4336 15.5729 22.142C13.5419 22.8504 11.3466 22.9419 9.26367 22.4048V24.4295C11.6112 24.9388 14.0544 24.7807 16.3167 23.9731C18.5789 23.1654 20.5699 21.7405 22.0641 19.8597C23.5583 17.9788 24.496 15.7172 24.7711 13.3309C25.0462 10.9446 24.6476 8.5289 23.6205 6.35742Z" fill="#E2E3E1"/>
<path d="M22.7402 13.623C22.5014 15.0653 21.975 16.4449 21.1924 17.6798C20.4098 18.9146 19.387 19.9795 18.1846 20.8112C18.3546 20.863 18.5313 20.8891 18.709 20.8887H21.1405C23.092 18.9188 24.3525 16.3696 24.7334 13.623H22.7402Z" fill="#C9CCC5"/>
</svg>
