<svg width="227" height="51" viewBox="0 0 227 51" fill="none" xmlns="http://www.w3.org/2000/svg">
<mask id="mask0_1_572" style="mask-type:alpha" maskUnits="userSpaceOnUse" x="0" y="0" width="227" height="51">
<rect width="227" height="50.4444" rx="10" transform="matrix(1 0 0 -1 0 50.4443)" fill="#D3EFFF"/>
<path d="M20.2262 7.87329C20.9075 7.5023 21.588 7.13066 22.2708 6.76054C22.6244 6.56864 22.7971 6.56713 23.1527 6.76184C24.2727 7.37524 25.3853 7.99276 26.5089 8.60421C26.7174 8.71761 26.8018 8.84076 26.7987 9.00056C26.7876 9.55781 26.7947 10.115 26.7943 10.6721C26.7939 11.0001 26.7344 11.0342 26.1517 11.0344C24.8006 11.035 23.4492 11.0372 22.0981 11.0327C21.7993 11.0316 21.5501 11.0734 21.3147 11.1773C20.6299 11.4795 19.9341 11.7742 19.2418 12.0712C19.1038 12.1304 18.971 12.2016 18.7707 12.1493C18.5633 12.0951 18.6071 11.9906 18.6039 11.8967C18.5953 11.6072 18.5889 11.3178 18.5818 11.0283C18.5874 10.3544 18.5992 9.68075 18.5937 9.00685C18.5925 8.8464 18.6804 8.72411 18.889 8.61288C19.3427 8.37112 19.7815 8.12047 20.2262 7.87329Z" fill="#FFCF19"/>
<path d="M19.8353 7.72539C19.9446 7.78507 19.9657 8.01963 19.8571 8.08047C19.537 8.25979 19.217 8.43918 18.8891 8.61416C18.6806 8.72539 18.5927 8.84768 18.5938 9.00813C18.603 10.1273 17.6797 11.0298 16.5605 11.03C15.7483 11.0301 14.936 11.0302 14.1239 11.0298C13.6272 11.0296 13.5582 10.9919 13.5574 10.7221C13.5558 10.1499 13.5641 9.57795 13.5523 9.00618C13.5491 8.84465 13.6461 8.72388 13.8519 8.61178C14.9648 8.00532 16.0695 7.39387 17.1785 6.78524C17.5779 6.56624 17.7222 6.56559 18.1152 6.78025C18.6904 7.09443 19.2617 7.41056 19.8353 7.72539Z" fill="#FFEEB1"/>
<path d="M35.0401 8.82021C35.0401 8.98819 35.0669 9.13937 35.1207 9.27375C35.1744 9.40814 35.2719 9.53244 35.413 9.64667C35.5541 9.75417 35.7489 9.85496 35.9975 9.94903C36.2461 10.0364 36.5653 10.1204 36.955 10.201C37.7412 10.3757 38.319 10.6176 38.6886 10.9267C39.0648 11.2358 39.253 11.6624 39.253 12.2067C39.253 12.509 39.1925 12.7845 39.0716 13.0331C38.9506 13.2818 38.7826 13.4934 38.5676 13.6681C38.3593 13.8428 38.1074 13.9772 37.8117 14.0713C37.5161 14.1653 37.1936 14.2124 36.8442 14.2124C36.2797 14.2124 35.7624 14.1217 35.292 13.9402C34.8284 13.7521 34.3849 13.4665 33.9616 13.0835L34.4555 12.499C34.825 12.8349 35.198 13.0869 35.5742 13.2549C35.9505 13.4161 36.3839 13.4968 36.8744 13.4968C37.3515 13.4968 37.7311 13.3859 38.0133 13.1642C38.3022 12.9424 38.4467 12.6501 38.4467 12.2873C38.4467 12.1193 38.4198 11.9715 38.3661 11.8438C38.3123 11.7095 38.2182 11.5885 38.0838 11.481C37.9495 11.3735 37.7613 11.2761 37.5194 11.1887C37.2843 11.1014 36.9819 11.0174 36.6123 10.9368C36.2092 10.8494 35.8564 10.7486 35.5541 10.6344C35.2584 10.5202 35.0132 10.3824 34.8183 10.2212C34.6235 10.0599 34.479 9.87176 34.3849 9.65675C34.2909 9.44173 34.2438 9.1864 34.2438 8.89076C34.2438 8.60855 34.3009 8.34986 34.4152 8.11469C34.5294 7.87952 34.6907 7.67794 34.8989 7.50996C35.1072 7.33526 35.3525 7.20088 35.6347 7.10681C35.9169 7.00602 36.226 6.95563 36.5619 6.95563C37.0793 6.95563 37.5295 7.02954 37.9125 7.17736C38.3022 7.31847 38.6785 7.53348 39.0413 7.82241L38.5777 8.43721C38.2485 8.16844 37.9159 7.97359 37.5799 7.85264C37.2507 7.7317 36.9046 7.67122 36.5418 7.67122C36.3133 7.67122 36.105 7.70146 35.9169 7.76193C35.7355 7.82241 35.5776 7.90304 35.4432 8.00383C35.3155 8.10461 35.2148 8.22556 35.1408 8.36666C35.0736 8.50776 35.0401 8.65895 35.0401 8.82021ZM41.5172 11.1283V14.1116H40.7411V6.75405H41.5172V9.80793C41.6919 9.52572 41.9203 9.28719 42.2025 9.09233C42.4847 8.89076 42.8509 8.78997 43.3011 8.78997C43.6169 8.78997 43.8958 8.84036 44.1377 8.94115C44.3863 9.04194 44.5946 9.1864 44.7625 9.37454C44.9372 9.55596 45.0683 9.77433 45.1556 10.0297C45.2497 10.285 45.2967 10.5672 45.2967 10.8763V14.1116H44.5207V11.0678C44.5207 10.584 44.3963 10.201 44.1477 9.9188C43.8991 9.63659 43.543 9.49549 43.0794 9.49549C42.8577 9.49549 42.6494 9.5358 42.4545 9.61643C42.2664 9.69034 42.1017 9.80121 41.9606 9.94903C41.8195 10.0901 41.7087 10.2615 41.628 10.463C41.5541 10.6646 41.5172 10.8864 41.5172 11.1283ZM47.8589 7.76193H46.9719V6.90524H47.8589V7.76193ZM47.7984 14.1116H47.0223V8.90084H47.7984V14.1116ZM36.1399 18.921H37.7928V19.5862H36.15V24.1116H35.3739V19.5862H34.6583V18.9109H35.3739V18.4574C35.3739 17.8862 35.5083 17.4529 35.7771 17.1572C36.0526 16.8616 36.4423 16.7137 36.9462 16.7137C37.1276 16.7137 37.2822 16.7238 37.4098 16.744C37.5442 16.7641 37.6752 16.7977 37.8029 16.8448V17.52C37.6618 17.4797 37.5341 17.4495 37.4199 17.4293C37.3057 17.4025 37.1814 17.389 37.047 17.389C36.4423 17.389 36.1399 17.7586 36.1399 18.4977V18.921ZM39.8306 19.5862V22.63C39.8306 22.9525 39.9113 23.1776 40.0725 23.3053C40.2338 23.4329 40.4454 23.4968 40.7075 23.4968C40.8419 23.4968 40.9662 23.4833 41.0804 23.4565C41.2013 23.4296 41.329 23.3825 41.4634 23.3153V23.9805C41.329 24.0545 41.1845 24.1082 41.03 24.1418C40.8822 24.1821 40.7142 24.2023 40.5261 24.2023C40.3178 24.2023 40.1229 24.1754 39.9415 24.1217C39.7601 24.0679 39.6022 23.9839 39.4678 23.8697C39.3401 23.7487 39.2393 23.5942 39.1654 23.4061C39.0915 23.2179 39.0546 22.9928 39.0546 22.7308V19.5862H38.3289V18.9008H39.0546V17.3285H39.8306V18.9008H41.4835V19.5862H39.8306ZM47.5842 18.9008L45.3971 24.2829C45.1754 24.8204 44.9268 25.2001 44.6513 25.4218C44.3825 25.6435 44.0533 25.7544 43.6636 25.7544C43.4485 25.7544 43.2537 25.7309 43.079 25.6839C42.9043 25.6435 42.7296 25.5797 42.5549 25.4924L42.8169 24.8776C42.9446 24.9448 43.0689 24.9918 43.1899 25.0187C43.3175 25.0523 43.4653 25.0691 43.6333 25.0691C43.8685 25.0691 44.0667 24.9985 44.228 24.8574C44.3892 24.7163 44.5471 24.461 44.7017 24.0914L42.3332 18.9008H43.1899L45.0847 23.2448L46.7577 18.9008H47.5842Z" fill="#FFCF19"/>
</mask>
<g mask="url(#mask0_1_572)">
<rect x="-14.4456" y="-4.33936" width="309.545" height="92.7527" rx="10" fill="url(#paint0_radial_1_572)"/>
<path opacity="0.4" d="M204.955 29.2878L169.48 57.7475C166.991 59.7803 163.257 59.7803 160.767 57.7475C158.278 55.7147 158.278 52.6654 160.767 50.6326L172.823 40.5872C181.369 33.4666 185.642 29.9062 185.642 25.2221C185.642 20.538 181.369 16.9777 172.823 9.85699L160.767 -0.188329C158.278 -2.22116 158.278 -5.27042 160.767 -7.30326C162.012 -8.31967 163.257 -8.82788 165.124 -8.82788C166.991 -8.82788 168.236 -8.31967 169.48 -7.30326L204.955 21.1564C207.445 23.6975 207.445 26.7467 204.955 29.2878C204.955 28.7796 204.955 28.7796 204.955 29.2878Z" fill="url(#paint1_linear_1_572)"/>
</g>
<defs>
<radialGradient id="paint0_radial_1_572" cx="0" cy="0" r="1" gradientUnits="userSpaceOnUse" gradientTransform="translate(-14.4456 -4.33936) rotate(17.157) scale(323.962 182.708)">
<stop stop-color="white"/>
<stop offset="1" stop-color="#C6C6C6"/>
</radialGradient>
<linearGradient id="paint1_linear_1_572" x1="182.861" y1="-8.82788" x2="182.861" y2="59.2721" gradientUnits="userSpaceOnUse">
<stop stop-color="#2983D3"/>
<stop offset="1" stop-color="#102770"/>
</linearGradient>
</defs>
</svg>
