<svg width="24" height="24" viewBox="0 0 24 24" fill="none" xmlns="http://www.w3.org/2000/svg">
<mask id="mask0_242_414" style="mask-type:luminance" maskUnits="userSpaceOnUse" x="0" y="0" width="24" height="24">
<path d="M24 0H0V24H24V0Z" fill="white"/>
</mask>
<g mask="url(#mask0_242_414)">
<path d="M18.9131 7.47864L18.8153 6.27984C18.5147 2.70012 15.5843 0 11.9991 0C8.41386 0 5.48345 2.70012 5.18225 6.28188L5.08506 7.47864C4.55766 7.87632 4.23438 8.505 4.23438 9.17652V10.5882C4.23438 11.0646 4.40333 11.5306 4.70597 11.9118L4.27098 22.5882H19.7272L19.2923 11.9118C19.595 11.5306 19.7638 11.0646 19.7638 10.5882V9.17652C19.7638 8.505 19.4405 7.87632 18.9131 7.47864Z" fill="url(#paint0_linear_242_414)"/>
<path d="M7.05798 10.5883V7.7648C7.05798 7.5062 7.09638 7.28312 7.13322 7.05884H6.35201C5.18429 7.05884 4.23438 8.00876 4.23438 9.17648V10.5883C4.23438 11.756 5.18429 12.7059 6.35201 12.7059H7.55909C7.48613 12.5481 12.2854 13.4118 12.5207 12.2259C12.4267 10.1648 7.05798 11.1812 7.05798 10.5883ZM17.6462 7.05884H16.9403V7.7648V10.5883C16.9403 10.968 16.8928 11.3372 16.8067 11.693C16.7259 12.0465 16.5993 12.3818 16.4449 12.7041L16.4441 12.7059H17.6462C18.8139 12.7059 19.7638 11.756 19.7638 10.5883V9.17648C19.7638 8.00876 18.8139 7.05884 17.6462 7.05884Z" fill="url(#paint1_linear_242_414)"/>
<path d="M14.8227 15.6709V14.6262C16.1498 13.7084 16.9405 12.2262 16.9405 10.5885V7.05907C13.6651 7.52491 11.1523 4.51784 11.124 4.48964C10.9969 4.33436 10.7992 4.23547 10.5874 4.23547C9.37341 4.23547 7.05813 4.96963 7.05813 7.76491V10.5885C7.05813 10.8284 7.07217 11.0684 7.11453 11.2944H11.2934C11.6887 11.2944 11.9992 11.6049 11.9992 12.0002C11.9992 12.3955 11.6887 12.7062 11.2934 12.7062H7.55217C7.90509 13.4826 8.45565 14.146 9.17577 14.6402V15.6708L11.9992 19.0591L14.8227 15.6709ZM22.5592 23.125L21.7827 20.0191C21.444 18.692 20.5687 17.5485 19.3827 16.8849C18.9592 16.6591 18.5358 16.4896 18.0698 16.3909L14.8227 15.6709L16.7992 17.365C17.1098 17.6049 17.1805 18.0426 16.9405 18.3532L14.8227 21.1767C14.6816 21.3603 14.4698 21.4591 14.258 21.4591C14.1169 21.4591 13.9616 21.4167 13.8345 21.3178L11.9992 19.9344L10.164 21.3178C10.0369 21.4167 9.89577 21.4591 9.74049 21.4591H9.64161C9.45813 21.4309 9.28869 21.332 9.17565 21.1767L7.05801 18.3532C6.81813 18.0426 6.88857 17.6049 7.19913 17.365L9.17577 15.6708L5.94273 16.3909C5.46273 16.4896 5.03925 16.6591 4.61577 16.8849C3.42981 17.5485 2.55453 18.692 2.20161 20.0191L1.43925 23.125C1.38273 23.3367 1.42521 23.5627 1.56633 23.732C1.69341 23.9014 1.90509 24.0003 2.11689 24.0003H21.8816C22.0934 24.0003 22.3051 23.9014 22.4322 23.732C22.5734 23.5627 22.6158 23.3367 22.5592 23.125Z" fill="url(#paint2_linear_242_414)"/>
</g>
<defs>
<linearGradient id="paint0_linear_242_414" x1="11.9991" y1="22.5882" x2="11.9991" y2="0" gradientUnits="userSpaceOnUse">
<stop stop-color="#8DC14B"/>
<stop offset="1" stop-color="#47740E"/>
</linearGradient>
<linearGradient id="paint1_linear_242_414" x1="11.9991" y1="12.863" x2="11.9991" y2="7.05884" gradientUnits="userSpaceOnUse">
<stop stop-color="#8DC14B"/>
<stop offset="1" stop-color="#47740E"/>
</linearGradient>
<linearGradient id="paint2_linear_242_414" x1="11.9992" y1="24.0003" x2="11.9992" y2="4.23559" gradientUnits="userSpaceOnUse">
<stop stop-color="#C5E459"/>
<stop offset="0.5028" stop-color="#FDF0F0"/>
<stop offset="1" stop-color="#FFDDDD"/>
</linearGradient>
</defs>
</svg>
