<svg width="58" height="58" viewBox="0 0 58 58" fill="none" xmlns="http://www.w3.org/2000/svg">
<path d="M50.6789 20.4012C50.3575 19.5026 49.7877 18.7137 49.0356 18.1263L39.4077 10.6701L35.5024 7.5381C34.936 7.08164 34.2759 6.75593 33.569 6.58434H33.4208L33.2726 6.54568C32.5576 6.38468 31.8158 6.38468 31.1008 6.54568L26.2288 7.69925L14.3259 10.3221C13.3964 10.5294 12.5449 10.9965 11.8706 11.669C11.195 12.3445 10.7255 13.1984 10.5172 14.1308C8.95123 21.3228 6.92122 39.0966 21.5501 49.6137C22.1387 50.0351 22.8152 50.3169 23.5286 50.4387C24.2248 50.6345 24.9563 50.6698 25.6681 50.5417C43.4032 47.3197 49.1903 30.3708 50.8597 23.2046C51.0646 22.2718 51.0023 21.3 50.6789 20.4012Z" fill="#F0F0F6"/>
<path d="M24.1142 53.8158C23.5698 53.8134 23.0282 53.7394 22.5031 53.5964C21.6453 53.4475 20.8311 53.1106 20.1186 52.6104C16.0457 49.778 12.6985 46.0243 10.3488 41.6549L11.1995 41.1974C13.4833 45.4261 16.7282 49.0593 20.6728 51.8051C21.2811 52.2305 21.9769 52.5147 22.7093 52.6365C23.4433 52.8409 24.2136 52.8806 24.9648 52.7525C44.7235 49.2145 51.1874 30.6478 53.0497 22.8307C53.2667 21.8907 53.2063 20.9079 52.8757 20.0016C52.5465 19.0879 51.9603 18.2889 51.1874 17.7009L40.3155 9.42629L35.8946 5.99781C35.301 5.53062 34.6127 5.19852 33.8775 5.02472L33.6133 4.97315C32.8559 4.80227 32.07 4.80227 31.3126 4.97315L25.809 6.26205L12.3531 9.16205C11.3939 9.36669 10.5132 9.84065 9.81393 10.5282C9.11914 11.208 8.63571 12.0741 8.42193 13.0222C7.60065 16.701 7.19214 20.4599 7.20393 24.2291H6.23726C6.22653 20.3865 6.64152 16.5544 7.4746 12.8031C7.73308 11.6741 8.31013 10.643 9.13726 9.83229C9.96773 9.01865 11.0109 8.45576 12.1468 8.20824L25.5964 5.31472L31.0935 4.02582C31.9682 3.82513 32.8757 3.81415 33.7551 3.9936L33.8839 4.02582H33.9677H34.0966C34.9695 4.2331 35.7873 4.62661 36.4939 5.17938L40.9019 8.64648L51.7737 16.9534C52.6949 17.6525 53.3933 18.6039 53.7844 19.6922C54.1773 20.7767 54.2488 21.9515 53.9907 23.0756C52.0574 31.0796 45.4582 50.0845 25.1388 53.7254C24.8005 53.7844 24.4577 53.8148 24.1142 53.8158Z" fill="#36354C"/>
<path d="M8.84761 38.9096H40.3287C41.4109 38.9164 42.4628 38.5524 43.3093 37.8782C44.1559 37.204 44.746 36.2603 44.9816 35.204L49.2995 15.3358C49.3976 14.879 49.3986 14.4066 49.3019 13.9495C49.2053 13.4923 49.0134 13.0608 48.7384 12.683C48.4633 12.3052 48.1118 11.9897 47.7065 11.7573C47.3012 11.5248 46.8514 11.3804 46.3865 11.3338C40.2965 10.6893 27.7878 10.2511 18.076 16.0189C10.0205 20.8007 6.33423 28.1473 4.67158 33.2256C4.45889 33.881 4.4052 34.5776 4.51494 35.2579C4.62467 35.9382 4.89467 36.5827 5.30265 37.138C5.71063 37.6933 6.24491 38.1435 6.8613 38.4516C7.4777 38.7596 8.15852 38.9166 8.84761 38.9096Z" fill="#2553E4"/>
<path d="M43.9437 37.4017C45.1424 36.2224 45.2778 34.5468 45.6322 32.201C45.6322 32.0528 45.4711 31.9433 45.3873 31.8208C44.0561 29.8609 42.1116 28.3986 39.8591 27.6637C37.6067 26.9289 35.174 26.963 32.9431 27.7608C31.4986 28.261 30.1796 29.0679 29.0764 30.1259L28.9926 30.2226C27.5624 28.8195 25.7677 27.8452 23.812 27.4101C21.8562 26.975 19.8177 27.0965 17.9275 27.7608C16.4824 28.2595 15.163 29.0666 14.0608 30.1259C12.9017 31.2433 12.0187 32.6154 11.4818 34.1333C10.9448 35.6512 10.7688 37.2733 10.9675 38.871H40.5733C41.8384 38.8086 43.037 38.286 43.9437 37.4017Z" fill="white"/>
<path d="M25.7641 30.9245C25.1197 32.0974 24.4173 33.251 23.7535 34.4239C22.9157 35.8932 22.1101 37.3819 21.311 38.8705H24.7975C25.7316 36.8421 26.8084 34.8823 28.0197 33.0061C28.4644 32.3359 26.183 30.1705 25.7641 30.9245Z" fill="#E0E0E8"/>
<path d="M37.5901 36.029C38.3183 34.8948 38.9177 33.6897 39.6072 32.5361C40.2968 31.3826 41.0057 30.4803 41.5985 29.3912C41.7274 29.1463 40.5545 30.6801 40.6963 30.4288C39.8462 29.9276 38.9311 29.5459 37.9768 29.2946C37.6417 29.8101 34.6386 34.9076 33.6203 36.5187C33.1306 37.2986 32.6537 38.0847 32.1832 38.871H36.0112C36.4458 37.8755 36.9745 36.9239 37.5901 36.029Z" fill="#E0E0E8"/>
<path d="M32.8017 39.039L31.0423 34.2186C30.1024 31.7172 28.2168 29.6854 25.7923 28.5618C23.3678 27.4382 20.5987 27.3126 18.0826 28.2124C15.9315 28.9514 14.1009 30.4092 12.8989 32.3401C11.6969 34.271 11.197 36.5571 11.4834 38.8135L10.5232 38.9359C10.2091 36.4589 10.7588 33.9494 12.0794 31.8304C13.4001 29.7114 15.4111 28.1127 17.7732 27.3037C20.5273 26.3243 23.5557 26.4649 26.2071 27.6954C28.8585 28.9259 30.921 31.1479 31.951 33.8835L33.7103 38.7104L32.8017 39.039Z" fill="#36354C"/>
<path d="M17.7026 38.9356C17.5025 37.3444 17.6588 35.7286 18.1601 34.2053L19.0817 34.5082C18.6187 35.8931 18.4755 37.3649 18.6628 38.8131L17.7026 38.9356Z" fill="#36354C"/>
<path d="M45.3683 32.8255C44.1807 30.7328 42.2953 29.1241 40.0418 28.2806C37.7882 27.4371 35.3099 27.4126 33.04 28.2113C32.3389 28.4599 31.6669 28.784 31.0359 29.1779L30.4623 28.3982L30.5267 28.3595C31.2147 27.9253 31.9498 27.5708 32.7179 27.3026C35.2032 26.4282 37.917 26.4559 40.3841 27.3808C42.8512 28.3056 44.9144 30.0687 46.2125 32.3615L45.3683 32.8255Z" fill="#36354C"/>
<path d="M21.4533 28.4376C24.621 28.4376 27.1889 25.9101 27.1889 22.7923C27.1889 19.6745 24.621 17.147 21.4533 17.147C18.2857 17.147 15.7178 19.6745 15.7178 22.7923C15.7178 25.9101 18.2857 28.4376 21.4533 28.4376Z" fill="white"/>
<path d="M21.4533 28.9276C19.8159 28.9362 18.2417 28.2952 17.076 27.1452C15.9103 25.9952 15.2481 24.43 15.2344 22.7925C15.2481 21.1556 15.9105 19.591 17.0764 18.4421C18.2423 17.2931 19.8164 16.6535 21.4533 16.6638C23.0902 16.6535 24.6644 17.2931 25.8303 18.4421C26.9962 19.591 27.6586 21.1556 27.6722 22.7925C27.6586 24.43 26.9964 25.9952 25.8306 27.1452C24.6649 28.2952 23.0908 28.9362 21.4533 28.9276ZM21.4533 17.6305C20.0744 17.6219 18.7481 18.1592 17.7641 19.1252C16.78 20.0911 16.2181 21.4072 16.2011 22.7861C16.2181 24.1649 16.78 25.481 17.7641 26.4469C18.7481 27.4129 20.0744 27.9502 21.4533 27.9416C22.8322 27.9502 24.1586 27.4129 25.1426 26.4469C26.1267 25.481 26.6886 24.1649 26.7055 22.7861C26.6886 21.4072 26.1267 20.0911 25.1426 19.1252C24.1586 18.1592 22.8322 17.6219 21.4533 17.6305Z" fill="#36354C"/>
<path d="M36.2172 28.4382C39.2104 28.4382 41.6369 26.0492 41.6369 23.1022C41.6369 20.1553 39.2104 17.7662 36.2172 17.7662C33.2239 17.7662 30.7974 20.1553 30.7974 23.1022C30.7974 26.0492 33.2239 28.4382 36.2172 28.4382Z" fill="white"/>
<path d="M36.2172 28.9264C34.6667 28.935 33.1759 28.33 32.0699 27.2434C30.964 26.1567 30.3327 24.6767 30.3141 23.1264C30.3327 21.5761 30.964 20.0961 32.0699 19.0094C33.1759 17.9228 34.6667 17.3178 36.2172 17.3264C37.7676 17.3178 39.2585 17.9228 40.3644 19.0094C41.4704 20.0961 42.1016 21.5761 42.1203 23.1264C42.1016 24.6767 41.4704 26.1567 40.3644 27.2434C39.2585 28.33 37.7676 28.935 36.2172 28.9264ZM36.2172 18.248C34.9198 18.2394 33.6719 18.7452 32.7467 19.6547C31.8215 20.5642 31.2943 21.8033 31.2808 23.1006C31.2926 24.3991 31.819 25.6398 32.7444 26.5507C33.6698 27.4616 34.9187 27.9683 36.2172 27.9597C36.8604 27.9648 37.4983 27.8432 38.0944 27.6018C38.6906 27.3603 39.2334 27.0038 39.6918 26.5526C40.1502 26.1014 40.5152 25.5643 40.766 24.972C41.0169 24.3797 41.1485 23.7438 41.1536 23.1006C41.1485 22.4574 41.0169 21.8215 40.766 21.2293C40.5152 20.637 40.1502 20.0999 39.6918 19.6487C39.2334 19.1975 38.6906 18.841 38.0944 18.5995C37.4983 18.3581 36.8604 18.2364 36.2172 18.2415V18.248Z" fill="#36354C"/>
<path d="M27.5878 33.0692L24.4876 38.6969L25.3343 39.1633L28.4345 33.5356L27.5878 33.0692Z" fill="#36354C"/>
<path d="M35.0185 33.0714L32.4749 37.6887L33.3216 38.1551L35.8652 33.5378L35.0185 33.0714Z" fill="#36354C"/>
<path d="M40.7215 39.3608H31.9377V38.3941H40.5991C40.786 38.3941 43.9309 38.6583 44.9362 33.6123L47.1337 23.0112L48.0811 23.211L45.8836 33.8057C44.8396 39.0386 41.5271 39.3608 40.7215 39.3608Z" fill="#36354C"/>
<path d="M28.2716 38.3872H10.775V39.3539H28.2716V38.3872Z" fill="#36354C"/>
<path d="M8.84756 39.3537C8.01231 39.326 7.19461 39.1071 6.45724 38.7138C5.71986 38.3206 5.08254 37.7635 4.59421 37.0853C4.1941 36.4989 3.94984 35.8202 3.88445 35.1133C3.81906 34.4064 3.93468 33.6945 4.22043 33.0446C5.56732 29.5711 6.56623 27.5411 6.57266 27.5217L7.44266 27.9471C7.44266 27.9471 6.45666 29.9642 5.12266 33.3991C4.89539 33.9016 4.80093 34.4541 4.84832 35.0036C4.89573 35.5531 5.08336 36.0813 5.39332 36.5375C5.79294 37.0857 6.31108 37.5367 6.90915 37.8569C7.50718 38.1771 8.16978 38.3584 8.84756 38.3871L9.91733 38.8704L8.84756 39.3537Z" fill="#36354C"/>
</svg>
