<svg width="32" height="32" viewBox="0 0 32 32" fill="none" xmlns="http://www.w3.org/2000/svg">
<path d="M30.516 11.5719C29.9914 9.15972 28.8319 6.93142 27.1576 5.11742C24.8435 2.65882 21.7814 1.03428 18.4481 0.496691C15.1148 -0.0408942 11.6973 0.538643 8.72762 2.14508C5.89687 3.67612 3.69187 5.90071 2.36931 9.01303C2.0133 9.85088 1.77401 10.7447 1.48113 11.6129C1.43029 11.8326 1.78258 11.6218 1.86321 11.5802C3.19701 10.8933 4.60811 10.5375 6.07256 10.8021C7.25811 11.048 8.42782 11.3649 9.57537 11.7511C9.72482 11.8078 9.88455 11.8326 10.0442 11.8236C10.2038 11.8147 10.3598 11.7722 10.5019 11.6991C11.2287 11.314 11.9907 10.9997 12.7775 10.7604C15.5082 10.0551 18.2326 10.1041 20.7941 11.421C21.174 11.6444 21.603 11.7709 22.0432 11.7896C22.4835 11.8083 22.9217 11.7186 23.3191 11.5283C25.5057 10.641 27.7365 10.5465 29.9234 11.6327C30.1019 11.7213 30.5913 11.9831 30.516 11.5719ZM26.6122 8.85836C25.2248 8.87357 23.8534 9.15694 22.5735 9.69284C22.4831 9.72969 22.3904 9.76111 22.2962 9.78693C21.6876 8.05097 20.7246 6.46058 19.4684 5.11681C18.4137 3.99599 17.1956 3.04095 15.8556 2.28403C15.9051 2.28154 15.9546 2.28154 16.0041 2.28154C17.8229 2.28454 19.6221 2.65802 21.2918 3.37921C22.9615 4.10039 24.4668 5.15417 25.7158 6.47625C26.3988 7.20014 26.9795 8.01411 27.4418 8.89548C27.1669 8.87072 26.8896 8.85836 26.6122 8.85836ZM21.267 21.79C21.4363 22.2315 21.7327 22.6128 22.1187 22.8858C22.5048 23.1588 22.9631 23.3112 23.4357 23.3237C23.9084 23.3362 24.3741 23.2083 24.7741 22.9562C25.174 22.704 25.4902 22.3389 25.6826 21.907C25.8751 21.4751 25.9351 20.9959 25.8552 20.5299C25.7753 20.0639 25.5589 19.632 25.2336 19.289C24.9082 18.9459 24.4884 18.707 24.0273 18.6025C23.5662 18.4981 23.0844 18.5327 22.643 18.702C22.3498 18.8143 22.0816 18.9832 21.8537 19.1993C21.6259 19.4153 21.4428 19.674 21.315 19.9608C21.1873 20.2476 21.1172 20.5568 21.109 20.8706C21.1007 21.1845 21.1544 21.4969 21.267 21.79Z" fill="#2553E4"/>
<path d="M12.0921 15.447L14.5583 19.4018C14.5926 19.4569 14.6456 19.4979 14.7076 19.5173C14.7696 19.5367 14.8365 19.5332 14.8962 19.5075C14.9558 19.4818 15.0043 19.4355 15.0328 19.3771C15.0613 19.3187 15.0679 19.2521 15.0514 19.1892L14.2798 16.2462L15.7013 16.2463C15.8417 16.2464 15.9766 16.192 16.0778 16.0947C16.179 15.9974 16.2386 15.8647 16.2441 15.7244L16.3929 11.9055C16.396 11.8259 16.3816 11.7466 16.3506 11.6732C16.3196 11.5998 16.2729 11.5341 16.2137 11.4808C16.1545 11.4275 16.0843 11.3878 16.008 11.3647C15.9318 11.3415 15.8514 11.3354 15.7726 11.3468L13.9919 11.604C13.913 11.6154 13.8377 11.644 13.7711 11.6878C13.7045 11.7316 13.6484 11.7895 13.6067 11.8574C13.565 11.9253 13.5388 12.0015 13.5299 12.0807C13.5209 12.1599 13.5295 12.24 13.555 12.3155L14.3327 14.6168L12.5531 14.6165C12.4562 14.6165 12.361 14.6424 12.2775 14.6916C12.194 14.7407 12.1251 14.8113 12.0781 14.8961C12.0311 14.9808 12.0076 15.0766 12.01 15.1735C12.0125 15.2703 12.0409 15.3648 12.0921 15.447ZM10.9266 16.7542L8.33153 13.9486C8.27743 13.8901 8.21112 13.8443 8.13732 13.8143C8.06351 13.7843 7.98401 13.7709 7.90445 13.7751C7.82489 13.7792 7.74722 13.8008 7.67694 13.8384C7.60667 13.8759 7.54552 13.9284 7.49782 13.9923L6.42054 15.4333C6.37284 15.4971 6.33977 15.5706 6.32366 15.6486C6.30755 15.7266 6.3088 15.8072 6.32733 15.8847C6.34585 15.9622 6.38119 16.0347 6.43085 16.097C6.48051 16.1593 6.54326 16.2099 6.61467 16.2452L8.79185 17.3226L7.53328 18.5808C7.46474 18.6493 7.41579 18.7349 7.39149 18.8287C7.3672 18.9225 7.36844 19.0211 7.39511 19.1143C7.42177 19.2075 7.47287 19.2918 7.54312 19.3586C7.61337 19.4253 7.70019 19.4721 7.7946 19.494L12.3348 20.5466C12.3981 20.5612 12.4646 20.5527 12.5221 20.5226C12.5797 20.4925 12.6245 20.4427 12.6485 20.3823C12.6725 20.322 12.6741 20.255 12.6529 20.1936C12.6318 20.1322 12.5893 20.0804 12.5332 20.0476L9.90659 18.5121L10.9119 17.5071C11.0111 17.4078 11.0681 17.274 11.0709 17.1336C11.0736 16.9933 11.0219 16.8573 10.9266 16.7542Z" fill="#2553E4"/>
<path d="M27.599 24.7933L24.3424 25.5452L21.2307 24.46C20.9792 24.3723 20.7499 24.2308 20.5587 24.0454C20.3675 23.86 20.2191 23.6351 20.1237 23.3865L19.8123 22.5745L19.4423 21.6096C19.2838 21.1964 19.2803 20.7398 19.4324 20.3243L20.4149 17.6395L23.0322 15.2261C23.1602 15.108 23.2384 14.9456 23.251 14.7719C23.2635 14.5982 23.2094 14.4263 23.0997 14.2911C22.9899 14.1558 22.8328 14.0675 22.6602 14.044C22.4877 14.0206 22.3127 14.0637 22.1708 14.1647L18.8794 16.5074C18.584 16.7177 18.3576 17.011 18.229 17.3501L17.1342 20.2373C16.9542 20.7119 16.6155 21.1096 16.1756 21.3628L12.744 23.3383C12.3825 23.5463 11.9757 23.663 11.5589 23.6784L8.26388 23.7994C7.86595 23.8141 7.47689 23.9212 7.12753 24.1123L3.91061 25.872C3.72093 25.9757 3.57531 26.1447 3.50077 26.3477C3.42622 26.5506 3.4278 26.7737 3.50522 26.9756C3.54796 27.087 3.6126 27.1888 3.69531 27.2748C3.77803 27.3609 3.87715 27.4295 3.98682 27.4766C4.09649 27.5236 4.21448 27.5483 4.33383 27.549C4.45319 27.5498 4.57148 27.5266 4.68172 27.4808L8.4605 25.9127L12.7284 26.0431C12.7724 26.0445 12.8144 26.0616 12.8468 26.0914C12.8792 26.1212 12.8998 26.1617 12.9048 26.2054C12.9098 26.2491 12.8989 26.2932 12.8741 26.3295C12.8492 26.3659 12.8122 26.3921 12.7696 26.4033L9.51363 27.2643C9.19296 27.3491 8.8918 27.4952 8.62685 27.6948L5.39175 30.1305C5.21319 30.2649 5.09309 30.4628 5.05624 30.6833C5.0194 30.9038 5.06862 31.13 5.19375 31.3152C5.31888 31.5004 5.51036 31.6305 5.72865 31.6786C5.94694 31.7267 6.17536 31.6891 6.36675 31.5737L9.83019 29.4835L13.4443 29.2223C13.7233 29.2022 13.996 29.1289 14.2475 29.0065L18.9603 26.7133C19.4371 26.4813 19.9817 26.4295 20.4937 26.5674L23.4778 27.3713C23.8072 27.4601 24.1548 27.455 24.4815 27.3569L27.9988 26.2994C28.1926 26.2411 28.3561 26.1098 28.4549 25.9331C28.5536 25.7565 28.5797 25.5484 28.5278 25.3528C28.4759 25.1572 28.35 24.9895 28.1766 24.8851C28.0033 24.7807 27.7962 24.7478 27.599 24.7933Z" fill="#2553E4" fill-opacity="0.5"/>
</svg>
