<svg width="33" height="33" viewBox="0 0 33 33" fill="none" xmlns="http://www.w3.org/2000/svg">
<g clip-path="url(#clip0_1_683)">
<path d="M32.1005 14.2441C31.5204 12.9731 30.4814 11.2458 29.3084 10.2171C27.7666 8.86874 25.8253 8.04116 24.116 8.00765H23.982C21.8679 8.00765 21.4683 8.87905 21.4193 9.39983C21.2698 10.9467 23.1054 11.1323 23.7113 11.1942C25.7918 11.403 27.5166 12.8391 28.2101 14.9428C28.658 16.2757 28.7055 17.7107 28.3467 19.0704C28.1197 19.8449 27.7134 20.555 27.1608 21.1432C27.519 21.6219 27.8364 22.1299 28.1095 22.6617C28.1397 22.7223 28.1576 22.7883 28.1623 22.8558C28.167 22.9233 28.1583 22.9911 28.1367 23.0553C28.1152 23.1194 28.0812 23.1787 28.0367 23.2298C27.9922 23.2808 27.9381 23.3225 27.8775 23.3526C27.8061 23.3878 27.7276 23.4064 27.6481 23.4068C27.5521 23.4068 27.4581 23.3801 27.3765 23.3295C27.295 23.2789 27.2292 23.2066 27.1866 23.1206C26.9231 22.6093 26.6142 22.1226 26.2636 21.6666C26.1966 21.5892 26.1141 21.4938 26.1115 21.4887C25.1325 20.368 24.0782 19.3154 22.9559 18.3382C21.3433 16.8803 19.9365 15.2098 18.7741 13.3727C18.1723 12.4128 17.6974 11.379 17.3613 10.297C17.1628 9.67054 16.9823 8.98476 16.7967 8.13913C16.2192 5.47851 15.6881 4.49366 15.5541 4.27452C13.8267 0.556865 10.684 -1.06085e-05 8.95922 -1.06085e-05C8.58713 -0.00214256 8.21549 0.0263126 7.84805 0.0850675C5.98149 0.234599 4.55321 2.1914 4.28766 2.58069C3.53227 3.22265 2.40563 3.39022 1.79204 3.43405C1.32401 3.45968 0.88135 3.6549 0.546802 3.98319C0.344725 4.20746 0.192823 4.47225 0.101238 4.7599C0.00965333 5.04755 -0.0195058 5.35143 0.015708 5.65124C0.19102 7.10015 1.80493 8.27577 1.87454 8.32475C1.88682 8.33423 1.89974 8.34284 1.91321 8.35054C2.42883 8.65218 3.31829 8.92288 4.55321 9.15749C5.12555 9.26577 5.86032 9.521 6.15422 9.79686C8.19352 11.7201 6.19547 15.2522 6.18774 15.2651C5.84133 15.7837 5.63444 16.3828 5.58702 17.0046C5.53961 17.6265 5.65327 18.25 5.91704 18.8151C6.14731 19.2513 6.44097 19.651 6.78844 20.0011C6.9432 20.1672 7.08948 20.341 7.22672 20.5219C7.49679 20.9081 7.69584 21.3394 7.81454 21.7955C8.22704 23.332 8.25282 25.2218 7.8893 27.5705C7.75732 28.0924 7.47599 28.5646 7.07977 28.9291L6.99469 29.0039C6.37852 29.535 5.44782 30.3368 5.59735 31.4273C5.74172 32.4534 7.06172 33 7.95891 33C10.9959 33 12.0633 30.3342 12.0968 30.244C12.7491 28.7693 12.236 25.9024 12.1741 25.5801C12.1714 25.559 12.1663 25.5382 12.1587 25.5183C11.4497 23.3191 12.5248 20.5812 12.5351 20.5528C12.5405 20.5403 12.5448 20.5274 12.548 20.5141C12.6246 20.3084 12.6517 20.0876 12.6271 19.8694C12.6025 19.6513 12.5268 19.442 12.4062 19.2586C11.9602 18.6063 11.0217 18.5006 10.8567 18.4877L9.32532 18.2995C9.07524 18.2737 9.01852 18.1835 8.9979 18.1474C8.90714 17.8983 8.9026 17.626 8.985 17.374C9.42033 17.1224 9.78074 16.7593 10.0291 16.3221C10.0807 16.2448 10.1323 16.1674 10.1838 16.0978C10.3382 15.8924 10.5286 15.7168 10.7459 15.5796L12.0994 14.8835C12.1755 14.8437 12.2405 14.7857 12.2886 14.7146C12.3368 14.6435 12.3665 14.5616 12.3752 14.4762L12.4397 13.8291C15.4174 15.1413 15.5592 18.7404 15.4716 20.2976C15.4432 21.1794 15.6266 22.0551 16.0066 22.8514C16.3865 23.6476 16.9519 24.3411 17.6552 24.8737C18.7381 25.6343 19.8286 26.9801 19.8286 28.2666V29.2901H18.4029C18.3805 29.2904 18.3581 29.2921 18.3359 29.2952C16.147 29.5866 15.518 31.4995 15.4922 32.4715C15.4911 32.5401 15.5035 32.6083 15.5289 32.6721C15.5542 32.7359 15.592 32.794 15.6399 32.8431C15.6879 32.8923 15.745 32.9314 15.8082 32.9583C15.8713 32.9853 15.9392 32.9994 16.0078 33H26.2352C26.3216 33.0006 26.4068 32.9793 26.4827 32.9381C28.3313 31.9301 29.213 30.1718 29.0377 27.8566C29.0331 27.6305 29.0755 27.4059 29.162 27.1969C29.2485 26.9879 29.3773 26.7991 29.5404 26.6423C32.843 23.7883 33.967 18.3433 32.1005 14.2441ZM1.2893 5.41405C1.18732 5.41405 1.08763 5.38381 1.00284 5.32715C0.918042 5.2705 0.851953 5.18997 0.812926 5.09575C0.7739 5.00153 0.763689 4.89786 0.783584 4.79783C0.80348 4.69781 0.852588 4.60594 0.9247 4.53383C0.996811 4.46171 1.08869 4.41261 1.18871 4.39271C1.28873 4.37281 1.3924 4.38303 1.48662 4.42205C1.58084 4.46108 1.66137 4.52717 1.71803 4.61196C1.77469 4.69675 1.80493 4.79645 1.80493 4.89843C1.80493 5.03518 1.7506 5.16633 1.6539 5.26303C1.55721 5.35973 1.42605 5.41405 1.2893 5.41405ZM6.70079 3.60936C6.5988 3.60936 6.49911 3.57912 6.41432 3.52247C6.32953 3.46581 6.26344 3.38528 6.22441 3.29106C6.18538 3.19684 6.17517 3.09317 6.19507 2.99315C6.21496 2.89312 6.26407 2.80125 6.33618 2.72914C6.4083 2.65703 6.50017 2.60792 6.60019 2.58802C6.70021 2.56813 6.80389 2.57834 6.89811 2.61736C6.99233 2.65639 7.07285 2.72248 7.12951 2.80727C7.18617 2.89207 7.21641 2.99176 7.21641 3.09374C7.21641 3.23049 7.16209 3.36164 7.06539 3.45834C6.96869 3.55504 6.83754 3.60936 6.70079 3.60936ZM12.3649 8.22936C12.1798 8.47385 11.9475 8.67874 11.6818 8.83195C11.4161 8.98516 11.1224 9.08358 10.8181 9.1214C10.5658 9.17182 10.3058 9.16921 10.0545 9.11373C9.80333 9.05825 9.56641 8.95111 9.35883 8.79913C8.28375 7.92772 8.60602 6.1978 8.89477 5.2439C9.55477 3.05765 9.07782 1.75569 8.55704 1.04413C8.67563 1.0364 9.47227 1.04413 9.76618 1.08022C9.78855 1.09379 9.81181 1.10585 9.83579 1.11632C10.6711 1.46952 11.2383 2.79983 11.6534 3.77436C11.7513 4.00897 11.8467 4.22811 11.9344 4.4189C12.5738 5.77757 13.0688 7.18007 12.3649 8.22936Z" fill="#2553E4" fill-opacity="0.5"/>
</g>
<defs>
<clipPath id="clip0_1_683">
<rect width="33" height="33" fill="white"/>
</clipPath>
</defs>
</svg>
