<svg width="21" height="22" viewBox="0 0 21 22" fill="none" xmlns="http://www.w3.org/2000/svg">
<path d="M10.0662 6.23986C11.4107 6.23986 12.7002 6.79192 13.6509 7.77459C14.6017 8.75725 15.1358 10.09 15.1358 11.4797M10.0662 3.61993C12.083 3.61993 14.0172 4.44802 15.4433 5.92201C16.8694 7.39601 17.6706 9.39518 17.6706 11.4797M10.0662 1C12.7553 1 15.3342 2.10411 17.2357 4.06944C19.1372 6.03477 20.2054 8.70033 20.2054 11.4797M5.51149 16.1874C3.11084 13.7061 1.58445 10.4901 1.13723 7.05076C0.98578 5.88605 1.95213 4.9299 3.12664 4.9299V4.9299C4.29988 4.9299 5.23202 5.88754 5.44294 7.04167C5.50426 7.37718 5.58006 7.70988 5.67018 8.03874C5.83582 8.64326 5.63819 9.30266 5.12403 9.66115V9.66115C4.59558 10.0296 4.38812 10.7197 4.68055 11.2938C5.89611 13.6798 7.76518 15.6435 10.0528 16.9388C10.6162 17.2578 11.3177 17.0581 11.6832 16.5236V16.5236C12.0383 16.0042 12.7066 15.8136 13.3088 15.9957C13.611 16.0871 13.9167 16.1651 14.225 16.2296C15.4118 16.4778 16.4032 17.439 16.4032 18.6515V18.6515C16.4032 19.8659 15.4134 20.8669 14.2122 20.6885C10.937 20.2021 7.87867 18.634 5.51149 16.1874Z" stroke="#13519C" stroke-linecap="round" stroke-linejoin="round"/>
</svg>
