<svg width="21" height="22" viewBox="0 0 21 22" fill="none" xmlns="http://www.w3.org/2000/svg">
<path d="M10.0662 6.23986C11.4107 6.23986 12.7002 6.79192 13.6509 7.77459C14.6017 8.75725 15.1358 10.09 15.1358 11.4797M10.0662 3.61993C12.083 3.61993 14.0172 4.44802 15.4433 5.92201C16.8694 7.39601 17.6706 9.39518 17.6706 11.4797M10.0662 1C12.7553 1 15.3342 2.10411 17.2357 4.06944C19.1372 6.03477 20.2054 8.70033 20.2054 11.4797M11.0505 17.4488C7.98006 16.0414 5.53924 13.4843 4.21921 10.292L5.9978 9.05192C5.50568 7.73706 5.25219 6.33972 5.25003 4.9299H1C1 9.15227 2.62283 13.2017 5.51149 16.1874C8.40015 19.173 12.318 20.8504 16.4032 20.8504V16.4576C14.9948 16.4544 13.5998 16.1743 12.2926 15.6323L11.0505 17.4488Z" stroke="black" stroke-linecap="round" stroke-linejoin="round"/>
</svg>
