<svg width="76" height="76" viewBox="0 0 76 76" fill="none" xmlns="http://www.w3.org/2000/svg">
<path d="M70.8145 58.3142C69.342 56.3018 57.961 37.3588 56.3049 36.2473C57.9689 35.3717 65.4739 27.5912 67.1032 26.1219C67.6906 25.5788 67.3882 24.5005 66.5807 24.3675C53.9663 21.4146 41.3313 18.5694 28.682 15.7859C27.6529 15.5373 26.6554 16.5253 26.9071 17.5608C28.625 25.5661 33.4099 47.88 35.1341 55.5544C35.313 56.7625 36.9439 57.2629 37.7672 56.3477L47.3907 46.2603C49.2606 47.443 69.1267 60.0084 69.1267 60.0084C70.1669 60.7177 71.5381 59.3719 70.8145 58.3142ZM47.9449 43.0683C47.3701 42.6867 46.5816 42.7643 46.0924 43.2868L37.5788 52.0584C35.7374 43.529 32.1844 27.493 30.3429 19.1884C41.6574 21.5349 52.9846 23.8292 64.3276 26.0411C62.0904 28.4193 57.7647 33.0189 57.7647 33.0189C55.776 35.0978 55.0366 36.5734 55.7301 36.4879C55.985 38.6397 64.9214 52.7614 66.055 55.0335C60.3946 51.2937 47.9449 43.0683 47.9449 43.0683ZM29.6099 51.4014C23.5995 52.4479 17.5702 52.7124 11.5567 51.6056C10.9519 51.5185 10.5339 50.2012 11.5551 50.0223C17.5654 48.9741 23.5948 48.7113 29.6083 49.818C30.221 49.9051 30.7182 51.2098 29.6099 51.4014ZM5.29144 35.5047C4.15144 35.3274 4.55836 34.0274 5.29144 33.9214C12.3135 32.8225 19.3562 32.965 26.3735 34.0417C27.086 34.1367 27.1066 35.5189 26.3735 35.625C19.3514 36.7254 12.3072 36.5972 5.29144 35.5047ZM58.7701 58.7623C58.7464 59.1217 58.4059 59.4431 58.2476 59.4922C54.2576 60.5879 50.2296 60.4754 46.2523 59.3766C45.4574 59.1565 45.8232 57.9104 46.2539 57.7933C50.2439 56.696 54.2671 56.8306 58.2492 57.9089C58.4503 57.9722 58.7986 58.3253 58.7701 58.7623ZM11.3904 18.1498C15.3899 17.0462 19.4369 17.0272 23.4428 18.1181C23.6454 18.1814 23.9368 18.6723 23.9067 19.1093C23.8829 19.4687 23.6011 19.6508 23.4428 19.7014C19.4385 20.7876 15.3963 20.824 11.3904 19.7331C10.9978 19.6587 10.3613 18.4332 11.3904 18.1498Z" fill="#2983D3"/>
</svg>
