<svg width="35" height="35" viewBox="0 0 35 35" fill="none" xmlns="http://www.w3.org/2000/svg">
<path d="M30.3964 7.06453C30.1956 6.75161 29.8484 6.5625 29.4768 6.5625H21.875C20.0656 6.5625 18.5938 8.03436 18.5938 9.84375V17.5C18.5938 19.3094 20.0656 20.7812 21.875 20.7812H24.0465C23.0308 23.7229 22.1634 25.1316 19.2773 26.3343C18.7957 26.5351 18.5232 27.0478 18.6258 27.5594C18.7283 28.0701 19.1769 28.4375 19.6982 28.4375H19.7004C25.7214 28.4268 29.1799 26.0129 31.6323 20.1126C32.4151 18.2594 32.8125 16.276 32.8125 14.2188C32.8125 11.055 31.8555 9.33209 30.3964 7.06453ZM13.0705 6.5625H5.46875C3.65936 6.5625 2.1875 8.03436 2.1875 9.84375V17.5C2.1875 19.3094 3.65936 20.7812 5.46875 20.7812H7.64028C6.62452 23.7229 5.75717 25.1316 2.87109 26.3343C2.38941 26.5351 2.11695 27.0478 2.21955 27.5594C2.32203 28.0701 2.77069 28.4375 3.29197 28.4375H3.29416C9.31514 28.4268 12.7737 26.0129 15.2261 20.1126C16.0089 18.2594 16.4062 16.276 16.4062 14.2188C16.4062 11.055 15.4492 9.33209 13.9902 7.06453C13.7893 6.75161 13.4422 6.5625 13.0705 6.5625Z" fill="#13519C"/>
</svg>
