<svg width="45" height="45" viewBox="0 0 45 45" fill="none" xmlns="http://www.w3.org/2000/svg">
<g clip-path="url(#clip0_78_4836)">
<path d="M36 0H9C4.02944 0 0 4.02944 0 9V36C0 40.9706 4.02944 45 9 45H36C40.9706 45 45 40.9706 45 36V9C45 4.02944 40.9706 0 36 0Z" fill="#2983D3" fill-opacity="0.09"/>
<path d="M24.7015 16.5148C24.4051 16.2218 24.1697 15.873 24.0091 15.4884C23.8485 15.1038 23.7658 14.6912 23.7658 14.2744C23.7658 13.8576 23.8485 13.445 24.0091 13.0604C24.1697 12.6758 24.4051 12.3269 24.7015 12.0339L27.4488 9.30694C27.5469 9.20921 27.6632 9.13176 27.7913 9.07902C27.9193 9.02627 28.0565 8.99925 28.1949 8.99951C28.3334 8.99977 28.4705 9.02731 28.5983 9.08054C28.7261 9.13377 28.8422 9.21166 28.94 9.30975C29.0377 9.40785 29.1151 9.52424 29.1679 9.65227C29.2206 9.7803 29.2476 9.91746 29.2474 10.0559C29.2471 10.1944 29.2196 10.3315 29.1664 10.4593C29.1131 10.5871 29.0352 10.7032 28.9371 10.8009L26.5488 13.1634H30.1915C31.7302 13.1637 33.206 13.7746 34.2948 14.8619C35.3835 15.9492 35.9964 17.4241 35.9988 18.9628V21.8676C35.9989 22.0061 35.9718 22.1433 35.9188 22.2713C35.8659 22.3993 35.7883 22.5157 35.6904 22.6137C35.5925 22.7117 35.4763 22.7894 35.3483 22.8425C35.2203 22.8955 35.0832 22.9228 34.9446 22.9228C34.8061 22.923 34.6689 22.8958 34.5409 22.8429C34.4129 22.79 34.2965 22.7124 34.1985 22.6145C34.1005 22.5166 34.0228 22.4003 33.9697 22.2723C33.9167 22.1444 33.8894 22.0072 33.8894 21.8687V18.9639C33.8873 17.9859 33.4976 17.0487 32.8058 16.3574C32.1139 15.6662 31.1763 15.2774 30.1983 15.2762H26.4475L28.9371 17.7433C29.0353 17.841 29.1133 17.9572 29.1666 18.085C29.2199 18.2129 29.2475 18.35 29.2478 18.4885C29.2481 18.627 29.2211 18.7642 29.1684 18.8923C29.1157 19.0204 29.0382 19.1369 28.9405 19.2351C28.8428 19.3332 28.7267 19.4112 28.5988 19.4645C28.471 19.5178 28.3339 19.5454 28.1953 19.5457C28.0568 19.546 27.9196 19.519 27.7915 19.4663C27.6634 19.4136 27.5469 19.3362 27.4488 19.2384L24.7015 16.5148ZM34.7725 28.0134C33.7042 26.8536 32.3721 25.9684 30.889 25.4327C30.1013 25.2006 29.2639 25.1964 28.4739 25.4206C27.6838 25.6448 26.9735 26.0882 26.425 26.6994L26.4194 26.7051L24.9918 28.1259C23.3425 27.1735 21.8289 26.0035 20.4918 24.6474L20.3613 24.5034C19.0069 23.165 17.8374 21.6516 16.8839 20.0034L18.2969 18.5814L18.3025 18.5758C18.9146 18.0279 19.3588 17.3177 19.5838 16.5277C19.8088 15.7376 19.8053 14.9 19.5738 14.1118C19.0362 12.628 18.1486 11.2958 16.9863 10.2283C16.2647 9.4806 15.2813 9.04191 14.2429 9.00456C13.2045 8.96721 12.192 9.33412 11.4186 10.0281L11.3883 10.0551L11.3478 10.0933C10.555 10.9267 9.93843 11.9113 9.53483 12.9883C9.13123 14.0654 8.94891 15.2127 8.99877 16.3618C9.02127 20.7009 11.4051 25.6509 15.3741 29.6256C16.1683 30.4137 17.0131 31.1491 17.9031 31.8272C18.0132 31.9115 18.1388 31.9733 18.2727 32.009C18.4067 32.0448 18.5463 32.0538 18.6838 32.0355C18.8212 32.0173 18.9537 31.9722 19.0737 31.9028C19.1937 31.8333 19.2988 31.7409 19.3831 31.6309C19.4674 31.5208 19.5291 31.3952 19.5649 31.2613C19.6006 31.1274 19.6097 30.9877 19.5914 30.8503C19.5732 30.7128 19.5281 30.5803 19.4586 30.4604C19.3892 30.3404 19.2968 30.2352 19.1868 30.1509C18.37 29.529 17.5948 28.8545 16.8659 28.1316C13.2805 24.5484 11.1284 20.1384 11.1093 16.3517C11.0649 15.4861 11.1937 14.6204 11.4881 13.8052C11.7825 12.99 12.2366 12.2417 12.8238 11.6042V11.5974C13.19 11.2663 13.671 11.091 14.1645 11.1088C14.658 11.1267 15.125 11.3363 15.4664 11.6931C18.2013 14.5247 17.9988 15.8634 16.7961 17.1009L14.8409 19.0686C14.6907 19.2193 14.5897 19.4119 14.5509 19.6211C14.5122 19.8303 14.5376 20.0463 14.6238 20.2408C15.7034 22.3844 17.1373 24.3303 18.865 25.9963L19.0034 26.1347C20.6697 27.8626 22.6159 29.2965 24.76 30.3759C24.9543 30.4624 25.1702 30.4882 25.3794 30.4498C25.5886 30.4115 25.7813 30.3108 25.9323 30.1611L27.8988 28.2047C29.1363 26.9987 30.4728 26.8007 33.3044 29.5311C33.6609 29.8726 33.8703 30.3396 33.8882 30.833C33.906 31.3264 33.7309 31.8073 33.4 32.1737L33.3921 32.1816C32.7607 32.7629 32.0203 33.2134 31.2137 33.5069C30.4072 33.8004 29.5504 33.9311 28.693 33.8916H28.6446C26.8457 33.8276 25.0771 33.4089 23.4404 32.6597C23.1835 32.5489 22.8931 32.5446 22.6331 32.6479C22.373 32.7511 22.1647 32.9535 22.0538 33.2104C21.943 33.4673 21.9387 33.7577 22.042 34.0177C22.1453 34.2777 22.3476 34.4861 22.6045 34.5969C24.5015 35.4648 26.5537 35.9423 28.639 36.0009H28.6986C29.8378 36.0441 30.9741 35.8586 32.0404 35.4556C33.1068 35.0525 34.0817 34.44 34.9075 33.6542L34.9469 33.6126L34.9739 33.5822C35.668 32.8086 36.0349 31.7959 35.9974 30.7572C35.9598 29.7185 35.5207 28.7349 34.7725 28.0134Z" fill="#1A45D6"/>
</g>
<defs>
<clipPath id="clip0_78_4836">
<rect width="45" height="45" fill="white"/>
</clipPath>
</defs>
</svg>
