<svg width="79" height="79" viewBox="0 0 79 79" fill="none" xmlns="http://www.w3.org/2000/svg">
<path d="M61.2438 37.5107C71.1175 42.3713 58.8849 56.8545 52.1906 60.5483C44.2112 66.6945 33.5751 62.4485 25.2485 66.9886C24.7984 66.637 24.2105 66.2632 23.6556 66.6218C20.5842 62.4693 18.2354 57.8541 15.7253 53.3567C22.3122 47.3787 32.2816 44.7986 40.9061 45.9848C45.712 51.2951 31.193 52.6836 27.9066 52.9026C19.7488 58.699 59.3516 59.7043 60.3093 39.4528C53.235 47.8117 49.5438 54.7843 34.9124 54.2264C41.5815 53.6222 49.5962 46.406 39.475 43.5117C30.7524 43.9747 20.7665 44.8806 14.8218 52.1136C14.2895 51.9569 13.7053 52.5118 13.984 53.1006C13.9566 53.1295 13.9348 53.1608 13.9184 53.196C3.2678 56.5142 15.2856 66.8387 18.4147 71.9683C22.1404 80.058 30.2957 74.6742 28.0236 71.6475C28.6763 70.7278 27.9012 69.7288 27.2795 69.0369C35.1391 66.1887 44.1456 67.9034 51.6494 63.6206C59.3386 61.3972 76.5921 38.533 61.2438 37.5107ZM24.8743 73.7173C21.572 75.2721 19.1795 67.7307 16.7275 65.9014C13.8552 61.7685 8.08733 58.4631 14.2074 54.1689C14.247 54.1822 14.2866 54.1948 14.3291 54.1998C16.3243 58.7718 19.445 67.972 24.1131 69.574C24.7897 70.5112 25.3806 71.7281 26.5057 72.1798C25.9564 72.6719 25.5236 73.3001 24.8743 73.7173ZM33.0886 34.1194C44.6093 40.6873 59.5692 29.2092 54.9945 16.3271C53.6471 10.4429 43.864 5.28104 39.2044 9.78985C27.2434 11.0183 22.1821 27.7901 33.0886 34.1194ZM29.1362 21.4167C30.5748 7.4577 54.4325 7.90355 54.266 22.3449C52.6198 36.2326 26.8257 38.039 29.1362 21.4167Z" fill="#2983D3"/>
<path d="M29.3112 38.3497C44.6301 47.8518 66.6182 32.4666 60.3508 14.6139C58.5428 6.61288 45.2313 -1.14272 38.7406 4.97665C22.2525 6.11979 14.6688 29.1883 29.3112 38.3497ZM41.2889 5.88916C55.4007 4.14729 66.7936 22.1965 54.7995 32.2939C43.7345 43.7144 20.888 39.4261 23.6388 20.8534C24.7677 11.7435 33.0208 6.98286 41.2889 5.88916Z" fill="#2983D3"/>
<path d="M39.3601 23.4856C50.2867 24.4894 43.588 28.9434 37.1929 26.4256C33.7899 27.7842 38.3587 30.8811 40.4834 30.1494C40.2473 32.9762 43.6869 31.9614 43.0299 29.5371C51.6916 26.4579 45.9049 21.4818 39.6687 21.1153C34.6432 20.2034 41.9895 17.2891 43.7574 17.9896C46.7564 18.2883 43.9299 14.5783 42.1249 15.2194C42.3648 11.6001 39.0675 12.7279 39.721 15.7839C35.1542 17.2765 33.5123 22.6187 39.3601 23.4856ZM60.589 8.26999C61.7514 8.24 63.1798 7.36176 63.7798 6.37276C64.1041 3.19966 57.9672 7.03697 60.589 8.26999ZM66.8616 11.8117C66.7404 11.828 66.6191 11.8443 66.498 11.8605C66.8787 11.8134 67.2508 11.739 67.6273 11.6779C68.8364 11.62 70.1401 10.3148 68.818 9.39074C64.7968 7.26449 59.5469 14.2813 66.8616 11.8117ZM68.4466 16.3612C66.8368 15.4217 62.8703 15.9902 65.543 18.0776C67.2789 19.2333 71.2015 18.5542 68.4466 16.3612ZM23.567 8.40666C23.5456 5.44608 15.176 5.14322 18.5549 8.45065C19.9749 9.05427 23.1748 11.0683 23.567 8.40666ZM18.8154 14.236C19.7278 14.1464 21.1258 14.5224 21.2888 13.2337C21.3937 10.3573 13.3085 12.1942 15.8422 14.7012C16.8169 15.1525 17.8129 14.2672 18.8154 14.236ZM15.8545 19.2532C14.8944 20.3236 15.6501 21.9607 17.137 21.4533C17.9511 21.4302 18.2204 20.8984 18.868 20.464C19.4633 20.0117 19.8097 19.826 20.47 19.4752C22.725 16.2044 16.8935 17.6359 15.8545 19.2532Z" fill="#2983D3"/>
</svg>
