<svg width="45" height="45" viewBox="0 0 45 45" fill="none" xmlns="http://www.w3.org/2000/svg">
<path fill-rule="evenodd" clip-rule="evenodd" d="M6.5625 28.5938C7.33914 28.5938 7.96875 29.2234 7.96875 30C7.96875 32.3299 9.85755 34.2188 12.1875 34.2188C14.5175 34.2188 16.4063 32.3299 16.4063 30C16.4063 29.2234 17.0359 28.5938 17.8125 28.5938C18.5891 28.5938 19.2188 29.2234 19.2188 30C19.2188 33.8833 16.0708 37.0312 12.1875 37.0312C8.30424 37.0312 5.15625 33.8833 5.15625 30C5.15625 29.2234 5.78586 28.5938 6.5625 28.5938ZM34.6793 15.494C34.4134 15.4701 34.0532 15.4688 33.4487 15.4688H30.9375C30.1609 15.4688 29.5313 14.8392 29.5313 14.0625C29.5313 13.2859 30.1609 12.6563 30.9375 12.6563H33.4487C33.4669 12.6563 33.4849 12.6563 33.5029 12.6563C34.0352 12.6562 34.5238 12.6562 34.9309 12.6928C35.3709 12.7323 35.8506 12.8231 36.3148 13.0882C36.8241 13.379 37.2459 13.801 37.5368 14.3102C37.8019 14.7744 37.8928 15.254 37.9322 15.6941C37.9688 16.1012 37.9688 16.5899 37.9688 17.1221C37.9688 17.1401 37.9688 17.1582 37.9688 17.1764C37.9688 17.2164 37.9688 17.2568 37.9689 17.2974C37.9701 17.7844 37.9712 18.3059 37.8131 18.8008C37.7072 19.1323 37.5493 19.4449 37.3451 19.7269C37.0404 20.1476 36.6199 20.4559 36.2271 20.7439C36.1944 20.7679 36.1618 20.7919 36.1296 20.8155L34.8514 21.7571C34.2261 22.2178 33.3458 22.0843 32.8851 21.459C32.4246 20.8339 32.5579 19.9534 33.1832 19.4929L34.4614 18.5512C34.7207 18.3601 34.8666 18.252 34.9719 18.1643C35.0368 18.1103 35.0612 18.0844 35.0674 18.0771C35.0964 18.037 35.1189 17.9925 35.1339 17.9453M34.6793 15.494C34.8399 15.5084 34.9071 15.5273 34.9254 15.5336L34.6793 15.494ZM34.9254 15.5336C34.9939 15.574 35.0511 15.6311 35.0914 15.6996C35.0978 15.718 35.1167 15.785 35.1311 15.9457" fill="#2553E4"/>
<path fill-rule="evenodd" clip-rule="evenodd" d="M28.5938 30C28.5938 26.1167 31.7417 22.9688 35.625 22.9688C39.5083 22.9688 42.6562 26.1167 42.6562 30C42.6562 33.8833 39.5083 37.0312 35.625 37.0312C31.7417 37.0312 28.5938 33.8833 28.5938 30ZM35.625 25.7812C33.2951 25.7812 31.4062 27.6701 31.4062 30C31.4062 32.3299 33.2951 34.2188 35.625 34.2188C37.9549 34.2188 39.8438 32.3299 39.8438 30C39.8438 27.6701 37.9549 25.7812 35.625 25.7812Z" fill="#2553E4" fill-opacity="0.5"/>
<path fill-rule="evenodd" clip-rule="evenodd" d="M11.9286 18.2813H13.2225C14.9072 18.2812 16.312 18.2812 17.4272 18.4311C18.6043 18.5894 19.6671 18.9375 20.5211 19.7916C21.375 20.6454 21.7232 21.7082 21.8814 22.8853C22.0314 24.0006 22.0312 25.4053 22.0312 27.09V28.5938H30C30.7766 28.5938 31.4062 29.2234 31.4062 30C31.4062 30.7766 30.7766 31.4062 30 31.4062H5.81254C5.80055 31.4062 5.78852 31.4062 5.77644 31.4062C5.64002 31.4064 5.49842 31.4064 5.36758 31.3961C3.75853 31.2696 2.48053 29.9916 2.35389 28.3824C2.3436 28.2516 2.34367 28.11 2.34377 27.9737C2.34377 27.9615 2.34379 27.9495 2.34379 27.9375L2.34377 27.8661C2.34373 27.2379 2.34371 26.8384 2.37124 26.4887C2.71496 22.1213 6.18384 18.6524 10.5512 18.3087C10.9009 18.2812 11.3004 18.2812 11.9286 18.2813ZM19.2187 28.5938V27.1875C19.2187 25.38 19.2157 24.1658 19.0941 23.2601C18.9776 22.3948 18.7766 22.0245 18.5323 21.7802C18.288 21.5359 17.9177 21.3349 17.0524 21.2184C16.1467 21.0968 14.9326 21.0938 13.125 21.0938H12C11.2768 21.0938 10.9967 21.0949 10.7719 21.1125C7.78369 21.3478 5.41024 23.7212 5.17505 26.7094C5.15737 26.9342 5.15629 27.2143 5.15629 27.9375C5.15629 28.0284 5.1563 28.0824 5.15687 28.1233M19.2187 28.5938H5.81254C5.72167 28.5938 5.66758 28.5938 5.62674 28.5932M5.58669 28.5923C5.35807 28.5735 5.17659 28.392 5.15784 28.1632L5.58669 28.5923ZM25.9956 10.8438C25.4074 10.783 24.6463 10.7813 23.4898 10.7813H22.5C21.7234 10.7813 21.0937 10.1517 21.0937 9.375C21.0937 8.59836 21.7234 7.96875 22.5 7.96875H23.4898C23.5129 7.96875 23.5359 7.96875 23.5588 7.96875C24.6276 7.96871 25.5351 7.9687 26.2849 8.04623C27.0832 8.12876 27.8211 8.30801 28.5182 8.73883C29.2153 9.16965 29.7056 9.74946 30.1365 10.4267C30.5411 11.0627 30.9469 11.8743 31.4248 12.8302L36.8827 23.7461C37.2302 24.4408 36.9486 25.2855 36.2539 25.6328C35.5592 25.9802 34.7145 25.6986 34.3672 25.0039L28.9402 14.1498C28.4229 13.1154 28.0809 12.4354 27.7635 11.9365C27.4637 11.4651 27.2486 11.2605 27.0396 11.1313C26.8305 11.0021 26.5513 10.9013 25.9956 10.8438Z" fill="#2553E4" fill-opacity="0.5"/>
</svg>
