<svg width="29" height="36" viewBox="0 0 29 36" fill="none" xmlns="http://www.w3.org/2000/svg">
<g clip-path="url(#clip0_1_461)">
<path fill-rule="evenodd" clip-rule="evenodd" d="M2.23573 2.03662L1.87678 3.24268L3.16231 3.62529C1.87678 3.24268 1.87689 3.24232 1.87678 3.24268L1.87544 3.24723L1.87264 3.2567L1.86287 3.29017C1.85454 3.31887 1.84263 3.36021 1.82752 3.41362C1.79732 3.5204 1.75428 3.67543 1.7014 3.87376C1.59566 4.27031 1.45035 4.84072 1.28929 5.54536C0.967655 6.95259 0.580825 8.90574 0.322435 11.0855C-0.182915 15.3485 -0.247453 20.8495 2.00349 24.7118C3.57769 27.413 6.59136 29.8279 9.05401 31.5107C10.3106 32.3692 11.4741 33.0705 12.3236 33.5572C12.7489 33.8009 13.097 33.9917 13.3405 34.1225C13.4623 34.1879 13.558 34.2384 13.6242 34.2729L13.7012 34.3128L13.7223 34.3237L13.7303 34.3278C13.7305 34.3279 13.7314 34.3283 14.3394 33.1328L13.7303 34.3278L14.3394 34.6376L14.9474 34.3283L14.3394 33.1328C14.9474 34.3283 14.9471 34.3285 14.9474 34.3283L14.9565 34.3237L14.9776 34.3128L15.0545 34.2729C15.1208 34.2384 15.2165 34.1879 15.3383 34.1225C15.5818 33.9917 15.9298 33.8009 16.3553 33.5572C17.2047 33.0705 18.3681 32.3692 19.6247 31.5107C22.0875 29.8279 25.1011 27.413 26.6753 24.7118C28.9262 20.8495 28.8617 15.3485 28.3564 11.0855C28.098 8.90574 27.7111 6.95259 27.3895 5.54536C27.2285 4.84072 27.0831 4.27031 26.9774 3.87376C26.9245 3.67543 26.8814 3.5204 26.8513 3.41362C26.8362 3.36021 26.8242 3.31887 26.816 3.29017L26.8061 3.2567L26.8033 3.24723L26.8025 3.24434C26.8024 3.24399 26.802 3.24268 25.5165 3.62529L26.802 3.24268L26.4431 2.03662L25.2167 2.31796L25.1999 2.32177L25.1455 2.33405C25.097 2.34496 25.0244 2.36115 24.9298 2.38187C24.7407 2.42333 24.4642 2.4829 24.1181 2.55452C23.4254 2.69789 22.4561 2.8891 21.352 3.0802C19.1223 3.4661 16.4222 3.83706 14.3394 3.83706C12.2566 3.83706 9.55654 3.4661 7.32677 3.0802C6.22266 2.8891 5.25345 2.69789 4.56074 2.55452C4.21461 2.4829 3.93811 2.42333 3.749 2.38187C3.65447 2.36115 3.58181 2.34496 3.53326 2.33405L3.47881 2.32177L2.23573 2.03662ZM24.5503 5.20435C23.8452 5.34928 22.8906 5.53629 21.8095 5.7234C19.5525 6.11401 16.6641 6.51957 14.3394 6.51957C12.0147 6.51957 9.12621 6.11401 6.86931 5.7234C5.78816 5.53629 4.83361 5.34928 4.12854 5.20435C4.06034 5.4777 3.98449 5.79248 3.90436 6.14308C3.59769 7.48482 3.23054 9.34072 2.98628 11.4013C2.48633 15.6188 2.55088 20.3235 4.32113 23.3612C5.57315 25.5095 8.14803 27.6428 10.5674 29.2958C11.7517 30.105 12.8526 30.7687 13.6572 31.2298C13.9192 31.3798 14.1489 31.5081 14.3394 31.6124C14.5298 31.5081 14.7597 31.3798 15.0215 31.2298C15.8262 30.7687 16.927 30.105 18.1114 29.2958C20.5307 27.6428 23.1057 25.5095 24.3576 23.3612C26.1279 20.3235 26.1924 15.6188 25.6925 11.4013C25.4483 9.34072 25.0811 7.48482 24.7744 6.14308C24.6944 5.79248 24.6185 5.4777 24.5503 5.20435Z" fill="url(#paint0_linear_1_461)"/>
<path d="M11.8904 20.8753L7.20801 15.7574L8.91889 14.2017L12.1501 17.9715L20.2283 11.509L21.4714 13.3642L11.8904 20.8753Z" fill="url(#paint1_linear_1_461)"/>
</g>
<defs>
<linearGradient id="paint0_linear_1_461" x1="39.6868" y1="13.8546" x2="-21.5898" y2="26.5194" gradientUnits="userSpaceOnUse">
<stop offset="0.0895831" stop-color="#1E96FC" stop-opacity="0.4"/>
<stop offset="0.501041" stop-color="#1E96FC"/>
<stop offset="0.797916" stop-color="#1E96FC" stop-opacity="0.4"/>
</linearGradient>
<linearGradient id="paint1_linear_1_461" x1="28.2835" y1="15.0801" x2="-2.46611" y2="26.7104" gradientUnits="userSpaceOnUse">
<stop offset="0.0895831" stop-color="#1E96FC" stop-opacity="0.4"/>
<stop offset="0.501041" stop-color="#1E96FC"/>
<stop offset="0.797916" stop-color="#1E96FC" stop-opacity="0.4"/>
</linearGradient>
<clipPath id="clip0_1_461">
<rect width="28.875" height="34.375" fill="white" transform="translate(0 0.875)"/>
</clipPath>
</defs>
</svg>
