<svg width="46" height="46" viewBox="0 0 46 46" fill="none" xmlns="http://www.w3.org/2000/svg">
<path fill-rule="evenodd" clip-rule="evenodd" d="M5.51229 22.5136V32.823C5.51229 35.0818 6.40957 37.248 8.00675 38.8451C9.60388 40.4423 11.7701 41.3396 14.0288 41.3396C19.3664 41.3396 26.6208 41.3396 31.9583 41.3396C34.2171 41.3396 36.3833 40.4423 37.9805 38.8451C39.5776 37.248 40.4749 35.0818 40.4749 32.823C40.4749 29.2371 40.4749 25.6512 40.4749 25.6512C40.4749 24.9091 39.8724 24.3065 39.1302 24.3065C38.388 24.3065 37.7854 24.9091 37.7854 25.6512C37.7854 25.6512 37.7854 29.2371 37.7854 32.823C37.7854 34.3685 37.1715 35.8507 36.0788 36.9434C34.9859 38.0362 33.5038 38.6502 31.9583 38.6502C26.6208 38.6502 19.3664 38.6502 14.0288 38.6502C12.4834 38.6502 11.0012 38.0362 9.90845 36.9434C8.81564 35.8507 8.20172 34.3685 8.20172 32.823V22.5136H42.7161C43.1907 22.5136 43.6301 22.2634 43.8724 21.8553C44.1146 21.4472 44.1239 20.9416 43.8966 20.5249L38.5177 10.6637C38.2821 10.2317 37.8293 9.96289 37.3372 9.96289H8.64997C8.15787 9.96289 7.7051 10.2317 7.46946 10.6637L2.0906 20.5249C1.86332 20.9416 1.87252 21.4472 2.11479 21.8553C2.35705 22.2634 2.79653 22.5136 3.27111 22.5136H5.51229ZM35.096 25.6512C35.096 24.9086 34.494 24.3065 33.7513 24.3065H22.9936C22.2509 24.3065 21.6489 24.9086 21.6489 25.6512V34.616C21.6489 35.3587 22.2509 35.9607 22.9936 35.9607H33.7513C34.494 35.9607 35.096 35.3587 35.096 34.616V25.6512ZM32.4066 26.9959V33.2713H24.3383V26.996L32.4066 26.9959ZM40.4509 19.8241H5.5363C5.53634 19.8241 9.44824 12.6523 9.44824 12.6523C9.44828 12.6523 36.5389 12.6523 36.5389 12.6523L40.4509 19.8241Z" fill="#8DC14B"/>
<path fill-rule="evenodd" clip-rule="evenodd" d="M10.8911 39.7671C10.8911 40.3803 11.3059 40.9158 11.8997 41.0691C12.5896 41.2472 13.3044 41.3395 14.0288 41.3395H19.4077C20.1503 41.3395 20.7524 40.7375 20.7524 39.9948V29.2371C20.7524 27.9294 20.2329 26.6753 19.3082 25.7506C18.3836 24.826 17.1294 24.3065 15.8218 24.3065C14.5141 24.3065 13.2599 24.826 12.3353 25.7506C11.4106 26.6753 10.8911 27.9294 10.8911 29.2371V39.7671ZM13.5805 38.6328V29.2371C13.5805 28.6427 13.8167 28.0726 14.237 27.6523C14.6573 27.232 15.2273 26.9959 15.8218 26.9959C16.4161 26.9959 16.9862 27.232 17.4065 27.6523C17.8268 28.0726 18.0629 28.6427 18.0629 29.2371V38.6501L14.0288 38.6501L13.5805 38.6328ZM13.8495 7.27341H32.1376C32.8798 7.27341 33.4823 6.6709 33.4823 5.9287C33.4823 5.18655 32.8798 4.58398 32.1376 4.58398H13.8495C13.1073 4.58398 12.5048 5.18655 12.5048 5.9287C12.5048 6.6709 13.1073 7.27341 13.8495 7.27341Z" fill="#C5E459" fill-opacity="0.75"/>
</svg>
