<svg width="20" height="20" viewBox="0 0 20 20" fill="none" xmlns="http://www.w3.org/2000/svg">
<path d="M2.0835 10C2.0835 6.26805 2.0835 4.40208 3.24286 3.2427C4.40224 2.08334 6.26821 2.08334 10.0002 2.08334C13.7321 2.08334 15.5981 2.08334 16.7575 3.2427C17.9168 4.40208 17.9168 6.26805 17.9168 10C17.9168 13.7319 17.9168 15.5979 16.7575 16.7573C15.5981 17.9167 13.7321 17.9167 10.0002 17.9167C6.26821 17.9167 4.40224 17.9167 3.24286 16.7573C2.0835 15.5979 2.0835 13.7319 2.0835 10Z" stroke="#303030"/>
<path d="M11.6668 5.83334C11.6668 5.83334 8.3335 8.902 8.3335 10C8.33349 11.098 11.6668 14.1667 11.6668 14.1667" stroke="#303030" stroke-linecap="round" stroke-linejoin="round"/>
</svg>
