<svg width="44" height="44" viewBox="0 0 44 44" fill="none" xmlns="http://www.w3.org/2000/svg">
<path opacity="0.1" d="M8.75635 21.3775L13.9271 19.6065C15 19.2059 15.4525 16.7885 19.0203 13.2077C22.1488 9.91194 24.5105 5.96562 25.9364 1.65097C25.9859 1.50948 26.0673 1.38122 26.1741 1.27602C26.2809 1.17083 26.4104 1.09148 26.5527 1.04407C26.6949 0.996654 26.8461 0.982426 26.9947 1.00248C27.1433 1.02252 27.2854 1.07632 27.4099 1.15974C29.168 2.32317 31.9474 5.46442 28.1856 12.5225C27.7977 13.2594 37.7774 10.2862 40.9316 14.0479C43.0645 16.6333 40.8024 29.1855 37.5059 32.637C34.5457 35.7523 19.4082 33.8521 19.4082 33.8521L12.5052 37.1743" fill="#E0E0E8"/>
<path d="M24.1388 29.5227C21.2948 29.5306 18.482 28.9304 15.8891 27.7621C13.2961 26.5937 10.983 24.8845 9.1048 22.7489L12.5046 37.1754L19.3817 33.8791C19.3817 33.8791 34.5838 35.7793 37.4795 32.664C39.6254 30.4147 41.3576 24.3131 41.6678 19.6206C39.7738 22.5742 37.1866 25.0203 34.1317 26.746C31.0766 28.4718 27.6462 29.425 24.1388 29.5227Z" fill="#2553E4"/>
<path d="M12.9448 38.042L12.1046 36.2968L18.9688 32.9745C19.1377 32.894 19.3258 32.8626 19.5117 32.884C25.2124 33.595 34.9466 33.9828 36.8597 31.9792C39.9623 28.7216 41.9141 16.6606 40.2467 14.6699C38.3334 12.4077 32.8394 13.1058 30.2023 13.4548C28.4571 13.6745 27.8626 13.7521 27.4359 13.1445C27.3466 12.9798 27.2998 12.7954 27.2998 12.6081C27.2998 12.4207 27.3466 12.2363 27.4359 12.0716C30.7969 5.77614 28.5865 3.02271 26.9834 1.96269C25.4805 6.41079 23.0331 10.4811 19.8091 13.8943C18.4298 15.2745 17.227 16.8202 16.2282 18.4963C15.6078 19.5046 15.1425 20.2286 14.3668 20.5259L9.06672 22.2451L8.44623 20.4095L13.617 18.6385C13.9639 18.2753 14.2597 17.8665 14.4961 17.4234C15.5789 15.6188 16.8815 13.9558 18.3741 12.4723C21.3922 9.27821 23.6735 5.46137 25.0574 1.29049C25.1604 1.00879 25.3264 0.754401 25.5429 0.546801C25.7594 0.339203 26.0204 0.183908 26.3061 0.0928187C26.5918 0.00172873 26.8947 -0.0227401 27.1914 0.0212873C27.488 0.0653146 27.7708 0.17667 28.0177 0.34682C29.6465 1.43269 32.8912 4.62565 29.8145 11.5416H29.9696C33.1756 11.1279 39.1478 10.3523 41.7462 13.4419C44.3444 16.5314 41.6039 29.8462 38.2818 33.3235C35.1792 36.5294 22.11 35.1721 19.5505 34.8489L12.9448 38.042Z" fill="#2553E4"/>
<path d="M18.9816 38.3273L6.76568 40.9902L2.20245 20.6949L14.4185 18.0448L18.9816 38.3273Z" fill="#2553E4"/>
<path d="M15.7879 38.7809L6.7214 41.3663L2.2146 20.6831L11.2635 18.744L15.7879 38.7809Z" fill="#EBEBEB"/>
<path d="M6.75248 41.9456C6.53365 41.9455 6.32131 41.8714 6.14997 41.7351C5.97865 41.599 5.8584 41.4089 5.80881 41.1958L1.24558 20.9522C1.21758 20.8291 1.2146 20.7015 1.2368 20.5771C1.25901 20.4528 1.30595 20.3341 1.37485 20.2284C1.44404 20.119 1.53471 20.0247 1.64137 19.9515C1.74802 19.8781 1.86843 19.8271 1.99535 19.8017L14.2113 17.0742C14.4615 17.0202 14.7228 17.0674 14.9384 17.2054C15.1539 17.3434 15.3061 17.5611 15.3619 17.811L19.9251 38.0934C19.9808 38.3464 19.9344 38.6113 19.7958 38.8303C19.7276 38.9378 19.6387 39.0307 19.5344 39.1039C19.4303 39.1771 19.3126 39.2292 19.1883 39.2568L6.95931 41.9198L6.75248 41.9456ZM3.35269 21.4305L7.48932 39.8257L17.8309 37.5893L13.6943 19.1812L3.35269 21.4305Z" fill="#2553E4"/>
<path d="M31.8485 38.9565L32.2492 39.7839C32.2733 39.8336 32.3096 39.8764 32.3548 39.9081C32.4001 39.9398 32.4528 39.9593 32.5078 39.9649L33.4126 40.1071C33.4771 40.1136 33.5383 40.1385 33.5889 40.179C33.6395 40.2195 33.6773 40.2738 33.6978 40.3352C33.7182 40.3967 33.7206 40.4628 33.7043 40.5254C33.6881 40.5882 33.6541 40.645 33.6065 40.6888L32.9472 41.2834C32.9073 41.3235 32.8781 41.3727 32.8623 41.427C32.8464 41.4813 32.8445 41.5385 32.8567 41.5938L33.0765 42.5761C33.0859 42.6395 33.0777 42.7043 33.0526 42.7634C33.0277 42.8224 32.9869 42.8734 32.9349 42.9108C32.8827 42.9482 32.8213 42.9705 32.7574 42.9754C32.6935 42.9802 32.6295 42.9673 32.5723 42.9381L31.758 42.5244C31.7077 42.4994 31.6524 42.4864 31.5964 42.4864C31.5402 42.4864 31.4849 42.4994 31.4348 42.5244L30.6334 42.9381C30.5853 43.0135 30.5093 43.0667 30.422 43.0862C30.3348 43.1056 30.2434 43.0895 30.168 43.0415C30.0925 42.9935 30.0392 42.9176 30.0199 42.8303C30.0005 42.7429 30.0165 42.6515 30.0645 42.5761L30.2196 41.6841C30.2421 41.6144 30.2441 41.5398 30.2259 41.4688C30.2076 41.398 30.1696 41.3337 30.1162 41.2834L29.4699 40.6371C29.4222 40.5932 29.3882 40.5364 29.372 40.4738C29.3559 40.411 29.3581 40.3449 29.3786 40.2834C29.3992 40.222 29.4369 40.1679 29.4875 40.1274C29.5381 40.0869 29.5994 40.0618 29.6638 40.0554L30.5558 39.9907C30.6115 39.9879 30.6653 39.9694 30.711 39.9375C30.7567 39.9053 30.7925 39.8612 30.8144 39.8097L31.228 38.9825C31.2548 38.9241 31.2973 38.8744 31.3507 38.8388C31.404 38.803 31.4661 38.7827 31.5302 38.78C31.5945 38.7773 31.6581 38.7924 31.7142 38.8235C31.7703 38.8548 31.8168 38.9008 31.8485 38.9565Z" fill="#2553E4" fill-opacity="0.2"/>
<path d="M14.7592 1.78955L15.0954 3.31493C15.115 3.41073 15.1584 3.50004 15.2216 3.5746C15.285 3.64915 15.366 3.70657 15.4573 3.74152L16.9051 4.33617C17.007 4.37832 17.0952 4.44797 17.1597 4.53734C17.2244 4.6267 17.2628 4.73227 17.2709 4.84224C17.2789 4.95221 17.2562 5.06226 17.2053 5.16008C17.1544 5.25789 17.0774 5.33965 16.9827 5.39617L15.69 6.19765C15.6081 6.24608 15.5395 6.31381 15.4899 6.39494C15.4403 6.47606 15.4114 6.56811 15.4056 6.66302L15.2375 8.22718C15.2307 8.33784 15.1933 8.4444 15.1291 8.53485C15.065 8.6253 14.977 8.69604 14.8748 8.73906C14.7726 8.78207 14.6604 8.79568 14.5509 8.77832C14.4414 8.76097 14.339 8.71335 14.2551 8.64085L13.0787 7.60669C13.0053 7.54286 12.918 7.49683 12.8239 7.47218C12.7297 7.44751 12.6311 7.44488 12.5358 7.46449L11.0234 7.8523C10.9159 7.87823 10.8034 7.87369 10.6983 7.8392C10.5933 7.80472 10.5 7.74164 10.4288 7.65705C10.3577 7.57247 10.3115 7.46973 10.2955 7.36036C10.2795 7.25099 10.2943 7.13933 10.3382 7.0379L10.9587 5.59008C11.0064 5.50754 11.0315 5.41392 11.0315 5.31861C11.0315 5.22331 11.0064 5.12968 10.9587 5.04715L10.1314 3.75444C10.0741 3.65877 10.0443 3.5492 10.0451 3.43769C10.046 3.32619 10.0775 3.21707 10.1362 3.1223C10.195 3.02752 10.2787 2.95072 10.3781 2.90034C10.4776 2.84995 10.589 2.82791 10.7002 2.83663L12.2514 2.99176C12.3488 2.99839 12.4464 2.98194 12.5363 2.94376C12.6261 2.90557 12.7057 2.84672 12.7685 2.772L13.6863 1.54394C13.7543 1.44742 13.8494 1.37331 13.9596 1.33104C14.0699 1.28878 14.1902 1.28028 14.3052 1.30662C14.4203 1.33296 14.5249 1.39295 14.6058 1.47895C14.6866 1.56496 14.74 1.67308 14.7592 1.78955Z" fill="#2553E4" fill-opacity="0.2"/>
</svg>
