<svg width="70" height="70" viewBox="0 0 70 70" fill="none" xmlns="http://www.w3.org/2000/svg">
<path d="M46.368 10.8275C46.3512 5.21629 42.6188 2.73549 37.8644 4.90969V5.81409C42.1904 3.88069 45.5742 6.15989 45.5882 11.2769L45.913 11.0949L46.4044 12.2401L46.368 10.8261V10.8275Z" fill="#102770"/>
<path d="M44.0104 9.95391C44.4906 9.67391 45.1556 9.71311 45.8906 10.1373C47.3494 10.9801 48.5282 13.0213 48.5226 14.6985C48.5212 15.5315 48.2272 16.1167 47.7526 16.3925L46.9 16.8881C47.3746 16.6123 47.6686 16.0271 47.67 15.1941C47.6756 13.5169 46.4968 11.4757 45.038 10.6329C44.303 10.2101 43.638 10.1709 43.1578 10.4495L44.0104 9.95391Z" fill="#102770"/>
<path d="M42.0644 9.69777C42.7014 9.32677 43.5862 9.37857 44.562 9.94277C46.4996 11.0628 48.0662 13.7746 48.0592 16.002C48.0564 17.108 47.6672 17.8878 47.0372 18.2532L45.115 19.369C45.745 19.0036 46.1356 18.2252 46.1384 17.1178C46.1454 14.8904 44.5788 12.1786 42.6398 11.0586C41.6654 10.4958 40.7806 10.4426 40.1422 10.8136L42.0644 9.69777Z" fill="#2983D3"/>
<path d="M42.6398 11.06C40.7022 9.94005 39.1258 10.8374 39.1188 13.0662C39.1132 15.2922 40.6784 18.0054 42.6188 19.1254C44.5564 20.2454 46.1328 19.3466 46.1384 17.1178C46.1454 14.8904 44.5788 12.18 42.6398 11.06Z" fill="#2983D3"/>
<path d="M42.553 12.3102C41.216 11.5388 40.1296 12.1576 40.1254 13.6948C40.1212 15.2306 41.2006 17.101 42.5376 17.8738C43.8746 18.6452 44.9624 18.0264 44.9666 16.4892C44.9708 14.9534 43.89 13.083 42.553 12.3102Z" fill="#2983D3"/>
<path d="M42.882 17.472C41.5436 16.6992 40.4642 14.8288 40.4684 13.2916C40.4684 12.859 40.5566 12.4992 40.7106 12.2234C40.3466 12.5006 40.1268 13.0046 40.1254 13.6934C40.1212 15.2306 41.2006 17.101 42.5376 17.8738C43.498 18.4282 44.3296 18.2644 44.7244 17.5588C44.2778 17.899 43.6184 17.8962 42.8806 17.4706L42.882 17.472Z" fill="#102770"/>
<path d="M40.1492 4.02637C41.7102 4.93217 42.679 6.85857 42.686 9.58857L42.7224 11.004L45.6246 12.6896L45.5882 11.2784C45.5812 8.54417 44.6124 6.61777 43.0514 5.71197L40.1492 4.02637Z" fill="#3086EE"/>
<path d="M45.1192 19.7595C44.9652 23.2399 44.4794 26.2555 44.4794 26.2555C44.2414 29.5315 45.1206 31.9619 44.198 32.8537C44.1462 35.5221 43.316 39.0389 43.316 39.0389L34.3364 39.5541L28.7966 29.3831C29.645 26.5733 28.8624 26.5257 28.6552 25.5107C28.6132 25.3091 28.5852 25.1999 28.5852 25.1999C29.2292 28.2561 27.0872 15.0471 29.7122 10.7519C31.9704 7.05454 44.9848 7.28974 45.654 11.7249C46.284 15.1829 46.235 16.7915 45.1192 19.7595Z" fill="white"/>
<path d="M45.5882 11.2771C45.5826 9.0889 44.9582 7.4187 43.911 6.3771C42.5068 4.9813 41.475 3.6709 36.2614 3.1641C18.0054 1.3889 25.6256 23.8631 25.6256 23.8631L29.7136 24.1361C29.3314 13.8629 32.7586 12.9543 34.4428 13.1181C35.693 13.2385 36.9516 13.3197 38.1948 13.1363C40.8828 12.7415 42.238 11.7713 43.561 10.4245C43.622 10.3646 43.696 10.3196 43.7773 10.2931C43.8585 10.2666 43.9448 10.2592 44.0294 10.2715C44.114 10.2838 44.1946 10.3156 44.2649 10.3642C44.3352 10.4129 44.3932 10.4771 44.4346 10.5519C46.0502 13.4079 45.1192 19.7597 45.1192 19.7597C47.2584 16.0805 45.5882 11.2771 45.5882 11.2771Z" fill="#102770"/>
<path d="M26.7582 20.9985C27.3966 20.6275 28.28 17.3585 29.2558 17.9227C31.1948 19.0427 32.7614 21.7545 32.7558 23.9819C32.7516 25.0879 32.361 25.8677 31.731 26.2331L29.8102 27.3489C30.4402 26.9835 30.8308 26.2051 30.8322 25.0977C30.8392 22.8717 29.274 20.1585 27.335 19.0385C26.3592 18.4757 25.4758 18.4225 24.8374 18.7935L26.7582 20.9999V20.9985Z" fill="#102770"/>
<path d="M27.335 19.04C25.396 17.92 23.821 18.8174 23.814 21.0462C23.8084 23.2722 25.3736 25.9854 27.3126 27.1054C29.2516 28.2254 30.8266 27.3266 30.8336 25.0978C30.8392 22.8704 29.274 20.1586 27.335 19.0386V19.04Z" fill="#2983D3"/>
<path d="M25.1328 20.0087C25.613 19.7301 26.278 19.7707 27.0116 20.1935C28.4704 21.0363 29.6492 23.0775 29.6436 24.7533C29.6436 25.5863 29.3496 26.1729 28.8736 26.4473L27.783 27.0829C28.2576 26.8071 28.5516 26.2205 28.553 25.3889C28.5586 23.7117 27.3798 21.6705 25.921 20.8277C25.186 20.4035 24.521 20.3643 24.0408 20.6429L25.1328 20.0087Z" fill="#102770"/>
<path d="M25.921 20.8277C24.4622 19.9849 23.275 20.6611 23.2708 22.3383C23.2666 24.0141 24.444 26.0553 25.9028 26.8981C27.363 27.7409 28.5488 27.0647 28.553 25.3875C28.5586 23.7117 27.3798 21.6705 25.921 20.8277Z" fill="#102770"/>
<path d="M24.549 20.0621L24.5868 23.2583L27.4876 24.9453L27.4512 21.7505C27.433 15.7557 31.6624 8.43085 36.8774 5.41945C39.5024 3.90745 41.8852 3.76745 43.6072 4.76565L40.7022 3.08005C38.983 2.07765 36.6002 2.21625 33.9766 3.73385C28.7602 6.74525 24.5308 14.0715 24.549 20.0621Z" fill="#102770"/>
<path d="M36.8788 5.41941C31.6624 8.43081 27.4344 15.7556 27.4512 21.749L27.4554 21.9254H28.245L28.2282 21.2996C28.2128 15.8004 32.095 9.07621 36.8802 6.31261C40.6532 4.13421 43.8704 5.06661 45.0744 8.25021H46.0376C44.9568 4.20981 41.2608 2.88961 36.8788 5.41941Z" fill="#102770"/>
<path d="M44.4794 26.2571C44.4794 26.2571 44.8658 37.6993 40.3606 38.7703C34.8908 40.0681 31.7814 32.4899 27.1586 31.5757C27.1586 31.5757 24.773 32.9813 22.1466 34.9301C20.0995 36.4441 18.4352 38.4163 17.2871 40.6888C16.1389 42.9614 15.5386 45.4711 15.5344 48.0173L15.2754 62.0495C15.2754 63.4075 16.0482 64.6381 17.2732 65.2261C20.9762 67.0013 28.9086 70.7295 44.45 62.0495L44.4948 62.0215C50.3412 58.3717 53.6788 55.3225 54.488 46.9799C54.488 46.9799 57.1718 19.8549 44.4794 26.2571Z" fill="#2983D3" fill-opacity="0.65"/>
<path d="M45.5504 28.0139C45.402 28.0629 45.2564 28.1035 45.1024 28.1637C44.856 31.0617 43.4336 34.7997 39.8776 36.8227C39.8776 36.8227 35.8008 39.1887 30.8896 34.0731C29.7276 34.0549 28.4886 31.8387 27.1586 31.5755C27.1586 31.5755 39.1454 55.8795 44.45 62.0493C44.45 62.0493 44.863 61.7609 45.4888 61.2821L45.4188 61.1491C45.4188 61.1491 50.0346 48.6611 45.5504 28.0139Z" fill="#102770"/>
<path d="M44.1154 34.4331L41.7116 40.7709L46.431 54.9277L45.4888 61.2823L44.45 62.0495L40.8842 57.3539L39.865 41.8125L36.2992 38.8417L44.1154 34.4331Z" fill="#2983D3"/>
<path d="M44.4794 26.2571C44.4794 26.2571 44.709 31.9089 39.8776 36.8229C39.8776 36.8229 43.3804 39.3485 44.709 39.3485C44.709 39.3485 47.1688 33.7667 46.7936 31.0633C46.4184 28.3599 44.9414 28.6315 44.4794 26.2571ZM27.1586 31.5757C27.1586 31.5757 27.9174 30.9191 28.7966 29.3833C28.7966 29.3833 33.3858 37.2009 39.8776 36.8229C39.8776 36.8229 39.0558 40.7555 36.9964 42.6189C36.9964 42.6189 29.9782 38.9341 27.1586 31.5757Z" fill="#3086EE"/>
<path d="M27.5534 45.0325H31.9018L30.7496 49.2003L44.45 62.0495L27.16 31.5757C27.16 31.5757 23.7118 38.9817 27.5534 45.0325ZM50.3622 35.1093C50.3622 35.1093 49.0784 31.4161 44.4794 26.2571C44.4794 26.2571 46.9168 47.8591 45.4188 61.1493C45.4188 61.1493 50.7444 45.6009 50.7444 40.7373L48.0046 38.7129L50.3622 35.1093Z" fill="#102770"/>
<path d="M40.159 24.9242C36.4672 27.349 30.3646 25.6508 28.9576 24.2368C28.7518 24.7198 29.0136 25.0152 28.7966 25.4954C34.251 29.1018 40.6952 26.2556 40.4684 26.0372C40.3354 25.5654 40.2892 25.3974 40.159 24.9242Z" fill="#102770"/>
<path d="M43.8522 24.5141C43.8005 24.3588 43.7187 24.2152 43.6114 24.0916C43.5042 23.9679 43.3737 23.8666 43.2273 23.7934C43.0809 23.7202 42.9215 23.6766 42.7582 23.665C42.595 23.6534 42.431 23.6741 42.2758 23.7259L39.4926 24.6527C39.1788 24.7572 38.9195 24.9821 38.7715 25.2779C38.6236 25.5736 38.5992 25.916 38.7037 26.2298C38.8082 26.5435 39.0331 26.8029 39.3289 26.9509C39.6246 27.0988 39.967 27.1232 40.2808 27.0187L43.0626 26.0919C43.2182 26.0403 43.362 25.9586 43.4859 25.8513C43.6099 25.744 43.7114 25.6134 43.7847 25.4668C43.8581 25.3202 43.9018 25.1607 43.9134 24.9972C43.925 24.8337 43.9042 24.6695 43.8522 24.5141Z" fill="#102770"/>
</svg>
