<svg width="21" height="21" viewBox="0 0 21 21" fill="none" xmlns="http://www.w3.org/2000/svg">
<g clip-path="url(#clip0_78_4230)">
<path d="M16.0576 9.55664C18.606 9.55664 20.6719 7.49077 20.6719 4.94238C20.6719 2.394 18.606 0.328125 16.0576 0.328125C13.5092 0.328125 11.4434 2.394 11.4434 4.94238C11.4434 7.49077 13.5092 9.55664 16.0576 9.55664Z" fill="#2983D3"/>
<path fill-rule="evenodd" clip-rule="evenodd" d="M19.8516 4.94238C19.8516 7.35254 18.0037 9.3311 15.6475 9.53864C15.7826 9.55053 15.9194 9.55664 16.0576 9.55664C18.606 9.55664 20.6719 7.49077 20.6719 4.94238C20.6719 2.394 18.606 0.328125 16.0577 0.328125C15.9194 0.328125 15.7826 0.334195 15.6475 0.346131C18.0037 0.55367 19.8516 2.53222 19.8516 4.94238Z" fill="#1A45D6"/>
<path fill-rule="evenodd" clip-rule="evenodd" d="M13.7067 4.21774C13.7137 4.30348 13.6867 4.38852 13.6314 4.45444C13.5762 4.52037 13.4972 4.56187 13.4115 4.56996C13.3259 4.57805 13.2405 4.55208 13.1739 4.49767C13.1073 4.44326 13.0648 4.36479 13.0556 4.27927C12.9975 3.67502 13.2874 3.27241 13.6988 3.06885C13.9332 2.9529 14.2077 2.9075 14.475 2.93166C14.7432 2.9559 15.0076 3.05031 15.2207 3.21376C15.5974 3.50272 15.8165 3.98715 15.6341 4.65493C15.527 5.04716 15.1537 5.33849 14.7286 5.67019C14.483 5.86189 14.2166 6.06976 13.9984 6.30536H15.4872C15.573 6.30671 15.6548 6.34175 15.715 6.4029C15.7752 6.46405 15.8089 6.54641 15.8089 6.63221C15.8089 6.71801 15.7752 6.80037 15.715 6.86152C15.6548 6.92267 15.573 6.9577 15.4872 6.95906H13.3898C13.3329 6.96228 13.2762 6.95059 13.2252 6.92516C13.1742 6.89973 13.1307 6.86143 13.0991 6.81405C13.0674 6.76667 13.0487 6.71186 13.0447 6.65502C13.0408 6.59818 13.0517 6.54129 13.0765 6.48997C13.3574 5.91099 13.8727 5.50883 14.3262 5.15495C14.6603 4.89421 14.9538 4.66518 15.0035 4.4832C15.1026 4.12029 15.0029 3.8719 14.8234 3.73413C14.7097 3.64693 14.5651 3.59623 14.4161 3.58274C14.2661 3.5692 14.1148 3.59336 13.9885 3.65583C13.8067 3.74586 13.6792 3.93162 13.7067 4.21774ZM18.744 5.40322C18.8298 5.40458 18.9116 5.43961 18.9718 5.50076C19.032 5.56191 19.0658 5.64427 19.0658 5.73007C19.0658 5.81587 19.032 5.89823 18.9718 5.95938C18.9116 6.02053 18.8298 6.05556 18.744 6.05692H18.5641V6.63229C18.5641 6.71932 18.5296 6.80277 18.468 6.86431C18.4065 6.92585 18.323 6.96042 18.236 6.96042C18.149 6.96042 18.0655 6.92585 18.004 6.86431C17.9425 6.80277 17.9079 6.71932 17.9079 6.63229V6.05692H16.197C16.135 6.0569 16.0744 6.03929 16.0221 6.00614C15.9698 5.97298 15.928 5.92565 15.9015 5.86965C15.875 5.81365 15.865 5.75129 15.8727 5.68983C15.8803 5.62837 15.9052 5.57034 15.9445 5.52249L17.9835 3.04461C18.0263 2.99257 18.0841 2.95501 18.149 2.93708C18.214 2.91915 18.2829 2.92173 18.3463 2.94445C18.4097 2.96718 18.4646 3.00895 18.5033 3.06404C18.5421 3.11913 18.5629 3.18486 18.5629 3.25223H18.5641V5.40318L18.744 5.40322ZM16.8894 5.40322H17.9079V4.16545L16.8894 5.40322Z" fill="#ECEFF1"/>
<path fill-rule="evenodd" clip-rule="evenodd" d="M8.68833 12.3117C7.78496 11.4099 6.9843 10.4118 6.30368 9.33561C6.05517 8.94256 6.0578 8.47035 6.31049 8.08013L7.2817 6.58059C7.48891 6.26051 7.52845 5.89531 7.3945 5.53839L5.72389 1.08577C5.46225 0.388466 4.63427 0.112553 4.0066 0.513563L1.67589 2.00272C0.612233 2.68235 0.118405 3.90404 0.411421 5.13184C1.31323 8.91086 3.28018 12.3117 5.99873 15.0013C8.68833 17.7199 12.0891 19.6868 15.8682 20.5886C17.096 20.8816 18.3177 20.3878 18.9973 19.3241L20.4864 16.9934C20.8874 16.3657 20.6115 15.5377 19.9142 15.2761L15.4617 13.6055C15.1047 13.4715 14.7395 13.511 14.4194 13.7183L12.9199 14.6895C12.5297 14.9422 12.0575 14.9448 11.6644 14.6963C10.5882 14.0157 9.59006 13.215 8.68833 12.3117Z" fill="#2983D3"/>
<path fill-rule="evenodd" clip-rule="evenodd" d="M17.2385 19.218C13.4595 18.3162 10.0587 16.3492 7.36907 13.6307C4.65047 10.9411 2.68352 7.54025 1.78175 3.7612C1.61798 3.07496 1.70001 2.39062 1.98999 1.80176L1.67589 2.00245C0.612233 2.68208 0.118405 3.90377 0.411421 5.13157C1.31323 8.91059 3.28018 12.3114 5.99873 15.001C8.68833 17.7196 12.0891 19.6865 15.8682 20.5883C17.096 20.8813 18.3177 20.3875 18.9973 19.3238L19.198 19.0097C18.6091 19.2997 17.9248 19.3818 17.2385 19.218Z" fill="#1A45D6"/>
</g>
<defs>
<clipPath id="clip0_78_4230">
<rect width="21" height="21" fill="white"/>
</clipPath>
</defs>
</svg>
