<svg width="142" height="149" viewBox="0 0 142 149" fill="none" xmlns="http://www.w3.org/2000/svg">
<path d="M137.062 82.5779C137.062 105.42 125.382 125.547 107.675 137.392C107.675 137.392 107.641 137.392 107.641 137.426C105.938 138.546 104.167 139.632 102.328 140.583C94.0195 145.063 84.6209 147.812 74.6435 148.355C73.4415 148.423 72.2378 148.457 71.0339 148.457C67.1178 148.457 63.372 148.151 59.6603 147.507C47.0267 145.334 35.619 139.564 26.5951 131.351C13.2804 119.302 4.9375 101.958 4.9375 82.6458C4.9375 46.2613 34.5293 16.8007 70.9998 16.8007C107.47 16.8007 137.062 46.1934 137.062 82.5779Z" fill="#E6E5E5"/>
<path d="M78.696 56.8508H65.5516C65.5516 56.8508 71.579 71.4453 36.4365 78.0298L43.6217 134.473H100.558L107.743 78.0298C72.7027 71.4114 78.696 56.8508 78.696 56.8508Z" fill="white" stroke="#221F1F" stroke-width="1.5" stroke-miterlimit="10"/>
<path d="M63.9169 68.9677L72.7025 72.5654L80.739 69.3071L82.7821 72.1241L72.8728 103.791L61.5332 71.7847L63.9169 68.9677Z" fill="#E6E4E4"/>
<path d="M72.7025 76.6383L69.3994 73.0406L61.8057 69.4089L64.3937 65.5057L69.2292 67.3385L72.7025 76.6383Z" fill="#DBDADA" stroke="black" stroke-width="1.5" stroke-miterlimit="10"/>
<path d="M72.7028 76.6383L71.8856 75.7898L68.4803 67.7458L67.5268 73.5157L59.5244 69.8841L63.2702 63.2656L69.1613 66.3542L72.7028 76.6383Z" fill="#F7FAFB" stroke="black" stroke-width="1.5" stroke-miterlimit="10"/>
<path d="M71.6133 76.6383L74.9164 73.0406L82.5102 69.4089L79.9222 65.5057L75.0867 67.3385L71.6133 76.6383Z" fill="#DBDADA" stroke="black" stroke-width="1.5" stroke-miterlimit="10"/>
<path d="M71.6133 76.6383L72.4305 75.7898L75.8358 67.7458L76.7893 73.5157L84.7917 69.8841L81.0459 63.2656L75.1548 66.3542L71.6133 76.6383Z" fill="#F7FAFB" stroke="black" stroke-width="1.5" stroke-miterlimit="10"/>
<path d="M68.5137 68.5604L70.046 74.9073H74.2686L75.801 68.5604H68.5137Z" fill="#8DC14B"/>
<path d="M68.5137 114.38L70.046 74.9073H74.2686L75.801 114.38H68.5137Z" fill="#8DC14B"/>
<path d="M70.0809 76.3328L74.2694 74.9073H70.0469L70.0809 76.3328Z" fill="#8DC14B"/>
<path d="M61.4996 70.2574L36.5049 75.8916L46.4142 132.81C46.4142 132.81 71.7835 133.795 72.8392 132.81C73.8948 131.826 72.8392 105.59 72.8392 105.59L61.4996 70.2574Z" fill="white" stroke="#221F1F" stroke-width="1.5" stroke-miterlimit="10"/>
<path d="M61.704 65.6075L63.7812 69.8162C66.88 76.0953 71.0685 91.5383 72.1242 98.4962L72.9414 108.678L73.282 137.766L70.9323 107.66L58.435 83.4265L61.3975 79.4214L57.3793 81.2882L55.1318 71.5132C55.1318 71.5132 59.4565 67.7798 60.8186 65.7433L61.704 65.6075Z" fill="white" stroke="#221F1F" stroke-width="1.5" stroke-miterlimit="10"/>
<path d="M82.8166 70.2574L107.811 75.8916L97.9019 132.81C97.9019 132.81 72.5326 133.795 71.477 132.81C70.4213 131.826 71.477 105.59 71.477 105.59L82.8166 70.2574Z" fill="white" stroke="#221F1F" stroke-miterlimit="10"/>
<path d="M82.6119 65.6075L80.5346 69.8162C77.4358 76.0953 73.2473 91.5383 72.1917 98.4962L71.3744 108.678L71.0339 137.766L73.3836 107.66L85.8809 83.4265L82.9183 79.4214L86.9365 81.2882L89.184 71.5132C89.184 71.5132 84.8593 67.7798 83.4972 65.7433L82.6119 65.6075ZM37.1514 76.3668C37.1514 76.3668 33.3716 76.3668 32.8948 80.1342C32.4181 83.9016 20.3975 122.221 20.3975 122.221C20.3975 122.221 23.9389 130.91 37.6282 128.33L44.4728 108.101L37.1514 76.3668Z" fill="white" stroke="#221F1F" stroke-width="1.5" stroke-miterlimit="10"/>
<path d="M34.734 134.779C41.8806 134.779 47.674 129.065 47.674 122.017C47.674 114.969 41.8806 109.255 34.734 109.255C27.5874 109.255 21.7939 114.969 21.7939 122.017C21.7939 129.065 27.5874 134.779 34.734 134.779Z" fill="white" stroke="#221F1F"/>
<path d="M41.6464 124.563C42.4636 124.936 43.2809 125.377 43.996 125.92L45.29 121.135C44.5448 119.952 43.6001 118.907 42.4977 118.046L41.6464 124.563ZM25.2329 125.411C27.1739 121.101 31.5327 118.114 36.6065 118.114C37.5941 118.114 38.5135 118.216 39.4329 118.453L39.8756 111.054C38.3092 110.341 36.5725 109.968 34.7336 109.968C29.0128 109.968 24.2113 113.77 22.7471 118.929L25.2329 125.411Z" fill="#E2E2E1"/>
<path d="M107.164 76.3668C107.164 76.3668 110.944 76.3668 111.421 80.1342C111.897 83.9016 123.918 122.221 123.918 122.221C123.918 122.221 120.377 130.91 106.687 128.33L99.8428 108.101L107.164 76.3668Z" fill="white" stroke="#221F1F" stroke-width="1.5" stroke-miterlimit="10"/>
<path d="M109.582 134.779C116.728 134.779 122.522 129.065 122.522 122.017C122.522 114.969 116.728 109.255 109.582 109.255C102.435 109.255 96.6416 114.969 96.6416 122.017C96.6416 129.065 102.435 134.779 109.582 134.779Z" fill="white" stroke="#221F1F" stroke-width="1.5"/>
<path d="M102.669 119.132C101.852 119.505 101.035 119.947 100.319 120.49L99.0254 115.704C99.7706 114.522 100.715 113.477 101.818 112.616L102.669 119.132ZM119.082 125.411C117.141 121.101 112.783 118.114 107.709 118.114C106.721 118.114 105.802 118.216 104.882 118.453L104.44 111.054C106.006 110.341 107.743 109.968 109.582 109.968C115.303 109.968 120.104 113.77 121.568 118.929L119.082 125.411Z" fill="#E2E2E1"/>
<path d="M109.173 132.369H35.142L24.0748 142.517C23.53 143.026 23.1895 143.773 23.1895 144.588C23.1895 146.183 24.4835 147.439 26.0499 147.439H118.299C119.899 147.439 121.159 146.149 121.159 144.588C121.159 143.807 120.853 143.094 120.342 142.585C120.001 142.212 109.173 132.369 109.173 132.369Z" fill="#F7FAFB"/>
<path d="M101.068 137.528H105.019L103.588 135.661H99.9447L101.068 137.528ZM91.9082 135.661H88.0262L88.6051 137.528H92.7595L91.9082 135.661ZM97.7312 135.661H93.9514L94.8027 137.528H98.889L97.7312 135.661ZM91.4996 134.813L90.6142 132.946H87.1408L87.7197 134.813H91.4996ZM86.0511 135.661H82.101L82.4075 137.528H86.63L86.0511 135.661ZM108.628 134.813L106.925 132.946H103.861L105.291 134.813H108.628ZM80.4665 137.528L80.16 135.661H76.1758L76.2099 137.528H80.4665ZM102.907 134.813L101.477 132.946H98.242L99.3998 134.813H102.907ZM85.7787 134.813L85.1998 132.946H59.7284L58.843 134.813H85.7787ZM38.4454 135.661H35.1763L34.4953 136.272L33.1332 137.528H36.7087L38.4454 135.661ZM52.6113 135.661L51.4535 137.528H55.5058L56.3571 135.661H52.6113ZM63.7466 137.528H68.0032L68.3097 135.661H64.3255L63.7466 137.528ZM69.9101 137.528H74.2008L74.2348 135.661H70.2166L69.9101 137.528ZM57.6171 137.528H61.7715L62.3504 135.661H58.4684L57.6171 137.528ZM97.2205 134.813L96.0627 132.946H92.6914L93.5768 134.813H97.2205ZM95.4838 138.954L96.6756 141.601H101.375L99.7744 138.954H95.4838ZM101.954 138.954L103.554 141.601H108.117L106.108 138.954H101.954ZM89.0478 138.954L89.831 141.601H94.6324L93.4406 138.954H89.0478ZM112.442 138.954H108.424L110.433 141.601H114.826C114.213 140.854 113.361 139.972 112.442 138.954ZM82.6118 138.954L82.9864 141.601H87.8559L87.0387 138.954H82.6118ZM107.334 137.528H111.114L109.411 135.661H105.938L107.334 137.528ZM40.9653 132.946H38.2751C38.1049 133.082 37.2876 133.829 36.1639 134.813H39.2627L40.9653 132.946ZM76.2099 138.954L76.1758 141.601H81.0794L80.6708 138.954H76.2099ZM35.5169 141.533H39.9097L41.9188 138.886H37.9346C37.0152 139.972 36.1639 140.854 35.5169 141.533ZM28.7744 141.533H32.997C33.4396 141.024 34.3591 140.074 35.4147 138.886H31.6348C30.5452 139.938 29.5576 140.854 28.7744 141.533ZM45.3581 137.528H49.3082L50.466 135.661H40.9653L39.2627 137.528H45.3581ZM46.55 132.946H43.4852L41.7826 134.813H45.1197L46.55 132.946ZM57.6852 132.946H54.314L53.1562 134.813H56.7998L57.6852 132.946ZM52.1006 132.946H48.8655L47.4353 134.813H50.9428L52.1006 132.946ZM62.5207 141.533H67.3902L67.7648 138.886H63.3039L62.5207 141.533ZM55.7442 141.533H60.5456L61.3288 138.886H56.936L55.7442 141.533ZM74.1667 138.954H69.6718L69.2631 141.601H74.1667V138.954ZM49.0018 141.533H53.701L54.8929 138.886H50.6022L49.0018 141.533ZM42.2593 141.533H46.8224L48.4229 138.886H44.2684L42.2593 141.533Z" fill="#D3D3D3"/>
<path d="M23.4619 145.776C23.9387 146.726 24.8921 147.371 26.0159 147.371H118.265C119.389 147.371 120.376 146.726 120.819 145.776H23.4619Z" fill="#C1C7CD"/>
<path d="M28.1963 124.359L29.1498 127.889L31.7378 135.424L39.2975 133.082L47.7766 133.795L52.8505 129.552C52.8505 129.552 53.5996 131.622 55.7109 132.539C57.8222 133.489 60.7507 130.468 60.7507 130.468L56.0174 122.221L49.4112 122.933L45.6313 115.399L39.9785 115.874L39.9445 120.863L37.9694 119.811L28.1963 124.359Z" fill="#E2E2E1" stroke="#221F1F" stroke-width="1.5" stroke-miterlimit="10"/>
<path d="M39.944 125.751C39.944 125.751 42.6001 127.244 45.4265 125.649L45.6308 115.433C45.6308 115.433 42.2255 114.89 39.9781 115.908L39.944 125.751ZM27.5829 125.004L25.71 133.184C25.71 133.184 26.9359 134.949 28.7066 134.134C30.4773 133.319 31.1243 127.278 31.1243 127.278L27.5829 125.004Z" fill="white" stroke="#221F1F" stroke-width="1.5" stroke-miterlimit="10"/>
<path d="M31.1245 127.278L27.583 124.97L29.524 133.218C30.6818 131.351 31.1245 127.278 31.1245 127.278Z" fill="white" stroke="#221F1F" stroke-width="1.5" stroke-miterlimit="10"/>
<path d="M27.5832 125.004L31.4652 135.661C31.4652 135.661 34.2235 136.883 35.7899 134.439L33.0316 125.547L36.4028 134.27C36.4028 134.27 39.059 135.933 40.7275 132.946L37.9352 119.845C37.9352 119.845 35.5175 119.913 32.623 122.017C32.657 122.017 27.5491 121.847 27.5832 125.004ZM49.411 122.933L56.0172 122.221L60.7506 130.468C60.7506 130.468 58.2307 130.808 56.9707 129.246C55.7448 127.651 53.6676 123.069 53.6676 123.069L49.411 122.933Z" fill="white" stroke="#221F1F" stroke-width="1.5" stroke-miterlimit="10"/>
<path d="M116.12 124.359L115.166 127.889L112.578 135.424L105.019 133.082L96.5395 133.795L91.4657 129.552C91.4657 129.552 90.7165 131.622 88.6052 132.539C86.494 133.489 83.5654 130.468 83.5654 130.468L88.2988 122.221L94.905 122.933L98.6849 115.399L104.338 115.874L104.372 120.863L106.347 119.811L116.12 124.359Z" fill="#E2E2E1" stroke="#221F1F" stroke-width="1.5" stroke-miterlimit="10"/>
<path d="M104.371 125.751C104.371 125.751 101.715 127.244 98.8889 125.649L98.6846 115.433C98.6846 115.433 102.09 114.89 104.337 115.908L104.371 125.751ZM116.733 125.004L118.605 133.184C118.605 133.184 117.38 134.949 115.609 134.134C113.838 133.319 113.191 127.312 113.191 127.312L116.733 125.004Z" fill="white" stroke="#221F1F" stroke-width="1.5" stroke-miterlimit="10"/>
<path d="M113.191 127.278L116.733 124.97L114.792 133.218C113.634 131.351 113.191 127.278 113.191 127.278Z" fill="white" stroke="#221F1F" stroke-width="1.5" stroke-miterlimit="10"/>
<path d="M116.733 125.004L112.851 135.661C112.851 135.661 110.093 136.883 108.526 134.439L111.284 125.547L107.913 134.27C107.913 134.27 105.257 135.933 103.588 132.946L106.381 119.845C106.381 119.845 108.799 119.913 111.693 122.017C111.659 122.017 116.767 121.847 116.733 125.004ZM94.905 122.933L88.2988 122.221L83.5654 130.468C83.5654 130.468 86.0853 130.808 87.3453 129.246C88.5712 127.651 90.6484 123.069 90.6484 123.069L94.905 122.933Z" fill="white" stroke="#221F1F" stroke-width="1.5" stroke-miterlimit="10"/>
<path d="M51.3171 36.113C51.3171 36.113 47.1286 30.92 43.2466 34.3141C39.3646 37.7082 44.9152 48.2298 52.3387 45.7521L51.3171 36.113Z" fill="white" stroke="black" stroke-width="0.5" stroke-miterlimit="10"/>
<path d="M51.6919 39.7786L52.2027 44.7339C45.8008 45.8539 42.1231 37.2669 45.0857 36.0451C47.4694 35.1287 50.466 38.1155 51.6919 39.7786ZM90.3418 35.7057C90.3418 35.7057 94.4281 30.4448 98.3782 33.771C102.328 37.0972 97.0161 47.7207 89.5586 45.4127L90.3418 35.7057Z" fill="white" stroke="black" stroke-miterlimit="10"/>
<path d="M90.0689 39.3713L89.6943 44.3606C96.1644 45.3449 99.6037 36.69 96.607 35.57C94.1893 34.6196 91.2608 37.7082 90.0689 39.3713Z" fill="white" stroke="black" stroke-miterlimit="10"/>
<path d="M48.6606 31.6667C48.865 24.6071 51.9297 17.9207 59.1489 15.1036C62.7925 13.6781 66.8789 13.2369 70.829 13.2708C74.711 13.3048 78.8654 13.5084 82.5772 14.8321C89.1834 17.208 88.264 20.4663 88.9791 26.8811C89.0472 27.492 93.4741 30.5467 93.5422 31.1916C93.6103 32.6171 93.7465 34.0426 93.7124 35.536C93.6443 38.8282 93.1336 42.1205 92.0439 45.2091C90.7158 49.0105 88.5024 52.5403 85.2674 55.1198C83.4285 56.5793 81.3172 57.7332 79.0017 58.5139C75.2559 59.8376 71.6803 60.3128 67.7642 59.6339C65.0741 59.1927 62.5201 58.3781 60.1364 57.1223C56.2544 55.018 53.2918 51.7257 51.4189 47.8904C49.8525 44.6661 49.0012 41.1362 48.6947 37.6064C48.4904 35.6717 48.4563 33.7371 48.6266 31.8025C48.6266 31.7346 48.6266 31.7007 48.6606 31.6667Z" fill="white" stroke="black" stroke-width="1.5" stroke-miterlimit="10"/>
<path d="M48.9336 41.5434L48.6952 39.2015C48.6611 39.2355 48.6611 39.2694 48.6611 39.2694L48.9336 41.5434Z" fill="#47740E"/>
<path d="M86.4602 31.2256C86.4602 31.2256 86.3921 31.1238 86.1537 30.9201C86.0516 30.8522 85.9154 30.6825 85.7791 30.6147C85.6089 30.5128 85.4386 30.3771 85.2343 30.2413L84.5192 29.9019C84.2468 29.8001 83.9744 29.6643 83.6679 29.5964C83.3614 29.4946 83.0549 29.4267 82.7485 29.3589C82.442 29.291 82.1015 29.291 81.7609 29.257C81.4204 29.257 81.1139 29.2231 80.7393 29.2231C80.4329 29.2231 80.0923 29.257 79.7518 29.291C79.4453 29.3249 79.1389 29.3928 78.8664 29.4607C78.594 29.5285 78.3216 29.6304 78.0832 29.6983C77.8725 29.7599 77.6674 29.8394 77.4703 29.9358C77.266 30.0037 77.1298 30.1055 76.9935 30.1734C76.7211 30.2752 76.619 30.3771 76.619 30.3771H77.0957C77.266 30.3771 77.4022 30.3771 77.6065 30.3431C77.8108 30.3092 78.0492 30.3092 78.2535 30.3092L79.0027 30.2753H80.7053L81.5907 30.3092C81.7609 30.3092 81.8971 30.3431 82.0674 30.3431C82.2377 30.3431 82.3739 30.3771 82.5101 30.3771C82.6804 30.411 82.8166 30.411 82.9528 30.411C83.123 30.411 83.2252 30.445 83.3955 30.4789C83.6679 30.5128 83.9403 30.5807 84.2127 30.6486C84.3149 30.6825 84.4511 30.7165 84.5873 30.7165C84.6895 30.7504 84.8257 30.7504 84.9278 30.7844C85.1662 30.8183 85.3705 30.8862 85.5408 30.9541C85.7451 30.988 85.8813 31.0559 86.0175 31.1238C86.1537 31.1917 86.2559 31.1917 86.324 31.2256H86.4602ZM58.2305 28.137L58.5369 27.8315C58.6391 27.7636 58.7753 27.6279 58.9796 27.5261C59.1499 27.4242 59.3202 27.2885 59.5585 27.2206L60.3077 26.9151C60.5801 26.8472 60.8525 26.7115 61.159 26.6775L62.0784 26.5078L63.1 26.4399L64.1216 26.4739C64.4281 26.5078 64.7686 26.5418 65.041 26.6436C65.3475 26.7115 65.6199 26.8133 65.8923 26.8812C66.1648 26.9491 66.4031 27.0848 66.6415 27.1527C66.8799 27.2206 67.0842 27.3563 67.2544 27.4242C67.4588 27.4921 67.5609 27.6279 67.6971 27.6958C67.9355 27.8655 68.0717 27.9333 68.0717 27.9333C68.0717 27.9333 67.9015 27.9333 67.595 27.8994C67.4247 27.8994 67.2885 27.8655 67.0842 27.8315C66.8799 27.7976 66.7096 27.7976 66.4372 27.7636C66.1988 27.7297 65.9604 27.6958 65.688 27.6958L64.8708 27.6279C64.5983 27.6279 64.2919 27.5939 63.9854 27.5939H62.1465C61.9763 27.5939 61.8401 27.5939 61.7038 27.6279C61.5336 27.6279 61.4314 27.6618 61.2612 27.6618L60.4439 27.7297C60.3417 27.7297 60.1715 27.7636 60.0693 27.7636C59.9672 27.7636 59.8309 27.7976 59.7288 27.7976L59.1158 27.8994L58.605 28.0012C58.5029 28.0352 58.3667 28.0352 58.2986 28.0691C58.2645 28.137 58.2305 28.137 58.2305 28.137Z" fill="white" stroke="black" stroke-miterlimit="10"/>
<path d="M91.3639 28.1369C90.7851 22.333 88.81 17.0383 82.5443 14.7982C78.8666 13.4745 74.6781 13.2709 70.7961 13.2369C66.846 13.203 62.7937 13.6103 59.116 15.0697C58.2647 15.4091 57.4474 15.8164 56.6982 16.2237C60.2057 16.6989 72.8052 16.6989 79.0028 18.328C84.0767 19.6517 87.7544 23.7585 91.3639 28.1369Z" fill="white" stroke="black" stroke-width="1.5" stroke-miterlimit="10"/>
<path d="M88.878 10.1483C88.878 10.1483 96.6079 16.8686 93.5091 37.7761L91.7724 34.8233C88.8439 29.8679 87.3115 24.1998 87.3115 18.4299V11.3702L88.878 10.1483Z" fill="white" stroke="black" stroke-width="1.5" stroke-miterlimit="10"/>
<path d="M46.2098 31.4292L50.6707 46.1595C50.6707 46.1595 51.6582 32.719 51.6923 26.8133C51.7263 20.9076 57.0726 16.1219 57.0726 16.1219C57.0726 16.1219 69.8765 14.7304 77.0275 15.0019C85.4726 15.3074 95.3479 28.9176 95.3479 28.9176C95.3479 28.9176 101.035 10.1144 84.9278 5.0233C68.8208 -0.0678169 59.4223 0.678879 53.3949 7.80644C53.3268 7.80644 39.0247 6.78822 46.2098 31.4292Z" fill="white" stroke="black" stroke-width="1.5" stroke-miterlimit="10"/>
<path d="M55.2682 13.8479C55.2682 13.8479 50.0241 16.4613 49.8878 26.7793C49.8197 32.142 50.637 35.0948 50.1943 38.4889L50.6711 46.0916C50.6711 46.0916 51.6586 32.6511 51.6926 26.7454C51.7267 20.8397 57.073 16.054 57.073 16.054L55.2682 13.8479ZM59.661 10.5217C59.661 10.5217 72.1924 5.93968 78.6284 9.40164C85.0984 12.8636 87.6524 16.5971 87.6524 16.5971C87.6524 16.5971 78.1857 8.21372 59.661 10.5217Z" fill="white" stroke="black" stroke-width="1.5" stroke-miterlimit="10"/>
<path d="M75.0522 52.2009C74.0307 52.5403 72.8388 52.7439 71.4086 52.7439C66.9136 52.71 64.598 49.825 63.5765 48.128C63.3721 47.7886 63.5084 47.3813 63.8489 47.2116C64.1554 47.0079 64.598 47.1437 64.7683 47.4831C65.7899 49.282 67.765 51.3524 71.3745 51.3863C74.8479 51.4202 77.1635 50.0966 78.2873 47.551C78.4575 47.2116 78.8321 47.0419 79.1726 47.2116C79.5132 47.3813 79.6834 47.7546 79.5132 48.0941C78.9343 49.5874 77.6403 51.3524 75.0522 52.2009Z" fill="black"/>
<path d="M65.8917 36.7919C66.062 38.6586 64.802 40.2878 63.0994 40.4235C61.3968 40.5932 59.8644 39.1677 59.6941 37.3349C59.5239 35.4682 60.7838 33.839 62.4865 33.7032C64.2231 33.5675 65.7215 34.9591 65.8917 36.7919Z" fill="#E4E3E2"/>
<path d="M66.0968 35.5699C66.2671 37.4366 65.0071 39.0658 63.3045 39.2016C61.6018 39.3713 60.0695 37.9458 59.8992 36.113C59.7289 34.2462 60.9889 32.6171 62.6915 32.4813C64.3601 32.3116 65.9265 33.7032 66.0968 35.5699Z" fill="#3C3C3C"/>
<path d="M64.9047 34.7554C64.9728 35.4003 64.428 36.0451 63.781 36.0791C63.0659 36.147 62.487 35.6379 62.4189 34.959C62.3507 34.3142 62.8956 33.6693 63.5426 33.6353C64.2577 33.5675 64.8706 34.0426 64.9047 34.7554Z" fill="white"/>
<path d="M84.6896 36.5882C84.8598 38.455 83.5999 40.0841 81.8973 40.2199C80.1946 40.3896 78.6622 38.9641 78.492 37.1313C78.3217 35.2645 79.5817 33.6354 81.2843 33.4996C83.021 33.3299 84.5534 34.7215 84.6896 36.5882Z" fill="#E4E3E2"/>
<path d="M84.6554 35.7736C84.8257 37.6404 83.5657 39.2695 81.8631 39.4053C80.1604 39.575 78.6281 38.1495 78.4578 36.3167C78.2875 34.4499 79.5475 32.8208 81.2501 32.685C82.9528 32.5492 84.4851 33.9069 84.6554 35.7736Z" fill="#3C3C3C"/>
<path d="M83.4975 34.959C83.5656 35.6039 83.0548 36.2487 82.3737 36.2827C81.6586 36.3506 81.0797 35.8415 81.0116 35.1626C80.9435 34.5178 81.4884 33.8729 82.1354 33.839C82.8505 33.7711 83.4634 34.2802 83.4975 34.959Z" fill="white"/>
<path d="M44.4729 35.6038C44.4729 35.0268 44.2005 21.1111 51.6581 11.6417C56.0168 6.14325 62.0782 3.36011 69.672 3.36011C83.5655 3.36011 90.1377 12.1168 93.2024 19.482C96.5056 27.4241 96.5396 35.2644 96.5396 35.5699H95.484C95.484 35.502 95.4499 27.6956 92.2149 20.025C87.9243 9.80886 80.3305 4.61592 69.6379 4.61592C62.3166 4.61592 56.4936 7.29724 52.3732 12.5241C45.2562 21.6202 45.5286 35.4681 45.5286 35.5699L44.4729 35.6038Z" fill="black"/>
<path d="M68.2077 64.0123C59.7286 64.0123 53.6331 61.6025 49.9554 56.8847C45.5285 51.1148 46.5501 44.089 46.5842 43.7836L47.7079 43.9872C47.7079 44.0551 46.7885 50.7754 50.8408 56.0701C54.212 60.4824 60.0691 62.7225 68.1736 62.7225V64.0123H68.2077Z" fill="#0F1217"/>
<path d="M49.1722 45.277C45.4945 45.9219 41.8168 42.7993 40.9654 38.2173L40.7952 37.3009C39.9779 32.7189 42.3276 28.5102 46.0053 27.8314" fill="#8DC14B"/>
<path d="M43.0088 29.3927C42.3618 30.9879 42.1234 32.8886 42.4639 34.8232L42.6342 35.7396C43.2812 39.4052 45.8352 42.1884 48.7296 42.7654L49.2064 45.243C45.5287 45.8879 41.851 42.7654 40.9997 38.1834L40.8294 37.267C40.2505 34.1783 41.1699 31.1916 43.0088 29.3927Z" fill="#47740E"/>
<path d="M50.5005 45.3448C50.7048 46.3631 50.194 47.2455 49.3767 47.4152C48.5595 47.5849 47.7762 46.8722 47.5719 45.8879L44.3029 27.8993C44.0985 26.915 44.6093 25.9986 45.4266 25.8289C46.2439 25.6592 47.0271 26.3719 47.2314 27.3562L50.5005 45.3448Z" fill="#0F1217"/>
<path d="M94.769 27.8993C98.4467 28.4763 100.899 32.651 100.183 37.233L100.013 38.1494C99.298 42.7314 95.6884 45.9897 92.0107 45.4127" fill="#8DC14B"/>
<path d="M97.7996 29.3927C98.5147 30.954 98.7871 32.8547 98.4466 34.8232L98.2763 35.7396C97.6974 39.4052 95.2456 42.2563 92.3511 42.9011L91.9766 45.3788C95.6543 45.9558 99.2979 42.6975 99.979 38.1155L100.149 37.1991C100.694 34.0765 99.6725 31.1237 97.7996 29.3927Z" fill="#47740E"/>
<path d="M93.5427 27.4241C93.7129 26.4059 94.4621 25.7271 95.2794 25.8289C96.0966 25.9308 96.6074 26.8811 96.4372 27.8314L93.6108 45.854C93.4405 46.8722 92.6914 47.551 91.8741 47.4492C91.0568 47.3474 90.546 46.397 90.7163 45.4467L93.5427 27.4241Z" fill="#0F1217"/>
<path d="M69.0592 66.49C70.5637 66.49 71.7834 65.1831 71.7834 63.5711C71.7834 61.959 70.5637 60.6522 69.0592 60.6522C67.5546 60.6522 66.335 61.959 66.335 63.5711C66.335 65.1831 67.5546 66.49 69.0592 66.49Z" fill="#0F1217"/>
<path opacity="0.5" d="M70.3534 61.0255C70.5577 61.4667 70.6598 61.908 70.6598 62.4171C70.6598 64.0123 69.468 65.336 67.9356 65.336C67.4589 65.336 67.0502 65.2342 66.6416 64.9966C67.1183 65.879 68.0037 66.5239 69.0593 66.5239C70.5917 66.5239 71.7836 65.2002 71.7836 63.605C71.7836 62.451 71.2047 61.5007 70.3534 61.0255Z" fill="#4D4D4E"/>
<path d="M10.8291 33.4996C10.8291 39.7786 15.937 44.8358 22.2027 44.8358C24.8588 44.8358 27.2766 43.9194 29.2176 42.392L36.0281 45.1073L32.4526 38.3191C33.1677 36.8597 33.5423 35.2305 33.5423 33.4996C33.5423 27.2205 28.4344 22.1633 22.1687 22.1633C15.903 22.1633 10.8291 27.2205 10.8291 33.4996Z" fill="#8DC14B"/>
<path d="M10.8287 33.4995C10.8287 39.7786 15.9366 44.8357 22.2023 44.8357C24.8584 44.8357 27.2761 43.9193 29.2171 42.392L36.0277 45.1073L30.2047 40.0501C28.2977 41.5774 25.8459 42.4938 23.1898 42.4938C16.89 42.4938 11.8162 37.4027 11.8162 31.1576C11.8162 30.0376 11.9864 28.9175 12.2929 27.8993C11.3394 29.5624 10.7946 31.4631 10.8287 33.4995Z" fill="#E7E6E7"/>
<path d="M26.6629 34.993C27.4152 34.993 28.025 34.3851 28.025 33.6353C28.025 32.8855 27.4152 32.2777 26.6629 32.2777C25.9106 32.2777 25.3008 32.8855 25.3008 33.6353C25.3008 34.3851 25.9106 34.993 26.6629 34.993Z" fill="white"/>
<path d="M22.3729 34.993C23.1251 34.993 23.735 34.3851 23.735 33.6353C23.735 32.8855 23.1251 32.2777 22.3729 32.2777C21.6206 32.2777 21.0107 32.8855 21.0107 33.6353C21.0107 34.3851 21.6206 34.993 22.3729 34.993Z" fill="white"/>
<path d="M18.0818 34.993C18.8341 34.993 19.4439 34.3851 19.4439 33.6353C19.4439 32.8855 18.8341 32.2777 18.0818 32.2777C17.3296 32.2777 16.7197 32.8855 16.7197 33.6353C16.7197 34.3851 17.3296 34.993 18.0818 34.993Z" fill="white"/>
<path d="M30.2046 10.4877C30.2046 15.0697 26.4929 18.7693 21.8958 18.7693C19.9548 18.7693 18.184 18.0905 16.7538 16.9704L11.748 18.9729L14.3701 13.9836C13.8593 12.8975 13.5869 11.7096 13.5869 10.4538C13.5869 5.87179 17.2986 2.17224 21.8958 2.17224C26.4929 2.17224 30.2387 5.87179 30.2046 10.4877Z" fill="#E7E6E7"/>
<path d="M30.2388 10.4198C30.2388 15.0018 26.5271 18.7014 21.9299 18.7014C19.9889 18.7014 18.2182 18.0226 16.788 16.9025L11.7822 18.905L16.0388 15.2055C17.435 16.3255 19.2398 17.0043 21.1808 17.0043C25.7779 17.0043 29.4897 13.3048 29.4897 8.72278C29.4897 7.9082 29.3875 7.09362 29.1491 6.34692C29.8302 7.56879 30.2388 8.96036 30.2388 10.4198Z" fill="#C2C1C3"/>
<path d="M18.6272 11.5399C19.1726 11.5399 19.6147 11.0992 19.6147 10.5556C19.6147 10.012 19.1726 9.57129 18.6272 9.57129C18.0818 9.57129 17.6396 10.012 17.6396 10.5556C17.6396 11.0992 18.0818 11.5399 18.6272 11.5399Z" fill="#D3D3D3"/>
<path d="M21.76 11.5399C22.3054 11.5399 22.7475 11.0992 22.7475 10.5556C22.7475 10.012 22.3054 9.57129 21.76 9.57129C21.2146 9.57129 20.7725 10.012 20.7725 10.5556C20.7725 11.0992 21.2146 11.5399 21.76 11.5399Z" fill="#D3D3D3"/>
<path d="M24.8928 11.5399C25.4382 11.5399 25.8803 11.0992 25.8803 10.5556C25.8803 10.012 25.4382 9.57129 24.8928 9.57129C24.3474 9.57129 23.9053 10.012 23.9053 10.5556C23.9053 11.0992 24.3474 11.5399 24.8928 11.5399Z" fill="#D3D3D3"/>
</svg>
