<svg width="21" height="21" viewBox="0 0 21 21" fill="none" xmlns="http://www.w3.org/2000/svg">
<g clip-path="url(#clip0_250_865)">
<path d="M16.0576 9.55664C18.606 9.55664 20.6719 7.49077 20.6719 4.94238C20.6719 2.394 18.606 0.328125 16.0576 0.328125C13.5092 0.328125 11.4434 2.394 11.4434 4.94238C11.4434 7.49077 13.5092 9.55664 16.0576 9.55664Z" fill="#8DC14B"/>
<path fill-rule="evenodd" clip-rule="evenodd" d="M19.8516 4.94238C19.8516 7.35254 18.0037 9.3311 15.6475 9.53864C15.7826 9.55053 15.9194 9.55664 16.0576 9.55664C18.606 9.55664 20.6719 7.49077 20.6719 4.94238C20.6719 2.394 18.606 0.328125 16.0577 0.328125C15.9194 0.328125 15.7826 0.334195 15.6475 0.346131C18.0037 0.55367 19.8516 2.53222 19.8516 4.94238Z" fill="#47740E"/>
<path fill-rule="evenodd" clip-rule="evenodd" d="M13.7067 4.21786C13.7137 4.3036 13.6867 4.38864 13.6314 4.45456C13.5762 4.52049 13.4972 4.56199 13.4115 4.57008C13.3259 4.57818 13.2405 4.5522 13.1739 4.49779C13.1073 4.44338 13.0648 4.36492 13.0556 4.27939C12.9975 3.67515 13.2874 3.27254 13.6988 3.06898C13.9332 2.95302 14.2077 2.90762 14.475 2.93178C14.7432 2.95602 15.0076 3.05044 15.2207 3.21388C15.5974 3.50284 15.8165 3.98727 15.6341 4.65505C15.527 5.04728 15.1537 5.33862 14.7286 5.67031C14.483 5.86202 14.2166 6.06988 13.9984 6.30548H15.4872C15.573 6.30684 15.6548 6.34187 15.715 6.40302C15.7752 6.46417 15.8089 6.54653 15.8089 6.63233C15.8089 6.71813 15.7752 6.80049 15.715 6.86164C15.6548 6.92279 15.573 6.95783 15.4872 6.95918H13.3898C13.3329 6.9624 13.2762 6.95072 13.2252 6.92528C13.1742 6.89985 13.1307 6.86155 13.0991 6.81417C13.0674 6.7668 13.0487 6.71198 13.0447 6.65514C13.0408 6.5983 13.0517 6.54141 13.0765 6.49009C13.3574 5.91111 13.8727 5.50895 14.3262 5.15507C14.6603 4.89433 14.9538 4.6653 15.0035 4.48332C15.1026 4.12041 15.0029 3.87202 14.8234 3.73425C14.7097 3.64705 14.5651 3.59635 14.4161 3.58286C14.2661 3.56933 14.1148 3.59348 13.9885 3.65595C13.8067 3.74598 13.6792 3.93174 13.7067 4.21786ZM18.744 5.40334C18.8298 5.4047 18.9116 5.43973 18.9718 5.50088C19.032 5.56203 19.0658 5.64439 19.0658 5.73019C19.0658 5.81599 19.032 5.89835 18.9718 5.9595C18.9116 6.02065 18.8298 6.05569 18.744 6.05705H18.5641V6.63241C18.5641 6.71944 18.5296 6.8029 18.468 6.86443C18.4065 6.92597 18.323 6.96054 18.236 6.96054C18.149 6.96054 18.0655 6.92597 18.004 6.86443C17.9425 6.8029 17.9079 6.71944 17.9079 6.63241V6.05705H16.197C16.135 6.05703 16.0744 6.03941 16.0221 6.00626C15.9698 5.9731 15.928 5.92577 15.9015 5.86977C15.875 5.81378 15.865 5.75142 15.8727 5.68996C15.8803 5.62849 15.9052 5.57046 15.9445 5.52261L17.9835 3.04474C18.0263 2.99269 18.0841 2.95513 18.149 2.9372C18.214 2.91927 18.2829 2.92185 18.3463 2.94457C18.4097 2.9673 18.4646 3.00907 18.5033 3.06416C18.5421 3.11926 18.5629 3.18498 18.5629 3.25236H18.5641V5.4033L18.744 5.40334ZM16.8894 5.40334H17.9079V4.16557L16.8894 5.40334Z" fill="#ECEFF1"/>
<path fill-rule="evenodd" clip-rule="evenodd" d="M8.68833 12.3117C7.78496 11.4099 6.9843 10.4118 6.30368 9.33561C6.05517 8.94256 6.0578 8.47035 6.31049 8.08013L7.2817 6.58059C7.48891 6.26051 7.52845 5.89531 7.3945 5.53839L5.72389 1.08577C5.46225 0.388466 4.63427 0.112553 4.0066 0.513563L1.67589 2.00272C0.612233 2.68235 0.118405 3.90404 0.411421 5.13184C1.31323 8.91086 3.28018 12.3117 5.99873 15.0013C8.68833 17.7199 12.0891 19.6868 15.8682 20.5886C17.096 20.8816 18.3177 20.3878 18.9973 19.3241L20.4864 16.9934C20.8874 16.3657 20.6115 15.5377 19.9142 15.2761L15.4617 13.6055C15.1047 13.4715 14.7395 13.511 14.4194 13.7183L12.9199 14.6895C12.5297 14.9422 12.0575 14.9448 11.6644 14.6963C10.5882 14.0157 9.59006 13.215 8.68833 12.3117Z" fill="#8DC14B"/>
<path fill-rule="evenodd" clip-rule="evenodd" d="M17.2385 19.2182C13.4595 18.3164 10.0587 16.3495 7.36907 13.6309C4.65047 10.9413 2.68352 7.5405 1.78175 3.76144C1.61798 3.07521 1.70001 2.39086 1.98999 1.802L1.67589 2.00269C0.612233 2.68232 0.118405 3.90401 0.411421 5.13181C1.31323 8.91083 3.28018 12.3117 5.99873 15.0012C8.68833 17.7198 12.0891 19.6868 15.8682 20.5886C17.096 20.8816 18.3177 20.3877 18.9973 19.3241L19.198 19.01C18.6091 19.3 17.9248 19.382 17.2385 19.2182Z" fill="#47740E"/>
</g>
<defs>
<clipPath id="clip0_250_865">
<rect width="21" height="21" fill="white"/>
</clipPath>
</defs>
</svg>
