<svg width="32" height="32" viewBox="0 0 32 32" fill="none" xmlns="http://www.w3.org/2000/svg">
<g clip-path="url(#clip0_1_689)">
<path d="M11.103 10.4242V4.99393H11.5879C11.8788 4.99393 12.0727 4.79999 12.0727 4.50908C12.0727 4.21817 11.8788 4.02423 11.5879 4.02423H3.92729C3.63638 4.02423 3.44244 4.21817 3.44244 4.50908C3.44244 4.79999 3.63638 4.99393 3.92729 4.99393H4.41214V10.4242H5.38184V4.99393H10.1334V10.4242H11.103ZM11.8788 20.9454H3.5879V27.0061H11.8788V20.9454ZM10.6182 23.5636H6.1576V24.4848C6.1576 24.7757 5.96366 24.9697 5.67275 24.9697C5.38184 24.9697 5.1879 24.7757 5.1879 24.4848V23.5636H4.89699C4.60608 23.5636 4.41214 23.3697 4.41214 23.0788C4.41214 22.7879 4.60608 22.5939 4.89699 22.5939H10.6182C10.9091 22.5939 11.103 22.7879 11.103 23.0788C11.103 23.3212 10.8606 23.5636 10.6182 23.5636ZM3.5879 14.6909H11.8788V17.8909H3.5879V14.6909Z" fill="#2553E4"/>
<path d="M1.21213 30.3031H1.64849V31.3697H2.61819V30.3031H12.897V31.3697H13.8667V30.3031H14.303C14.8364 30.3031 15.2727 29.8667 15.2727 29.3334V12.3637C15.2727 11.8303 14.8364 11.394 14.303 11.394H1.21213C0.678795 11.394 0.242432 11.8303 0.242432 12.3637V29.3334C0.242432 29.8667 0.678795 30.3031 1.21213 30.3031ZM2.61819 14.6909C2.61819 14.1576 3.05455 13.7212 3.58789 13.7212H11.8788C12.4121 13.7212 12.8485 14.1576 12.8485 14.6909V17.8909C12.8485 18.4243 12.4121 18.8606 11.8788 18.8606H3.58789C3.05455 18.8606 2.61819 18.4243 2.61819 17.8909V14.6909ZM2.61819 20.9455C2.61819 20.4121 3.05455 19.9758 3.58789 19.9758H11.8788C12.4121 19.9758 12.8485 20.4121 12.8485 20.9455V27.0061C12.8485 27.5394 12.4121 27.9758 11.8788 27.9758H3.58789C3.05455 27.9758 2.61819 27.5394 2.61819 27.0061V20.9455ZM29.1394 13.3334C29.4303 13.0424 30.0606 12.4121 26.9091 8.43639C26.2788 7.61214 25.6 6.83639 24.9212 6.06063C24.3394 5.38184 23.7091 4.75154 23.0788 4.12123C20.6061 1.60002 18.6667 0.339417 17.4546 0.339417C17.0667 0.339417 16.7273 0.484871 16.4849 0.727295C16.097 1.11517 15.8546 1.84245 16.6303 3.24851C17.2121 4.31517 18.3273 5.72123 19.9273 7.27275C20.5576 7.90305 21.2364 8.53335 21.8667 9.11517C22.6424 9.79396 23.4667 10.4727 24.2424 11.1031C26.3273 12.7515 27.7818 13.5273 28.5091 13.5273C28.8485 13.5758 29.0424 13.4303 29.1394 13.3334ZM18.1333 6.83639L16.6303 11.8303C16.5818 11.9758 16.6303 12.1697 16.7758 12.3152C18.0849 13.5273 18.0849 13.7697 18.4242 13.7697C18.6182 13.7697 18.7636 13.6727 18.8606 13.4788L20.7515 9.45457C20.2182 8.96972 19.6849 8.48487 19.2 8.00002C18.8121 7.61214 18.4727 7.22427 18.1333 6.83639ZM29.5273 2.71517C29.5758 2.56972 29.5273 2.42426 29.3818 2.27881L28.0727 0.96972C27.9273 0.824265 27.7818 0.77578 27.5879 0.824265L22.6424 2.3273C23.0303 2.66669 23.3697 3.00608 23.7576 3.44245C24.2909 3.97578 24.7758 4.46063 25.2121 4.99396L29.2364 3.10305C29.4303 3.00608 29.5273 2.86063 29.5273 2.71517ZM31.2727 11.1031H29.8667C30.0606 11.4424 30.1576 11.7818 30.2546 12.0727H31.2727C31.5636 12.0727 31.7576 11.8303 31.7576 11.5879C31.7576 11.3455 31.5636 11.1031 31.2727 11.1031ZM27.8788 15.4667V14.4485C27.6364 14.4 27.297 14.2546 26.9091 14.0606V15.4667C26.9091 16.1455 27.8788 16.1455 27.8788 15.4667ZM30.303 20.5576H27.2V19.5879C27.2 19.0546 26.7636 18.6182 26.2303 18.6182H21.8667C21.3333 18.6182 20.897 19.0546 20.897 19.5879V20.5576H17.7939C17.0182 20.5576 16.3394 21.1879 16.3394 22.0121V25.2121H23.5636V24.8727C23.5636 24.5818 23.7576 24.3879 24.0485 24.3879C24.3394 24.3879 24.5333 24.5818 24.5333 24.8727V25.2121H31.7576V22.0121C31.7576 21.1879 31.1273 20.5576 30.303 20.5576ZM26.2303 20.5576H21.8667V19.5879H26.2303V20.5576ZM24.5333 26.5697C24.5333 26.8606 24.3394 27.0546 24.0485 27.0546C23.7576 27.0546 23.5636 26.8606 23.5636 26.5697V26.1818H16.3879V30.2061C16.3879 30.9818 17.0182 31.6606 17.8424 31.6606H30.3515C31.1273 31.6606 31.8061 31.0303 31.8061 30.2061V26.1818H24.5333V26.5697Z" fill="#2553E4" fill-opacity="0.5"/>
</g>
<defs>
<clipPath id="clip0_1_689">
<rect width="32" height="32" fill="white"/>
</clipPath>
</defs>
</svg>
