<svg width="21" height="21" viewBox="0 0 21 21" fill="none" xmlns="http://www.w3.org/2000/svg">
<path d="M19.0312 10.5C19.0365 12.5365 18.3063 14.5065 16.975 16.0475C16.7393 15.6632 16.4668 15.3028 16.1612 14.9713C15.3091 14.0407 14.2429 13.3319 13.055 12.9063C13.7378 12.3741 14.2374 11.6419 14.484 10.8121C14.7307 9.9822 14.712 9.09603 14.4306 8.27729C14.1492 7.45855 13.6192 6.74811 12.9145 6.24517C12.2099 5.74222 11.3657 5.47188 10.5 5.47188C9.63425 5.47188 8.79012 5.74222 8.08546 6.24517C7.38079 6.74811 6.85077 7.45855 6.56939 8.27729C6.28801 9.09603 6.26933 9.9822 6.51594 10.8121C6.76256 11.6419 7.26216 12.3741 7.945 12.9063C6.75711 13.3319 5.6909 14.0407 4.83875 14.9713C4.53322 15.3028 4.26069 15.6632 4.025 16.0475C3.12922 15.0034 2.49925 13.7581 2.1888 12.4178C1.87835 11.0776 1.89663 9.68212 2.24209 8.35045C2.58754 7.01879 3.24992 5.79042 4.17274 4.77009C5.09556 3.74976 6.25145 2.96774 7.54184 2.49071C8.83223 2.01368 10.2188 1.85579 11.5834 2.03051C12.9481 2.20522 14.2502 2.70736 15.3787 3.4941C16.5073 4.28085 17.4289 5.32886 18.0649 6.54877C18.7009 7.76868 19.0324 9.1243 19.0312 10.5ZM10.5 13.7813C9.60155 13.7801 8.71331 13.9716 7.89519 14.343C7.07708 14.7143 6.34811 15.2568 5.7575 15.9338C5.45845 16.2571 5.19988 16.6155 4.9875 17.0013C6.52503 18.3123 8.47944 19.0324 10.5 19.0324C12.5205 19.0324 14.475 18.3123 16.0125 17.0013C15.8001 16.6155 15.5415 16.2571 15.2425 15.9338C14.6519 15.2568 13.9229 14.7143 13.1048 14.343C12.2867 13.9716 11.3984 13.7801 10.5 13.7813ZM13.3437 9.62504C13.3437 9.0626 13.177 8.51279 12.8645 8.04514C12.552 7.57749 12.1079 7.213 11.5883 6.99776C11.0686 6.78253 10.4968 6.72621 9.94521 6.83594C9.39357 6.94566 8.88687 7.21651 8.48916 7.61421C8.09146 8.01192 7.82061 8.51862 7.71089 9.07026C7.60116 9.62189 7.65748 10.1937 7.87271 10.7133C8.08795 11.2329 8.45244 11.6771 8.92009 11.9895C9.38775 12.302 9.93755 12.4688 10.5 12.4688C11.2535 12.4665 11.9755 12.1661 12.5083 11.6333C13.0411 11.1005 13.3414 10.3785 13.3437 9.62504Z" fill="url(#paint0_linear_0_742)"/>
<defs>
<linearGradient id="paint0_linear_0_742" x1="4.48" y1="16.5025" x2="16.52" y2="4.46255" gradientUnits="userSpaceOnUse">
<stop stop-color="#13519C"/>
<stop offset="1" stop-color="#558BCB"/>
</linearGradient>
</defs>
</svg>
