<svg width="248" height="312" viewBox="0 0 248 312" fill="none" xmlns="http://www.w3.org/2000/svg">
<path d="M37.2428 56.937C29.1207 73.1492 19.7363 100.426 12.0785 131.728C4.42074 163.031 0.258028 191.133 0.138519 208.609C-0.823548 243.341 19.9291 274.091 52.774 286.601C69.1609 293.228 97.0404 300.268 129.26 305.36C161.481 310.451 190.6 312.419 208.89 311.271C245.183 309.686 278.875 287.539 294.344 255.1C302.466 238.888 311.851 211.612 319.508 180.309C327.169 149.006 331.328 120.905 331.448 103.428C332.411 68.6965 311.657 37.9467 278.815 25.4365C262.426 18.8091 234.547 11.7691 202.329 6.67765C170.107 1.58624 140.988 -0.38094 122.699 0.766847C86.4058 2.35183 52.7131 24.4981 37.2428 56.937Z" fill="url(#paint0_radial_55_502)"/>
<defs>
<radialGradient id="paint0_radial_55_502" cx="0" cy="0" r="1" gradientUnits="userSpaceOnUse" gradientTransform="translate(259.101 249.636) rotate(-135.864) scale(265.307 328.94)">
<stop offset="0.53125" stop-color="#005ABB"/>
<stop offset="0.776042" stop-color="#3086EE"/>
<stop offset="1" stop-color="#74B5FF"/>
</radialGradient>
</defs>
</svg>
