<svg width="174" height="313" viewBox="0 0 174 313" fill="none" xmlns="http://www.w3.org/2000/svg">
<path d="M37.1773 57.3655C29.055 73.5781 19.6705 100.854 12.0131 132.157C4.35533 163.46 0.192246 191.561 0.0730891 209.038C-0.888978 243.77 19.8637 274.52 52.7086 287.028C69.0962 293.656 96.9746 300.697 129.196 305.787C161.414 310.882 190.534 312.849 208.823 311.699C245.117 310.113 278.808 287.97 294.281 255.528C302.404 239.317 311.788 212.041 319.445 180.738C327.102 149.435 331.266 121.334 331.385 103.857C332.344 69.1254 311.594 38.3756 278.748 25.8651C262.363 19.2379 234.481 12.1975 202.263 7.10641C170.044 2.01493 140.922 0.0477097 122.632 1.1956C86.3387 2.78065 52.6473 24.9266 37.1773 57.3655Z" fill="url(#paint0_radial_55_504)"/>
<defs>
<radialGradient id="paint0_radial_55_504" cx="0" cy="0" r="1" gradientUnits="userSpaceOnUse" gradientTransform="translate(259.038 250.065) rotate(-135.864) scale(265.307 328.94)">
<stop offset="0.53125" stop-color="#005ABB"/>
<stop offset="0.776042" stop-color="#3086EE"/>
<stop offset="1" stop-color="#74B5FF"/>
</radialGradient>
</defs>
</svg>
