<svg width="175" height="17" viewBox="0 0 175 17" fill="none" xmlns="http://www.w3.org/2000/svg">
<path d="M0.492322 7.36106C2.14171 7.33252 3.80668 7.14282 5.43867 7.30643C16.6588 8.42769 27.86 9.87808 39.103 10.714C50.4327 11.5549 61.805 12.0929 73.1695 12.2316C83.1104 12.3559 93.073 12.0077 102.996 11.3706C111.459 10.8292 119.878 9.5373 128.324 8.652C140.799 7.3347 153.032 4.71939 165.208 1.80777C166.904 1.4018 168.55 0.79959 170.246 0.393619C171.79 0.0224552 173.042 0.419503 173.892 1.95232C174.877 3.73607 174.576 4.63472 172.613 5.03136C160.943 7.36167 149.296 9.84906 137.579 11.9273C131.699 12.9683 125.685 13.3096 119.721 13.8659C114.963 14.3115 110.184 14.9118 105.424 14.8713C102.434 14.8405 99.6023 15.5293 96.7029 15.672C90.1872 15.9841 83.6572 15.9028 77.134 16.0213C73.362 16.0882 69.5934 16.3049 65.8261 16.2973C62.4563 16.2941 59.0743 16.1781 55.7137 15.9075C53.8696 15.7564 52.0656 15.1278 50.2229 14.8458C49.4402 14.7255 48.4611 14.6684 47.8245 15.0302C45.1179 16.5615 42.8221 13.9098 39.847 14.6027C36.3107 15.4313 32.2745 14.1615 28.4615 13.7586C26.4595 13.5422 24.4455 13.3189 22.4718 12.9359C19.8583 12.4346 17.2878 11.7302 14.6816 11.2106C13.8702 11.0511 12.9423 11.3959 12.1519 11.1941C10.7611 10.8388 9.4601 10.1148 8.06242 9.77162C5.54257 9.15735 2.98818 8.70935 0.44397 8.19337C0.459847 7.92009 0.481941 7.64715 0.504013 7.37421L0.492322 7.36106Z" fill="url(#paint0_linear_55_343)"/>
<defs>
<linearGradient id="paint0_linear_55_343" x1="86.7443" y1="17.8957" x2="88.0541" y2="-4.59013" gradientUnits="userSpaceOnUse">
<stop stop-color="#8DC14B"/>
<stop offset="0.0001" stop-color="#47740E"/>
</linearGradient>
</defs>
</svg>
