<svg width="318" height="230" viewBox="0 0 318 230" fill="none" xmlns="http://www.w3.org/2000/svg">
<path d="M37.9392 -24.9809C29.8171 -8.76862 20.4327 18.5078 12.7749 49.8106C5.11716 81.1132 0.954439 109.215 0.83493 126.692C-0.127137 161.423 20.6255 192.173 53.4704 204.683C69.8573 211.311 97.7368 218.351 129.957 223.442C162.176 228.534 191.297 230.5 209.586 229.353C245.878 227.768 279.57 205.621 295.043 173.183C303.165 156.97 312.55 129.694 320.207 98.3912C327.864 67.0885 332.027 38.987 332.147 21.5101C333.106 -13.2213 312.356 -43.9711 279.51 -56.4813C263.124 -63.1088 235.243 -70.1488 203.024 -75.2403C170.805 -80.3318 141.684 -82.299 123.395 -81.1511C87.1022 -79.566 53.4095 -57.4197 37.9392 -24.9809Z" fill="url(#paint0_radial_55_500)"/>
<defs>
<radialGradient id="paint0_radial_55_500" cx="0" cy="0" r="1" gradientUnits="userSpaceOnUse" gradientTransform="translate(259.8 167.718) rotate(-135.864) scale(265.307 328.94)">
<stop offset="0.53125" stop-color="#005ABB"/>
<stop offset="0.776042" stop-color="#3086EE"/>
<stop offset="1" stop-color="#74B5FF"/>
</radialGradient>
</defs>
</svg>
