<svg width="15" height="15" viewBox="0 0 15 15" fill="none" xmlns="http://www.w3.org/2000/svg">
<path fill-rule="evenodd" clip-rule="evenodd" d="M1.36903 5.85112C1.66069 5.66919 1.9914 5.50645 2.34993 5.36303C2.92956 5.13118 3.60237 4.94171 4.34061 4.80383C4.4785 4.06558 4.66797 3.39278 4.89982 2.81315C5.04323 2.45461 5.20597 2.12391 5.38791 1.83224C3.47953 2.43586 1.97265 3.94275 1.36903 5.85112ZM7.24968 0.546219C3.29163 0.546219 0.0830078 3.75485 0.0830078 7.71289C0.0830078 11.6709 3.29163 14.8796 7.24968 14.8796C11.2077 14.8796 14.4164 11.6709 14.4164 7.71289C14.4164 3.75485 11.2077 0.546219 7.24968 0.546219ZM7.24968 1.54622C7.06327 1.54622 6.8351 1.63861 6.57497 1.91368C6.31383 2.1898 6.05564 2.61619 5.8283 3.18454C5.65766 3.61112 5.50994 4.10376 5.39204 4.64789C5.98553 4.5814 6.60863 4.54622 7.24968 4.54622C7.89072 4.54622 8.51382 4.5814 9.10728 4.64789C8.98941 4.10376 8.84169 3.61112 8.67105 3.18454C8.44371 2.61619 8.18552 2.1898 7.92438 1.91368C7.66425 1.63861 7.43608 1.54622 7.24968 1.54622ZM10.1588 4.80383C10.0209 4.06558 9.83138 3.39278 9.59958 2.81315C9.45608 2.45461 9.29338 2.12391 9.11148 1.83224C11.0198 2.43586 12.5267 3.94275 13.1303 5.85112C12.8387 5.66919 12.508 5.50645 12.1494 5.36303C11.5698 5.13118 10.897 4.94171 10.1588 4.80383ZM9.28548 5.67708C8.6491 5.59259 7.96471 5.54622 7.24968 5.54622C6.53464 5.54622 5.85025 5.59259 5.21386 5.67708C5.12937 6.31346 5.08301 6.99786 5.08301 7.71289C5.08301 8.42793 5.12937 9.1123 5.21386 9.7487C5.85025 9.8332 6.53464 9.8796 7.24968 9.8796C7.96471 9.8796 8.6491 9.8332 9.28548 9.7487C9.36998 9.1123 9.41638 8.42793 9.41638 7.71289C9.41638 6.99786 9.36998 6.31346 9.28548 5.67708ZM10.3147 9.5705C10.3812 8.97704 10.4164 8.35394 10.4164 7.71289C10.4164 7.07184 10.3812 6.44875 10.3147 5.85525C10.8588 5.97316 11.3515 6.12088 11.778 6.29151C12.3464 6.51885 12.7728 6.77705 13.0489 7.03818C13.324 7.29831 13.4164 7.52648 13.4164 7.71289C13.4164 7.8993 13.324 8.12747 13.0489 8.3876C12.7728 8.64873 12.3464 8.90693 11.778 9.1343C11.3515 9.3049 10.8588 9.4526 10.3147 9.5705ZM9.10728 10.7779C8.51382 10.8444 7.89072 10.8796 7.24968 10.8796C6.60863 10.8796 5.98553 10.8444 5.39204 10.7779C5.50994 11.322 5.65766 11.8147 5.8283 12.2412C6.05564 12.8096 6.31383 13.236 6.57497 13.5121C6.8351 13.7872 7.06327 13.8796 7.24968 13.8796C7.43608 13.8796 7.66425 13.7872 7.92438 13.5121C8.18552 13.236 8.44371 12.8096 8.67105 12.2412C8.84169 11.8147 8.98941 11.322 9.10728 10.7779ZM9.11148 13.5935C9.29338 13.3019 9.45608 12.9712 9.59958 12.6126C9.83138 12.033 10.0209 11.3602 10.1588 10.622C10.897 10.4841 11.5698 10.2946 12.1494 10.0627C12.508 9.9193 12.8387 9.7566 13.1303 9.5747C12.5267 11.483 11.0198 12.9899 9.11148 13.5935ZM5.38791 13.5935C3.47953 12.9899 1.97265 11.483 1.36903 9.5747C1.66069 9.7566 1.9914 9.9193 2.34993 10.0627C2.92956 10.2946 3.60237 10.4841 4.34061 10.622C4.4785 11.3602 4.66797 12.033 4.89982 12.6126C5.04323 12.9712 5.20597 13.3019 5.38791 13.5935ZM4.18468 9.5705C3.64055 9.4526 3.1479 9.3049 2.72133 9.1343C2.15297 8.90693 1.72658 8.64873 1.45046 8.3876C1.1754 8.12747 1.08301 7.8993 1.08301 7.71289C1.08301 7.52648 1.1754 7.29831 1.45046 7.03818C1.72658 6.77705 2.15297 6.51885 2.72133 6.29151C3.1479 6.12088 3.64055 5.97316 4.18468 5.85525C4.11819 6.44875 4.08301 7.07184 4.08301 7.71289C4.08301 8.35394 4.11819 8.97704 4.18468 9.5705Z" fill="url(#paint0_linear_1_708)"/>
<defs>
<linearGradient id="paint0_linear_1_708" x1="3.61121" y1="13.7005" x2="30.9771" y2="-16.6097" gradientUnits="userSpaceOnUse">
<stop stop-color="#0D0856"/>
<stop offset="1" stop-opacity="0"/>
</linearGradient>
</defs>
</svg>
