<?xml version="1.0" encoding="UTF-8"?>
<svg version="1.1" xmlns="http://www.w3.org/2000/svg" width="640" height="550">
<path d="M0 0 C211.2 0 422.4 0 640 0 C640 181.5 640 363 640 550 C428.8 550 217.6 550 0 550 C0 368.5 0 187 0 0 Z " fill="#FEFEFE" transform="translate(0,0)"/>
<path d="M0 0 C4.19923653 3.80946501 6.69405469 7.6286134 9.3125 12.625 C13.55914333 20.49382849 18.03892349 28.19942609 22.625 35.875 C28.2225726 45.25828052 33.72272552 54.69042734 39.125 64.1875 C44.14214153 73.00600125 49.19340899 81.80264877 54.3125 90.5625 C54.87928467 91.53638672 55.44606934 92.51027344 56.0300293 93.51367188 C58.76751456 98.21172938 61.53114686 102.89026232 64.3515625 107.5390625 C64.87322998 108.40974365 65.39489746 109.2804248 65.93237305 110.17749023 C66.90618715 111.80146149 67.89133319 113.41871384 68.88989258 115.02758789 C69.31681396 115.74422607 69.74373535 116.46086426 70.18359375 117.19921875 C70.56056396 117.81627686 70.93753418 118.43333496 71.32592773 119.0690918 C72.53654174 122.53694626 71.3795723 125.20356804 69.85180664 128.40917969 C69.37606201 129.23836914 68.90031738 130.06755859 68.41015625 130.921875 C67.87874023 131.85531738 67.34732422 132.78875977 66.79980469 133.75048828 C65.93983887 135.23524658 65.93983887 135.23524658 65.0625 136.75 C64.46985352 137.78495605 63.87720703 138.81991211 63.26660156 139.88623047 C58.73999044 147.77298924 54.14456447 155.61847942 49.51123047 163.44287109 C46.26610718 168.9338923 43.03946197 174.43579289 39.8125 179.9375 C39.44760468 180.55952301 39.08270935 181.18154602 38.70675659 181.82241821 C32.99455468 191.56306523 27.32497211 201.32728617 21.70043945 211.11889648 C17.41294391 218.5764864 13.0829156 226.00880692 8.74682617 233.43823242 C8.09736778 234.55128502 7.44790939 235.66433762 6.77877045 236.81111908 C5.18598094 239.54082427 3.59305369 242.27044898 2 245 C2.71984668 244.98487429 3.43969336 244.96974857 4.18135357 244.95416451 C21.74393859 244.59278338 39.30394428 244.35457073 56.86994457 244.25128365 C65.36544431 244.19839895 73.85674596 244.10475203 82.3503418 243.91308594 C89.75890024 243.74601041 97.16365847 243.65750676 104.57416993 243.66102016 C108.495704 243.66019471 112.40822243 243.62165029 116.32768822 243.48874283 C140.10642721 242.71935346 140.10642721 242.71935346 146.57368469 248.16853523 C150.87008587 253.40472067 153.60212169 259.1503621 156.00048637 265.44858456 C157.27699775 268.70708023 158.90351758 271.53026239 160.7265625 274.51171875 C161.69470356 276.23586032 162.66092437 277.9610819 163.625 279.6875 C171.31690188 293.3680637 179.17792724 306.940632 187.1875 320.4375 C194.39962128 332.59335217 201.40363678 344.86707896 208.37939453 357.15966797 C209.35984486 358.87804083 210.34815708 360.59200544 211.35107422 362.29736328 C214 366.8020468 214 366.8020468 214 369 C167.14 369 120.28 369 72 369 C67.05 360.42 62.1 351.84 57 343 C52.12471379 334.7349861 52.12471379 334.7349861 47.23828125 326.4765625 C38.22936246 311.26186464 29.38091832 295.95319181 20.56860352 280.62402344 C17.46851646 275.24114129 14.34327375 269.87565368 11.1640625 264.5390625 C10.55763916 263.52086426 9.95121582 262.50266602 9.32641602 261.45361328 C8.17469031 259.52509044 7.01909656 257.59887089 5.85913086 255.67529297 C5.35003174 254.82338379 4.84093262 253.97147461 4.31640625 253.09375 C3.86724854 252.34802734 3.41809082 251.60230469 2.95532227 250.83398438 C2 249 2 249 2 247 C-0.33020058 249.15553047 -1.8786643 251.27732883 -3.42578125 254.04296875 C-3.88509033 254.85660889 -4.34439941 255.67024902 -4.81762695 256.50854492 C-5.31093506 257.3926001 -5.80424316 258.27665527 -6.3125 259.1875 C-7.39480406 261.10474807 -8.47817855 263.02139217 -9.5625 264.9375 C-10.40941406 266.43603516 -10.40941406 266.43603516 -11.2734375 267.96484375 C-14.07877077 272.89639114 -16.94558763 277.79157753 -19.8125 282.6875 C-24.71310525 291.06868727 -29.5884846 299.46385485 -34.4375 307.875 C-35.05842529 308.95193115 -35.67935059 310.0288623 -36.3190918 311.13842773 C-39.49011062 316.64024585 -42.65805554 322.14382391 -45.82421875 327.6484375 C-46.46109619 328.75461426 -47.09797363 329.86079102 -47.75415039 331.00048828 C-48.93280605 333.04771611 -50.110512 335.09549129 -51.28686523 337.14404297 C-52.4250276 339.12040986 -53.59644936 341.07794855 -54.79821777 343.01629639 C-56.58754609 346.05028945 -57.84649653 349.1240099 -59.09999084 352.41293335 C-61.77544475 358.7660631 -64.64133725 364.5093104 -70 369 C-79.33725217 372.67788524 -90.13196111 371.63614283 -99.99205232 371.23066664 C-103.93629997 371.09206194 -107.88100944 371.08013589 -111.82731628 371.05410767 C-119.28185178 370.9860208 -126.72919397 370.80596288 -134.18057603 370.58441889 C-142.67062468 370.33753647 -151.16103847 370.21732291 -159.65378916 370.10711932 C-177.1066714 369.87784021 -194.55257293 369.4915271 -212 369 C-210.45647996 364.12757047 -208.3964675 359.97734203 -205.75 355.625 C-204.84571302 354.11236227 -203.94210683 352.59931742 -203.0390625 351.0859375 C-202.30671387 349.86342285 -202.30671387 349.86342285 -201.55957031 348.61621094 C-198.71608509 343.84620661 -195.92184844 339.04744929 -193.125 334.25 C-192.5271167 333.22519531 -191.9292334 332.20039063 -191.31323242 331.14453125 C-187.03861756 323.80772097 -182.81008166 316.44569831 -178.60546875 309.06860352 C-167.52991198 289.64083823 -156.34188165 270.27361626 -145 251 C-144.59500621 250.13876431 -144.19001242 249.27752863 -143.77274609 248.39019489 C-142 246 -142 246 -139.41318989 245.38476086 C-137.84660271 245.3916743 -137.84660271 245.3916743 -136.24836731 245.39872742 C-135.04943344 245.3918541 -133.85049957 245.38498077 -132.61523438 245.37789917 C-131.29821533 245.39587555 -129.98119629 245.41385193 -128.62426758 245.43237305 C-127.2248286 245.43378326 -125.82538592 245.43299207 -124.4259491 245.43016052 C-120.62427203 245.42872385 -116.82338114 245.45815299 -113.02188706 245.49303031 C-109.05008809 245.5242527 -105.07827178 245.52722127 -101.10636902 245.53315735 C-93.58394333 245.548708 -86.06188027 245.58975269 -78.53961438 245.6399048 C-69.97627653 245.69576051 -61.41292151 245.72327521 -52.84944689 245.74838197 C-35.23275888 245.80066772 -17.61640858 245.88863345 0 246 C-1.72471578 242.84924593 -3.45199327 239.69990295 -5.1796875 236.55078125 C-5.66139404 235.67071411 -6.14310059 234.79064697 -6.6394043 233.88391113 C-12.36716559 223.45034428 -18.44262301 213.23238992 -24.5925293 203.04370117 C-27.93629689 197.50084745 -31.17283352 191.92522888 -34.23828125 186.22265625 C-40.99350329 173.86554276 -48.14825511 161.72231531 -55.25 149.5625 C-55.83918213 148.5506665 -56.42836426 147.53883301 -57.03540039 146.49633789 C-59.56562928 142.15295047 -62.10259283 137.81579607 -64.69921875 133.51171875 C-65.0849707 132.86323975 -65.47072266 132.21476074 -65.86816406 131.54663086 C-66.8505945 129.89601315 -67.84466564 128.25233846 -68.83984375 126.609375 C-70.19462857 123.56224955 -70.0605161 123.05340259 -69 120 C-68.03777766 118.07608449 -67.02143357 116.17891566 -65.97265625 114.30078125 C-65.03981812 112.62447632 -65.03981812 112.62447632 -64.08813477 110.91430664 C-63.41317745 109.71356146 -62.73796 108.51296247 -62.0625 107.3125 C-61.36953953 106.07358182 -60.67675096 104.83456748 -59.98413086 103.59545898 C-56.04324292 96.55995409 -52.03891802 89.56544237 -47.91577148 82.63500977 C-43.90641115 75.8853629 -40.01500192 69.06884604 -36.125 62.25 C-35.60551285 61.33971542 -35.60551285 61.33971542 -35.07553101 60.41104126 C-32.15912876 55.30022115 -29.24572945 50.18769368 -26.33398438 45.07421875 C-20.39563687 34.64626926 -14.4164215 24.24365733 -8.375 13.875 C-7.77026855 12.83633789 -7.16553711 11.79767578 -6.54248047 10.72753906 C-5.97932129 9.76299805 -5.41616211 8.79845703 -4.8359375 7.8046875 C-4.33626465 6.94858887 -3.8365918 6.09249023 -3.32177734 5.21044922 C-2.26468953 3.44264851 -1.14254156 1.71381234 0 0 Z " fill="#FD0000" transform="translate(319,1)"/>
<path d="M0 0 C3.68017835 2.25317042 6.15535692 4.69098615 9.0625 7.875 C9.5575 8.37 9.5575 8.37 10.0625 8.875 C10.0625 5.575 10.0625 2.275 10.0625 -1.125 C22.2725 -1.125 34.4825 -1.125 47.0625 -1.125 C47.5575 3.825 47.5575 3.825 48.0625 8.875 C48.92875 7.781875 49.795 6.68875 50.6875 5.5625 C54.41868539 1.30567417 57.26142375 -0.86805373 63.0859375 -1.40234375 C71.13642867 -1.63262096 76.45810244 -1.14263517 82.75 4.125 C90.95563702 13.88305483 91.88335816 24.45836621 91.25341797 36.78271484 C90.57283054 44.24132641 86.91403082 49.64283713 82.13671875 55.18359375 C76.57594123 59.71808842 71.05162479 60.32248874 64.14892578 60.31079102 C63.28453888 60.32086685 62.42015198 60.33094269 61.52957153 60.34132385 C58.68885151 60.36968316 55.84866503 60.3756741 53.0078125 60.37890625 C51.02155341 60.38855505 49.03529643 60.3986481 47.04904175 60.40916443 C42.89153096 60.42709524 38.73420687 60.43268853 34.57666016 60.4309082 C29.26481919 60.43060338 23.95418167 60.47157095 18.64262581 60.52322483 C14.54176396 60.55667655 10.44119044 60.5626631 6.34020615 60.56107903 C4.38267745 60.56460517 2.42514017 60.57779618 0.46774673 60.60107613 C-17.99150626 60.80008801 -17.99150626 60.80008801 -24.47599792 55.40313721 C-32.56156276 46.94892242 -34.36547605 37.12471315 -34.12109375 25.796875 C-33.51847323 16.20623357 -30.59283781 8.90207057 -23.3125 2.4375 C-17.27399406 -2.57637258 -7.22713092 -2.76092642 0 0 Z " fill="#080808" transform="translate(273.9375,490.125)"/>
<path d="M0 0 C6.7991487 4.107819 10.5605816 9.61806573 13.08984375 16.98828125 C15.31065889 26.31951741 15.61709703 37.95515253 11.328125 46.69921875 C7.38648479 52.9710639 3.40287761 57.87076161 -4 59.8125 C-10.53119221 60.42865021 -16.45258674 60.73628011 -22 56.8125 C-28.39339989 51.35471961 -33.00630552 44.25890308 -34 35.8125 C-34.77128922 24.29825376 -34.00220317 14.65639719 -26.55078125 5.50390625 C-19.76012254 -1.90253008 -9.48871435 -3.71571336 0 0 Z " fill="#080808" transform="translate(351,490.1875)"/>
<path d="M0 0 C12.21 0 24.42 0 37 0 C37 13.54464286 37 13.54464286 34.6796875 20.33984375 C31.96555304 30.96240447 33.99144449 41.93389703 39.25 51.375 C41.87641825 55.33458495 44.77655069 56.92811921 49 59 C49.66 59.66 50.32 60.32 51 61 C29.55 61 8.1 61 -14 61 C-12 59 -12 59 -8.6875 57.3125 C-2.84187356 53.98255895 -0.20388492 49.31175374 1.8125 43 C3.92914978 34.19473693 4.11025365 24.95084549 1.5 16.25 C0 11 0 11 0 0 Z " fill="#FAFAFA" transform="translate(284,489)"/>
<path d="M0 0 C24 0 24 0 32 3 C36.44073857 7.62970617 38.3675094 10.42783281 38.28515625 16.8984375 C37.81849096 20.33769673 36.21874413 22.41146518 34 25 C31.75 26.375 31.75 26.375 30 27 C30 27.66 30 28.32 30 29 C30.7425 29.226875 31.485 29.45375 32.25 29.6875 C35.55765809 31.266155 36.94858409 32.99614099 39 36 C40.70108067 41.10324201 40.56521247 45.31873434 38.3125 50.1875 C36.41208081 53.65257526 34.39509716 55.87806427 31 58 C20.9699797 60.50750507 10.33870828 59 0 59 C0 39.53 0 20.06 0 0 Z " fill="#090909" transform="translate(334,406)"/>
<path d="M0 0 C3.96 0 7.92 0 12 0 C13.67333858 3.76799991 15.33890002 7.53910937 17 11.3125 C17.47695312 12.38435547 17.95390625 13.45621094 18.4453125 14.56054688 C19.12207031 16.10258789 19.12207031 16.10258789 19.8125 17.67578125 C20.23144531 18.62364502 20.65039062 19.57150879 21.08203125 20.5480957 C22 23 22 23 22 26 C22.66 26 23.32 26 24 26 C24.33 24.865625 24.66 23.73125 25 22.5625 C27.57646078 14.74514095 31.42467797 7.39692514 35 0 C38.96 0 42.92 0 47 0 C47 19.8 47 39.6 47 60 C43.37 60 39.74 60 36 60 C35.505 42.675 35.505 42.675 35 25 C33.741875 27.495625 32.48375 29.99125 31.1875 32.5625 C30.79715576 33.33408447 30.40681152 34.10566895 30.00463867 34.90063477 C27.84178888 39.20931268 25.85390164 43.54946641 24 48 C23.34 48 22.68 48 22 48 C21.79246094 47.45214844 21.58492187 46.90429688 21.37109375 46.33984375 C18.25986322 38.33395767 14.6624931 30.8481995 11 23 C10.67 34.88 10.34 46.76 10 59 C6.7 59 3.4 59 0 59 C0 39.53 0 20.06 0 0 Z " fill="#070707" transform="translate(136,406)"/>
<path d="M0 0 C3.63 0 7.26 0 11 0 C14.74141772 7.29366264 18.38945413 14.52058862 21.2734375 22.20703125 C21.86052804 23.99045461 21.86052804 23.99045461 23 25 C23.32798584 24.27820557 23.65597168 23.55641113 23.99389648 22.81274414 C25.47278366 19.5616043 26.95509401 16.31203679 28.4375 13.0625 C28.95376953 11.92619141 29.47003906 10.78988281 30.00195312 9.61914062 C30.49501953 8.53955078 30.98808594 7.45996094 31.49609375 6.34765625 C31.95169678 5.34742432 32.4072998 4.34719238 32.87670898 3.31665039 C34 1 34 1 35 0 C38.63 0 42.26 0 46 0 C46 19.47 46 38.94 46 59 C42.7 59 39.4 59 36 59 C35.505 41.675 35.505 41.675 35 24 C33.7625 26.475 32.525 28.95 31.25 31.5 C28.5 37 25.75 42.5 23 48 C20.77023286 45.20648042 19.18262435 42.49984636 17.73828125 39.234375 C17.38032471 38.43225586 17.02236816 37.63013672 16.65356445 36.80371094 C16.21101318 35.79598633 15.76846191 34.78826172 15.3125 33.75 C13.889375 30.5325 12.46625 27.315 11 24 C10.67 35.55 10.34 47.1 10 59 C6.7 59 3.4 59 0 59 C0 39.53 0 20.06 0 0 Z " fill="#040404" transform="translate(190,489)"/>
<path d="M0 0 C3.96 0 7.92 0 12 0 C12 7.59 12 15.18 12 23 C18.93 23 25.86 23 33 23 C33 15.41 33 7.82 33 0 C36.63 0 40.26 0 44 0 C44 19.8 44 39.6 44 60 C40.37 60 36.74 60 33 60 C33 51.42 33 42.84 33 34 C26.07 34 19.14 34 12 34 C12 42.58 12 51.16 12 60 C8.37 60 4.74 60 1 60 C0 59 0 59 -0.12025452 56.63987732 C-0.11803391 55.59396927 -0.11581329 54.54806122 -0.11352539 53.47045898 C-0.11344986 52.28931015 -0.11337433 51.10816132 -0.11329651 49.89122009 C-0.10813522 48.6058284 -0.10297394 47.32043671 -0.09765625 45.99609375 C-0.0962413 44.68794205 -0.09482635 43.37979034 -0.09336853 42.03199768 C-0.0895441 38.54837141 -0.07971446 35.06478661 -0.06866455 31.58117676 C-0.05844882 28.02873292 -0.05387056 24.47628241 -0.04882812 20.92382812 C-0.03809212 13.94919996 -0.02049593 6.97460624 0 0 Z " fill="#0F0F0F" transform="translate(440,406)"/>
<path d="M0 0 C26 0 26 0 34 4 C39.14030829 9.53571662 39.34230628 13.39221552 39.28515625 20.7890625 C38.8957971 25.17335316 37.99900352 26.83438517 35 30 C32.75 31.875 32.75 31.875 31 33 C31.66312942 36.39909049 32.98220545 38.96691754 34.72265625 41.94921875 C35.26083984 42.87927734 35.79902344 43.80933594 36.35351562 44.76757812 C36.91748047 45.73115234 37.48144531 46.69472656 38.0625 47.6875 C39.1802073 49.60701322 40.29619233 51.52753069 41.41015625 53.44921875 C41.90652588 54.29830811 42.40289551 55.14739746 42.91430664 56.0222168 C44 58 44 58 44 59 C39.71 59 35.42 59 31 59 C30.34773438 57.74445312 29.69546875 56.48890625 29.0234375 55.1953125 C28.14139128 53.5048083 27.25852583 51.81473137 26.375 50.125 C25.9207666 49.25617187 25.4665332 48.38734375 24.99853516 47.4921875 C22.17828402 42.13441214 19.25002691 36.90059411 15.9609375 31.8125 C15 30 15 30 15 27 C16.04800781 26.85304688 16.04800781 26.85304688 17.1171875 26.703125 C18.02726562 26.55359375 18.93734375 26.4040625 19.875 26.25 C20.77992188 26.11078125 21.68484375 25.9715625 22.6171875 25.828125 C25.12311151 25.22126747 25.12311151 25.22126747 26.296875 23.109375 C27.26637556 20.20087333 27.38080379 18.04643035 27 15 C25.1329009 12.69724444 23.64352259 11.32176129 21 10 C17.7 9.67 14.4 9.34 11 9 C11 25.83 11 42.66 11 60 C7.37 60 3.74 60 0 60 C0 40.2 0 20.4 0 0 Z " fill="#0A0A0A" transform="translate(369,489)"/>
<path d="M0 0 C4.71841977 3.32888513 7.01977309 5.99431958 8.5 11.6875 C8.5 13.3375 8.5 14.9875 8.5 16.6875 C4.87 16.6875 1.24 16.6875 -2.5 16.6875 C-2.768125 15.57375 -3.03625 14.46 -3.3125 13.3125 C-4.15809019 9.46909049 -4.15809019 9.46909049 -7.5 7.6875 C-11.57490752 7.34792437 -13.03001271 7.37417514 -16.5 9.6875 C-17.11487 12.6235559 -17.11487 12.6235559 -16.5 15.6875 C-14.69106458 17.71911535 -14.69106458 17.71911535 -12.125 19.1875 C-11.21492188 19.77660156 -10.30484375 20.36570312 -9.3671875 20.97265625 C-7.5336964 22.06925379 -5.68567971 23.14214238 -3.8203125 24.18359375 C1.92424931 27.40508814 6.70684106 30.51200015 9.5 36.6875 C10.50267634 41.74788215 10.11986566 45.44776869 7.8125 50.0625 C3.46922818 54.99270044 -0.70981074 58.19085451 -7.33203125 59.05859375 C-13.30664259 59.19171091 -17.95213308 58.98510241 -22.875 55.375 C-26.76449547 51.33590855 -28.36332715 46.63508805 -28.75 41.125 C-28.6675 40.320625 -28.585 39.51625 -28.5 38.6875 C-25.2 38.6875 -21.9 38.6875 -18.5 38.6875 C-18.231875 39.780625 -17.96375 40.87375 -17.6875 42 C-16.55078126 46.16532025 -16.55078126 46.16532025 -13.5 48.6875 C-9.56294421 49.12403547 -6.26456583 48.94235528 -2.5 47.6875 C-2.07680482 44.61933497 -1.82417144 42.64827276 -2.5 39.6875 C-5.36489189 36.36860885 -9.23615817 34.40295634 -13.01171875 32.265625 C-19.4411573 28.60291268 -25.10541201 24.47667597 -28.5 17.6875 C-28.92495098 13.52788367 -28.96838248 9.83243495 -27.375 5.9375 C-20.5351932 -2.27026816 -9.78397901 -6.03345373 0 0 Z " fill="#090909" transform="translate(441.5,490.3125)"/>
<path d="M0 0 C3.65242813 2.17930743 5.6625528 4.47961193 7.5 8.375 C8.08076771 11.40789804 8.3123712 14.27912483 8.5 17.375 C5.2 17.375 1.9 17.375 -1.5 17.375 C-1.933125 16.26125 -2.36625 15.1475 -2.8125 14 C-4.19911119 10.19987666 -4.19911119 10.19987666 -7.5 8.375 C-10.68170002 8.04357292 -12.67428518 7.86891672 -15.4375 9.5625 C-16.66725379 11.35957352 -16.66725379 11.35957352 -16.6875 13.6875 C-14.13387211 19.46676312 -7.73504357 22.26101899 -2.4375 25.25 C2.4970584 28.20920968 6.77793523 31.18227134 9.5 36.375 C10.64326869 41.95029081 10.60018699 47.41877385 7.5625 52.375 C3.59550716 56.91981813 -1.40331376 58.99704107 -7.31640625 59.71875 C-12.73751885 59.89576592 -16.96575475 59.61374661 -21.5 56.375 C-25.53929044 52.33570956 -27.36139767 48.96450235 -28.5 43.375 C-28.5 42.055 -28.5 40.735 -28.5 39.375 C-25.2 39.375 -21.9 39.375 -18.5 39.375 C-17.5234375 41.68619792 -16.546875 43.99739583 -15.5703125 46.30859375 C-14.6755063 48.53246715 -14.6755063 48.53246715 -12.5 49.375 C-7.17032792 49.71592041 -7.17032792 49.71592041 -2.5 47.375 C-1.74897465 44.00316458 -1.74897465 44.00316458 -2.5 40.375 C-5.62810692 36.88939515 -9.31430046 34.87803546 -13.32055664 32.48071289 C-13.89539795 32.13645264 -14.47023926 31.79219238 -15.0625 31.4375 C-15.63669678 31.09517334 -16.21089355 30.75284668 -16.80249023 30.40014648 C-21.67779316 27.42412884 -24.92586649 24.52326703 -27.5 19.375 C-28.08178451 14.52188621 -28.61119633 9.54891766 -26.3359375 5.09765625 C-19.90743372 -2.698965 -9.13786396 -4.11461041 0 0 Z " fill="#090909" transform="translate(425.5,406.625)"/>
<path d="M0 0 C1.19367188 -0.01675781 2.38734375 -0.03351563 3.6171875 -0.05078125 C8.13146026 0.41673252 11.43136658 1.73150728 14.76953125 4.84765625 C18.58074726 9.83155411 19.24165077 12.01335868 19.125 18.3125 C15.825 18.3125 12.525 18.3125 9.125 18.3125 C8.67125 17.178125 8.2175 16.04375 7.75 14.875 C6.55404194 11.26528308 6.55404194 11.26528308 4.125 10.3125 C2.21096924 10.11581266 2.21096924 10.11581266 0.125 10.125 C-0.57625 10.11082031 -1.2775 10.09664063 -2 10.08203125 C-4.12024938 10.14737677 -4.12024938 10.14737677 -5.875 12.3125 C-5.79800798 15.85413308 -5.44795162 17.70135161 -3 20.3125 C-0.21554809 22.09454922 2.58182069 23.64022361 5.5 25.1875 C11.45129751 28.36795049 17.58004029 31.74793102 20.125 38.3125 C20.84169548 44.47421954 20.80512492 50.10956477 17.125 55.3125 C11.35758828 60.77636373 5.88647406 61.84564275 -1.86328125 61.68359375 C-6.48028036 61.11470281 -9.58334932 59.58832543 -12.875 56.3125 C-16.43445668 51.47891962 -17.36727634 47.21981612 -16.875 41.3125 C-13.575 41.3125 -10.275 41.3125 -6.875 41.3125 C-6.58625 42.42625 -6.2975 43.54 -6 44.6875 C-5.18258671 48.31541092 -5.18258671 48.31541092 -2.875 50.3125 C-0.77082032 50.66889561 -0.77082032 50.66889561 1.5625 50.625 C2.34496094 50.64175781 3.12742187 50.65851563 3.93359375 50.67578125 C6.17262676 50.4611321 6.17262676 50.4611321 7.91015625 49.10546875 C9.59451482 46.61955048 9.66611618 45.25453505 9.125 42.3125 C7.2558283 40.38422913 7.2558283 40.38422913 4.6875 38.875 C3.77613281 38.27816406 2.86476563 37.68132812 1.92578125 37.06640625 C0.17369969 35.9692171 -1.57883147 34.8727452 -3.33203125 33.77734375 C-9.16783535 30.04918951 -14.61326731 26.09769808 -16.875 19.3125 C-17.46530743 15.03837534 -17.83560727 11.02719962 -15.67578125 7.171875 C-11.00403269 1.57048377 -7.35287119 0.02371894 0 0 Z " fill="#070707" transform="translate(261.875,405.6875)"/>
<path d="M0 0 C3.3 0 6.6 0 10 0 C10.01458252 1.27117676 10.02916504 2.54235352 10.04418945 3.85205078 C10.10229807 8.58231292 10.17953048 13.3121053 10.26245117 18.04199219 C10.29564141 20.0865108 10.32369163 22.13111974 10.34643555 24.17578125 C10.38008993 27.12018206 10.43241166 30.06375954 10.48828125 33.0078125 C10.49467117 33.9174173 10.5010611 34.82702209 10.50764465 35.76419067 C10.62556282 40.8900163 11.11117983 44.57888763 14 49 C17.19491759 50.59745879 20.53209389 50.50816842 24 50 C26.96858157 47.79259319 27.82865791 46.51402627 29 43 C29.11322825 41.5735686 29.17595476 40.1427751 29.20532227 38.7121582 C29.22526749 37.85149246 29.24521271 36.99082672 29.26576233 36.1040802 C29.28247482 35.17899155 29.29918732 34.25390289 29.31640625 33.30078125 C29.33718735 32.35059616 29.35796844 31.40041107 29.37937927 30.4214325 C29.44478052 27.38519544 29.50371604 24.34887169 29.5625 21.3125 C29.60569417 19.25454831 29.64930876 17.19660541 29.69335938 15.13867188 C29.80045231 10.09253684 29.90174646 5.04631457 30 0 C33.3 0 36.6 0 40 0 C40.07435895 6.56532333 40.12870144 13.1303995 40.16479492 19.69604492 C40.17984741 21.92785922 40.20029398 24.1596441 40.22631836 26.39135742 C40.26285688 29.60603104 40.27976215 32.82031228 40.29296875 36.03515625 C40.30845261 37.02709488 40.32393646 38.01903351 40.33988953 39.04103088 C40.3414194 45.39056798 39.97803415 50.98135629 35.28125 55.7421875 C34.6934375 56.11601562 34.105625 56.48984375 33.5 56.875 C32.9121875 57.26429688 32.324375 57.65359375 31.71875 58.0546875 C25.80061714 61.30966058 18.5297306 60.58495503 12 60 C7.24253686 58.48497453 4.19166575 55.88679567 1.81738281 51.50390625 C-0.61511617 46.3743094 -0.50751666 41.52457937 -0.390625 35.9375 C-0.38496521 34.90560547 -0.37930542 33.87371094 -0.37347412 32.81054688 C-0.35122256 29.5398771 -0.3010463 26.2703343 -0.25 23 C-0.22992054 20.77215132 -0.21167231 18.54428534 -0.1953125 16.31640625 C-0.1513944 10.87717508 -0.08244416 5.43877811 0 0 Z " fill="#030303" transform="translate(287,406)"/>
<path d="M0 0 C11.88 0 23.76 0 36 0 C36 2.97 36 5.94 36 9 C32.04 9 28.08 9 24 9 C24 25.83 24 42.66 24 60 C20.37 60 16.74 60 13 60 C13 43.17 13 26.34 13 9 C8.71 9 4.42 9 0 9 C0 6.03 0 3.06 0 0 Z " fill="#0B0B0B" transform="translate(284,489)"/>
<path d="M0 0 C4.90063792 0.92943133 7.45950435 2.89217704 10.625 6.6875 C14.83688527 13.11695031 14.36750303 21.32847 13.625 28.6875 C12.41562983 33.65502048 10.70411254 37.42853537 7.375 41.3125 C3.67194935 43.16402533 0.68054298 43.6252929 -3.375 42.6875 C-7.6376263 39.56157405 -9.86994672 35.69303704 -11.375 30.6875 C-11.78350097 27.48786495 -11.79555612 24.34682999 -11.75 21.125 C-11.76160156 20.30064453 -11.77320313 19.47628906 -11.78515625 18.62695312 C-11.75383081 12.09559863 -10.1974294 8.01615979 -6.125 2.8125 C-3.375 0.6875 -3.375 0.6875 0 0 Z " fill="#F8F8F8" transform="translate(263.375,497.3125)"/>
<path d="M0 0 C3.99507246 1.36417109 5.72914913 3.72703027 7.8125 7.25 C11.64134947 15.53776277 11.38252571 25.16943686 8.3125 33.6875 C6.49703338 37.48922627 4.87048845 40.06475578 1 42 C-4.01625639 42.87585429 -4.01625639 42.87585429 -7 42 C-11.00881796 38.84580916 -13.51852711 34.85216351 -15 30 C-15.27813015 27.18202601 -15.27950069 24.39210741 -15.25 21.5625 C-15.25773437 20.82451172 -15.26546875 20.08652344 -15.2734375 19.32617188 C-15.24576294 11.54270126 -13.26818164 6.66329526 -8 1 C-5.17998673 -0.41000664 -3.12992745 -0.24548451 0 0 Z " fill="#F9F9F9" transform="translate(344,498)"/>
<path d="M0 0 C11.88 0 23.76 0 36 0 C36 2.97 36 5.94 36 9 C31.71 9 27.42 9 23 9 C23 25.5 23 42 23 59 C19.7 59 16.4 59 13 59 C13 42.5 13 26 13 9 C8.71 9 4.42 9 0 9 C0 6.03 0 3.06 0 0 Z " fill="#020202" transform="translate(208,406)"/>
<path d="M0 0 C0.33 0 0.66 0 1 0 C1 19.47 1 38.94 1 59 C4.3 59 7.6 59 11 59 C11 46.79 11 34.58 11 22 C13.31484031 25.08645374 14.72547082 27.30276032 16.2265625 30.73046875 C16.6184375 31.61541016 17.0103125 32.50035156 17.4140625 33.41210938 C17.81367188 34.32798828 18.21328125 35.24386719 18.625 36.1875 C19.42771122 38.01519216 20.23229768 39.84206227 21.0390625 41.66796875 C21.39178223 42.47516357 21.74450195 43.2823584 22.10791016 44.11401367 C22.85490729 45.96719239 22.85490729 45.96719239 24 47 C24.28721924 46.34926514 24.57443848 45.69853027 24.87036133 45.02807617 C26.17726663 42.07799353 27.49474326 39.13275047 28.8125 36.1875 C29.49022461 34.65125977 29.49022461 34.65125977 30.18164062 33.08398438 C30.62314453 32.10107422 31.06464844 31.11816406 31.51953125 30.10546875 C31.92276611 29.19949951 32.32600098 28.29353027 32.74145508 27.36010742 C34 25 34 25 37 22 C37 34.21 37 46.42 37 59 C40.3 59 43.6 59 47 59 C47 59.33 47 59.66 47 60 C42.82404426 61.00747183 38.89854453 61.12908834 34.609375 61.1328125 C33.90532532 61.13376923 33.20127563 61.13472595 32.47589111 61.13571167 C30.98994863 61.13638992 29.50400314 61.13456046 28.01806641 61.13037109 C25.77108911 61.12504994 23.52431462 61.13031151 21.27734375 61.13671875 C19.8255204 61.13605728 18.37369717 61.1347747 16.921875 61.1328125 C15.61831055 61.13168457 14.31474609 61.13055664 12.97167969 61.12939453 C8.63373029 60.98806719 4.31370484 60.47930054 0 60 C0 40.2 0 20.4 0 0 Z " fill="#EDEDED" transform="translate(189,489)"/>
<path d="M0 0 C3.63 0 7.26 0 11 0 C11 19.8 11 39.6 11 60 C7.37 60 3.74 60 0 60 C0 40.2 0 20.4 0 0 Z " fill="#0D0D0D" transform="translate(494,406)"/>
<path d="M0 0 C3.63 0 7.26 0 11 0 C11 19.8 11 39.6 11 60 C7.37 60 3.74 60 0 60 C0 40.2 0 20.4 0 0 Z " fill="#0E0E0E" transform="translate(192,406)"/>
<path d="M0 0 C3.3 0 6.6 0 10 0 C10 19.47 10 38.94 10 59 C6.7 59 3.4 59 0 59 C0 39.53 0 20.06 0 0 Z " fill="#010101" transform="translate(380,406)"/>
<path d="M0 0 C11 0 11 0 14.1875 1.5625 C16.66760547 4.89781425 16.59059604 6.93965219 16 11 C14.45737187 13.10358381 13.31891683 13.84054159 11 15 C8.3276379 15.13415472 5.67749512 15.04318541 3 15 C3 18.3 3 21.6 3 25 C5.47395833 24.90234375 7.94791667 24.8046875 10.421875 24.70703125 C13.53689778 25.06101111 14.83014804 25.75052045 17 28 C17.53125 30.12109375 17.53125 30.12109375 17.5 32.4375 C17.5103125 33.19933594 17.520625 33.96117187 17.53125 34.74609375 C17 37 17 37 13 41 C8.71 41 4.42 41 0 41 C0 27.47 0 13.94 0 0 Z " fill="#FAFAFA" transform="translate(345,415)"/>
<path d="M0 0 C0.99 0.33 1.98 0.66 3 1 C2.67 1.66 2.34 2.32 2 3 C48.86 3.33 95.72 3.66 144 4 C144 4.33 144 4.66 144 5 C125.17417779 5.15670092 106.34828928 5.30309071 87.52234608 5.44438052 C82.64654444 5.48109133 77.77075241 5.51886761 72.89496553 5.55748677 C36.44019362 5.84611556 -0.0107955 6.05985763 -36.4667263 5.91040039 C-41.35161456 5.89042356 -46.23651074 5.874144 -51.12141418 5.85839844 C-54.30319273 5.84782832 -57.48497053 5.83704684 -60.66674805 5.82617188 C-61.44381768 5.82354528 -62.22088732 5.82091869 -63.02150452 5.81821251 C-72.26792293 5.78621847 -81.51393424 5.73661122 -90.760104 5.6613915 C-96.55124015 5.61536676 -102.34229909 5.58656545 -108.1335966 5.57103038 C-111.47065599 5.56130041 -114.80662862 5.53996803 -118.14355278 5.50177765 C-121.7538961 5.46118767 -125.36309231 5.45097785 -128.97363281 5.44824219 C-130.0279289 5.42869728 -131.08222498 5.40915237 -132.16846943 5.3890152 C-138.26503187 5.33631748 -138.26503187 5.33631748 -143.18914795 8.53448486 C-143.78672913 9.34810486 -144.3843103 10.16172485 -145 11 C-143.125 5.125 -143.125 5.125 -142 4 C-140.16505514 3.90353972 -138.32635413 3.87812656 -136.48887634 3.87974548 C-134.69459953 3.87768349 -134.69459953 3.87768349 -132.86407471 3.87557983 C-131.52648901 3.87911943 -130.18890356 3.88275425 -128.85131836 3.88647461 C-127.45217389 3.88675648 -126.05302927 3.88659875 -124.65388489 3.8860321 C-120.84413541 3.88574412 -117.03441714 3.89164102 -113.22467494 3.89860606 C-109.24748691 3.90483941 -105.27029824 3.90544338 -101.29310608 3.90663147 C-93.75661461 3.90974484 -86.22013757 3.91795831 -78.68365246 3.92798096 C-70.10580172 3.93914192 -61.5279503 3.9446525 -52.9500941 3.94967639 C-35.30005454 3.96014092 -17.65002843 3.97774047 0 4 C-0.33 3.01 -0.66 2.02 -1 1 C-0.67 0.67 -0.34 0.34 0 0 Z " fill="#FD1919" transform="translate(319,243)"/>
<path d="M0 0 C0.33 0 0.66 0 1 0 C1 11.88 1 23.76 1 36 C0.67 36 0.34 36 0 36 C-0.33 26.43 -0.66 16.86 -1 7 C-1.99 7.495 -1.99 7.495 -3 8 C-1.125 2.25 -1.125 2.25 0 0 Z " fill="#F2F2F2" transform="translate(225,511)"/>
<path d="M0 0 C0.33 0 0.66 0 1 0 C1 2.31 1 4.62 1 7 C-0.32 7.33 -1.64 7.66 -3 8 C-1.125 2.25 -1.125 2.25 0 0 Z " fill="#E1E1E1" transform="translate(225,511)"/>
</svg>
