<svg width="18" height="20" viewBox="0 0 18 20" fill="none" xmlns="http://www.w3.org/2000/svg">
<path opacity="0.4" d="M5.947 3.08158H12.0897V1.65137H5.947V3.08158ZM4.54965 1.71011V1.71723C4.07015 1.76084 3.59578 1.85607 3.13429 1.99935V1.99401C3.10255 2.00736 3.0751 2.01359 3.04851 2.02694C3.01163 2.03584 2.9756 2.04919 2.94129 2.0661C2.84007 2.09903 2.73885 2.13819 2.64363 2.17824C2.59302 2.19782 2.54241 2.22363 2.4918 2.24321C2.42232 2.27614 2.34683 2.3153 2.27735 2.34823L2.10579 2.44702C2.05518 2.47283 2.01058 2.50576 1.95997 2.53602C1.70177 2.70245 1.46245 2.89736 1.24628 3.11896L1.23342 3.13231C1.15707 3.22131 1.08159 3.30319 1.0121 3.38863L0.999237 3.40109C0.297561 4.3694 -0.0541357 5.56288 0.00676782 6.77238V7.15597H1.39211V6.76882C1.39211 5.08318 1.92909 4.03388 3.124 3.49632C3.58034 3.30319 4.06243 3.18393 4.55308 3.14032H4.56595V1.71634L4.54965 1.71011ZM17.004 3.39575L16.998 3.38329C16.9268 3.2934 16.8504 3.20796 16.7698 3.12697L16.7621 3.11362C16.5434 2.8938 16.3015 2.698 16.0424 2.53068C15.9978 2.50398 15.9566 2.47105 15.9034 2.44168C15.8503 2.41231 15.7893 2.37582 15.7259 2.34289C15.6641 2.30996 15.5869 2.2708 15.5114 2.23787C15.4677 2.21829 15.4162 2.19248 15.3605 2.1729C15.2635 2.13285 15.17 2.09369 15.0697 2.06076C15.0319 2.0483 15.0002 2.03495 14.9624 2.0216C14.9247 2.00825 14.9041 2.00113 14.8767 1.98867V1.99579C14.4143 1.85251 13.9399 1.75817 13.4604 1.71367V3.13053C13.9451 3.17325 14.4203 3.2934 14.8689 3.48653C15.4325 3.71793 15.8991 4.14424 16.1908 4.69336C16.4945 5.33505 16.6377 6.04526 16.6085 6.75903V7.15597H17.993V6.76882C18.0548 5.55932 17.7048 4.36495 17.004 3.39575Z" fill="#13519C"/>
<path d="M13.5 0.716945V3.86848C13.5 4.26556 13.1778 4.58719 12.78 4.58719C12.3822 4.58719 12.06 4.26556 12.06 3.86848V0.724132C12.0564 0.327046 12.3768 0.00272886 12.7746 1.67448e-05C13.1724 -0.00266145 13.4973 0.316265 13.5 0.713351V0.716945ZM5.94 0.728363V3.8721C5.94 4.27091 5.61741 4.59427 5.21955 4.59427C4.82169 4.59427 4.5 4.27091 4.5 3.8721V0.728363C4.5 0.329557 4.82169 0.00709842 5.21955 0.00709842C5.61741 0.00709842 5.94 0.329557 5.94 0.728363ZM18 7.15593V14.9102C18 18.2916 16.1116 20 12.3691 20H5.62232C1.88841 20 0 18.2916 0 14.9102V7.15593H18ZM13.1159 14.2463C12.6524 14.2463 12.2833 14.6269 12.2833 15.0961C12.2918 15.5652 12.6609 15.9458 13.1159 15.9458C13.5708 15.9458 13.9399 15.5652 13.9399 15.0961C13.9399 14.6269 13.5708 14.2463 13.1159 14.2463ZM9.00429 14.2374C8.54077 14.2463 8.17167 14.6269 8.17167 15.0961C8.17167 15.5652 8.54936 15.9458 9.00429 15.9458C9.45923 15.9458 9.82833 15.5652 9.82833 15.0872C9.81974 14.6269 9.45923 14.2463 9.00429 14.2374ZM4.88412 14.2374C4.4206 14.2374 4.0515 14.6269 4.06009 15.0961C4.06009 15.5652 4.42918 15.9458 4.88412 15.9458C5.33906 15.9458 5.70815 15.5564 5.70815 15.0872C5.70815 14.6181 5.33906 14.2374 4.88412 14.2374ZM13.1159 10.617C12.6524 10.617 12.2918 10.9976 12.2918 11.4668C12.2918 11.9359 12.6609 12.3166 13.1159 12.3166C13.5708 12.3166 13.9399 11.9359 13.9399 11.4668C13.9399 10.9976 13.5708 10.617 13.1159 10.617ZM9.00429 10.6082C8.54077 10.617 8.17167 10.9976 8.17167 11.4668C8.17167 11.9359 8.54936 12.3166 9.00429 12.3166C9.45923 12.3166 9.82833 11.9359 9.82833 11.4579C9.82833 10.9976 9.45923 10.617 9.00429 10.6082ZM4.8927 10.6082C4.42918 10.6082 4.06009 10.9976 4.06009 11.4668C4.06009 11.9359 4.42918 12.3166 4.88412 12.3166C5.34764 12.3166 5.71674 11.9271 5.70815 11.4579C5.70815 10.9888 5.33906 10.6082 4.8927 10.6082Z" fill="#13519C"/>
</svg>
