<svg width="20" height="20" viewBox="0 0 20 20" fill="none" xmlns="http://www.w3.org/2000/svg">
<g clip-path="url(#clip0_247_1308)">
<path d="M11.9167 16.0834L10.8334 17.1668V12.5001C10.8334 12.0001 10.5 11.6668 10 11.6668C9.50003 11.6668 9.1667 12.0001 9.1667 12.5001V17.1668L8.08337 16.0834C7.75003 15.7501 7.25003 15.7501 6.9167 16.0834C6.58337 16.4168 6.58337 16.9168 6.9167 17.2501L9.4167 19.7501C9.75003 20.0834 10.25 20.0834 10.5834 19.7501L13.0834 17.2501C13.4167 16.9168 13.4167 16.4168 13.0834 16.0834C12.75 15.7501 12.25 15.7501 11.9167 16.0834ZM15.3334 6.83342C14.0834 3.91675 10.6667 2.50008 7.6667 3.83342C5.75003 4.66675 4.4167 6.41675 4.1667 8.50008C2.4167 8.91675 1.25003 10.7501 1.6667 12.5001C2.08337 13.9168 3.50003 15.0001 5.00003 15.0001H6.25003C6.75003 14.6668 7.33337 14.5001 7.9167 14.6668V12.5001C7.9167 11.3334 8.83337 10.4168 10 10.4168C11.1667 10.4168 12.0834 11.3334 12.0834 12.5001V14.6668C12.6667 14.5834 13.25 14.6668 13.75 15.0001H14.1667C16.5 15.0001 18.3334 13.1668 18.3334 10.8334C18.3334 9.00008 17.1667 7.41675 15.3334 6.83342Z" fill="#47740E"/>
</g>
<defs>
<clipPath id="clip0_247_1308">
<rect width="20" height="20" fill="white"/>
</clipPath>
</defs>
</svg>
