<svg width="25" height="25" viewBox="0 0 25 25" fill="none" xmlns="http://www.w3.org/2000/svg">
<path d="M12.5 16C11.8078 16 11.1311 15.7947 10.5555 15.4101C9.97993 15.0256 9.53133 14.4789 9.26642 13.8394C9.00152 13.1999 8.9322 12.4961 9.06725 11.8172C9.2023 11.1383 9.53564 10.5146 10.0251 10.0251C10.5146 9.53564 11.1383 9.2023 11.8172 9.06725C12.4961 8.9322 13.1999 9.00152 13.8394 9.26642C14.4789 9.53133 15.0256 9.97993 15.4101 10.5555C15.7947 11.1311 16 11.8078 16 12.5C16 13.4283 15.6313 14.3185 14.9749 14.9749C14.3185 15.6313 13.4283 16 12.5 16ZM12.5 10C12.0055 10 11.5222 10.1466 11.1111 10.4213C10.7 10.696 10.3795 11.0865 10.1903 11.5433C10.0011 12.0001 9.95158 12.5028 10.048 12.9877C10.1445 13.4727 10.3826 13.9181 10.7322 14.2678C11.0819 14.6174 11.5273 14.8555 12.0123 14.952C12.4972 15.0484 12.9999 14.9989 13.4567 14.8097C13.9135 14.6205 14.304 14.3001 14.5787 13.8889C14.8534 13.4778 15 12.9945 15 12.5C15 11.837 14.7366 11.2011 14.2678 10.7322C13.7989 10.2634 13.163 10 12.5 10Z" fill="#47740E"/>
<path d="M21.5002 12.9999C21.4161 13 21.3333 12.9789 21.2596 12.9385C21.1858 12.8981 21.1234 12.8398 21.0782 12.7689C21.0482 12.7209 17.9602 7.98291 12.5002 7.98291C7.04018 7.98291 3.95218 12.7209 3.92218 12.7689C3.85097 12.8808 3.73821 12.9599 3.60872 12.9887C3.47922 13.0175 3.3436 12.9936 3.23168 12.9224C3.11976 12.8512 3.04071 12.7384 3.01192 12.609C2.98313 12.4795 3.00697 12.3438 3.07818 12.2319C3.21418 12.0179 6.47818 6.98291 12.5002 6.98291C18.5222 6.98291 21.7862 12.0179 21.9222 12.2319C21.9702 12.3075 21.997 12.3946 21.9998 12.4841C22.0026 12.5736 21.9814 12.6622 21.9383 12.7407C21.8952 12.8192 21.8317 12.8846 21.7547 12.9302C21.6776 12.9758 21.5897 12.9999 21.5002 12.9999Z" fill="#4F751D"/>
<path d="M12.5002 18.0172C6.47918 18.0172 3.21418 12.9822 3.07818 12.7682C3.00697 12.6563 2.98313 12.5206 3.01192 12.3911C3.04071 12.2617 3.11976 12.1489 3.23168 12.0777C3.3436 12.0065 3.47922 11.9826 3.60872 12.0114C3.73821 12.0402 3.85097 12.1193 3.92218 12.2312C3.95218 12.2792 7.04018 17.0172 12.5002 17.0172C17.9602 17.0172 21.0482 12.2792 21.0782 12.2312C21.1494 12.1193 21.2621 12.0402 21.3916 12.0114C21.5211 11.9826 21.6568 12.0065 21.7687 12.0777C21.8806 12.1489 21.9596 12.2617 21.9884 12.3911C22.0172 12.5206 21.9934 12.6563 21.9222 12.7682C21.7862 12.9822 18.5212 18.0172 12.5002 18.0172Z" fill="#4F751D"/>
</svg>
