<svg width="21" height="21" viewBox="0 0 21 21" fill="none" xmlns="http://www.w3.org/2000/svg">
    <path fill-rule="evenodd" clip-rule="evenodd" d="M5.26695 3.97033C5.25926 3.7097 5.32938 3.45266 5.46835 3.23205C5.60733 3.01143 5.80887 2.8373 6.04727 2.73169C6.28567 2.62608 6.55012 2.59378 6.8069 2.63908C7.06367 2.68438 7.30114 2.80514 7.48901 2.98595L14.4584 9.53531C14.5891 9.65806 14.6933 9.80638 14.7645 9.97095C14.8357 10.1355 14.8725 10.3128 14.8725 10.4921C14.8725 10.6714 14.8357 10.8489 14.7645 11.0135C14.6933 11.178 14.5891 11.3262 14.4584 11.4489L7.48901 17.9983C7.36453 18.1219 7.21655 18.2192 7.05382 18.2846C6.89108 18.35 6.7169 18.3822 6.54154 18.3791C6.36619 18.3761 6.19323 18.3379 6.03287 18.2668C5.87252 18.1958 5.72803 18.0933 5.60794 17.9655C5.48785 17.8377 5.39459 17.6871 5.33367 17.5226C5.27275 17.3582 5.24542 17.1832 5.25327 17.008C5.26112 16.8328 5.30401 16.6609 5.3794 16.5025C5.45479 16.3442 5.56115 16.2027 5.6922 16.0861L11.6444 10.4921L5.6922 4.89831C5.56294 4.77987 5.45871 4.63679 5.38567 4.47742C5.31263 4.31804 5.27226 4.14556 5.26695 3.97033Z" fill="url(#paint0_linear_247_1266)"/>
    <defs>
        <linearGradient id="paint0_linear_247_1266" x1="10.0615" y1="2.61977" x2="10.0615" y2="18.3804" gradientUnits="userSpaceOnUse">
            <stop stop-color="#979797"/>
            <stop offset="1" stop-color="#CBCBCB"/>
        </linearGradient>
    </defs>
</svg>
