<svg width="10" height="10" viewBox="0 0 10 10" fill="none" xmlns="http://www.w3.org/2000/svg">
<path d="M7.73438 2.65625H7.34375C6.69531 2.65625 6.17188 2.13281 6.17188 1.48438V1.09375C6.17188 0.664062 5.82031 0.3125 5.39062 0.3125H2.65625C2.00781 0.3125 1.48438 0.835938 1.48438 1.48438V8.51562C1.48438 9.16406 2.00781 9.6875 2.65625 9.6875H7.34375C7.99219 9.6875 8.51562 9.16406 8.51562 8.51562V3.4375C8.51562 3.00781 8.16406 2.65625 7.73438 2.65625Z" fill="#2983D3"/>
<path d="M2.65626 0.78125L5.63282 0.375C5.6797 0.375 5.71095 0.3125 5.39064 0.3125H2.65626C2.00782 0.3125 1.48439 0.835938 1.48439 1.48438V8.51562C1.48439 8.89844 1.28907 8.74219 1.57032 8.96094L1.95314 1.48438C1.9922 1.05469 2.20314 0.867188 2.65626 0.78125Z" fill="white"/>
<path opacity="0.2" d="M8.45312 3.125C8.33594 2.85156 8.05469 2.65625 7.73438 2.65625H7.34375C6.69531 2.65625 6.17188 2.13281 6.17188 1.48438V1.09375C6.17188 0.773438 5.97656 0.5 5.70312 0.375V1.48438C5.70312 2.39063 6.4375 3.125 7.34375 3.125H8.45312Z" fill="#13519C"/>
<path d="M7.34375 9.78125H2.65625C1.95313 9.78125 1.39062 9.21094 1.39062 8.51563V1.48438C1.39062 0.78125 1.95313 0.21875 2.65625 0.21875H5.39062C5.875 0.21875 6.26562 0.609375 6.26562 1.09375V1.48438C6.26562 2.07813 6.75 2.5625 7.34375 2.5625H7.73438C8.21875 2.5625 8.60937 2.95313 8.60937 3.4375V8.51563C8.60937 9.21875 8.04688 9.78125 7.34375 9.78125ZM2.65625 0.40625C2.0625 0.40625 1.57813 0.890625 1.57813 1.48438V8.51563C1.57813 9.10938 2.0625 9.59375 2.65625 9.59375H7.34375C7.9375 9.59375 8.42188 9.10938 8.42188 8.51563V3.4375C8.42188 3.0625 8.11719 2.75 7.73438 2.75H7.34375C6.64062 2.75 6.07813 2.17969 6.07813 1.48438V1.09375C6.07813 0.71875 5.77344 0.40625 5.39062 0.40625H2.65625Z" fill="#13519C"/>
<path d="M5.9375 0.539062C6.07812 0.679688 6.17188 0.875 6.17188 1.09375V1.48438C6.17188 2.13281 6.69531 2.65625 7.34375 2.65625H7.73438C7.94531 2.65625 8.14062 2.74219 8.28125 2.88281L5.9375 0.539062Z" fill="#13519C"/>
<path d="M8.28125 2.97656C8.25781 2.97656 8.22656 2.96875 8.21094 2.94531C8.07812 2.82031 7.91406 2.75 7.72656 2.75H7.33594C6.63281 2.75 6.07031 2.17969 6.07031 1.48438V1.09375C6.07031 0.90625 6 0.734375 5.86719 0.609375C5.85156 0.59375 5.83594 0.5625 5.83594 0.539063C5.83594 0.5 5.85938 0.460937 5.89844 0.445312C5.9375 0.429687 5.97656 0.4375 6.00781 0.46875L8.35156 2.8125C8.38281 2.84375 8.39062 2.88281 8.375 2.92188C8.35938 2.95312 8.32031 2.97656 8.28125 2.97656ZM6.26562 1C6.26562 1.03125 6.27344 1.0625 6.27344 1.09375V1.48438C6.27344 2.07812 6.75781 2.5625 7.35156 2.5625H7.74219C7.77344 2.5625 7.80469 2.5625 7.83594 2.57031L6.26562 1Z" fill="#13519C"/>
<path d="M5.625 7.65625H4.375C4.20312 7.65625 4.0625 7.51562 4.0625 7.34375C4.0625 7.17188 4.20312 7.03125 4.375 7.03125H5.625C5.79688 7.03125 5.9375 7.17188 5.9375 7.34375C5.9375 7.51562 5.79688 7.65625 5.625 7.65625Z" fill="white"/>
<path d="M5 7.65625C4.82812 7.65625 4.6875 7.51562 4.6875 7.34375V5.54688C4.6875 5.375 4.82812 5.23438 5 5.23438C5.17188 5.23438 5.3125 5.375 5.3125 5.54688V7.34375C5.3125 7.51562 5.17188 7.65625 5 7.65625Z" fill="white"/>
<path d="M5 5.85938H4.45312C4.28125 5.85938 4.14062 5.71875 4.14062 5.54688C4.14062 5.375 4.28125 5.23438 4.45312 5.23438H5C5.17188 5.23438 5.3125 5.375 5.3125 5.54688C5.3125 5.71875 5.17188 5.85938 5 5.85938Z" fill="white"/>
<path d="M4.92188 5C5.13761 5 5.3125 4.82511 5.3125 4.60938C5.3125 4.39364 5.13761 4.21875 4.92188 4.21875C4.70614 4.21875 4.53125 4.39364 4.53125 4.60938C4.53125 4.82511 4.70614 5 4.92188 5Z" fill="white"/>
</svg>
