<svg width="20" height="22" viewBox="0 0 20 22" fill="none" xmlns="http://www.w3.org/2000/svg">
<path d="M19 11.75H9C8.80109 11.75 8.61032 11.671 8.46967 11.5303C8.32902 11.3897 8.25 11.1989 8.25 11C8.25 10.8011 8.32902 10.6103 8.46967 10.4697C8.61032 10.329 8.80109 10.25 9 10.25H19C19.1989 10.25 19.3897 10.329 19.5303 10.4697C19.671 10.6103 19.75 10.8011 19.75 11C19.75 11.1989 19.671 11.3897 19.5303 11.5303C19.3897 11.671 19.1989 11.75 19 11.75Z" fill="#EF0000"/>
<path d="M15.999 15.7503C15.8597 15.7502 15.7232 15.7113 15.6048 15.638C15.4864 15.5647 15.3908 15.4598 15.3286 15.3352C15.2665 15.2106 15.2403 15.0711 15.2529 14.9325C15.2656 14.7938 15.3166 14.6614 15.4003 14.5501L18.0625 10.9998L15.4003 7.44999C15.341 7.37127 15.2977 7.2816 15.273 7.18613C15.2483 7.09066 15.2427 6.99126 15.2565 6.89362C15.2703 6.79598 15.3032 6.70202 15.3533 6.61712C15.4035 6.53221 15.4699 6.45803 15.5487 6.39883C15.6276 6.33962 15.7174 6.29655 15.8129 6.27208C15.9084 6.24761 16.0078 6.24223 16.1054 6.25623C16.203 6.27023 16.2969 6.30335 16.3817 6.35369C16.4665 6.40403 16.5405 6.4706 16.5996 6.54959L19.5996 10.5496C19.697 10.6794 19.7497 10.8374 19.7497 10.9998C19.7497 11.1622 19.697 11.3201 19.5996 11.45L16.5996 15.4505C16.5298 15.5438 16.4391 15.6196 16.3348 15.6716C16.2305 15.7237 16.1155 15.7506 15.999 15.7503ZM2.998 21.3889C2.26905 21.3883 1.57019 21.0982 1.05493 20.5826C0.53967 20.067 0.250161 19.3679 0.25 18.6389V3.36063C0.250061 2.96126 0.3371 2.5667 0.505066 2.20437C0.673032 1.84204 0.917894 1.52064 1.22263 1.26251C1.52737 1.00438 1.88466 0.815719 2.26969 0.709637C2.65471 0.603555 3.05821 0.5826 3.45215 0.648228L11.4522 1.98172C12.095 2.08698 12.6794 2.4178 13.1005 2.91485C13.5215 3.41191 13.7518 4.04269 13.75 4.69413V7.99979C13.75 8.1987 13.6709 8.38947 13.5303 8.53012C13.3896 8.67077 13.1989 8.74979 13 8.74979C12.801 8.74979 12.6103 8.67077 12.4696 8.53012C12.329 8.38947 12.25 8.1987 12.25 7.99979V4.69413C12.2507 4.39811 12.1461 4.11149 11.9548 3.88558C11.7635 3.65967 11.498 3.50924 11.2059 3.46122L3.20595 2.12772C3.02684 2.09771 2.84333 2.1071 2.66822 2.15524C2.49311 2.20339 2.3306 2.28912 2.192 2.40648C2.05341 2.52384 1.94206 2.67 1.86571 2.83479C1.78937 2.99957 1.74987 3.17902 1.74995 3.36063V18.6389C1.74986 18.8206 1.78937 19 1.86572 19.1648C1.94206 19.3296 2.05342 19.4758 2.19202 19.5931C2.33062 19.7105 2.49314 19.7962 2.66826 19.8444C2.84338 19.8925 3.02688 19.9019 3.206 19.8719L11.206 18.5384C11.4981 18.4903 11.7636 18.3399 11.9549 18.114C12.1461 17.8881 12.2508 17.6015 12.25 17.3054V13.9998C12.25 13.8009 12.329 13.6101 12.4697 13.4695C12.6103 13.3288 12.8011 13.2498 13 13.2498C13.1989 13.2498 13.3897 13.3288 13.5303 13.4695C13.671 13.6101 13.75 13.8009 13.75 13.9998V17.3054C13.7518 17.9569 13.5216 18.5877 13.1005 19.0847C12.6794 19.5818 12.095 19.9126 11.4522 20.0179L3.45215 21.3513C3.30207 21.3765 3.15016 21.389 2.998 21.3889Z" fill="#EF0000"/>
</svg>
