<svg width="47" height="45" viewBox="0 0 47 45" fill="none" xmlns="http://www.w3.org/2000/svg">
<path d="M39.0824 43.3063C39.5031 44.2267 39.6928 44.7423 40.822 44.6632C41.8942 44.6442 43.0107 44.7992 44.0481 44.4576C44.3043 44.3627 44.4214 44.1129 44.5542 43.8883C44.7479 43.5555 44.9069 43.2036 45.0286 42.8382C45.2437 42.1677 45.3702 41.4687 45.5031 40.7792C45.6517 40.0074 45.4019 39.2388 44.899 38.6506C43.7635 37.3126 41.8373 36.8698 40.1546 37.1861C39.9206 37.2273 39.6644 37.3158 39.5284 37.5214C39.4525 37.6321 39.4208 37.7713 39.3702 37.9073C39.3228 38.0433 39.2659 38.173 39.2152 38.3058C38.978 38.8973 38.9084 39.533 38.8167 40.1593C38.6586 41.2157 38.6016 42.3163 39.0824 43.2968V43.3063ZM3.70232 0.0190162C3.7213 -0.0189384 3.69283 0.00952763 3.6865 0.0221792C3.68334 0.028505 3.6865 0.0348307 3.70232 0.0190162Z" fill="#444444" fill-opacity="0.94"/>
<path d="M3.37658 34.3269C2.65544 33.9821 1.89318 34.4091 1.30488 34.8329C0.836773 35.1809 0.381317 35.1018 0.308567 34.4755C0.248474 33.4002 0.605885 32.3121 1.20683 31.4265C1.33651 31.2367 1.51679 31.0691 1.75085 31.0406C2.16518 30.9932 2.56371 31.2241 2.87051 31.4803C3.7751 32.2647 3.96487 33.5172 4.10088 34.6463M39.1995 43.2399C39.6075 44.135 40.0028 44.5051 41.0529 44.5304C42.1726 44.5557 43.6307 44.7929 44.4372 43.825C44.9053 43.2589 45.0666 42.2879 45.2121 41.5794C45.4873 40.2352 45.4051 39.1788 44.2759 38.2552C43.6117 37.7112 42.8305 37.4139 41.986 37.2937C40.8568 37.1324 39.8732 37.2114 39.345 38.3469C38.7187 39.6943 38.5827 41.9052 39.2026 43.2431C39.2754 43.4012 39.0413 43.5372 38.9686 43.3791C38.5479 42.465 38.5194 41.513 38.6301 40.5261C38.7408 39.5393 38.8199 37.7997 39.7087 37.2019C40.3729 36.756 41.676 36.9299 42.4066 37.0818C43.4567 37.3032 44.491 37.8598 45.1299 38.7423C45.8479 39.7323 45.6771 40.7317 45.424 41.8577C45.2437 42.6611 44.9717 44.0116 44.2221 44.5114C43.3492 45.0934 41.423 44.9162 40.4583 44.8055C39.5822 44.7075 39.307 44.1318 38.9622 43.3791C38.8895 43.2209 39.1236 43.0849 39.1963 43.2431L39.1995 43.2399Z" fill="#444444" fill-opacity="0.94"/>
<path d="M39.1993 43.2715C39.2911 43.4645 39.3828 43.863 39.5473 43.999C40.2051 44.5462 40.5531 43.9009 40.7966 43.436C41.271 42.5346 41.2616 41.3991 41.0433 40.4312C40.8915 39.7639 40.5879 39.0649 39.8667 38.8182C39.1456 38.5715 39.0697 39.3242 38.9906 39.8493C38.8198 40.9974 38.7091 42.1803 39.2025 43.2715C39.2753 43.4297 39.0412 43.5657 38.9685 43.4075C38.6205 42.6358 38.532 41.8482 38.5826 41.0069C38.6174 40.4186 38.5889 38.9732 38.9843 38.5588C39.7117 37.7966 40.9801 39.2167 41.1856 39.8651C41.6158 41.222 41.6221 42.9647 40.6796 44.1192C39.8129 45.1819 39.4018 44.3216 38.9685 43.4075C38.8957 43.2494 39.1266 43.1134 39.2025 43.2715H39.1993Z" fill="#999999"/>
<path d="M25.95 42.3606C25.7823 41.6426 25.3933 40.6558 26.1366 40.1434C26.4402 39.8936 26.7976 39.707 27.1677 39.5678C28.5815 39.0586 30.1313 39.106 31.602 39.2926C31.9594 39.3432 32.3358 39.3717 32.6711 39.5077C32.9684 39.6216 33.1013 39.8366 33.0981 40.1434C33.0285 41.3232 32.747 42.4871 32.222 43.5499C32.0385 43.901 31.8772 44.3121 31.5261 44.5209C31.2826 44.6632 30.96 44.6664 30.6848 44.679C30.4444 44.6853 30.204 44.6822 29.9637 44.679C29.2267 44.6474 28.4898 44.7043 27.7528 44.66C27.4207 44.6506 27.0443 44.698 26.7945 44.4323C26.6584 44.2931 26.5572 44.1192 26.4687 43.9484C26.339 43.689 26.2156 43.4265 26.1334 43.1482C26.0575 42.892 26.0069 42.6263 25.95 42.3669V42.3575V42.3606Z" fill="#444444" fill-opacity="0.94"/>
<path d="M27.9111 40.9816C27.8795 42.2341 27.9174 43.4044 27.3133 44.5462C27.2311 44.7012 26.997 44.5652 27.0793 44.4102C27.6581 43.3095 27.6075 42.1803 27.6391 40.9816C27.6423 40.8076 27.9143 40.8076 27.9111 40.9816Z" fill="#999999"/>
<path d="M25.8204 42.3954C25.6528 41.728 25.346 40.8962 25.8046 40.2731C26.3613 39.5204 27.6201 39.2357 28.4741 39.1123C29.6981 38.9384 31.1594 38.9447 32.3644 39.2705C33.2279 39.5045 33.2817 39.9568 33.1741 40.8045C33.0381 41.8767 32.7471 43.1071 32.1335 44.0211C31.6496 44.7423 31.1783 44.815 30.3275 44.8182C29.3818 44.8214 27.9048 45.0934 27.0128 44.7233C26.2031 44.3849 25.988 43.126 25.8172 42.3923C25.7793 42.2215 26.0387 42.1519 26.0798 42.3195C26.2759 43.1577 26.3676 43.7555 27.171 44.1983C27.9743 44.6411 28.6607 44.5209 29.5242 44.5272C30.3275 44.5335 31.2511 44.7296 31.8236 44.0148C32.2411 43.4961 32.4688 42.6801 32.6428 42.0602C32.9591 40.931 33.0698 39.6089 31.6022 39.4191C30.9348 39.3337 30.2611 39.28 29.5874 39.2926C28.7271 39.3084 27.6233 39.3717 26.8705 39.8303C26.453 40.0865 25.9153 40.6622 25.8331 41.1651C25.7888 41.4371 26.0007 42.0159 26.0766 42.3132C26.1209 42.4808 25.8584 42.5536 25.8141 42.3859L25.8204 42.3954ZM6.5679 44.2773C6.27375 44.7296 5.68546 44.6948 5.19837 44.7233L3.7213 44.8024C2.60797 44.8403 1.80775 44.834 1.19731 43.8029C0.789299 43.126 0.567902 42.348 0.409756 41.5857C0.0049057 39.6785 0.0744934 37.746 0.450874 35.8514C0.58688 35.1745 0.852558 34.3142 1.47565 33.9632C1.79194 33.8018 2.20944 33.8461 2.56052 33.9062C2.92426 33.9821 3.28482 34.0802 3.61377 34.2478C3.81619 34.3585 3.98066 34.4977 4.14197 34.6558C4.82515 35.3264 5.5368 36.0095 6.11877 36.775C6.49832 37.262 6.65646 37.8535 6.8747 38.4165C7.06448 38.8087 7.35546 39.1155 7.34597 39.5741C7.38709 41.1556 7.42821 42.8762 6.57106 44.271L6.56474 44.2773H6.5679Z" fill="#444444" fill-opacity="0.94"/>
<path d="M0.643851 37.4803C0.748226 36.9299 0.92535 36.3416 1.27327 35.8862C1.76984 35.2504 2.43089 34.9342 3.06979 35.5857C3.30385 35.8134 3.52841 36.0601 3.68655 36.3511C3.77512 36.5156 3.81939 36.7022 3.87632 36.8698C4.00284 37.1861 3.99019 37.5309 4.05028 37.8662C4.26852 39.261 3.92061 41.5225 3.0603 42.6674C2.25693 43.7333 1.35867 43.1071 0.991771 42.0507C0.501523 40.7317 0.393982 38.8751 0.643851 37.4898V37.4803ZM3.62013 40.64C3.78144 39.9189 3.89214 39.1566 3.84153 38.4197C3.81939 38.0939 3.7593 37.7744 3.72451 37.4486C3.6992 37.164 3.60116 36.892 3.50943 36.6263C3.40189 36.3416 3.19631 36.0981 2.98123 35.883C2.79778 35.7091 2.59536 35.5003 2.32651 35.5003C1.89319 35.5193 1.55793 35.921 1.33969 36.2689C0.703949 37.4613 0.72925 38.8941 0.852603 40.2067C0.950652 41.0069 1.08982 41.921 1.57374 42.5852C2.63015 43.8946 3.4272 41.4181 3.61697 40.6495V40.6432L3.62013 40.64Z" fill="#999999"/>
<path d="M6.66276 44.3754C5.88469 45.1882 4.10398 44.989 3.09186 44.951C2.07973 44.9131 1.37757 44.4829 0.89365 43.5277C0.166185 42.0949 -0.0204277 40.2984 0.0017128 38.7138C0.0206909 37.3917 0.0712986 35.5889 0.824066 34.4376C2.32327 32.1445 5.3723 35.4655 6.23577 36.7054C7.64958 38.7296 8.19676 42.1898 6.6849 44.3469C6.58685 44.4892 6.34963 44.3532 6.45084 44.2109C7.04863 43.3601 7.17515 42.193 7.21943 41.184C7.24473 40.6242 7.32697 39.8271 7.17199 39.2926C7.08343 38.9858 6.86835 38.7423 6.74183 38.4545C6.2674 37.3538 5.76766 36.4935 4.92633 35.6268C3.91737 34.5862 1.91526 32.8656 0.849369 34.9943C-0.121637 36.9394 0.140882 40.1086 0.672249 42.1234C1.00119 43.3696 1.50725 44.5588 2.9432 44.6727C3.80983 44.7423 5.82143 44.8593 6.46666 44.1824C6.58685 44.0559 6.77979 44.2489 6.6596 44.3754H6.66276ZM19.9501 41.9052C19.7128 42.9078 19.4029 44.6632 18.2073 44.9036C17.2711 45.0934 16.1388 44.8878 15.1899 44.8466C14.5257 44.8182 14.1715 44.8372 13.7097 44.3438C13.2827 43.8851 13.0423 43.1292 12.8146 42.5536C12.4255 41.5794 12.0776 40.5862 11.7898 39.5773C11.5589 38.7676 11.3881 37.999 11.4356 37.1577C11.4925 36.1424 11.9796 35.3105 12.1599 34.3364C12.3654 33.223 12.1852 32.0717 13.5136 31.746C14.7566 31.4423 15.7845 32.1223 16.5152 33.0712C17.6158 34.4977 18.0903 36.3069 19.0518 37.8219C20.0133 39.3369 20.3106 40.1498 19.9501 41.8988C19.9153 42.0696 19.6527 41.9969 19.6875 41.8261C19.7887 41.3338 19.8396 40.8326 19.8394 40.33C19.8362 39.4571 19.3776 38.834 18.9253 38.1287C18.2421 37.0691 17.7803 35.9463 17.23 34.814C16.6796 33.6817 15.8857 32.2394 14.5194 31.9927C13.4345 31.7966 12.6375 32.5462 12.5109 33.5836C12.4667 33.9505 12.4635 34.3174 12.3718 34.678C12.2294 35.2346 11.929 35.7312 11.8056 36.2942C11.6285 37.0944 11.6728 37.9262 11.8372 38.7201C12.0903 39.9378 12.5489 41.1429 13.0012 42.2974C13.3586 43.2114 13.716 44.2615 14.7882 44.5746C15.2627 44.7138 16.0059 44.6031 16.5088 44.6252C17.4419 44.6664 18.4129 44.8277 18.9949 43.8472C19.3428 43.2589 19.5262 42.4903 19.6812 41.8293C19.7223 41.6585 19.9817 41.7312 19.9437 41.902L19.9501 41.9052Z" fill="#444444" fill-opacity="0.94"/>
<path d="M19.8205 41.8704C19.6845 42.5188 19.4599 43.1545 19.1879 43.7649C19.0994 43.9737 19.0108 44.1951 18.8843 44.3849C18.6787 44.736 18.3055 44.7834 17.9322 44.7866C17.1447 44.8214 16.3603 44.7549 15.5727 44.717C15.0793 44.6885 14.4974 44.8087 14.064 44.5304C13.8648 44.3817 13.7319 44.1413 13.5959 43.9199C13.2702 43.3664 13.0361 42.7623 12.8084 42.1614L11.9196 39.5457C11.7741 39.0269 11.6223 38.5082 11.5717 37.9705C11.5432 37.7049 11.5495 37.4297 11.5717 37.1608C11.6065 36.7149 11.6476 36.2563 11.7962 35.8356C11.9259 35.4402 12.1473 35.048 12.2454 34.6495C12.4605 33.8588 12.239 32.6158 12.9507 32.1097C13.2101 31.9326 13.5548 31.8693 13.8711 31.8345C15.4083 31.6068 16.4868 33.0681 17.1479 34.3522C17.7045 35.4118 18.0683 36.5346 18.7072 37.5499L19.5864 38.9289C19.8901 39.3875 20.0229 39.7829 19.9755 40.3364C19.947 40.8456 19.9249 41.358 19.8205 41.8577V41.8672V41.8704Z" fill="#444444" fill-opacity="0.94"/>
<path d="M39.9205 27.0206C39.6263 27.2736 39.1203 27.2009 38.7376 27.2199C38.2536 27.2547 37.7697 27.2135 37.2858 27.1946C36.9853 27.1914 36.6026 27.2578 36.3844 27.0301C36.2104 26.834 36.2041 26.445 36.2073 26.1793C36.2104 25.9484 36.2357 25.7143 36.3686 25.5214C36.6026 25.1766 37.0454 24.9647 37.4534 24.9394C37.7507 24.9204 38.0481 24.9774 38.3422 25.0217C38.7882 25.1039 39.2721 25.1513 39.6422 25.436C39.8193 25.591 39.9015 25.8314 39.9837 26.0622C40.0913 26.3627 40.1925 26.7676 39.93 27.0143L39.9237 27.0206H39.9205Z" fill="white"/>
<path d="M40.0597 25.8757C40.4678 26.9668 39.9585 27.3243 38.899 27.3496C38.2094 27.3654 37.4757 27.4033 36.7893 27.3211C36.4129 27.2768 36.22 27.1218 36.1156 26.7549C35.8404 25.7903 36.4098 24.8983 37.4061 24.8098C38.317 24.7275 39.696 24.9205 40.0597 25.8757C40.123 26.0401 39.8605 26.1097 39.7972 25.9484C39.5252 25.2336 38.3866 25.0786 37.7034 25.0754C37.4029 25.0754 37.0866 25.1007 36.8241 25.2684C36.2769 25.6226 35.9923 26.8625 36.8715 27.0617C37.346 27.1693 38.0102 27.0997 38.5004 27.0934C38.7535 27.0902 39.1014 27.1408 39.3418 27.0744C40.1451 26.8561 39.9775 26.4418 39.7909 25.9516C39.7308 25.7871 39.9902 25.7175 40.0534 25.8788L40.0597 25.8757Z" fill="#444444" fill-opacity="0.94"/>
<path d="M0.292763 35.2315C0.295929 35.4687 0.2896 35.7375 0.371838 35.9526C0.403465 35.7881 0.378162 35.5509 0.390812 35.3706C0.412952 34.9974 0.476208 34.621 0.517326 34.251C0.615376 33.5267 0.754543 31.8314 1.86788 32.2109C2.63014 32.5082 2.75033 33.397 2.93377 34.0928C3.26588 35.3232 3.443 36.6042 3.54105 37.8851L3.59798 38.6885C3.65175 39.1977 3.72766 39.7354 3.65491 40.251C3.69603 40.8234 4.85681 40.5261 5.24268 40.5989C5.78986 40.621 6.34021 40.6653 6.88106 40.7349C7.45038 40.8076 8.02603 40.7665 8.59851 40.776C9.73399 40.8235 10.8726 40.8266 12.0081 40.8108C12.6976 40.7981 12.3529 40.3269 12.3022 39.9157C12.2548 39.5425 12.2358 39.1661 12.22 38.7929C12.1599 36.8888 12.3813 34.9247 13.1056 33.1471C13.3081 32.7106 13.7319 32.3722 14.2348 32.4513C15.7909 32.6632 16.3191 35.0101 16.5152 36.3132C16.6512 37.5593 16.6765 38.8087 16.7271 40.058C16.7145 40.3901 16.6765 40.9152 17.1383 40.9183C17.4736 40.9468 17.7899 40.893 18.122 40.9247C19.4314 41.0259 20.7472 41.0986 22.0598 41.0132C22.9897 40.9183 23.9037 41.1081 24.8305 41.1587C27.1204 41.2694 29.4166 41.1745 31.7097 41.2062C34.9454 41.0986 38.181 41.0702 41.4166 41.0828C42.7482 41.0733 44.083 41.203 45.4145 41.1113C46.2053 41.086 46.1958 40.485 46.2306 39.8461C46.4425 37.6542 46.5437 35.2947 45.9269 33.1851C45.7245 32.5272 45.5063 31.8661 45.152 31.2747C44.1873 29.7628 42.7419 28.5673 41.132 27.7955C40.5595 27.5836 39.9427 27.5045 39.345 27.3748C39.0666 27.3274 38.7661 27.3242 38.5258 27.1693C36.9854 25.8472 35.8152 24.1297 34.3128 22.7602C33.6359 22.1055 32.9559 21.4191 32.0925 21.0206C30.9443 20.4829 29.6602 20.3975 28.433 20.1382C27.4398 19.961 26.4246 19.9863 25.4251 19.825C23.5179 19.746 21.598 19.7301 19.6908 19.8187C15.5758 19.7618 11.4451 20.135 7.45987 21.1977C6.85892 21.3717 6.01126 21.6722 5.73926 22.2826C5.61274 22.6273 5.68232 23.0164 5.50837 23.3422C5.20473 23.864 4.7303 24.2626 4.3634 24.7402C3.307 25.9674 2.75982 27.495 2.10193 28.95C1.89635 29.339 1.60536 29.6648 1.38079 30.0412C1.16764 30.3869 0.990643 30.7536 0.852592 31.1355C0.555283 31.9642 0.378159 32.853 0.299088 33.7259C0.26746 34.2288 0.305416 34.7317 0.295925 35.2346V35.2441L0.292763 35.2315Z" fill="white"/>
<path d="M3.5252 38.5905C3.51255 38.6379 3.51887 38.7012 3.5252 38.7581C3.57886 39.1786 3.59791 39.6028 3.58213 40.0264C3.56632 40.1972 3.62325 40.3427 3.79405 40.4028C4.08503 40.5198 4.39816 40.5989 4.71128 40.6432C5.10981 40.7001 5.5115 40.6875 5.91002 40.6653C7.64961 40.485 9.35757 41.1492 11.0908 40.9342C11.3502 40.8994 12.3876 40.8266 12.4477 40.5451C12.4825 40.4218 12.4477 40.2858 12.4319 40.1624C12.4098 40.0011 12.3939 39.8335 12.2959 39.7196C12.103 39.5204 11.8215 39.4413 11.5558 39.3496C11.1414 39.2262 10.6891 39.1724 10.2622 39.1313L8.87365 38.989L3.70549 38.4987C3.60427 38.4924 3.53469 38.5146 3.51571 38.5841V38.5905H3.5252Z" fill="#DDDDDD"/>
<path d="M3.63282 40.27C3.67394 40.3364 3.74985 40.3743 3.82259 40.4028C4.47099 40.6622 5.17948 40.7096 5.87215 40.659C7.62123 40.4692 9.34184 41.1366 11.0878 40.9247C11.4293 40.893 11.8785 40.8329 12.2201 40.7191C12.394 40.6716 12.4857 40.542 12.451 40.349C12.4351 40.2193 12.3814 40.1276 12.2707 40.1023L4.53108 39.8208C4.27173 39.8271 3.97758 39.7829 3.72771 39.8335C3.56956 39.8904 3.57273 40.1308 3.63282 40.2605V40.2668V40.27Z" fill="#999999"/>
<path d="M36.7355 38.6189C36.9854 38.6411 37.2384 38.6252 37.4914 38.6094C37.8457 38.5873 37.9943 38.4418 37.9753 38.0781C37.9817 37.8756 38.0386 37.6827 38.0481 37.4929C38.0607 37.3379 38.0576 37.183 38.0576 37.0248C38.0512 36.6737 38.1714 36.3227 38.1208 35.9747C38.1082 35.7597 37.9184 35.7945 37.7603 35.8008C37.4598 35.8071 37.1688 35.7565 36.8747 35.7439L35.8372 35.7628C35.6253 35.747 35.4166 35.7628 35.2078 35.7628C35.0275 35.7628 34.8441 35.7312 34.6606 35.7217L33.8667 35.7059L31.735 35.5825L30.7418 35.5446C30.4571 35.5225 30.473 35.7976 30.435 36L30.2864 36.8003L30.1946 37.3854C30.1757 37.5878 30.0871 37.8567 30.2484 38.0211C30.4224 38.1571 30.6627 38.173 30.8747 38.2109C31.3396 38.2805 31.8014 38.2995 32.2663 38.3026L33.0855 38.3343C33.4176 38.3279 33.7497 38.3279 34.0787 38.3564L36.726 38.6189H36.7355Z" fill="white"/>
<path d="M36.7355 38.4861C37.9121 38.5145 37.8678 37.7491 37.9342 36.854C38.0102 35.8008 37.425 35.8893 36.5268 35.8893C35.2806 35.8893 34.0439 35.8451 32.7977 35.785C32.0544 35.7502 30.9031 35.4465 30.5236 36.2404C30.4287 36.4397 30.3338 36.8983 30.3718 37.1324C30.5584 38.2963 31.5326 38.1413 32.2664 38.1698C33.7687 38.2236 35.2395 38.369 36.7355 38.4892C36.9095 38.5019 36.9095 38.7739 36.7355 38.7612C35.3755 38.6505 34.0407 38.4956 32.6744 38.4608C32.1651 38.4481 30.5141 38.6379 30.1282 38.097C29.8278 37.6764 30.1282 36.1139 30.3338 35.7597C30.7102 35.1049 31.7065 35.4592 32.3707 35.4971C33.5789 35.5667 34.7967 35.6521 36.008 35.6363C36.5141 35.63 37.8552 35.3548 38.1715 35.8292C38.4403 36.2341 38.298 37.8693 38.0892 38.3374C37.8489 38.8751 37.2574 38.7739 36.7355 38.7612C36.5616 38.7581 36.5616 38.4861 36.7355 38.4892V38.4861Z" fill="#444444" fill-opacity="0.94"/>
<path d="M0.289621 35.2441C0.292784 35.4845 0.286459 35.7597 0.368694 35.9811C0.4193 35.8103 0.36237 35.5762 0.38451 35.3928C0.412975 34.9342 0.492048 34.4755 0.542654 34.0169C0.602749 33.5583 0.691311 32.9921 0.934855 32.5715C1.23849 31.98 1.88688 32.0717 2.29806 32.4987C2.50048 32.7043 2.61435 32.9763 2.70607 33.2483C3.14887 34.7444 3.42089 36.2784 3.53475 37.844C3.5474 38.0749 3.64545 38.1508 3.84155 37.9516C4.0503 37.7333 4.28435 37.5277 4.54371 37.3728C4.69553 37.2715 4.90112 37.1102 5.11936 37.0375C6.4794 36.6168 8.40244 37.066 9.96807 37.2842C10.4267 37.3917 11.1858 37.2968 11.442 37.727C11.6824 38.0939 11.8563 38.5304 12.1441 38.9067C12.239 39.0206 12.2264 38.815 12.2232 38.7423C12.1789 36.8224 12.3877 34.8235 13.1594 33.0459C13.365 32.66 13.7509 32.3785 14.2032 32.4355C15.0666 32.5082 15.5854 33.3021 15.908 34.0232C16.7588 35.9906 16.6354 38.1888 16.7335 40.2858C16.762 40.5799 17.0624 40.3459 17.151 40.1972C18.7988 37.7903 20.0355 36.4081 22.1547 34.0327C22.4488 33.7449 22.5121 33.3843 22.4109 32.9858C22.3571 32.7518 22.316 32.5715 22.123 32.4197C21.3039 31.0027 19.7699 29.8546 18.4067 28.795C17.6602 28.1814 16.5089 27.9473 15.8732 27.2041C15.7024 26.9574 15.598 26.6031 15.5347 26.2931C15.4335 25.7839 15.4304 25.2526 15.4146 24.7338C15.3387 22.2984 14.7219 20.6885 12.1536 20.3374C11.9196 20.2868 11.6855 20.2489 11.4483 20.2963C10.3539 20.4766 9.27223 20.7265 8.1842 20.9574C7.43143 21.144 6.65336 21.3242 6.04292 21.824C5.51472 22.1877 5.75509 22.8804 5.46727 23.3675C5.14466 23.8609 4.69869 24.2594 4.33812 24.7244C3.64229 25.5688 3.12357 26.524 2.70607 27.533L2.10828 28.9025C1.89637 29.3137 1.5864 29.6553 1.35551 30.0538C0.694469 31.1513 0.4193 32.4576 0.289621 33.7228C0.257994 34.2288 0.29595 34.7349 0.286461 35.2378V35.2473L0.289621 35.2441Z" fill="#DDDDDD"/>
<path d="M13.5327 26.872C13.6656 27.6848 13.4189 28.2858 13.0868 29.0227C12.5301 30.2594 12.217 31.3917 12.0367 32.7359C11.7615 34.814 11.8785 37.009 11.3883 39.0491C11.3472 39.2199 11.0878 39.1471 11.1258 38.9763C11.5939 37.0311 11.4927 34.9247 11.7362 32.9447C11.8406 32.1065 11.9576 31.2462 12.198 30.4365C12.5427 29.2757 13.4758 28.213 13.2702 26.9415C13.2417 26.7707 13.5043 26.698 13.5327 26.8688V26.872ZM18.2929 33.1534C17.7742 33.1534 17.189 33.1851 16.7241 32.9162C16.4489 32.7581 16.275 32.4892 16.0472 32.2805C15.4368 31.7238 14.7346 31.5309 13.9123 31.5878C13.8174 31.5941 13.7352 31.4645 13.7952 31.3854C14.1748 30.8857 14.6872 30.5061 14.9877 29.94C15.6297 28.7412 15.1901 27.4381 14.956 26.2077C14.9244 26.0369 15.1838 25.9642 15.2185 26.135C15.5412 27.843 16.0156 29.6869 14.5101 31.0217C14.0293 31.4487 14.042 31.2178 14.5796 31.3126C14.994 31.3854 15.4052 31.4866 15.7689 31.7143C16.0283 31.8756 16.199 32.0876 16.4268 32.29C17.0246 32.8182 17.5022 32.8846 18.296 32.8878C18.47 32.8878 18.47 33.1598 18.296 33.1598L18.2929 33.1534Z" fill="#444444" fill-opacity="0.94"/>
<path d="M0.245227 35.2473C0.245227 35.456 0.251555 35.6679 0.292673 35.8704C0.295836 35.8988 0.308485 35.9431 0.3243 35.9526C0.333788 35.9526 0.340113 35.9241 0.343276 35.8704V35.3959C0.362253 35.0448 0.419187 34.7001 0.463468 34.3522C0.558354 33.6975 0.608959 32.7929 1.11502 32.2995C1.43764 32.0116 1.89942 32.1603 2.20306 32.426C2.67116 32.8435 2.75656 33.5045 2.91155 34.077C3.24365 35.3042 3.4271 36.5788 3.52831 37.8567C3.54412 38.1729 3.68329 38.1318 3.88571 37.9199C4.00727 37.7921 4.13839 37.6736 4.27791 37.5657C4.47926 37.4249 4.68385 37.2889 4.89151 37.1577C5.03068 37.0754 5.2078 37.0311 5.35646 36.9331C7.60527 35.067 8.77871 33.223 11.8119 31.8661C11.8783 31.8377 12.0143 31.7744 12.0112 31.7333C8.91154 30.8793 7.67802 29.6996 3.1962 29.6015C2.74707 29.5889 2.33906 29.5889 1.85514 29.5952C1.70648 29.5952 1.58629 29.6521 1.50089 29.7786C0.707009 30.9268 0.393883 32.3469 0.254716 33.7196C0.223086 34.2257 0.261043 34.7349 0.251554 35.2409V35.2504L0.245227 35.2473Z" fill="#BBBBBB"/>
<path d="M16.7145 39.9252C16.6923 40.8266 16.6892 40.9721 17.6507 40.9089C18.239 40.8899 18.8241 40.9943 19.4124 41.0037L19.9754 41.0196L21.5442 41.0322L23.1067 40.9911C23.4894 41.0037 23.8657 41.0797 24.2485 41.1113L25.7603 41.184C27.4303 41.241 29.1035 41.1777 30.7735 41.1935H32.4973C35.4704 41.0385 38.4467 41.0891 41.4198 41.0765C42.764 41.067 44.1082 41.1998 45.4525 41.105C45.9933 41.0702 46.1894 40.814 46.2211 40.251L46.2653 39.6437C46.278 39.5457 46.2875 39.416 46.1926 39.359C46.1483 39.3337 46.0819 39.3274 46.025 39.3243L44.8863 39.3148C42.8842 39.3148 43.1151 37.5246 40.705 37.4961C40.4867 37.4898 40.2685 37.4929 40.0503 37.4993C36.5648 37.7143 33.0824 37.0406 29.5937 37.2304C28.8853 37.2652 28.1768 37.3221 27.4683 37.3664C26.1399 37.4581 24.8715 37.3411 23.8341 38.3343C23.7234 38.4133 23.5969 38.4671 23.4767 38.5272C23.2648 38.6347 23.075 38.7897 22.8536 38.8783C22.5879 38.989 22.3001 39.0143 22.0155 39.0396L16.9675 39.4666C16.8789 39.4792 16.803 39.4982 16.7524 39.5678C16.6923 39.65 16.7145 39.7892 16.7145 39.9125V39.922V39.9252Z" fill="#444444" fill-opacity="0.94"/>
<path d="M0.428802 35.2315L0.501549 35.9178L0.235867 35.9526C0.295959 34.9816 0.201077 33.1345 0.934868 32.3438C1.62754 31.5973 2.48784 32.3343 2.79464 33.0744C3.18052 34.0043 3.33549 35.1208 3.48099 36.1076C3.64546 37.2273 3.50313 38.5557 3.81309 39.6279C4.15469 40.8108 6.05558 40.5388 7.09933 40.6147C8.33603 40.7033 9.59802 40.6716 10.8379 40.6685C11.6033 40.6685 12.0524 40.6274 12.1536 39.7544C12.2011 39.3496 12.084 38.8087 12.0777 38.3944C12.0619 37.2747 12.1631 36.155 12.394 35.0607C12.6249 33.9663 12.9791 31.9231 14.5258 32.3691C15.6866 32.7043 16.18 34.1466 16.4393 35.1872C16.6291 35.9494 16.705 36.7117 16.7556 37.4929C16.7904 38.0243 16.8094 38.5557 16.8315 39.087C16.8695 39.9979 16.8062 40.542 17.7994 40.776C18.9444 41.0449 20.3993 40.9342 21.5727 40.8994C22.7462 40.8646 23.8943 40.9784 25.0804 41.0322C27.772 41.1556 30.5174 41.1429 33.209 41.0417C35.8658 40.9436 38.5195 40.9563 41.1763 40.9468C41.7583 40.9468 42.3371 40.9563 42.9159 40.9721C43.4947 40.9879 44.355 41.165 44.9148 40.9974C46.6355 40.485 46.2907 37.7238 46.2496 36.3322C46.1673 33.631 45.3861 31.1419 43.2891 29.3485C42.3403 28.5388 41.2997 27.922 40.0788 27.6627C39.0983 27.4539 38.5511 27.4255 37.8173 26.7138C36.103 25.0533 34.7398 22.8772 32.7251 21.5362C30.5553 20.0939 27.2248 20.0338 24.6945 19.9262C21.8258 19.8029 18.8906 19.8535 16.0218 20.0148C13.1531 20.1761 9.72453 20.3944 6.9665 21.5077C5.99549 21.8999 5.65706 23.4497 4.93592 24.2784C4.06296 25.2842 3.41141 26.3311 2.86739 27.5425C2.32338 28.7539 1.45674 29.902 0.988636 31.1577C0.495224 32.4829 0.438293 33.8398 0.435131 35.2315C0.435131 35.4054 0.16312 35.4054 0.16312 35.2315C0.169445 33.0965 0.438293 31.2336 1.63703 29.4181C2.27277 28.4566 2.61436 27.3401 3.15205 26.3216C3.65495 25.3633 4.39823 24.6896 4.98969 23.8134C5.44514 23.1397 5.41035 22.2478 6.03344 21.7038C6.76407 21.0649 7.96597 20.9131 8.86423 20.7075C11.442 20.1255 14.0767 19.8061 16.7145 19.7048C19.52 19.5973 22.3951 19.4866 25.1974 19.6637C27.4082 19.8029 30.0999 19.9168 32.1336 20.8783C34.0978 21.805 35.6191 23.8514 37.0203 25.4455C37.4125 25.8915 37.8268 26.445 38.3107 26.8024C38.8484 27.1977 39.5221 27.2642 40.1547 27.397C41.1795 27.6152 42.0018 28.0359 42.8526 28.6558C44.4183 29.7945 45.5253 31.2715 46.0598 33.1345C46.4014 34.3237 46.5248 35.5572 46.5342 36.7908C46.5437 37.9294 46.6291 39.3907 46.3128 40.4914C46.1705 40.9911 45.9744 41.1397 45.4557 41.2346C44.1716 41.4687 42.723 41.2125 41.423 41.2093L32.9654 41.3137C30.1505 41.4118 27.2216 41.494 24.413 41.2599C23.2807 41.165 22.2243 41.1619 21.0888 41.1745C20.4309 41.1809 19.773 41.1556 19.1183 41.1176C18.5427 41.0828 17.6982 41.203 17.1542 41.0449C16.7809 40.9373 16.7177 40.8582 16.6133 40.485C16.3255 39.4792 16.5532 38.0812 16.4647 37.0343C16.3856 36.1013 16.2369 35.1619 15.8922 34.2889C15.7056 33.8145 15.4462 33.3021 15.054 32.9637C14.5574 32.5367 13.8584 32.3817 13.3176 33.0775C13.0677 33.397 12.9254 34.0897 12.821 34.485C12.4288 35.9684 12.2991 37.5277 12.3877 39.0554C12.4193 39.5646 12.8463 40.4914 12.3529 40.8772C12.1062 41.0702 11.5242 40.9373 11.2396 40.9405L9.06349 40.9215C7.69712 40.8836 6.32759 40.7412 4.96439 40.7317C4.41088 40.7286 3.8637 40.8646 3.57904 40.3427C3.39243 40.0043 3.53476 39.3211 3.50946 38.932C3.44304 38.0116 3.37029 37.0912 3.23745 36.1772C3.13308 35.4624 2.97809 34.7602 2.80413 34.0612C2.75352 33.8556 2.71557 33.6469 2.64915 33.4444C2.42459 32.7391 1.30176 32.0148 0.922211 32.9637C0.542667 33.9125 0.583786 34.9943 0.523689 35.9526C0.514202 36.0949 0.289639 36.1455 0.258007 35.9874C0.172611 35.5541 0.185257 35.6774 0.17577 35.2315C0.172607 35.0575 0.441452 35.0575 0.447781 35.2315H0.428802Z" fill="#444444" fill-opacity="0.94"/>
<path d="M13.15 38.6316C13.1753 38.1761 13.2607 37.7207 13.3651 37.2779C13.5042 36.6864 13.6402 36.0538 14.1178 35.63C14.3677 35.4086 14.7125 35.2568 15.0446 35.3517C15.1584 35.3801 15.2976 35.4624 15.3102 35.5604C15.3292 35.6585 15.2248 35.7502 15.1521 35.8103C15.0224 35.9147 14.9022 36.0348 14.7979 36.1645C14.1874 36.99 13.9154 38.0623 13.966 39.0807L14.0483 39.805C14.1305 40.6179 14.1874 41.2852 14.6777 41.9811C14.7947 42.1519 14.9339 42.3068 15.0762 42.4555C15.3134 42.6927 15.5601 42.9521 15.0667 43.0786C13.4283 43.4202 13.0709 39.7449 13.15 38.6442V38.6347V38.6316ZM14.1242 42.2721C14.2886 42.5188 14.5195 42.7655 14.8073 42.8129C14.9275 42.8351 15.0635 42.8129 14.9339 42.6674C14.4088 42.1677 14.0135 41.5098 13.8901 40.7918C13.8332 40.4724 13.8142 40.1466 13.7699 39.824C13.7383 39.5773 13.7003 39.3306 13.6814 39.0807C13.6118 38.0559 13.9186 36.9711 14.5037 36.1202C14.6018 35.9811 14.7188 35.8546 14.839 35.7375C15.0129 35.5541 14.7599 35.5825 14.6049 35.6458C13.8015 36.019 13.7161 37.0185 13.5295 37.7808C13.3176 38.7391 13.3872 39.7291 13.5643 40.6843C13.6624 41.2346 13.8047 41.7945 14.1147 42.2657L14.121 42.2721H14.1242Z" fill="#999999"/>
<path d="M13.3905 40.4945C13.5075 41.1935 13.6372 41.8514 14.08 42.4587C14.2983 42.7592 14.6304 43.0248 15.0226 42.9521C15.3768 42.8857 15.1016 42.6421 14.9656 42.5061C14.798 42.3416 14.6525 42.1772 14.5228 41.9779C14.0326 41.2378 13.9915 40.6622 13.9061 39.8208C13.8238 39.2926 13.7637 38.7486 13.846 38.2141C13.944 37.6068 14.1243 37.009 14.4501 36.4365C14.6082 36.1677 14.8075 35.9178 15.051 35.7217C15.3167 35.5288 15.0668 35.4339 14.8296 35.4402C14.4121 35.475 14.0547 35.804 13.8618 36.1582C13.6594 36.5251 13.5708 36.9489 13.4727 37.3506C13.1944 38.388 13.2071 39.4349 13.3873 40.4787V40.4882L13.3905 40.4945Z" fill="#999999"/>
<path d="M40.3856 32.7707C40.1769 31.4392 40.9897 31.7017 42.0525 31.6827C42.8875 31.6701 43.732 31.6827 44.5638 31.727C44.8928 31.746 45.2628 31.7017 45.3988 32.0559C45.674 32.7676 44.9528 33.261 44.3709 33.2547C43.3746 33.2452 42.353 33.1028 41.3598 33.0269C41.1068 33.008 40.5754 33.0744 40.3983 32.8024C40.3034 32.6569 40.5375 32.5209 40.6323 32.6664C40.7399 32.8308 41.6698 32.7866 41.8627 32.7992L42.9223 32.8625C43.3524 32.8941 43.9502 33.0649 44.3709 32.9858C44.8643 32.8941 45.402 32.5272 44.9434 32.1287C44.5195 31.7618 43.2227 31.9547 42.6629 31.9484C41.9702 31.9421 40.4774 31.6289 40.645 32.698C40.6703 32.8688 40.4109 32.9415 40.3825 32.7707H40.3856Z" fill="white"/>
<path d="M14.1874 22.6621C14.2823 23.6047 14.5005 24.5314 14.7061 25.455L14.8453 26.3279L15.0572 27.1598C15.0825 27.261 15.1236 27.3748 15.1995 27.4381C15.2976 27.5267 15.4557 27.5203 15.6012 27.5298L15.9807 27.5551L16.9834 27.5741L18.0556 27.533C18.3814 27.5298 18.7008 27.5868 19.0234 27.5962C19.5611 27.6057 20.1052 27.533 20.646 27.5899C21.0034 27.6215 21.3608 27.6184 21.7182 27.5899C22.2622 27.552 22.8063 27.65 23.3503 27.6469C23.8943 27.6247 24.4352 27.6658 24.976 27.6816C25.5137 27.6816 26.0451 27.5962 26.5828 27.6121C27.6708 27.6437 28.7588 27.6121 29.8437 27.6469C30.4763 27.5741 31.1057 27.6215 31.7383 27.6279C32.8042 27.631 33.8764 27.631 34.9359 27.552C35.3661 27.5425 35.8057 27.5646 36.2359 27.5393C36.4162 27.5298 36.5933 27.4824 36.7704 27.4539C37.2955 27.4191 37.4251 27.1914 37.014 26.7834C36.6755 26.426 36.3055 26.0939 36.024 25.689C35.7393 25.2652 35.3693 24.9046 35.0055 24.5441C34.6608 24.0949 34.3002 23.6458 33.8447 23.301C33.5253 23.0195 33.2628 22.6906 32.9655 22.3901C32.8548 22.2794 32.7188 22.2004 32.5764 22.1339C32.0514 21.8936 31.5169 21.669 30.957 21.5267C30.3529 21.3748 29.7267 21.3116 29.1099 21.2483C28.8727 21.2262 28.6355 21.1787 28.4014 21.1345C28.0472 21.0712 27.6834 21.0617 27.326 21.0111C27.0603 20.9795 26.7947 20.9257 26.5258 20.9067C26.2032 20.8909 25.8806 20.9004 25.558 20.8783C25.365 20.8719 25.1753 20.8308 24.9887 20.796C24.5111 20.7264 24.0271 20.7201 23.5432 20.7138C23.2965 20.7138 23.053 20.6758 22.8063 20.66C22.4773 20.6347 22.1547 20.6569 21.8226 20.6758C21.3324 20.7264 20.8421 20.6474 20.3487 20.6727C19.9059 20.7011 19.4757 20.8024 19.0329 20.7802C18.7025 20.7807 18.3722 20.7955 18.0429 20.8245C17.5084 20.8878 16.9739 20.9289 16.4457 21.0269C15.7467 21.0839 14.6112 21.1566 14.2601 21.8588C14.2222 21.9536 14.2159 22.058 14.2095 22.1592C14.2 22.3269 14.1811 22.4945 14.1905 22.659V22.6685L14.1874 22.6621Z" fill="#444444" fill-opacity="0.94"/>
<path d="M14.3234 22.6621C14.4183 23.4402 14.5796 24.1898 14.7346 24.9552C14.8453 25.4961 14.8516 26.2014 15.0825 26.7043C15.5949 27.8303 17.0372 27.3843 18.0556 27.3938L24.5965 27.5361C26.5227 27.5804 28.4868 27.5361 30.413 27.4697C31.5611 27.4318 32.7124 27.5172 33.8606 27.4761L35.2775 27.416C35.752 27.4033 37.0551 27.688 36.8242 26.7834C36.7673 26.5588 36.1916 26.1128 36.0335 25.9262C35.6666 25.4834 35.287 25.0691 34.9075 24.6389C34.3097 23.9589 33.7119 23.2726 33.0351 22.6621C31.9628 21.6943 30.4636 21.5709 29.1067 21.3812C28.0851 21.2388 27.073 21.0965 26.0451 21.0238C24.1094 20.8878 22.18 20.7011 20.2348 20.8087C18.9096 20.8814 14.2159 20.66 14.3171 22.6558C14.3266 22.8298 14.0546 22.8298 14.0451 22.6558C13.985 21.4539 14.7504 21.0997 15.8353 20.9384C17.8975 20.6284 19.9786 20.5651 22.0567 20.5177C24.16 20.4703 26.3171 20.7233 28.3983 20.9953C30.0872 21.2167 32.1147 21.3211 33.3672 22.621C33.9555 23.2315 34.5406 23.8071 35.1004 24.446C35.4041 24.7939 35.7393 25.1102 36.0335 25.4708C36.3276 25.8314 36.995 26.3912 37.2259 26.8182C37.6782 27.6563 36.6344 27.65 35.9955 27.6848C33.7941 27.7987 31.577 27.767 29.3756 27.7765C27.1742 27.786 24.9254 27.8619 22.7082 27.7576C21.3988 27.6975 20.0862 27.767 18.7799 27.7133C18.1758 27.688 17.5843 27.7006 16.9802 27.7101C16.5374 27.7164 15.7847 27.8145 15.3798 27.65C14.8579 27.4381 14.8263 26.9004 14.7124 26.3627C14.4594 25.1418 14.2 23.902 14.0482 22.6621C14.0261 22.4882 14.2981 22.4913 14.3202 22.6621H14.3234Z" fill="#999999"/>
<path d="M4.95797 25.5657C5.67279 24.3416 6.38127 22.8203 7.61796 22.0549C8.46245 21.5804 9.45244 21.495 10.3981 21.4254C10.6543 21.4033 10.9137 21.4001 11.173 21.4191C11.6412 21.4634 12.4003 21.2578 12.647 21.7765C12.9632 22.5198 13.153 23.3105 13.3017 24.1013C13.482 24.9204 13.5579 25.7586 13.4946 26.5936C13.3934 27.8588 12.3971 27.7164 11.4482 27.5615C10.9453 27.4919 10.4203 27.4887 9.91105 27.4761C8.2284 27.4571 6.54258 27.3306 4.85992 27.3527C4.65433 27.3527 4.4013 27.3464 4.23367 27.2294C3.91105 26.9985 4.24632 26.6664 4.41712 26.4576C4.6227 26.2014 4.78717 25.8598 4.95481 25.572V25.5657H4.95797Z" fill="#444444" fill-opacity="0.94"/>
<path d="M7.45659 27.4128C6.96318 29.4371 6.68485 31.4328 6.77341 33.5203C6.84616 35.2473 7.13082 37.0406 6.74178 38.7486C6.70383 38.9194 6.44131 38.8467 6.47926 38.6759C6.92839 36.699 6.48875 34.5926 6.47926 32.5936C6.46661 30.8034 6.77657 29.0765 7.19724 27.3401C7.23835 27.1693 7.50087 27.242 7.45976 27.4128H7.45659Z" fill="#444444" fill-opacity="0.94"/>
<path d="M7.23203 22.1529C8.41812 21.3622 9.8256 21.2958 11.2109 21.2863C12.1851 21.28 12.571 21.2547 12.9347 22.1529C13.406 23.3137 14.6459 27.3306 12.6912 27.7702C12.3496 27.8461 12.0048 27.7702 11.6664 27.7323C10.6258 27.6216 9.59471 27.6152 8.55096 27.5804L5.74864 27.4919C5.33747 27.4887 4.51828 27.65 4.16403 27.3401C3.65481 26.8941 4.40441 26.252 4.6353 25.8725C5.42286 24.5757 6.03014 23.1903 7.20041 22.1782C7.33325 22.0644 7.52302 22.2541 7.39334 22.3712C6.57416 23.0796 6.01749 23.9906 5.4798 24.9173C5.15402 25.4803 3.9964 26.7138 4.89783 27.2199C5.16351 27.3685 5.92893 27.223 6.21675 27.2294L7.61791 27.2768C8.68696 27.3148 9.76551 27.2989 10.8282 27.3717C11.891 27.4444 13.0201 27.9347 13.3522 26.562C13.5958 25.553 13.2447 24.3416 13.0106 23.3517C12.8651 22.7317 12.7797 22.3142 12.2863 21.8904C11.7929 21.4666 11.4007 21.5298 10.765 21.5456C9.5789 21.5773 8.377 21.7164 7.3712 22.3901C7.22571 22.4882 7.08971 22.2541 7.2352 22.1561L7.23203 22.1529Z" fill="#999999"/>
<path d="M16.8347 40.7982C16.8948 40.8583 16.9834 40.8899 17.0941 40.9057C17.4325 40.9468 17.7615 40.8804 18.0967 40.912C19.1943 40.9974 20.2981 41.0575 21.3988 41.0354C22.0124 41.0132 22.626 40.9531 23.2396 40.9943C25.4346 41.2821 27.6581 41.1998 29.869 41.1872C30.9634 41.1809 32.0577 41.2157 33.1489 41.1714C36.122 41.0101 39.1078 41.0986 42.0841 41.0765C43.2164 41.105 44.355 41.1809 45.4905 41.0986C45.6803 41.0797 45.8764 41.029 46.0092 40.8867C46.1389 40.7507 46.18 40.5261 46.2022 40.3142C46.2148 40.2004 46.2085 40.0549 46.0915 40.0169C46.0504 40.0011 46.0092 39.9948 45.9618 39.9885C45.4715 39.9442 44.9813 39.8714 44.4879 39.8525C44.3044 39.8461 44.1052 39.843 43.9249 39.805C43.4884 39.7164 43.1753 39.3812 42.84 39.1028C42.4067 38.7201 41.9892 38.2678 41.4072 38.135C41.1257 38.0654 40.8284 38.0623 40.5343 38.0275C40.3477 38.0085 40.161 37.9832 39.9744 37.9769C39.636 37.9579 39.2944 38.037 38.956 38.0275C38.4657 38.0211 37.9723 37.9579 37.4789 37.9484C36.3909 37.9136 35.3029 37.9389 34.218 37.9104C32.2791 37.8377 30.3213 37.7365 28.3856 37.9199L27.5443 37.9705C26.8801 38.0211 26.1811 37.9421 25.5359 38.1287C25.1278 38.2457 24.7293 38.4355 24.3687 38.6664C23.6318 39.2104 23.4136 39.5646 22.4078 39.6469C21.2754 39.7386 20.1589 39.9252 19.0235 39.8683C18.7135 39.8556 18.4035 39.8872 18.0967 39.9062C17.7362 39.9284 17.3788 39.8967 17.0182 39.9062C16.9075 39.9125 16.8094 39.9157 16.7493 40.0106C16.7019 40.0928 16.7114 40.2415 16.7114 40.3775C16.7177 40.5198 16.724 40.6843 16.8221 40.7918L16.8284 40.7982H16.8347Z" fill="#DDDDDD"/>
<path d="M16.8157 40.7982C16.8758 40.8583 16.9643 40.8899 17.075 40.9057C17.4135 40.9468 17.7424 40.8804 18.0808 40.912C19.1784 40.9974 20.2854 41.0575 21.3892 41.0354C21.968 41.0132 22.55 40.9595 23.132 40.9879C23.5495 41.0069 23.9638 41.0923 24.3845 41.1208C26.2031 41.241 28.025 41.203 29.8468 41.1872C30.7324 41.1809 31.618 41.2062 32.5036 41.1872C35.3123 41.0417 38.1272 41.0765 40.9359 41.0733C42.3339 41.0322 43.7319 41.184 45.133 41.1113C45.5853 41.1113 46.1736 41.0733 46.1863 40.4914C46.1705 40.4028 46.0914 40.387 46.0155 40.3902C45.2754 40.4186 44.3645 40.4155 43.2448 40.3649C36.3782 39.9758 23.5526 40.4661 22.9896 40.3902L16.9833 40.3174C16.8789 40.3237 16.7999 40.3364 16.7493 40.4155C16.6892 40.5198 16.7334 40.697 16.8157 40.7855L16.822 40.7918L16.8157 40.7982Z" fill="#999999"/>
<path d="M16.8692 40.6685C17.6472 40.9879 18.9219 40.8456 19.7442 40.8804C20.7595 40.9215 21.7653 40.833 22.7775 40.8488C24.9061 40.8804 27.0189 41.0797 29.157 41.0607L41.8497 40.9373C42.8017 40.9468 43.7474 41.0164 44.6994 40.9943C44.8133 40.9943 45.215 41.0385 45.3036 40.9753L45.3858 40.523C45.6072 40.1561 45.5534 39.998 45.2213 40.0454C44.9208 39.8525 44.2851 40.0264 43.9245 39.941C43.4944 39.8366 43.1939 39.5868 42.865 39.3021C41.8687 38.4418 40.9862 38.0939 39.6515 38.1224C35.6093 38.2046 31.5766 37.9199 27.5281 38.1097C26.263 38.1698 25.2635 38.2046 24.1913 38.9827C23.701 39.3401 23.3183 39.6342 22.7079 39.7481C21.7274 39.9284 20.6552 39.998 19.6588 40.0169L18.0901 40.0454C17.837 40.0517 16.3694 40.1403 16.9293 40.7064C17.0526 40.8298 16.8597 41.0227 16.7363 40.8994C16.5814 40.7412 16.5149 40.2826 16.5908 40.0992C16.7838 39.6279 17.2898 39.786 17.7326 39.7829C18.8333 39.7734 19.9403 39.7576 21.0347 39.6532C21.642 39.5963 22.341 39.6026 22.9293 39.4318C23.5176 39.261 23.9477 38.7802 24.4664 38.464C25.1053 38.0749 25.7822 37.9104 26.5223 37.8725C27.778 37.8061 29.04 37.7112 30.2956 37.6922C32.9114 37.6511 35.5808 37.7144 38.1934 37.8535C39.1359 37.9041 40.0816 37.7808 41.0178 37.9389C41.9541 38.0971 42.3557 38.5557 43.0611 39.1155C43.7664 39.6753 44.2218 39.6912 44.9778 39.7544C45.1865 39.7702 45.8159 39.7544 46.0342 39.8778C46.3758 40.0675 46.4422 40.3206 46.2619 40.7286C46.0816 41.1366 45.7274 41.203 45.3099 41.2536C44.1048 41.3991 42.8428 41.222 41.6314 41.2157C38.9683 41.2062 36.2988 41.1745 33.6388 41.2884C30.6752 41.4149 27.6198 41.4782 24.6594 41.2758C23.2456 41.1809 21.8729 41.203 20.4591 41.1777C19.6715 41.1651 18.8871 41.0797 18.0995 41.0544C17.6441 41.0417 17.2266 41.1113 16.7996 40.9373C16.6414 40.8709 16.711 40.6116 16.8723 40.6748L16.8692 40.6685ZM44.769 33.4223C45.7147 32.5146 44.2472 32.29 43.5829 32.2584L41.6536 32.173C40.5308 32.1255 39.4237 32.0971 38.3009 32.1192C35.992 32.1635 33.661 32.29 31.352 32.2014C29.1507 32.116 26.943 32.0243 24.7416 32.1287C23.5713 32.1856 22.4042 32.1983 21.234 32.2426C20.7785 32.2584 20.3231 32.2868 19.8676 32.2837C19.4121 32.2805 18.4253 32.0053 18.0458 32.1825C17.5555 32.0844 17.4986 32.388 17.8781 33.0965C18.1487 33.2441 18.4397 33.3507 18.7416 33.4128C19.1718 33.533 19.6335 33.5868 20.0732 33.6627C21.391 33.8882 22.7188 34.0508 24.0521 34.1498C26.2155 34.3079 28.3853 34.3142 30.5518 34.4945C32.9778 34.6938 35.3373 34.7033 37.7664 34.6463C38.9019 34.6179 40.0279 34.5609 41.157 34.4313C42.2862 34.3016 43.8897 34.077 44.8007 33.3938C44.9398 33.2895 45.0758 33.5235 44.9367 33.6279C44.3737 34.0517 43.4343 34.251 42.7764 34.4313C41.7959 34.7033 40.7332 34.7634 39.7242 34.8361C37.2603 35.0132 34.749 35.0544 32.2851 34.8931L25.137 34.4787C23.0115 34.4091 20.7374 34.2004 18.672 33.6753C18.1723 33.5488 16.5213 32.8751 17.1444 32.0654C17.3879 31.7491 18.1976 31.9168 18.5044 31.9357C19.7284 32.0053 20.9272 31.9547 22.1512 31.9421L36.381 31.8598C39.0221 31.8156 41.6473 31.8851 44.2851 32.018C45.4965 32.0781 46.031 32.5873 44.9683 33.6089C44.8418 33.7291 44.652 33.5393 44.7754 33.416L44.769 33.4223Z" fill="#444444" fill-opacity="0.94"/>
<path d="M44.8638 33.5204C45.1548 33.2926 45.6165 32.6442 45.354 32.3564C45.2465 32.2489 45.0978 32.2172 44.927 32.1919C44.6266 32.1571 44.3546 32.1761 44.0636 32.1508C42.7826 32.0718 41.489 32.0433 40.2048 31.9769C39.7126 31.96 39.22 31.9589 38.7278 31.9737C37.8706 32.0148 37.0135 31.9895 36.1563 32.0053C34.5559 32.0654 32.9523 32.1318 31.3487 32.0718C29.8748 31.9895 28.3883 31.9357 26.9112 31.9737C26.3292 31.9832 25.7504 31.9611 25.1685 31.98C24.2987 32.0085 23.4573 32.1129 22.5939 32.0907C21.683 32.0623 20.772 32.1603 19.8611 32.154C19.2539 32.154 18.6434 32.0749 18.0393 32.0528C17.8653 32.0464 17.6914 32.0401 17.5174 32.0528C17.3972 32.0591 17.2897 32.0844 17.2296 32.1698C17.0936 32.3691 17.198 32.6316 17.3277 32.8055C17.6534 33.2389 18.1848 33.435 18.6972 33.5551C20.4779 33.922 22.227 34.1529 24.0425 34.2984C25.0514 34.3807 26.0667 34.3648 27.0788 34.3933C28.8975 34.4629 30.7067 34.6875 32.5222 34.7823C33.2813 34.8361 34.0593 34.8962 34.8216 34.8772C36.7794 34.7634 38.7341 34.8519 40.6888 34.6242C41.2992 34.5641 41.9128 34.5135 42.5074 34.3775C42.9566 34.27 43.3741 34.0928 43.8042 33.9537C44.1585 33.8366 44.5475 33.7512 44.848 33.5267L44.8543 33.5204H44.8638ZM8.68032 30.4745C8.59492 30.6453 8.53483 30.8572 8.37668 30.9742C8.21854 31.0913 8.00662 31.0691 7.81685 31.0375C7.61126 30.9995 7.3266 30.9869 7.15897 30.8382C6.99134 30.6896 6.96287 30.4176 7.00082 30.212C7.03245 30.0412 7.29498 30.1139 7.26334 30.2847C7.18111 30.718 7.67768 30.7655 7.99081 30.7908C8.28812 30.8129 8.33557 30.5662 8.44627 30.3385C8.52217 30.1835 8.75623 30.3195 8.68032 30.4745ZM4.51795 29.6806C4.43888 29.8324 4.37879 30.0412 4.23962 30.1519C4.07832 30.2816 3.83477 30.2278 3.645 30.1962C3.24648 30.1297 2.74041 29.9779 2.89223 29.4687C2.94283 29.3011 3.20219 29.3738 3.15475 29.5414C3.0567 29.8704 3.59123 29.9242 3.81896 29.9495C4.1226 29.9811 4.16371 29.7723 4.2839 29.5446C4.36614 29.3896 4.60019 29.5288 4.51795 29.6806Z" fill="#444444" fill-opacity="0.94"/>
<path d="M9.90788 21.5868C9.36703 22.3965 8.75026 23.1366 8.38021 24.0443C7.96587 25.0533 7.68437 26.1603 7.45664 27.223C7.42185 27.3875 7.16882 27.3179 7.20361 27.1535C7.43134 26.0844 7.70967 24.9521 8.12717 23.9368C8.50356 23.0259 9.1393 22.2668 9.68331 21.4539C9.7782 21.3148 10.0028 21.4444 9.91104 21.5868H9.90788Z" fill="#999999"/>
<path d="M40.5184 32.7359C40.4456 32.6189 40.5026 32.4197 40.5121 32.271C40.531 32.1413 40.4963 31.9769 40.5943 31.8756C40.6734 31.8029 40.8094 31.8155 40.9138 31.8187C41.3376 31.8377 41.7899 31.8314 42.22 31.8155C42.7166 31.8092 43.2163 31.825 43.7161 31.844L45.0793 31.9041C45.462 31.98 45.2406 32.6664 45.0951 32.8814C44.9496 33.1281 44.6365 33.144 44.3771 33.1218L42.2011 32.9574L40.8632 32.8561C40.7493 32.8466 40.5911 32.8403 40.5247 32.7423V32.7359H40.5184Z" fill="#2553E4"/>
<path d="M40.3856 32.7707C40.1769 31.4392 40.9897 31.7017 42.0525 31.6827C42.8875 31.6701 43.732 31.6827 44.5638 31.727C44.8928 31.746 45.2628 31.7017 45.3988 32.0559C45.674 32.7676 44.9528 33.261 44.3709 33.2547C43.3746 33.2452 42.353 33.1028 41.3598 33.0269C41.1068 33.008 40.5754 33.0744 40.3983 32.8024C40.3034 32.6569 40.5375 32.5209 40.6323 32.6664C40.7399 32.8308 41.6698 32.7866 41.8627 32.7992L42.9223 32.8625C43.3524 32.8941 43.9502 33.0649 44.3709 32.9858C44.8643 32.8941 45.402 32.5272 44.9434 32.1287C44.5195 31.7618 43.2227 31.9547 42.6629 31.9484C41.9702 31.9421 40.4774 31.6289 40.645 32.698C40.6703 32.8688 40.4109 32.9415 40.3825 32.7707H40.3856Z" fill="white"/>
<path d="M25.6466 33.2483C25.7098 33.1788 25.7162 33.0744 25.732 32.9827C25.7763 32.7676 25.7636 32.543 25.7731 32.3216C25.7731 32.2362 25.7952 32.1382 25.7383 32.0686C25.6751 32.0053 25.5833 32.0275 25.4505 32.0275L25.0267 32.0401L24.0019 32.0243L22.4521 31.9484H20.9086L19.849 31.9357L18.9634 31.9484C18.6186 31.9294 18.2707 31.9073 17.9291 31.98C17.2713 32.0876 17.8849 32.5936 18.1727 32.736C18.5712 32.9384 19.0804 32.9415 19.5201 33.0048L21.4621 33.1187C22.7937 33.1756 24.1379 33.4191 25.4695 33.3021C25.5327 33.2989 25.596 33.2926 25.6434 33.2515H25.6466V33.2483Z" fill="#2553E4"/>
<path d="M25.5169 33.2136C25.6402 32.8372 25.7193 32.3659 25.3461 32.1666C25.2607 32.1192 24.7072 32.1825 24.6819 32.1825L23.034 32.1129C21.8289 32.0591 20.6144 32.0844 19.4093 32.0844C19.1879 32.0844 18.8305 32.0117 18.6186 32.0686C18.2296 31.9642 18.1568 32.0749 18.4004 32.4007C18.4099 32.7043 18.5617 32.8308 18.8558 32.7802C19.4599 33.0333 20.3329 32.9352 20.9813 32.9668C21.7404 33.0016 22.4931 33.0649 23.2491 33.125C23.7014 33.1629 25.2259 33.4666 25.558 33.1535C25.6845 33.0333 25.8774 33.2262 25.7509 33.3464C25.4283 33.65 24.5237 33.4729 24.141 33.4571C22.9265 33.4097 21.7087 33.2863 20.4974 33.2136C20.0293 33.1851 17.4863 33.2294 17.5211 32.2331C17.5527 31.3854 20.3645 31.8061 20.9149 31.8092C21.9463 31.8171 22.9776 31.8424 24.0082 31.8851C24.5364 31.9073 25.286 31.746 25.7825 31.9326C25.8237 31.9484 25.8711 31.98 25.8774 32.0275C25.9344 32.4576 25.9186 32.8656 25.7825 33.28C25.7288 33.4444 25.4663 33.3749 25.52 33.2072L25.5169 33.2136Z" fill="white"/>
<path d="M13.1911 38.3817C13.3018 37.5056 13.501 36.0127 14.2759 35.5003C15.3387 34.795 15.9554 36.3448 16.1768 37.1514C16.6101 38.8593 16.4046 40.6716 15.8416 42.3163C15.5158 43.164 14.6302 43.3886 14.0387 42.6326C13.8964 42.4587 13.7857 42.2626 13.694 42.057C13.2638 41.0544 13.0962 39.4792 13.1879 38.3912V38.3817H13.1911ZM13.9596 41.9906C14.1368 42.3575 14.4309 42.8256 14.8579 42.8287C15.2469 42.8287 15.5063 42.4808 15.6265 42.1424C16.142 40.6084 16.2812 38.951 15.9523 37.3633C15.8004 36.7244 15.3165 35.1113 14.4151 35.7217C14.0703 35.9653 13.8964 36.3954 13.7794 36.7908C13.4314 37.9895 13.365 39.2199 13.5548 40.4502C13.6339 40.9658 13.7319 41.5066 13.9565 41.9811V41.9906H13.9596ZM15.2027 39.5678C15.0856 40.0264 14.6903 39.5773 14.5732 39.3622C14.4404 39.1123 14.4467 38.7802 14.5511 38.5177C14.744 38.1255 15.2375 38.1413 15.2754 38.6253C15.307 38.9194 15.2596 39.2737 15.2058 39.5583V39.5678H15.2027ZM2.80413 39.7481C2.68711 40.2067 2.29175 39.7576 2.17472 39.5425C2.04188 39.2926 2.0482 38.9605 2.15258 38.698C2.34552 38.3058 2.83893 38.3216 2.87688 38.8055C2.90851 39.0997 2.86107 39.4539 2.8073 39.7386V39.7481H2.80413ZM39.2406 32.7201C35.2712 32.4703 31.2448 32.7929 27.2691 32.7043C27.0951 32.7012 27.0951 32.4292 27.2691 32.4323C31.2448 32.5209 35.2712 32.1951 39.2406 32.4481C39.4146 32.4576 39.4146 32.7296 39.2406 32.7201ZM38.6998 33.4982C35.1637 33.4761 31.6149 33.3843 28.0819 33.5235C27.908 33.5298 27.908 33.261 28.0819 33.2515C31.6149 33.1155 35.1637 33.2041 38.6998 33.2262C38.8737 33.2262 38.8737 33.4982 38.6998 33.4982ZM37.5928 34.3332C36.3023 34.2383 35.0118 34.3459 33.7182 34.3206C32.3234 34.2953 30.9286 34.2352 29.5337 34.2889C29.3598 34.2953 29.3598 34.0264 29.5337 34.0169C30.9286 33.9632 32.3234 34.0201 33.7182 34.0486C35.0118 34.0739 36.3023 33.9663 37.5928 34.0612C37.7667 34.0739 37.7667 34.3459 37.5928 34.3332Z" fill="#999999"/>
<path d="M13.3081 40.6558C13.2385 40.8994 13.6085 42.1234 13.8173 42.2721C13.8995 42.3258 13.9976 42.2974 14.1083 42.2721L14.4625 42.1898C14.57 42.1645 14.6902 42.1424 14.7124 42.0886C14.7345 42.0443 14.6966 41.9779 14.6649 41.9305C14.4309 41.5794 14.2569 41.1872 14.1779 40.7792C14.1525 40.6811 14.1557 40.5578 14.0861 40.4819C13.9596 40.3395 13.3682 40.4914 13.3049 40.6495V40.6558H13.3081Z" fill="#F5F5F5"/>
<path d="M37.0232 30.4049C36.9947 30.4017 37.0548 30.4523 37.0612 30.4618C37.0896 30.484 37.0612 30.5061 37.0991 30.5188C37.1339 30.5314 37.1719 30.4998 37.1529 30.465C37.1308 30.4239 37.0707 30.4112 37.0327 30.4049H37.0264H37.0232ZM18.5962 15.9916C18.6152 16.0011 18.6626 16.0327 18.6848 16.0296C18.6974 16.0232 18.6974 15.9948 18.6911 15.979C18.6753 15.9378 18.5804 15.9315 18.5931 15.9853V15.9916H18.5962ZM15.8572 21.1028C15.8382 21.144 15.9331 21.2388 15.9805 21.2831C18.0585 23.2568 19.9246 25.4486 21.854 27.5425C21.9963 27.6089 22.164 27.5868 22.3158 27.5994C22.7744 27.6184 23.2362 27.6848 23.6948 27.65C23.8213 27.631 23.8118 27.5615 23.7359 27.4539C22.145 25.3474 20.3105 23.4244 18.34 21.6627L17.6568 21.0206C17.486 20.8498 17.2457 20.8846 17.0274 20.9131C16.7681 20.9384 16.5087 21.0079 16.2494 21.0238C16.1481 21.0333 16.0343 21.0332 15.9362 21.0522C15.8951 21.0617 15.8666 21.0775 15.8572 21.0997V21.1028Z" fill="#999999"/>
<path d="M8.34241 27.5014C8.63656 27.7544 9.14262 27.6817 9.52533 27.7006C10.0093 27.7354 10.4932 27.6943 10.9771 27.6753C11.2776 27.6722 11.6603 27.7386 11.8785 27.5109C12.0525 27.3148 12.0588 26.9257 12.0556 26.66C12.0525 26.4292 12.0272 26.1951 11.8943 26.0022C11.6603 25.6574 11.2175 25.4455 10.8095 25.4202C10.5122 25.4012 10.2148 25.4581 9.92069 25.5024C9.47473 25.5847 8.9908 25.6321 8.62074 25.9168C8.44362 26.0718 8.36139 26.3121 8.27916 26.543C8.17162 26.8435 8.07041 27.2483 8.33293 27.4951L8.33925 27.5014H8.34241Z" fill="#DDDDDD"/>
<path d="M8.30736 26.5304C8.3295 26.5557 8.37062 26.5588 8.42755 26.5493C8.51927 26.5335 8.61732 26.5082 8.70904 26.4861C9.74964 26.2394 10.9041 26.0211 11.9194 26.4545C12.1281 26.5493 12.0649 26.3153 12.0143 26.173C11.8751 25.8124 11.5209 25.5752 11.1634 25.4645C10.7554 25.338 10.3379 25.4265 9.91727 25.4898C9.4713 25.572 8.96208 25.6289 8.59519 25.9168C8.46551 26.0338 8.38327 26.1951 8.32001 26.3691C8.30103 26.4197 8.27889 26.4861 8.3042 26.5304H8.30736Z" fill="white"/>
<path d="M8.46565 26.4291C8.28221 26.9194 8.11141 27.3306 8.91478 27.552C9.15833 27.6184 9.50308 27.5678 9.75611 27.571C10.2622 27.5804 10.9011 27.65 11.385 27.5393C12.2706 27.3401 11.9765 26.1034 11.4324 25.746C11.1762 25.5783 10.8505 25.5467 10.5532 25.553C9.86997 25.5625 8.73134 25.708 8.45933 26.426C8.39923 26.5873 8.13671 26.5177 8.19681 26.3532C8.55105 25.4202 9.85732 25.2336 10.7524 25.2779C11.7899 25.3316 12.4319 26.2141 12.1409 27.2325C12.046 27.5615 11.8879 27.7228 11.5495 27.7892C10.8979 27.9189 10.1167 27.8366 9.45564 27.8271C9.02548 27.8208 8.41189 27.8872 8.13988 27.4634C7.92164 27.1281 8.07346 26.6885 8.19997 26.3501C8.26007 26.1888 8.52258 26.2584 8.46249 26.4228L8.46565 26.4291Z" fill="#444444" fill-opacity="0.94"/>
<path d="M0.618578 39.3496C0.691325 40.5261 0.802023 41.8862 1.59907 42.8034C1.81731 43.028 2.13676 43.1577 2.4404 43.047C2.56692 42.9964 2.74088 42.9078 2.76302 42.8003C2.77883 42.7402 2.70292 42.6706 2.64283 42.6263C2.50366 42.5188 2.38031 42.3891 2.2791 42.2468C1.72875 41.4086 1.47888 40.3364 1.50102 39.3274C1.59907 38.309 1.64968 37.2273 2.08616 36.2784C2.20002 36.0538 2.34551 35.8609 2.52263 35.6743C2.5764 35.6173 2.67762 35.5256 2.64283 35.4529C2.52264 35.3011 2.17156 35.3643 2.00076 35.4529C0.719789 36.1361 0.590111 38.0496 0.62174 39.3369V39.3464L0.618578 39.3496Z" fill="#999999"/>
<path d="M0.621755 40.4692C0.586963 40.523 0.59329 40.5926 0.602778 40.6558L0.719804 41.2505C0.824179 41.6521 0.938042 42.057 1.14363 42.4271C1.21005 42.5378 1.32391 42.5156 1.41564 42.4492C1.60857 42.3227 1.83631 42.2215 2.03241 42.0918C2.1178 42.0285 2.10199 41.9242 2.0577 41.8356L1.9217 41.5193C1.80468 41.2157 1.70979 40.8962 1.63704 40.5673C1.6149 40.4155 1.51369 40.3206 1.35871 40.3301C1.1721 40.3301 0.982322 40.3554 0.802037 40.387C0.741942 40.3965 0.669198 40.4155 0.631243 40.4661V40.4724L0.621755 40.4692Z" fill="#F5F5F5"/>
<path d="M18.2136 43.2652L17.5336 42.7908L18.2105 43.262L18.2136 43.2652ZM12.8209 39.2072C12.8683 39.2072 12.8494 39.1819 12.8209 39.2072V39.2072ZM3.58842 38.173C3.50935 38.2678 3.5568 38.4165 3.55363 38.5335C3.56628 38.7739 3.56944 38.9858 3.83829 38.9985L11.1509 39.4666C11.5969 39.4761 12.1314 39.5045 12.5837 39.4286C12.6975 39.4065 12.7798 39.3654 12.7988 39.2989C12.8367 39.1313 12.201 39.008 12.0713 38.989C10.5911 38.7676 8.6617 38.6664 7.16881 38.524L3.82564 38.1413C3.74657 38.1318 3.63903 38.1255 3.58842 38.1698H3.58526L3.58842 38.173Z" fill="#444444" fill-opacity="0.94"/>
<path d="M10.7051 42.9837C10.6481 42.9078 10.5722 42.8319 10.4932 42.7718L10.7051 42.9837Z" fill="white"/>
<path d="M10.588 43.0501C10.588 43.0501 10.5816 43.0407 10.5785 43.0375C10.5722 43.0312 10.5658 43.0217 10.5595 43.0153C10.5437 42.9964 10.5247 42.9774 10.5089 42.9616C10.4741 42.9268 10.4393 42.8952 10.4014 42.8667C10.3444 42.8224 10.3508 42.7212 10.4014 42.6738C10.4615 42.62 10.5342 42.6263 10.5943 42.6738C10.6824 42.7434 10.7611 42.8242 10.8283 42.9141C10.8726 42.9711 10.8378 43.0691 10.7809 43.1007C10.7082 43.1387 10.6417 43.1134 10.5943 43.0533L10.588 43.0501ZM17.4261 36.8572C17.287 35.7312 17.2395 34.6622 16.7524 33.6216C16.3065 32.6664 15.2659 31.5246 14.064 31.8472C12.1821 32.3532 12.1156 36.3891 12.0935 37.8124C12.0935 37.98 11.8278 37.9832 11.831 37.8124C11.8595 36.1803 11.9195 31.5625 14.4056 31.5246C17.0845 31.4866 17.4609 34.9848 17.695 36.8572C17.7171 37.0248 17.4514 37.0248 17.4325 36.8572H17.4261Z" fill="white"/>
<path d="M21.8162 37.047C21.794 37.6226 22.4013 38.0022 22.9169 37.7523C23.5147 37.4835 23.5558 36.5377 22.9264 36.2816C22.3887 36.038 21.8257 36.4777 21.8162 37.0375V37.047ZM43.7919 36.7813C43.8109 37.572 44.7693 37.8662 45.2184 37.2051C45.4683 36.8477 45.4018 36.3195 45.0349 36.0602C44.4593 35.6173 43.7382 36.0728 43.7888 36.7718V36.7813H43.7919Z" fill="#DDDDDD"/>
<path d="M2.4465 33.9853C1.85504 33.7671 1.27307 34.2004 0.966267 34.6748C0.694256 35.0986 0.583557 35.5984 0.517136 36.0918C0.494995 36.2562 0.232475 36.2594 0.254616 36.0918C0.340015 35.4434 0.494999 34.8013 0.925152 34.2889C1.29837 33.843 1.93411 33.5172 2.51608 33.7323C2.67423 33.7892 2.60464 34.0454 2.4465 33.9853ZM25.1908 20.8656L33.0981 27.6026C33.3163 27.6627 33.5535 27.6216 33.7812 27.631C34.0754 27.631 34.3822 27.6089 34.6669 27.5868C34.7554 27.5741 34.8819 27.5931 34.942 27.5362C34.9547 27.5109 34.9199 27.4697 34.8598 27.4223L26.7438 21.0364C26.573 20.8909 26.3516 20.872 26.1365 20.8814L25.311 20.8498C25.2889 20.8498 25.2667 20.8466 25.2478 20.8466C25.213 20.8466 25.194 20.8498 25.1877 20.8593L25.1908 20.8656ZM21.8382 37.2431C21.7907 37.3791 21.9267 37.5214 22.0153 37.6131C22.2683 37.8598 22.6827 37.8946 22.9926 37.727C23.1286 37.6511 23.388 37.4645 23.1697 37.3285C22.9262 37.1482 22.0374 37.0027 21.8413 37.2367V37.2431H21.8382ZM43.7696 36.7781C43.7791 37.4487 44.554 37.8187 45.0759 37.3854C45.2088 37.281 45.3258 37.1324 45.1708 36.99C44.8672 36.6927 44.4212 36.5251 43.9911 36.5567C43.8645 36.5599 43.7602 36.6295 43.7696 36.7718V36.7813V36.7781Z" fill="#999999"/>
</svg>
